<?xml version="1.0" encoding="UTF-8" standalone="no"?>
<!DOCTYPE svg PUBLIC "-//W3C//DTD SVG 1.1//EN"
 "http://www.w3.org/Graphics/SVG/1.1/DTD/svg11.dtd">
<!-- Generated by graphviz version 2.40.1 (20161225.0304)
 -->
<!-- Title: G Pages: 1 -->
<svg width="381pt" height="404pt"
 viewBox="0.00 0.00 380.50 404.00" xmlns="http://www.w3.org/2000/svg" xmlns:xlink="http://www.w3.org/1999/xlink">
<g id="graph0" class="graph" transform="scale(1 1) rotate(0) translate(4 400)">
<title>G</title>
<polygon fill="#ffffff" stroke="transparent" points="-4,4 -4,-400 376.504,-400 376.504,4 -4,4"/>
<!-- A0 -->
<g id="node1" class="node">
<title>A0</title>
<polygon fill="#fff8dc" stroke="#000000" points="92.012,-372 -.004,-372 -.004,-336 98.012,-336 98.012,-366 92.012,-372"/>
<polyline fill="none" stroke="#000000" points="92.012,-372 92.012,-366 "/>
<polyline fill="none" stroke="#000000" points="98.012,-366 92.012,-366 "/>
<text text-anchor="middle" x="49.004" y="-357" font-family="Helvetica,sans-Serif" font-size="10.00" fill="#000000">Sample Factory</text>
<text text-anchor="middle" x="49.004" y="-345" font-family="Helvetica,sans-Serif" font-size="10.00" fill="#000000">Pattern</text>
</g>
<!-- A1 -->
<g id="node2" class="node">
<title>A1</title>
<polygon fill="#ff0000" stroke="transparent" points="116.504,-312 116.504,-396 199.504,-396 199.504,-312 116.504,-312"/>
<polygon fill="none" stroke="#000000" points="117.004,-364 117.004,-396 200.004,-396 200.004,-364 117.004,-364"/>
<text text-anchor="start" x="137.3975" y="-377" font-family="Helvetica,sans-Serif" font-size="10.00" fill="#000000">CallClass</text>
<polygon fill="none" stroke="#000000" points="117.004,-344 117.004,-364 200.004,-364 200.004,-344 117.004,-344"/>
<polygon fill="none" stroke="#000000" points="117.004,-312 117.004,-344 200.004,-344 200.004,-312 117.004,-312"/>
<text text-anchor="start" x="126.696" y="-325" font-family="Helvetica,sans-Serif" font-size="10.00" fill="#000000">+ main() : void</text>
</g>
<!-- A2 -->
<g id="node3" class="node">
<title>A2</title>
<polygon fill="none" stroke="#000000" points="59.004,-224 59.004,-256 258.004,-256 258.004,-224 59.004,-224"/>
<text text-anchor="start" x="141.8365" y="-237" font-family="Helvetica,sans-Serif" font-size="10.00" fill="#000000">Factory</text>
<polygon fill="none" stroke="#000000" points="59.004,-204 59.004,-224 258.004,-224 258.004,-204 59.004,-204"/>
<polygon fill="none" stroke="#000000" points="59.004,-172 59.004,-204 258.004,-204 258.004,-172 59.004,-172"/>
<text text-anchor="start" x="68.8955" y="-185" font-family="Helvetica,sans-Serif" font-size="10.00" fill="#000000">+getProduct(ProductType: type):Product</text>
</g>
<!-- A1&#45;&gt;A2 -->
<g id="edge6" class="edge">
<title>A1&#45;&gt;A2</title>
<path fill="none" stroke="#000000" d="M158.004,-311.9954C158.004,-297.7293 158.004,-281.6057 158.004,-266.6173"/>
<polygon fill="#000000" stroke="#000000" points="158.004,-256.4588 162.5041,-266.4588 158.004,-261.4588 158.0041,-266.4588 158.0041,-266.4588 158.0041,-266.4588 158.004,-261.4588 153.5041,-266.4589 158.004,-256.4588 158.004,-256.4588"/>
<text text-anchor="middle" x="149.5516" y="-290.8692" font-family="Helvetica,sans-Serif" font-size="10.00" fill="#000000">call</text>
</g>
<!-- A3 -->
<g id="node4" class="node">
<title>A3</title>
<polygon fill="none" stroke="#000000" points=".004,-58 .004,-102 142.004,-102 142.004,-58 .004,-58"/>
<text text-anchor="start" x="46.823" y="-83" font-family="Helvetica,sans-Serif" font-size="10.00" fill="#000000">&lt;&lt;enum&gt;&gt;</text>
<text text-anchor="start" x="42.6635" y="-71" font-family="Helvetica,sans-Serif" font-size="10.00" fill="#000000">ProductType</text>
<polygon fill="none" stroke="#000000" points=".004,-14 .004,-58 142.004,-58 142.004,-14 .004,-14"/>
<text text-anchor="start" x="9.758" y="-39" font-family="Helvetica,sans-Serif" font-size="10.00" fill="#000000">+CC_ENUM_PRODUCT_A</text>
<text text-anchor="start" x="9.758" y="-27" font-family="Helvetica,sans-Serif" font-size="10.00" fill="#000000">+CC_ENUM_PRODUCT_B</text>
</g>
<!-- A2&#45;&gt;A3 -->
<g id="edge3" class="edge">
<title>A2&#45;&gt;A3</title>
<path fill="none" stroke="#000000" stroke-dasharray="5,2" d="M134.4605,-171.7842C124.0307,-153.0823 111.6467,-130.8765 100.5996,-111.068"/>
<polygon fill="#000000" stroke="#000000" points="95.6298,-102.1567 104.4307,-108.6985 98.0652,-106.5235 100.5006,-110.8903 100.5006,-110.8903 100.5006,-110.8903 98.0652,-106.5235 96.5704,-113.0822 95.6298,-102.1567 95.6298,-102.1567"/>
</g>
<!-- A5 -->
<g id="node6" class="node">
<title>A5</title>
<polygon fill="none" stroke="#000000" points="276.004,-84 276.004,-116 373.004,-116 373.004,-84 276.004,-84"/>
<text text-anchor="start" x="303.9425" y="-97" font-family="Helvetica,sans-Serif" font-size="10.00" fill="#000000">ProductA</text>
<polygon fill="none" stroke="#000000" points="276.004,-52 276.004,-84 373.004,-84 373.004,-52 276.004,-52"/>
<text text-anchor="start" x="300.8875" y="-65" font-family="Helvetica,sans-Serif" font-size="10.00" fill="#000000">type: class</text>
<polygon fill="none" stroke="#000000" points="276.004,-32 276.004,-52 373.004,-52 373.004,-32 276.004,-32"/>
<polygon fill="none" stroke="#000000" points="276.004,0 276.004,-32 373.004,-32 373.004,0 276.004,0"/>
<text text-anchor="start" x="285.747" y="-13" font-family="Helvetica,sans-Serif" font-size="10.00" fill="#000000">+produce():String</text>
</g>
<!-- A2&#45;&gt;A5 -->
<g id="edge4" class="edge">
<title>A2&#45;&gt;A5</title>
<path fill="none" stroke="#000000" stroke-dasharray="5,2" d="M205.5068,-171.799C224.5098,-154.6835 246.4805,-134.5987 266.004,-116 266.6806,-115.3554 267.3607,-114.7058 268.0436,-114.0517"/>
<polygon fill="#000000" stroke="#000000" points="275.439,-106.9076 271.3733,-117.0919 271.8429,-110.3815 268.2468,-113.8554 268.2468,-113.8554 268.2468,-113.8554 271.8429,-110.3815 265.1202,-110.6189 275.439,-106.9076 275.439,-106.9076"/>
</g>
<!-- A6 -->
<g id="node7" class="node">
<title>A6</title>
<polygon fill="none" stroke="#000000" points="161.004,-84 161.004,-116 258.004,-116 258.004,-84 161.004,-84"/>
<text text-anchor="start" x="188.9425" y="-97" font-family="Helvetica,sans-Serif" font-size="10.00" fill="#000000">ProductB</text>
<polygon fill="none" stroke="#000000" points="161.004,-52 161.004,-84 258.004,-84 258.004,-52 161.004,-52"/>
<text text-anchor="start" x="185.8875" y="-65" font-family="Helvetica,sans-Serif" font-size="10.00" fill="#000000">type: class</text>
<polygon fill="none" stroke="#000000" points="161.004,-32 161.004,-52 258.004,-52 258.004,-32 161.004,-32"/>
<polygon fill="none" stroke="#000000" points="161.004,0 161.004,-32 258.004,-32 258.004,0 161.004,0"/>
<text text-anchor="start" x="170.747" y="-13" font-family="Helvetica,sans-Serif" font-size="10.00" fill="#000000">+produce():String</text>
</g>
<!-- A2&#45;&gt;A6 -->
<g id="edge5" class="edge">
<title>A2&#45;&gt;A6</title>
<path fill="none" stroke="#000000" stroke-dasharray="5,2" d="M171.8053,-171.7842C176.4469,-157.5863 181.7488,-141.369 186.8667,-125.7142"/>
<polygon fill="#000000" stroke="#000000" points="190.022,-116.0627 191.1918,-126.966 188.4682,-120.8151 186.9145,-125.5676 186.9145,-125.5676 186.9145,-125.5676 188.4682,-120.8151 182.6373,-124.1693 190.022,-116.0627 190.022,-116.0627"/>
</g>
<!-- A4 -->
<g id="node5" class="node">
<title>A4</title>
<polygon fill="none" stroke="#000000" points="276.004,-218 276.004,-262 373.004,-262 373.004,-218 276.004,-218"/>
<text text-anchor="start" x="293.655" y="-243" font-family="Helvetica,sans-Serif" font-size="10.00" fill="#000000">&lt;&lt;interface&gt;&gt;</text>
<text text-anchor="start" x="307.277" y="-231" font-family="Helvetica,sans-Serif" font-size="10.00" fill="#000000">Product</text>
<polygon fill="none" stroke="#000000" points="276.004,-198 276.004,-218 373.004,-218 373.004,-198 276.004,-198"/>
<polygon fill="none" stroke="#000000" points="276.004,-166 276.004,-198 373.004,-198 373.004,-166 276.004,-166"/>
<text text-anchor="start" x="285.747" y="-179" font-family="Helvetica,sans-Serif" font-size="10.00" fill="#000000">+produce():String</text>
</g>
<!-- A4&#45;&gt;A5 -->
<g id="edge1" class="edge">
<title>A4&#45;&gt;A5</title>
<path fill="none" stroke="#000000" stroke-dasharray="5,2" d="M324.004,-155.7247C324.004,-142.7646 324.004,-129.0269 324.004,-116.0748"/>
<polygon fill="none" stroke="#000000" points="320.5041,-155.9219 324.004,-165.9219 327.5041,-155.922 320.5041,-155.9219"/>
</g>
<!-- A4&#45;&gt;A6 -->
<g id="edge2" class="edge">
<title>A4&#45;&gt;A6</title>
<path fill="none" stroke="#000000" stroke-dasharray="5,2" d="M282.4592,-157.6436C272.4948,-144.1267 261.8362,-129.6681 251.8155,-116.0748"/>
<polygon fill="none" stroke="#000000" points="279.8108,-159.9495 288.5618,-165.9219 285.4453,-155.7958 279.8108,-159.9495"/>
</g>
</g>
</svg>
