<?xml version="1.0" encoding="UTF-8" standalone="no"?>
<!DOCTYPE svg PUBLIC "-//W3C//DTD SVG 1.1//EN"
 "http://www.w3.org/Graphics/SVG/1.1/DTD/svg11.dtd">
<!-- Generated by graphviz version 2.40.1 (20161225.0304)
 -->
<!-- Title: G Pages: 1 -->
<svg width="381pt" height="376pt"
 viewBox="0.00 0.00 380.50 376.00" xmlns="http://www.w3.org/2000/svg" xmlns:xlink="http://www.w3.org/1999/xlink">
<g id="graph0" class="graph" transform="scale(1 1) rotate(0) translate(4 372)">
<title>G</title>
<polygon fill="#ffffff" stroke="transparent" points="-4,4 -4,-372 376.504,-372 376.504,4 -4,4"/>
<!-- A0 -->
<g id="node1" class="node">
<title>A0</title>
<polygon fill="#fff8dc" stroke="#000000" points="92.012,-344 -.004,-344 -.004,-308 98.012,-308 98.012,-338 92.012,-344"/>
<polyline fill="none" stroke="#000000" points="92.012,-344 92.012,-338 "/>
<polyline fill="none" stroke="#000000" points="98.012,-338 92.012,-338 "/>
<text text-anchor="middle" x="49.004" y="-329" font-family="Helvetica,sans-Serif" font-size="10.00" fill="#000000">Sample Factory</text>
<text text-anchor="middle" x="49.004" y="-317" font-family="Helvetica,sans-Serif" font-size="10.00" fill="#000000">Pattern</text>
</g>
<!-- A1 -->
<g id="node2" class="node">
<title>A1</title>
<polygon fill="#ff0000" stroke="transparent" points="116.504,-284 116.504,-368 199.504,-368 199.504,-284 116.504,-284"/>
<polygon fill="none" stroke="#000000" points="117.004,-336 117.004,-368 200.004,-368 200.004,-336 117.004,-336"/>
<text text-anchor="start" x="137.3975" y="-349" font-family="Helvetica,sans-Serif" font-size="10.00" fill="#000000">CallClass</text>
<polygon fill="none" stroke="#000000" points="117.004,-316 117.004,-336 200.004,-336 200.004,-316 117.004,-316"/>
<polygon fill="none" stroke="#000000" points="117.004,-284 117.004,-316 200.004,-316 200.004,-284 117.004,-284"/>
<text text-anchor="start" x="126.696" y="-297" font-family="Helvetica,sans-Serif" font-size="10.00" fill="#000000">+ main() : void</text>
</g>
<!-- A2 -->
<g id="node3" class="node">
<title>A2</title>
<polygon fill="none" stroke="#000000" points="59.004,-196 59.004,-228 258.004,-228 258.004,-196 59.004,-196"/>
<text text-anchor="start" x="141.8365" y="-209" font-family="Helvetica,sans-Serif" font-size="10.00" fill="#000000">Factory</text>
<polygon fill="none" stroke="#000000" points="59.004,-176 59.004,-196 258.004,-196 258.004,-176 59.004,-176"/>
<polygon fill="none" stroke="#000000" points="59.004,-144 59.004,-176 258.004,-176 258.004,-144 59.004,-144"/>
<text text-anchor="start" x="68.8955" y="-157" font-family="Helvetica,sans-Serif" font-size="10.00" fill="#000000">+getProduct(ProductType: type):Product</text>
</g>
<!-- A1&#45;&gt;A2 -->
<g id="edge6" class="edge">
<title>A1&#45;&gt;A2</title>
<path fill="none" stroke="#000000" d="M158.004,-283.9954C158.004,-269.7293 158.004,-253.6057 158.004,-238.6173"/>
<polygon fill="#000000" stroke="#000000" points="158.004,-228.4588 162.5041,-238.4588 158.004,-233.4588 158.0041,-238.4588 158.0041,-238.4588 158.0041,-238.4588 158.004,-233.4588 153.5041,-238.4589 158.004,-228.4588 158.004,-228.4588"/>
<text text-anchor="middle" x="149.5516" y="-262.8692" font-family="Helvetica,sans-Serif" font-size="10.00" fill="#000000">call</text>
</g>
<!-- A3 -->
<g id="node4" class="node">
<title>A3</title>
<polygon fill="none" stroke="#000000" points=".004,-44 .004,-88 142.004,-88 142.004,-44 .004,-44"/>
<text text-anchor="start" x="46.823" y="-69" font-family="Helvetica,sans-Serif" font-size="10.00" fill="#000000">&lt;&lt;enum&gt;&gt;</text>
<text text-anchor="start" x="42.6635" y="-57" font-family="Helvetica,sans-Serif" font-size="10.00" fill="#000000">ProductType</text>
<polygon fill="none" stroke="#000000" points=".004,0 .004,-44 142.004,-44 142.004,0 .004,0"/>
<text text-anchor="start" x="9.758" y="-25" font-family="Helvetica,sans-Serif" font-size="10.00" fill="#000000">+CC_ENUM_PRODUCT_A</text>
<text text-anchor="start" x="9.758" y="-13" font-family="Helvetica,sans-Serif" font-size="10.00" fill="#000000">+CC_ENUM_PRODUCT_B</text>
</g>
<!-- A2&#45;&gt;A3 -->
<g id="edge3" class="edge">
<title>A2&#45;&gt;A3</title>
<path fill="none" stroke="#000000" stroke-dasharray="5,2" d="M132.1367,-143.7798C123.1763,-129.1549 113.0145,-112.5689 103.5846,-97.1775"/>
<polygon fill="#000000" stroke="#000000" points="98.1316,-88.2773 107.193,-94.4532 100.7437,-92.5407 103.3559,-96.8041 103.3559,-96.8041 103.3559,-96.8041 100.7437,-92.5407 99.5188,-99.1551 98.1316,-88.2773 98.1316,-88.2773"/>
</g>
<!-- A5 -->
<g id="node6" class="node">
<title>A5</title>
<polygon fill="none" stroke="#000000" points="276.004,-54 276.004,-86 373.004,-86 373.004,-54 276.004,-54"/>
<text text-anchor="start" x="303.9425" y="-67" font-family="Helvetica,sans-Serif" font-size="10.00" fill="#000000">ProductA</text>
<polygon fill="none" stroke="#000000" points="276.004,-34 276.004,-54 373.004,-54 373.004,-34 276.004,-34"/>
<polygon fill="none" stroke="#000000" points="276.004,-2 276.004,-34 373.004,-34 373.004,-2 276.004,-2"/>
<text text-anchor="start" x="285.747" y="-15" font-family="Helvetica,sans-Serif" font-size="10.00" fill="#000000">+produce():String</text>
</g>
<!-- A2&#45;&gt;A5 -->
<g id="edge4" class="edge">
<title>A2&#45;&gt;A5</title>
<path fill="none" stroke="#000000" stroke-dasharray="5,2" d="M207.36,-143.7798C226.3435,-127.5409 248.1535,-108.8842 267.7397,-92.1297"/>
<polygon fill="#000000" stroke="#000000" points="275.4101,-85.5683 270.7363,-95.4882 271.6106,-88.8185 267.8111,-92.0687 267.8111,-92.0687 267.8111,-92.0687 271.6106,-88.8185 264.8859,-88.6491 275.4101,-85.5683 275.4101,-85.5683"/>
</g>
<!-- A6 -->
<g id="node7" class="node">
<title>A6</title>
<polygon fill="none" stroke="#000000" points="161.004,-54 161.004,-86 258.004,-86 258.004,-54 161.004,-54"/>
<text text-anchor="start" x="188.9425" y="-67" font-family="Helvetica,sans-Serif" font-size="10.00" fill="#000000">ProductB</text>
<polygon fill="none" stroke="#000000" points="161.004,-34 161.004,-54 258.004,-54 258.004,-34 161.004,-34"/>
<polygon fill="none" stroke="#000000" points="161.004,-2 161.004,-34 258.004,-34 258.004,-2 161.004,-2"/>
<text text-anchor="start" x="170.747" y="-15" font-family="Helvetica,sans-Serif" font-size="10.00" fill="#000000">+produce():String</text>
</g>
<!-- A2&#45;&gt;A6 -->
<g id="edge5" class="edge">
<title>A2&#45;&gt;A6</title>
<path fill="none" stroke="#000000" stroke-dasharray="5,2" d="M173.1676,-143.7798C178.5656,-128.7499 184.7076,-111.6489 190.3632,-95.9019"/>
<polygon fill="#000000" stroke="#000000" points="193.8108,-86.3027 194.6657,-97.2353 192.1207,-91.0084 190.4305,-95.7142 190.4305,-95.7142 190.4305,-95.7142 192.1207,-91.0084 186.1954,-94.1931 193.8108,-86.3027 193.8108,-86.3027"/>
</g>
<!-- A4 -->
<g id="node5" class="node">
<title>A4</title>
<polygon fill="none" stroke="#000000" points="276.004,-190 276.004,-234 373.004,-234 373.004,-190 276.004,-190"/>
<text text-anchor="start" x="293.655" y="-215" font-family="Helvetica,sans-Serif" font-size="10.00" fill="#000000">&lt;&lt;interface&gt;&gt;</text>
<text text-anchor="start" x="307.277" y="-203" font-family="Helvetica,sans-Serif" font-size="10.00" fill="#000000">Product</text>
<polygon fill="none" stroke="#000000" points="276.004,-170 276.004,-190 373.004,-190 373.004,-170 276.004,-170"/>
<polygon fill="none" stroke="#000000" points="276.004,-138 276.004,-170 373.004,-170 373.004,-138 276.004,-138"/>
<text text-anchor="start" x="285.747" y="-151" font-family="Helvetica,sans-Serif" font-size="10.00" fill="#000000">+produce():String</text>
</g>
<!-- A4&#45;&gt;A5 -->
<g id="edge1" class="edge">
<title>A4&#45;&gt;A5</title>
<path fill="none" stroke="#000000" stroke-dasharray="5,2" d="M324.004,-127.5275C324.004,-113.7167 324.004,-99.2529 324.004,-86.3162"/>
<polygon fill="none" stroke="#000000" points="320.5041,-127.9252 324.004,-137.9253 327.5041,-127.9253 320.5041,-127.9252"/>
</g>
<!-- A4&#45;&gt;A6 -->
<g id="edge2" class="edge">
<title>A4&#45;&gt;A6</title>
<path fill="none" stroke="#000000" stroke-dasharray="5,2" d="M278.6175,-129.9575C266.8471,-115.4236 254.3673,-100.0138 243.2742,-86.3162"/>
<polygon fill="none" stroke="#000000" points="276.0567,-132.3568 285.0702,-137.9253 281.4966,-127.9513 276.0567,-132.3568"/>
</g>
</g>
</svg>
