<?xml version="1.0" encoding="UTF-8" standalone="no"?>
<!DOCTYPE svg PUBLIC "-//W3C//DTD SVG 1.1//EN"
 "http://www.w3.org/Graphics/SVG/1.1/DTD/svg11.dtd">
<!-- Generated by graphviz version 2.40.1 (20161225.0304)
 -->
<!-- Title: G Pages: 1 -->
<svg width="794pt" height="820pt"
 viewBox="0.00 0.00 793.50 820.00" xmlns="http://www.w3.org/2000/svg" xmlns:xlink="http://www.w3.org/1999/xlink">
<g id="graph0" class="graph" transform="scale(1 1) rotate(0) translate(4 816)">
<title>G</title>
<polygon fill="#ffffff" stroke="transparent" points="-4,4 -4,-816 789.5,-816 789.5,4 -4,4"/>
<!-- A0 -->
<g id="node1" class="node">
<title>A0</title>
<polygon fill="#fff8dc" stroke="#000000" points="237.6865,-772 144.3135,-772 144.3135,-736 243.6865,-736 243.6865,-766 237.6865,-772"/>
<polyline fill="none" stroke="#000000" points="237.6865,-772 237.6865,-766 "/>
<polyline fill="none" stroke="#000000" points="243.6865,-766 237.6865,-766 "/>
<text text-anchor="middle" x="194" y="-751" font-family="Helvetica,sans-Serif" font-size="10.00" fill="#000000">Abstruct Pattern</text>
</g>
<!-- A1 -->
<g id="node2" class="node">
<title>A1</title>
<polygon fill="none" stroke="#000000" points="0,-428 0,-460 196,-460 196,-428 0,-428"/>
<text text-anchor="start" x="66.8845" y="-441" font-family="Helvetica,sans-Serif" font-size="10.00" fill="#000000">FactoryAType</text>
<polygon fill="none" stroke="#000000" points="0,-396 0,-428 196,-428 196,-396 0,-396"/>
<text text-anchor="start" x="73.2695" y="-409" font-family="Helvetica,sans-Serif" font-size="10.00" fill="#000000">type: enum</text>
<polygon fill="none" stroke="#000000" points="0,-352 0,-396 196,-396 196,-352 0,-352"/>
<text text-anchor="start" x="9.808" y="-377" font-family="Helvetica,sans-Serif" font-size="10.00" fill="#000000">+CC_ENUM_FACTORYA_METHOD_A</text>
<text text-anchor="start" x="9.808" y="-365" font-family="Helvetica,sans-Serif" font-size="10.00" fill="#000000">+CC_ENUM_FACTORYA_METHOD_B</text>
</g>
<!-- A2 -->
<g id="node3" class="node">
<title>A2</title>
<polygon fill="none" stroke="#000000" points="214,-428 214,-460 410,-460 410,-428 214,-428"/>
<text text-anchor="start" x="280.8845" y="-441" font-family="Helvetica,sans-Serif" font-size="10.00" fill="#000000">FactoryBType</text>
<polygon fill="none" stroke="#000000" points="214,-396 214,-428 410,-428 410,-396 214,-396"/>
<text text-anchor="start" x="287.2695" y="-409" font-family="Helvetica,sans-Serif" font-size="10.00" fill="#000000">type: enum</text>
<polygon fill="none" stroke="#000000" points="214,-352 214,-396 410,-396 410,-352 214,-352"/>
<text text-anchor="start" x="223.808" y="-377" font-family="Helvetica,sans-Serif" font-size="10.00" fill="#000000">+CC_ENUM_FACTORYB_METHOD_A</text>
<text text-anchor="start" x="223.808" y="-365" font-family="Helvetica,sans-Serif" font-size="10.00" fill="#000000">+CC_ENUM_FACTORYB_METHOD_B</text>
</g>
<!-- A3 -->
<g id="node4" class="node">
<title>A3</title>
<polygon fill="#ff0000" stroke="transparent" points="261.5,-696 261.5,-812 362.5,-812 362.5,-696 261.5,-696"/>
<polygon fill="none" stroke="#000000" points="262,-780 262,-812 363,-812 363,-780 262,-780"/>
<text text-anchor="start" x="291.3935" y="-793" font-family="Helvetica,sans-Serif" font-size="10.00" fill="#000000">CallClass</text>
<polygon fill="none" stroke="#000000" points="262,-748 262,-780 363,-780 363,-748 262,-748"/>
<text text-anchor="start" x="288.8835" y="-761" font-family="Helvetica,sans-Serif" font-size="10.00" fill="#000000">type: class</text>
<polygon fill="none" stroke="#000000" points="262,-728 262,-748 363,-748 363,-728 262,-728"/>
<polygon fill="none" stroke="#000000" points="262,-696 262,-728 363,-728 363,-696 262,-696"/>
<text text-anchor="start" x="271.803" y="-709" font-family="Helvetica,sans-Serif" font-size="10.00" fill="#000000">+static main():void</text>
</g>
<!-- A4 -->
<g id="node5" class="node">
<title>A4</title>
<polygon fill="none" stroke="#000000" points="223,-614 223,-646 401,-646 401,-614 223,-614"/>
<text text-anchor="start" x="295.3325" y="-627" font-family="Helvetica,sans-Serif" font-size="10.00" fill="#000000">Factory</text>
<polygon fill="none" stroke="#000000" points="223,-582 223,-614 401,-614 401,-582 223,-582"/>
<text text-anchor="start" x="288.3835" y="-595" font-family="Helvetica,sans-Serif" font-size="10.00" fill="#000000">type: class</text>
<polygon fill="none" stroke="#000000" points="223,-562 223,-582 401,-582 401,-562 223,-562"/>
<polygon fill="none" stroke="#000000" points="223,-530 223,-562 401,-562 401,-530 223,-530"/>
<text text-anchor="start" x="232.959" y="-543" font-family="Helvetica,sans-Serif" font-size="10.00" fill="#000000">+generateFactory():AbstructFactory</text>
</g>
<!-- A3&#45;&gt;A4 -->
<g id="edge1" class="edge">
<title>A3&#45;&gt;A4</title>
<path fill="none" stroke="#000000" d="M312,-695.9413C312,-683.0521 312,-669.2782 312,-656.0306"/>
<polygon fill="#000000" stroke="#000000" points="312,-646.026 316.5001,-656.0259 312,-651.026 312.0001,-656.026 312.0001,-656.026 312.0001,-656.026 312,-651.026 307.5001,-656.026 312,-646.026 312,-646.026"/>
<text text-anchor="middle" x="303.5476" y="-674.8151" font-family="Helvetica,sans-Serif" font-size="10.00" fill="#000000">generateFactory</text>
</g>
<!-- A4&#45;&gt;A1 -->
<g id="edge2" class="edge">
<title>A4&#45;&gt;A1</title>
<path fill="none" stroke="#000000" stroke-dasharray="5,2" d="M243.7007,-529.9137C219.9698,-509.7314 193.3038,-487.0528 169.3341,-466.6673"/>
<polygon fill="#000000" stroke="#000000" points="161.6537,-460.1353 172.1867,-463.186 165.4625,-463.3746 169.2713,-466.6139 169.2713,-466.6139 169.2713,-466.6139 165.4625,-463.3746 166.3559,-470.0419 161.6537,-460.1353 161.6537,-460.1353"/>
</g>
<!-- A4&#45;&gt;A2 -->
<g id="edge3" class="edge">
<title>A4&#45;&gt;A2</title>
<path fill="none" stroke="#000000" stroke-dasharray="5,2" d="M312,-529.9137C312,-510.9545 312,-489.7925 312,-470.398"/>
<polygon fill="#000000" stroke="#000000" points="312,-460.1353 316.5001,-470.1353 312,-465.1353 312.0001,-470.1353 312.0001,-470.1353 312.0001,-470.1353 312,-465.1353 307.5001,-470.1354 312,-460.1353 312,-460.1353"/>
</g>
<!-- A5 -->
<g id="node6" class="node">
<title>A5</title>
<polygon fill="none" stroke="#000000" points="428,-448 428,-480 596,-480 596,-448 428,-448"/>
<text text-anchor="start" x="476.9955" y="-461" font-family="Helvetica,sans-Serif" font-size="10.00" fill="#000000">AbstructFactory</text>
<polygon fill="none" stroke="#000000" points="428,-416 428,-448 596,-448 596,-416 428,-416"/>
<text text-anchor="start" x="470.3265" y="-429" font-family="Helvetica,sans-Serif" font-size="10.00" fill="#000000">type:abstruct&#45;class</text>
<polygon fill="none" stroke="#000000" points="428,-396 428,-416 596,-416 596,-396 428,-396"/>
<polygon fill="none" stroke="#000000" points="428,-364 428,-396 596,-396 596,-364 428,-364"/>
<text text-anchor="start" x="437.9585" y="-377" font-family="Helvetica,sans-Serif" font-size="10.00" fill="#000000">+getFactoryA():FactoryAInterface</text>
<polygon fill="none" stroke="#000000" points="428,-332 428,-364 596,-364 596,-332 428,-332"/>
<text text-anchor="start" x="437.9585" y="-345" font-family="Helvetica,sans-Serif" font-size="10.00" fill="#000000">+getFactoryB():FactoryBInterface</text>
</g>
<!-- A4&#45;&gt;A5 -->
<g id="edge4" class="edge">
<title>A4&#45;&gt;A5</title>
<path fill="none" stroke="#000000" d="M375.8311,-529.9137C390.7641,-516.3247 406.9406,-501.604 422.7542,-487.2136"/>
<polygon fill="#000000" stroke="#000000" points="430.4811,-480.1822 426.1137,-490.2409 426.783,-483.5474 423.085,-486.9127 423.085,-486.9127 423.085,-486.9127 426.783,-483.5474 420.0563,-483.5844 430.4811,-480.1822 430.4811,-480.1822"/>
</g>
<!-- A6 -->
<g id="node7" class="node">
<title>A6</title>
<polygon fill="none" stroke="#000000" points="381,-250 381,-282 504,-282 504,-250 381,-250"/>
<text text-anchor="start" x="403.047" y="-263" font-family="Helvetica,sans-Serif" font-size="10.00" fill="#000000">FactoryAInterface</text>
<polygon fill="none" stroke="#000000" points="381,-218 381,-250 504,-250 504,-218 381,-218"/>
<text text-anchor="start" x="411.1015" y="-231" font-family="Helvetica,sans-Serif" font-size="10.00" fill="#000000">type: interface</text>
<polygon fill="none" stroke="#000000" points="381,-198 381,-218 504,-218 504,-198 381,-198"/>
<polygon fill="none" stroke="#000000" points="381,-166 381,-198 504,-198 504,-166 381,-166"/>
<text text-anchor="start" x="390.685" y="-179" font-family="Helvetica,sans-Serif" font-size="10.00" fill="#000000">+invokeMethod():String</text>
</g>
<!-- A5&#45;&gt;A6 -->
<g id="edge5" class="edge">
<title>A5&#45;&gt;A6</title>
<path fill="none" stroke="#000000" d="M479.1444,-320.5755C474.1267,-307.5294 469.05,-294.3299 464.3289,-282.055"/>
<polygon fill="none" stroke="#000000" points="479.2205,-320.7735 485.1078,-324.9376 483.5283,-331.9736 477.641,-327.8095 479.2205,-320.7735"/>
</g>
<!-- A7 -->
<g id="node8" class="node">
<title>A7</title>
<polygon fill="none" stroke="#000000" points="522,-250 522,-282 645,-282 645,-250 522,-250"/>
<text text-anchor="start" x="544.047" y="-263" font-family="Helvetica,sans-Serif" font-size="10.00" fill="#000000">FactoryBInterface</text>
<polygon fill="none" stroke="#000000" points="522,-218 522,-250 645,-250 645,-218 522,-218"/>
<text text-anchor="start" x="552.1015" y="-231" font-family="Helvetica,sans-Serif" font-size="10.00" fill="#000000">type: interface</text>
<polygon fill="none" stroke="#000000" points="522,-198 522,-218 645,-218 645,-198 522,-198"/>
<polygon fill="none" stroke="#000000" points="522,-166 522,-198 645,-198 645,-166 522,-166"/>
<text text-anchor="start" x="531.685" y="-179" font-family="Helvetica,sans-Serif" font-size="10.00" fill="#000000">+invokeMethod():String</text>
</g>
<!-- A5&#45;&gt;A7 -->
<g id="edge6" class="edge">
<title>A5&#45;&gt;A7</title>
<path fill="none" stroke="#000000" d="M545.325,-320.5755C550.4144,-307.5294 555.5636,-294.3299 560.3522,-282.055"/>
<polygon fill="none" stroke="#000000" points="545.2397,-320.7942 546.7855,-327.8377 540.8784,-331.9736 539.3326,-324.9302 545.2397,-320.7942"/>
</g>
<!-- A8 -->
<g id="node9" class="node">
<title>A8</title>
<polygon fill="none" stroke="#000000" points="240,-84 240,-116 363,-116 363,-84 240,-84"/>
<text text-anchor="start" x="268.7205" y="-97" font-family="Helvetica,sans-Serif" font-size="10.00" fill="#000000">FactoryAImplA</text>
<polygon fill="none" stroke="#000000" points="240,-52 240,-84 363,-84 363,-52 240,-52"/>
<text text-anchor="start" x="277.8835" y="-65" font-family="Helvetica,sans-Serif" font-size="10.00" fill="#000000">type: class</text>
<polygon fill="none" stroke="#000000" points="240,-32 240,-52 363,-52 363,-32 240,-32"/>
<polygon fill="none" stroke="#000000" points="240,0 240,-32 363,-32 363,0 240,0"/>
<text text-anchor="start" x="249.685" y="-13" font-family="Helvetica,sans-Serif" font-size="10.00" fill="#000000">+invokeMethod():String</text>
</g>
<!-- A6&#45;&gt;A8 -->
<g id="edge7" class="edge">
<title>A6&#45;&gt;A8</title>
<path fill="none" stroke="#000000" stroke-dasharray="5,2" d="M386.1674,-158.268C374.3121,-144.3107 361.8778,-129.6718 350.2871,-116.026"/>
<polygon fill="none" stroke="#000000" points="383.5436,-160.5854 392.685,-165.9413 388.8788,-156.0537 383.5436,-160.5854"/>
</g>
<!-- A9 -->
<g id="node10" class="node">
<title>A9</title>
<polygon fill="none" stroke="#000000" points="381,-84 381,-116 504,-116 504,-84 381,-84"/>
<text text-anchor="start" x="409.7205" y="-97" font-family="Helvetica,sans-Serif" font-size="10.00" fill="#000000">FactoryAImplB</text>
<polygon fill="none" stroke="#000000" points="381,-52 381,-84 504,-84 504,-52 381,-52"/>
<text text-anchor="start" x="418.8835" y="-65" font-family="Helvetica,sans-Serif" font-size="10.00" fill="#000000">type: class</text>
<polygon fill="none" stroke="#000000" points="381,-32 381,-52 504,-52 504,-32 381,-32"/>
<polygon fill="none" stroke="#000000" points="381,0 381,-32 504,-32 504,0 381,0"/>
<text text-anchor="start" x="390.685" y="-13" font-family="Helvetica,sans-Serif" font-size="10.00" fill="#000000">+invokeMethod():String</text>
</g>
<!-- A6&#45;&gt;A9 -->
<g id="edge8" class="edge">
<title>A6&#45;&gt;A9</title>
<path fill="none" stroke="#000000" stroke-dasharray="5,2" d="M442,-155.9357C442,-142.6872 442,-128.9137 442,-116.026"/>
<polygon fill="none" stroke="#000000" points="438.5001,-155.9412 442,-165.9413 445.5001,-155.9413 438.5001,-155.9412"/>
</g>
<!-- A10 -->
<g id="node11" class="node">
<title>A10</title>
<polygon fill="none" stroke="#000000" points="522,-84 522,-116 645,-116 645,-84 522,-84"/>
<text text-anchor="start" x="550.7205" y="-97" font-family="Helvetica,sans-Serif" font-size="10.00" fill="#000000">FactoryBImplA</text>
<polygon fill="none" stroke="#000000" points="522,-52 522,-84 645,-84 645,-52 522,-52"/>
<text text-anchor="start" x="559.8835" y="-65" font-family="Helvetica,sans-Serif" font-size="10.00" fill="#000000">type: class</text>
<polygon fill="none" stroke="#000000" points="522,-32 522,-52 645,-52 645,-32 522,-32"/>
<polygon fill="none" stroke="#000000" points="522,0 522,-32 645,-32 645,0 522,0"/>
<text text-anchor="start" x="531.685" y="-13" font-family="Helvetica,sans-Serif" font-size="10.00" fill="#000000">+invokeMethod():String</text>
</g>
<!-- A7&#45;&gt;A10 -->
<g id="edge9" class="edge">
<title>A7&#45;&gt;A10</title>
<path fill="none" stroke="#000000" stroke-dasharray="5,2" d="M583,-155.9357C583,-142.6872 583,-128.9137 583,-116.026"/>
<polygon fill="none" stroke="#000000" points="579.5001,-155.9412 583,-165.9413 586.5001,-155.9413 579.5001,-155.9412"/>
</g>
<!-- A11 -->
<g id="node12" class="node">
<title>A11</title>
<polygon fill="none" stroke="#000000" points="663,-84 663,-116 786,-116 786,-84 663,-84"/>
<text text-anchor="start" x="691.7205" y="-97" font-family="Helvetica,sans-Serif" font-size="10.00" fill="#000000">FactoryBImplB</text>
<polygon fill="none" stroke="#000000" points="663,-52 663,-84 786,-84 786,-52 663,-52"/>
<text text-anchor="start" x="700.8835" y="-65" font-family="Helvetica,sans-Serif" font-size="10.00" fill="#000000">type: class</text>
<polygon fill="none" stroke="#000000" points="663,-32 663,-52 786,-52 786,-32 663,-32"/>
<polygon fill="none" stroke="#000000" points="663,0 663,-32 786,-32 786,0 663,0"/>
<text text-anchor="start" x="672.685" y="-13" font-family="Helvetica,sans-Serif" font-size="10.00" fill="#000000">+invokeMethod():String</text>
</g>
<!-- A7&#45;&gt;A11 -->
<g id="edge10" class="edge">
<title>A7&#45;&gt;A11</title>
<path fill="none" stroke="#000000" stroke-dasharray="5,2" d="M638.8326,-158.268C650.6879,-144.3107 663.1222,-129.6718 674.7129,-116.026"/>
<polygon fill="none" stroke="#000000" points="636.1212,-156.0537 632.315,-165.9413 641.4564,-160.5854 636.1212,-156.0537"/>
</g>
</g>
</svg>
