<?xml version="1.0" encoding="UTF-8" standalone="no"?>
<!DOCTYPE svg PUBLIC "-//W3C//DTD SVG 1.1//EN"
 "http://www.w3.org/Graphics/SVG/1.1/DTD/svg11.dtd">
<!-- Generated by graphviz version 2.40.1 (20161225.0304)
 -->
<!-- Title: G Pages: 1 -->
<svg width="398pt" height="492pt"
 viewBox="0.00 0.00 397.56 492.00" xmlns="http://www.w3.org/2000/svg" xmlns:xlink="http://www.w3.org/1999/xlink">
<g id="graph0" class="graph" transform="scale(1 1) rotate(0) translate(4 488)">
<title>G</title>
<polygon fill="#ffffff" stroke="transparent" points="-4,4 -4,-488 393.563,-488 393.563,4 -4,4"/>
<!-- A0 -->
<g id="node1" class="node">
<title>A0</title>
<polygon fill="#fff8dc" stroke="#000000" points="98.1891,-418 -.0631,-418 -.0631,-382 104.1891,-382 104.1891,-412 98.1891,-418"/>
<polyline fill="none" stroke="#000000" points="98.1891,-418 98.1891,-412 "/>
<polyline fill="none" stroke="#000000" points="104.1891,-412 98.1891,-412 "/>
<text text-anchor="middle" x="52.063" y="-397" font-family="Helvetica,sans-Serif" font-size="10.00" fill="#000000">Observer Pattern</text>
</g>
<!-- A1 -->
<g id="node2" class="node">
<title>A1</title>
<polygon fill="none" stroke="#000000" points="123.063,-440 123.063,-484 312.063,-484 312.063,-440 123.063,-440"/>
<text text-anchor="start" x="188.103" y="-465" font-family="Helvetica,sans-Serif" font-size="10.00" fill="#000000">&lt;&lt;abstract&gt;&gt;</text>
<text text-anchor="start" x="200.891" y="-453" font-family="Helvetica,sans-Serif" font-size="10.00" fill="#000000">Subject</text>
<polygon fill="none" stroke="#000000" points="123.063,-408 123.063,-440 312.063,-440 312.063,-408 123.063,-408"/>
<text text-anchor="start" x="153.109" y="-421" font-family="Helvetica,sans-Serif" font-size="10.00" fill="#000000">&#45;List&lt;Observer&gt;:observerList</text>
<polygon fill="none" stroke="#000000" points="123.063,-316 123.063,-408 312.063,-408 312.063,-316 123.063,-316"/>
<text text-anchor="start" x="178.8045" y="-389" font-family="Helvetica,sans-Serif" font-size="10.00" fill="#000000">+attach(Observer</text>
<text text-anchor="start" x="177.2755" y="-377" font-family="Helvetica,sans-Serif" font-size="10.00" fill="#000000">observer):boolean</text>
<text text-anchor="start" x="135.7375" y="-365" font-family="Helvetica,sans-Serif" font-size="10.00" fill="#000000">+detach(Observer observer):boolean</text>
<text text-anchor="start" x="165.752" y="-353" font-family="Helvetica,sans-Serif" font-size="10.00" fill="#000000">+notifyObservers():void</text>
<text text-anchor="start" x="175.747" y="-341" font-family="Helvetica,sans-Serif" font-size="10.00" fill="#000000">+getStatus():String</text>
<text text-anchor="start" x="132.959" y="-329" font-family="Helvetica,sans-Serif" font-size="10.00" fill="#000000">+abstract setStatus(String status):void</text>
</g>
<!-- A2 -->
<g id="node3" class="node">
<title>A2</title>
<polygon fill="none" stroke="#000000" points="98.063,-222 98.063,-254 194.063,-254 194.063,-222 98.063,-222"/>
<text text-anchor="start" x="126.0565" y="-235" font-family="Helvetica,sans-Serif" font-size="10.00" fill="#000000">SubjectA</text>
<polygon fill="none" stroke="#000000" points="98.063,-202 98.063,-222 194.063,-222 194.063,-202 98.063,-202"/>
<polygon fill="none" stroke="#000000" points="98.063,-158 98.063,-202 194.063,-202 194.063,-158 98.063,-158"/>
<text text-anchor="start" x="107.5805" y="-183" font-family="Helvetica,sans-Serif" font-size="10.00" fill="#000000">+setStatus(String</text>
<text text-anchor="start" x="120.5025" y="-171" font-family="Helvetica,sans-Serif" font-size="10.00" fill="#000000">status):void</text>
</g>
<!-- A1&#45;&gt;A2 -->
<g id="edge1" class="edge">
<title>A1&#45;&gt;A2</title>
<path fill="none" stroke="#000000" stroke-dasharray="5,2" d="M182.7832,-306.3341C176.1707,-288.266 169.5016,-270.0434 163.6952,-254.178"/>
<polygon fill="none" stroke="#000000" points="179.5074,-307.5672 186.2311,-315.7552 186.081,-305.1614 179.5074,-307.5672"/>
</g>
<!-- A3 -->
<g id="node4" class="node">
<title>A3</title>
<polygon fill="none" stroke="#000000" points="213.063,-222 213.063,-266 364.063,-266 364.063,-222 213.063,-222"/>
<text text-anchor="start" x="259.103" y="-247" font-family="Helvetica,sans-Serif" font-size="10.00" fill="#000000">&lt;&lt;abstract&gt;&gt;</text>
<text text-anchor="start" x="268.006" y="-235" font-family="Helvetica,sans-Serif" font-size="10.00" fill="#000000">Observer</text>
<polygon fill="none" stroke="#000000" points="213.063,-190 213.063,-222 364.063,-222 364.063,-190 213.063,-190"/>
<text text-anchor="start" x="259.114" y="-203" font-family="Helvetica,sans-Serif" font-size="10.00" fill="#000000">&#45;String:status</text>
<polygon fill="none" stroke="#000000" points="213.063,-146 213.063,-190 364.063,-190 364.063,-146 213.063,-146"/>
<text text-anchor="start" x="246.747" y="-171" font-family="Helvetica,sans-Serif" font-size="10.00" fill="#000000">+getStatus():String</text>
<text text-anchor="start" x="222.5705" y="-159" font-family="Helvetica,sans-Serif" font-size="10.00" fill="#000000">+update(Subject subject):void</text>
</g>
<!-- A1&#45;&gt;A3 -->
<g id="edge4" class="edge">
<title>A1&#45;&gt;A3</title>
<path fill="none" stroke="#000000" d="M251.341,-306.3389C255.1242,-296.0018 258.9259,-285.614 262.574,-275.6459"/>
<polygon fill="#000000" stroke="#000000" points="247.8949,-315.7552 247.1059,-304.8177 249.6133,-311.0597 251.3318,-306.3643 251.3318,-306.3643 251.3318,-306.3643 249.6133,-311.0597 255.5577,-307.9109 247.8949,-315.7552 247.8949,-315.7552"/>
<polygon fill="#000000" stroke="#000000" points="266.019,-266.2329 266.808,-277.1703 264.3006,-270.9283 262.5821,-275.6237 262.5821,-275.6237 262.5821,-275.6237 264.3006,-270.9283 258.3562,-274.0771 266.019,-266.2329 266.019,-266.2329"/>
</g>
<!-- A4 -->
<g id="node5" class="node">
<title>A4</title>
<polygon fill="none" stroke="#000000" points="186.063,-64 186.063,-96 279.063,-96 279.063,-64 186.063,-64"/>
<text text-anchor="start" x="208.6715" y="-77" font-family="Helvetica,sans-Serif" font-size="10.00" fill="#000000">ObserverA</text>
<polygon fill="none" stroke="#000000" points="186.063,-44 186.063,-64 279.063,-64 279.063,-44 186.063,-44"/>
<polygon fill="none" stroke="#000000" points="186.063,0 186.063,-44 279.063,-44 279.063,0 186.063,0"/>
<text text-anchor="start" x="196.02" y="-25" font-family="Helvetica,sans-Serif" font-size="10.00" fill="#000000">+update(Subject</text>
<text text-anchor="start" x="204.503" y="-13" font-family="Helvetica,sans-Serif" font-size="10.00" fill="#000000">subject):void</text>
</g>
<!-- A3&#45;&gt;A4 -->
<g id="edge2" class="edge">
<title>A3&#45;&gt;A4</title>
<path fill="none" stroke="#000000" stroke-dasharray="5,2" d="M263.2887,-136.1011C258.518,-122.6409 253.6207,-108.8236 249.1608,-96.2402"/>
<polygon fill="none" stroke="#000000" points="260.0924,-137.56 266.7321,-145.8162 266.6902,-135.2215 260.0924,-137.56"/>
</g>
<!-- A5 -->
<g id="node6" class="node">
<title>A5</title>
<polygon fill="none" stroke="#000000" points="297.063,-64 297.063,-96 390.063,-96 390.063,-64 297.063,-64"/>
<text text-anchor="start" x="319.6715" y="-77" font-family="Helvetica,sans-Serif" font-size="10.00" fill="#000000">ObserverB</text>
<polygon fill="none" stroke="#000000" points="297.063,-44 297.063,-64 390.063,-64 390.063,-44 297.063,-44"/>
<polygon fill="none" stroke="#000000" points="297.063,0 297.063,-44 390.063,-44 390.063,0 297.063,0"/>
<text text-anchor="start" x="307.02" y="-25" font-family="Helvetica,sans-Serif" font-size="10.00" fill="#000000">+update(Subject</text>
<text text-anchor="start" x="315.503" y="-13" font-family="Helvetica,sans-Serif" font-size="10.00" fill="#000000">subject):void</text>
</g>
<!-- A3&#45;&gt;A5 -->
<g id="edge3" class="edge">
<title>A3&#45;&gt;A5</title>
<path fill="none" stroke="#000000" stroke-dasharray="5,2" d="M312.3949,-136.1011C317.0804,-122.6409 321.8902,-108.8236 326.2705,-96.2402"/>
<polygon fill="none" stroke="#000000" points="308.9952,-135.2214 309.013,-145.8162 315.6061,-137.5227 308.9952,-135.2214"/>
</g>
</g>
</svg>
