<?xml version="1.0" encoding="UTF-8" standalone="no"?>
<!DOCTYPE svg PUBLIC "-//W3C//DTD SVG 1.1//EN"
 "http://www.w3.org/Graphics/SVG/1.1/DTD/svg11.dtd">
<!-- Generated by graphviz version 2.40.1 (20161225.0304)
 -->
<!-- Title: G Pages: 1 -->
<svg width="396pt" height="480pt"
 viewBox="0.00 0.00 395.56 480.00" xmlns="http://www.w3.org/2000/svg" xmlns:xlink="http://www.w3.org/1999/xlink">
<g id="graph0" class="graph" transform="scale(1 1) rotate(0) translate(4 476)">
<title>G</title>
<polygon fill="#ffffff" stroke="transparent" points="-4,4 -4,-476 391.563,-476 391.563,4 -4,4"/>
<!-- A0 -->
<g id="node1" class="node">
<title>A0</title>
<polygon fill="#fff8dc" stroke="#000000" points="98.1891,-406 -.0631,-406 -.0631,-370 104.1891,-370 104.1891,-400 98.1891,-406"/>
<polyline fill="none" stroke="#000000" points="98.1891,-406 98.1891,-400 "/>
<polyline fill="none" stroke="#000000" points="104.1891,-400 98.1891,-400 "/>
<text text-anchor="middle" x="52.063" y="-385" font-family="Helvetica,sans-Serif" font-size="10.00" fill="#000000">Observer Pattern</text>
</g>
<!-- A1 -->
<g id="node2" class="node">
<title>A1</title>
<polygon fill="none" stroke="#000000" points="123.063,-428 123.063,-472 312.063,-472 312.063,-428 123.063,-428"/>
<text text-anchor="start" x="188.103" y="-453" font-family="Helvetica,sans-Serif" font-size="10.00" fill="#000000">&lt;&lt;abstract&gt;&gt;</text>
<text text-anchor="start" x="200.891" y="-441" font-family="Helvetica,sans-Serif" font-size="10.00" fill="#000000">Subject</text>
<polygon fill="none" stroke="#000000" points="123.063,-396 123.063,-428 312.063,-428 312.063,-396 123.063,-396"/>
<text text-anchor="start" x="153.109" y="-409" font-family="Helvetica,sans-Serif" font-size="10.00" fill="#000000">&#45;List&lt;Observer&gt;:observerList</text>
<polygon fill="none" stroke="#000000" points="123.063,-304 123.063,-396 312.063,-396 312.063,-304 123.063,-304"/>
<text text-anchor="start" x="178.8045" y="-377" font-family="Helvetica,sans-Serif" font-size="10.00" fill="#000000">+attach(Observer</text>
<text text-anchor="start" x="177.2755" y="-365" font-family="Helvetica,sans-Serif" font-size="10.00" fill="#000000">observer):boolean</text>
<text text-anchor="start" x="135.7375" y="-353" font-family="Helvetica,sans-Serif" font-size="10.00" fill="#000000">+detach(Observer observer):boolean</text>
<text text-anchor="start" x="188.809" y="-341" font-family="Helvetica,sans-Serif" font-size="10.00" fill="#000000">+notify():void</text>
<text text-anchor="start" x="156.5755" y="-329" font-family="Helvetica,sans-Serif" font-size="10.00" fill="#000000">+abstract getStatus():String</text>
<text text-anchor="start" x="132.959" y="-317" font-family="Helvetica,sans-Serif" font-size="10.00" fill="#000000">+abstract setStatus(String status):void</text>
</g>
<!-- A2 -->
<g id="node3" class="node">
<title>A2</title>
<polygon fill="none" stroke="#000000" points="72.063,-216 72.063,-248 222.063,-248 222.063,-216 72.063,-216"/>
<text text-anchor="start" x="127.0565" y="-229" font-family="Helvetica,sans-Serif" font-size="10.00" fill="#000000">SubjectA</text>
<polygon fill="none" stroke="#000000" points="72.063,-196 72.063,-216 222.063,-216 222.063,-196 72.063,-196"/>
<polygon fill="none" stroke="#000000" points="72.063,-152 72.063,-196 222.063,-196 222.063,-152 72.063,-152"/>
<text text-anchor="start" x="105.247" y="-177" font-family="Helvetica,sans-Serif" font-size="10.00" fill="#000000">+getStatus():String</text>
<text text-anchor="start" x="81.6305" y="-165" font-family="Helvetica,sans-Serif" font-size="10.00" fill="#000000">+setStatus(String status):void</text>
</g>
<!-- A1&#45;&gt;A2 -->
<g id="edge1" class="edge">
<title>A1&#45;&gt;A2</title>
<path fill="none" stroke="#000000" stroke-dasharray="5,2" d="M182.2433,-294.4842C176.2801,-278.4687 170.3098,-262.4344 165.0251,-248.2411"/>
<polygon fill="none" stroke="#000000" points="178.9789,-295.7476 185.7483,-303.8977 185.5389,-293.305 178.9789,-295.7476"/>
</g>
<!-- A3 -->
<g id="node4" class="node">
<title>A3</title>
<polygon fill="none" stroke="#000000" points="240.063,-210 240.063,-254 333.063,-254 333.063,-210 240.063,-210"/>
<text text-anchor="start" x="255.714" y="-235" font-family="Helvetica,sans-Serif" font-size="10.00" fill="#000000">&lt;&lt;interface&gt;&gt;</text>
<text text-anchor="start" x="266.006" y="-223" font-family="Helvetica,sans-Serif" font-size="10.00" fill="#000000">Observer</text>
<polygon fill="none" stroke="#000000" points="240.063,-190 240.063,-210 333.063,-210 333.063,-190 240.063,-190"/>
<polygon fill="none" stroke="#000000" points="240.063,-146 240.063,-190 333.063,-190 333.063,-146 240.063,-146"/>
<text text-anchor="start" x="250.02" y="-171" font-family="Helvetica,sans-Serif" font-size="10.00" fill="#000000">+update(Subject</text>
<text text-anchor="start" x="258.503" y="-159" font-family="Helvetica,sans-Serif" font-size="10.00" fill="#000000">subject):void</text>
</g>
<!-- A1&#45;&gt;A3 -->
<g id="edge4" class="edge">
<title>A1&#45;&gt;A3</title>
<path fill="none" stroke="#000000" d="M251.4334,-294.353C255.235,-283.9952 259.0386,-273.6317 262.6597,-263.7656"/>
<polygon fill="#000000" stroke="#000000" points="247.9303,-303.8977 247.1514,-292.9595 249.6531,-299.2039 251.3759,-294.51 251.3759,-294.51 251.3759,-294.51 249.6531,-299.2039 255.6003,-296.0605 247.9303,-303.8977 247.9303,-303.8977"/>
<polygon fill="#000000" stroke="#000000" points="266.2131,-254.0838 266.992,-265.022 264.4903,-258.7777 262.7675,-263.4715 262.7675,-263.4715 262.7675,-263.4715 264.4903,-258.7777 258.5431,-261.921 266.2131,-254.0838 266.2131,-254.0838"/>
</g>
<!-- A4 -->
<g id="node5" class="node">
<title>A4</title>
<polygon fill="none" stroke="#000000" points="184.063,-64 184.063,-96 277.063,-96 277.063,-64 184.063,-64"/>
<text text-anchor="start" x="206.6715" y="-77" font-family="Helvetica,sans-Serif" font-size="10.00" fill="#000000">ObserverA</text>
<polygon fill="none" stroke="#000000" points="184.063,-44 184.063,-64 277.063,-64 277.063,-44 184.063,-44"/>
<polygon fill="none" stroke="#000000" points="184.063,0 184.063,-44 277.063,-44 277.063,0 184.063,0"/>
<text text-anchor="start" x="194.02" y="-25" font-family="Helvetica,sans-Serif" font-size="10.00" fill="#000000">+update(Subject</text>
<text text-anchor="start" x="202.503" y="-13" font-family="Helvetica,sans-Serif" font-size="10.00" fill="#000000">subject):void</text>
</g>
<!-- A3&#45;&gt;A4 -->
<g id="edge2" class="edge">
<title>A3&#45;&gt;A4</title>
<path fill="none" stroke="#000000" stroke-dasharray="5,2" d="M262.5905,-136.2891C257.626,-122.8137 252.4663,-108.8089 247.7583,-96.0302"/>
<polygon fill="none" stroke="#000000" points="259.4205,-137.8091 266.1618,-145.9825 265.9889,-135.3891 259.4205,-137.8091"/>
</g>
<!-- A5 -->
<g id="node6" class="node">
<title>A5</title>
<polygon fill="none" stroke="#000000" points="295.063,-64 295.063,-96 388.063,-96 388.063,-64 295.063,-64"/>
<text text-anchor="start" x="317.6715" y="-77" font-family="Helvetica,sans-Serif" font-size="10.00" fill="#000000">ObserverB</text>
<polygon fill="none" stroke="#000000" points="295.063,-44 295.063,-64 388.063,-64 388.063,-44 295.063,-44"/>
<polygon fill="none" stroke="#000000" points="295.063,0 295.063,-44 388.063,-44 388.063,0 295.063,0"/>
<text text-anchor="start" x="305.02" y="-25" font-family="Helvetica,sans-Serif" font-size="10.00" fill="#000000">+update(Subject</text>
<text text-anchor="start" x="313.503" y="-13" font-family="Helvetica,sans-Serif" font-size="10.00" fill="#000000">subject):void</text>
</g>
<!-- A3&#45;&gt;A5 -->
<g id="edge3" class="edge">
<title>A3&#45;&gt;A5</title>
<path fill="none" stroke="#000000" stroke-dasharray="5,2" d="M309.1163,-136.2891C313.9922,-122.8137 319.0598,-108.8089 323.6837,-96.0302"/>
<polygon fill="none" stroke="#000000" points="305.7202,-135.3882 305.6088,-145.9825 312.3026,-137.7701 305.7202,-135.3882"/>
</g>
</g>
</svg>
