<?xml version="1.0" encoding="UTF-8" standalone="no"?>
<!DOCTYPE svg PUBLIC "-//W3C//DTD SVG 1.1//EN"
 "http://www.w3.org/Graphics/SVG/1.1/DTD/svg11.dtd">
<!-- Generated by graphviz version 2.40.1 (20161225.0304)
 -->
<!-- Title: G Pages: 1 -->
<svg width="646pt" height="528pt"
 viewBox="0.00 0.00 646.00 528.00" xmlns="http://www.w3.org/2000/svg" xmlns:xlink="http://www.w3.org/1999/xlink">
<g id="graph0" class="graph" transform="scale(1 1) rotate(0) translate(4 524)">
<title>G</title>
<polygon fill="#ffffff" stroke="transparent" points="-4,4 -4,-524 642,-524 642,4 -4,4"/>
<!-- A0 -->
<g id="node1" class="node">
<title>A0</title>
<polygon fill="#fff8dc" stroke="#000000" points="111.404,-478 15.596,-478 15.596,-442 117.404,-442 117.404,-472 111.404,-478"/>
<polyline fill="none" stroke="#000000" points="111.404,-478 111.404,-472 "/>
<polyline fill="none" stroke="#000000" points="117.404,-472 111.404,-472 "/>
<text text-anchor="middle" x="66.5" y="-457" font-family="Helvetica,sans-Serif" font-size="10.00" fill="#000000">Mediator Pattern</text>
</g>
<!-- A1 -->
<g id="node2" class="node">
<title>A1</title>
<polygon fill="none" stroke="#000000" points="135.5,-476 135.5,-520 305.5,-520 305.5,-476 135.5,-476"/>
<text text-anchor="start" x="189.651" y="-501" font-family="Helvetica,sans-Serif" font-size="10.00" fill="#000000">&lt;&lt;interface&gt;&gt;</text>
<text text-anchor="start" x="201.054" y="-489" font-family="Helvetica,sans-Serif" font-size="10.00" fill="#000000">Mediator</text>
<polygon fill="none" stroke="#000000" points="135.5,-456 135.5,-476 305.5,-476 305.5,-456 135.5,-456"/>
<polygon fill="none" stroke="#000000" points="135.5,-400 135.5,-456 305.5,-456 305.5,-400 135.5,-400"/>
<text text-anchor="start" x="188.696" y="-437" font-family="Helvetica,sans-Serif" font-size="10.00" fill="#000000">+register(User</text>
<text text-anchor="start" x="189.936" y="-425" font-family="Helvetica,sans-Serif" font-size="10.00" fill="#000000">user):boolean</text>
<text text-anchor="start" x="145.0685" y="-413" font-family="Helvetica,sans-Serif" font-size="10.00" fill="#000000">+despatch(User receiver):boolean</text>
</g>
<!-- A2 -->
<g id="node3" class="node">
<title>A2</title>
<polygon fill="none" stroke="#000000" points=".5,-276 .5,-320 117.5,-320 117.5,-276 .5,-276"/>
<text text-anchor="start" x="34.819" y="-301" font-family="Helvetica,sans-Serif" font-size="10.00" fill="#000000">&lt;&lt;enum&gt;&gt;</text>
<text text-anchor="start" x="37.333" y="-289" font-family="Helvetica,sans-Serif" font-size="10.00" fill="#000000">UserType</text>
<polygon fill="none" stroke="#000000" points=".5,-232 .5,-276 117.5,-276 117.5,-232 .5,-232"/>
<text text-anchor="start" x="10.2425" y="-257" font-family="Helvetica,sans-Serif" font-size="10.00" fill="#000000">+CC_USER_TYPE_A</text>
<text text-anchor="start" x="10.2425" y="-245" font-family="Helvetica,sans-Serif" font-size="10.00" fill="#000000">+CC_USER_TYPE_B</text>
<polygon fill="none" stroke="#000000" points=".5,-212 .5,-232 117.5,-232 117.5,-212 .5,-212"/>
</g>
<!-- A1&#45;&gt;A2 -->
<g id="edge4" class="edge">
<title>A1&#45;&gt;A2</title>
<path fill="none" stroke="#000000" stroke-dasharray="5,2" d="M168.494,-399.7271C154.7528,-383.6424 139.9937,-366.2226 126.5,-350 120.6845,-343.0084 114.6335,-335.6531 108.6448,-328.3226"/>
<polygon fill="#000000" stroke="#000000" points="102.1848,-320.3962 111.9907,-325.305 105.3436,-324.2721 108.5024,-328.1479 108.5024,-328.1479 108.5024,-328.1479 105.3436,-324.2721 105.0142,-330.9908 102.1848,-320.3962 102.1848,-320.3962"/>
</g>
<!-- A3 -->
<g id="node4" class="node">
<title>A3</title>
<polygon fill="none" stroke="#000000" points="135.5,-300 135.5,-332 305.5,-332 305.5,-300 135.5,-300"/>
<text text-anchor="start" x="197.7195" y="-313" font-family="Helvetica,sans-Serif" font-size="10.00" fill="#000000">MediatorA</text>
<polygon fill="none" stroke="#000000" points="135.5,-256 135.5,-300 305.5,-300 305.5,-256 135.5,-256"/>
<text text-anchor="start" x="183.136" y="-281" font-family="Helvetica,sans-Serif" font-size="10.00" fill="#000000">&#45;Map&lt;UserType,</text>
<text text-anchor="start" x="176.468" y="-269" font-family="Helvetica,sans-Serif" font-size="10.00" fill="#000000">User&gt;:mediatorMap</text>
<polygon fill="none" stroke="#000000" points="135.5,-200 135.5,-256 305.5,-256 305.5,-200 135.5,-200"/>
<text text-anchor="start" x="188.696" y="-237" font-family="Helvetica,sans-Serif" font-size="10.00" fill="#000000">+register(User</text>
<text text-anchor="start" x="189.936" y="-225" font-family="Helvetica,sans-Serif" font-size="10.00" fill="#000000">user):boolean</text>
<text text-anchor="start" x="145.0685" y="-213" font-family="Helvetica,sans-Serif" font-size="10.00" fill="#000000">+despatch(User receiver):boolean</text>
</g>
<!-- A1&#45;&gt;A3 -->
<g id="edge3" class="edge">
<title>A1&#45;&gt;A3</title>
<path fill="none" stroke="#000000" stroke-dasharray="5,2" d="M220.5,-389.6901C220.5,-370.9265 220.5,-350.7182 220.5,-332.1847"/>
<polygon fill="none" stroke="#000000" points="217.0001,-389.9457 220.5,-399.9458 224.0001,-389.9458 217.0001,-389.9457"/>
</g>
<!-- A4 -->
<g id="node5" class="node">
<title>A4</title>
<polygon fill="none" stroke="#000000" points="324.5,-306 324.5,-350 527.5,-350 527.5,-306 324.5,-306"/>
<text text-anchor="start" x="395.151" y="-331" font-family="Helvetica,sans-Serif" font-size="10.00" fill="#000000">&lt;&lt;interface&gt;&gt;</text>
<text text-anchor="start" x="415.4465" y="-319" font-family="Helvetica,sans-Serif" font-size="10.00" fill="#000000">User</text>
<polygon fill="none" stroke="#000000" points="324.5,-262 324.5,-306 527.5,-306 527.5,-262 324.5,-262"/>
<text text-anchor="start" x="373.494" y="-287" font-family="Helvetica,sans-Serif" font-size="10.00" fill="#000000">&#45;String:receiveMessage</text>
<text text-anchor="start" x="384.054" y="-275" font-family="Helvetica,sans-Serif" font-size="10.00" fill="#000000">&#45;Mediator:mediator</text>
<polygon fill="none" stroke="#000000" points="324.5,-182 324.5,-262 527.5,-262 527.5,-182 324.5,-182"/>
<text text-anchor="start" x="391.4165" y="-243" font-family="Helvetica,sans-Serif" font-size="10.00" fill="#000000">+User(Mediator</text>
<text text-anchor="start" x="404.8895" y="-231" font-family="Helvetica,sans-Serif" font-size="10.00" fill="#000000">mediator)</text>
<text text-anchor="start" x="369.4545" y="-219" font-family="Helvetica,sans-Serif" font-size="10.00" fill="#000000">+sendMessage():boolean</text>
<text text-anchor="start" x="334.181" y="-207" font-family="Helvetica,sans-Serif" font-size="10.00" fill="#000000">+receiveMessage(String message):String</text>
<text text-anchor="start" x="360.0165" y="-195" font-family="Helvetica,sans-Serif" font-size="10.00" fill="#000000">+getReceiveMessage():String</text>
</g>
<!-- A1&#45;&gt;A4 -->
<g id="edge5" class="edge">
<title>A1&#45;&gt;A4</title>
<path fill="none" stroke="#000000" d="M291.4417,-392.8649C303.5495,-381.4068 316.3082,-369.3327 328.9461,-357.373"/>
<polygon fill="#000000" stroke="#000000" points="283.9594,-399.9458 288.1296,-389.8037 287.591,-396.509 291.2226,-393.0722 291.2226,-393.0722 291.2226,-393.0722 287.591,-396.509 294.3157,-396.3407 283.9594,-399.9458 283.9594,-399.9458"/>
<polygon fill="#000000" stroke="#000000" points="336.3672,-350.35 332.197,-360.4921 332.7356,-353.7868 329.1039,-357.2236 329.1039,-357.2236 329.1039,-357.2236 332.7356,-353.7868 326.0109,-353.9551 336.3672,-350.35 336.3672,-350.35"/>
</g>
<!-- A5 -->
<g id="node6" class="node">
<title>A5</title>
<polygon fill="none" stroke="#000000" points="214.5,-100 214.5,-132 417.5,-132 417.5,-100 214.5,-100"/>
<text text-anchor="start" x="302.112" y="-113" font-family="Helvetica,sans-Serif" font-size="10.00" fill="#000000">UserA</text>
<polygon fill="none" stroke="#000000" points="214.5,-68 214.5,-100 417.5,-100 417.5,-68 214.5,-68"/>
<text text-anchor="start" x="274.054" y="-81" font-family="Helvetica,sans-Serif" font-size="10.00" fill="#000000">&#45;Mediator:mediator</text>
<polygon fill="none" stroke="#000000" points="214.5,0 214.5,-68 417.5,-68 417.5,0 214.5,0"/>
<text text-anchor="start" x="281.4165" y="-49" font-family="Helvetica,sans-Serif" font-size="10.00" fill="#000000">+User(Mediator</text>
<text text-anchor="start" x="294.8895" y="-37" font-family="Helvetica,sans-Serif" font-size="10.00" fill="#000000">mediator)</text>
<text text-anchor="start" x="259.4545" y="-25" font-family="Helvetica,sans-Serif" font-size="10.00" fill="#000000">+sendMessage():boolean</text>
<text text-anchor="start" x="224.181" y="-13" font-family="Helvetica,sans-Serif" font-size="10.00" fill="#000000">+receiveMessage(String message):String</text>
</g>
<!-- A4&#45;&gt;A5 -->
<g id="edge1" class="edge">
<title>A4&#45;&gt;A5</title>
<path fill="none" stroke="#000000" stroke-dasharray="5,2" d="M374.2375,-172.7954C366.7035,-159.0972 359.0755,-145.2282 351.9225,-132.2228"/>
<polygon fill="none" stroke="#000000" points="371.2829,-174.6862 379.1689,-181.7617 377.4164,-171.3127 371.2829,-174.6862"/>
</g>
<!-- A6 -->
<g id="node7" class="node">
<title>A6</title>
<polygon fill="none" stroke="#000000" points="435.5,-100 435.5,-132 638.5,-132 638.5,-100 435.5,-100"/>
<text text-anchor="start" x="523.112" y="-113" font-family="Helvetica,sans-Serif" font-size="10.00" fill="#000000">UserB</text>
<polygon fill="none" stroke="#000000" points="435.5,-68 435.5,-100 638.5,-100 638.5,-68 435.5,-68"/>
<text text-anchor="start" x="495.054" y="-81" font-family="Helvetica,sans-Serif" font-size="10.00" fill="#000000">&#45;Mediator:mediator</text>
<polygon fill="none" stroke="#000000" points="435.5,0 435.5,-68 638.5,-68 638.5,0 435.5,0"/>
<text text-anchor="start" x="502.4165" y="-49" font-family="Helvetica,sans-Serif" font-size="10.00" fill="#000000">+User(Mediator</text>
<text text-anchor="start" x="515.8895" y="-37" font-family="Helvetica,sans-Serif" font-size="10.00" fill="#000000">mediator)</text>
<text text-anchor="start" x="480.4545" y="-25" font-family="Helvetica,sans-Serif" font-size="10.00" fill="#000000">+sendMessage():boolean</text>
<text text-anchor="start" x="445.181" y="-13" font-family="Helvetica,sans-Serif" font-size="10.00" fill="#000000">+receiveMessage(String message):String</text>
</g>
<!-- A4&#45;&gt;A6 -->
<g id="edge2" class="edge">
<title>A4&#45;&gt;A6</title>
<path fill="none" stroke="#000000" stroke-dasharray="5,2" d="M477.2285,-172.7954C484.831,-159.0972 492.5284,-145.2282 499.7464,-132.2228"/>
<polygon fill="none" stroke="#000000" points="474.0448,-171.3195 472.2523,-181.7617 480.1653,-174.7165 474.0448,-171.3195"/>
</g>
<!-- A7 -->
<g id="node8" class="node">
<title>A7</title>
<polygon fill="#ff0000" stroke="transparent" points="388,-418 388,-502 463,-502 463,-418 388,-418"/>
<polygon fill="none" stroke="#000000" points="388.5,-470 388.5,-502 463.5,-502 463.5,-470 388.5,-470"/>
<text text-anchor="start" x="404.8935" y="-483" font-family="Helvetica,sans-Serif" font-size="10.00" fill="#000000">CallClass</text>
<polygon fill="none" stroke="#000000" points="388.5,-450 388.5,-470 463.5,-470 463.5,-450 388.5,-450"/>
<polygon fill="none" stroke="#000000" points="388.5,-418 388.5,-450 463.5,-450 463.5,-418 388.5,-418"/>
<text text-anchor="start" x="398.3605" y="-431" font-family="Helvetica,sans-Serif" font-size="10.00" fill="#000000">+main():void</text>
</g>
<!-- A7&#45;&gt;A4 -->
<g id="edge6" class="edge">
<title>A7&#45;&gt;A4</title>
<path fill="none" stroke="#000000" d="M425.5,-417.9049C425.5,-400.9356 425.5,-380.6237 425.5,-360.4583"/>
<polygon fill="#000000" stroke="#000000" points="425.5,-350.2669 430.0001,-360.2668 425.5,-355.2669 425.5001,-360.2669 425.5001,-360.2669 425.5001,-360.2669 425.5,-355.2669 421.0001,-360.2669 425.5,-350.2669 425.5,-350.2669"/>
</g>
</g>
</svg>
