<?xml version="1.0" encoding="UTF-8" standalone="no"?>
<!DOCTYPE svg PUBLIC "-//W3C//DTD SVG 1.1//EN"
 "http://www.w3.org/Graphics/SVG/1.1/DTD/svg11.dtd">
<!-- Generated by graphviz version 2.40.1 (20161225.0304)
 -->
<!-- Title: G Pages: 1 -->
<svg width="298pt" height="128pt"
 viewBox="0.00 0.00 297.95 128.00" xmlns="http://www.w3.org/2000/svg" xmlns:xlink="http://www.w3.org/1999/xlink">
<g id="graph0" class="graph" transform="scale(1 1) rotate(0) translate(4 124)">
<title>G</title>
<polygon fill="#ffffff" stroke="transparent" points="-4,4 -4,-124 293.952,-124 293.952,4 -4,4"/>
<!-- A0 -->
<g id="node1" class="node">
<title>A0</title>
<polygon fill="#fff8dc" stroke="#000000" points="95.856,-78 .048,-78 .048,-42 101.856,-42 101.856,-72 95.856,-78"/>
<polyline fill="none" stroke="#000000" points="95.856,-78 95.856,-72 "/>
<polyline fill="none" stroke="#000000" points="101.856,-72 95.856,-72 "/>
<text text-anchor="middle" x="50.952" y="-57" font-family="Helvetica,sans-Serif" font-size="10.00" fill="#000000">Mediator Pattern</text>
</g>
<!-- A1 -->
<g id="node2" class="node">
<title>A1</title>
<polygon fill="none" stroke="#000000" points="119.952,-76 119.952,-120 289.952,-120 289.952,-76 119.952,-76"/>
<text text-anchor="start" x="174.103" y="-101" font-family="Helvetica,sans-Serif" font-size="10.00" fill="#000000">&lt;&lt;interface&gt;&gt;</text>
<text text-anchor="start" x="185.506" y="-89" font-family="Helvetica,sans-Serif" font-size="10.00" fill="#000000">Mediator</text>
<polygon fill="none" stroke="#000000" points="119.952,-56 119.952,-76 289.952,-76 289.952,-56 119.952,-56"/>
<polygon fill="none" stroke="#000000" points="119.952,0 119.952,-56 289.952,-56 289.952,0 119.952,0"/>
<text text-anchor="start" x="173.148" y="-37" font-family="Helvetica,sans-Serif" font-size="10.00" fill="#000000">+register(User</text>
<text text-anchor="start" x="174.388" y="-25" font-family="Helvetica,sans-Serif" font-size="10.00" fill="#000000">user):boolean</text>
<text text-anchor="start" x="129.5205" y="-13" font-family="Helvetica,sans-Serif" font-size="10.00" fill="#000000">+despatch(User receiver):boolean</text>
</g>
</g>
</svg>
