<?xml version="1.0" encoding="UTF-8" standalone="no"?>
<!DOCTYPE svg PUBLIC "-//W3C//DTD SVG 1.1//EN"
 "http://www.w3.org/Graphics/SVG/1.1/DTD/svg11.dtd">
<!-- Generated by graphviz version 2.40.1 (20161225.0304)
 -->
<!-- Title: G Pages: 1 -->
<svg width="381pt" height="404pt"
 viewBox="0.00 0.00 380.50 404.00" xmlns="http://www.w3.org/2000/svg" xmlns:xlink="http://www.w3.org/1999/xlink">
<g id="graph0" class="graph" transform="scale(1 1) rotate(0) translate(4 400)">
<title>G</title>
<polygon fill="#ffffff" stroke="transparent" points="-4,4 -4,-400 376.5,-400 376.5,4 -4,4"/>
<!-- A0 -->
<g id="node1" class="node">
<title>A0</title>
<polygon fill="#ff0000" stroke="transparent" points="116.5,-306 116.5,-390 199.5,-390 199.5,-306 116.5,-306"/>
<polygon fill="none" stroke="#000000" points="117,-358 117,-390 200,-390 200,-358 117,-358"/>
<text text-anchor="start" x="137.3935" y="-371" font-family="Helvetica,sans-Serif" font-size="10.00" fill="#000000">CallClass</text>
<polygon fill="none" stroke="#000000" points="117,-338 117,-358 200,-358 200,-338 117,-338"/>
<polygon fill="none" stroke="#000000" points="117,-306 117,-338 200,-338 200,-306 117,-306"/>
<text text-anchor="start" x="126.692" y="-319" font-family="Helvetica,sans-Serif" font-size="10.00" fill="#000000">+ main() : void</text>
</g>
<!-- A1 -->
<g id="node2" class="node">
<title>A1</title>
<polygon fill="none" stroke="#000000" points="59,-218 59,-250 258,-250 258,-218 59,-218"/>
<text text-anchor="start" x="141.8325" y="-231" font-family="Helvetica,sans-Serif" font-size="10.00" fill="#000000">Factory</text>
<polygon fill="none" stroke="#000000" points="59,-198 59,-218 258,-218 258,-198 59,-198"/>
<polygon fill="none" stroke="#000000" points="59,-166 59,-198 258,-198 258,-166 59,-166"/>
<text text-anchor="start" x="68.8915" y="-179" font-family="Helvetica,sans-Serif" font-size="10.00" fill="#000000">+getProduct(ProductType: type):Product</text>
</g>
<!-- A0&#45;&gt;A1 -->
<g id="edge7" class="edge">
<title>A0&#45;&gt;A1</title>
<path fill="none" stroke="#000000" d="M158,-305.9954C158,-291.7293 158,-275.6057 158,-260.6173"/>
<polygon fill="#000000" stroke="#000000" points="158,-250.4588 162.5001,-260.4588 158,-255.4588 158.0001,-260.4588 158.0001,-260.4588 158.0001,-260.4588 158,-255.4588 153.5001,-260.4589 158,-250.4588 158,-250.4588"/>
<text text-anchor="middle" x="149.5476" y="-284.8692" font-family="Helvetica,sans-Serif" font-size="10.00" fill="#000000">call</text>
</g>
<!-- A2 -->
<g id="node3" class="node">
<title>A2</title>
<polygon fill="none" stroke="#000000" points="0,-58 0,-102 142,-102 142,-58 0,-58"/>
<text text-anchor="start" x="46.819" y="-83" font-family="Helvetica,sans-Serif" font-size="10.00" fill="#000000">&lt;&lt;enum&gt;&gt;</text>
<text text-anchor="start" x="42.6595" y="-71" font-family="Helvetica,sans-Serif" font-size="10.00" fill="#000000">ProductType</text>
<polygon fill="none" stroke="#000000" points="0,-14 0,-58 142,-58 142,-14 0,-14"/>
<text text-anchor="start" x="9.754" y="-39" font-family="Helvetica,sans-Serif" font-size="10.00" fill="#000000">+CC_ENUM_PRODUCT_A</text>
<text text-anchor="start" x="9.754" y="-27" font-family="Helvetica,sans-Serif" font-size="10.00" fill="#000000">+CC_ENUM_PRODUCT_B</text>
</g>
<!-- A1&#45;&gt;A2 -->
<g id="edge3" class="edge">
<title>A1&#45;&gt;A2</title>
<path fill="none" stroke="#000000" stroke-dasharray="5,2" d="M133.5341,-165.8175C123.6434,-148.7644 112.1173,-128.8918 101.6742,-110.8866"/>
<polygon fill="#000000" stroke="#000000" points="96.6465,-102.2182 105.5564,-108.6107 99.1551,-106.5433 101.6638,-110.8685 101.6638,-110.8685 101.6638,-110.8685 99.1551,-106.5433 97.7711,-113.1262 96.6465,-102.2182 96.6465,-102.2182"/>
</g>
<!-- A4 -->
<g id="node5" class="node">
<title>A4</title>
<polygon fill="none" stroke="#000000" points="276,-84 276,-116 373,-116 373,-84 276,-84"/>
<text text-anchor="start" x="303.9385" y="-97" font-family="Helvetica,sans-Serif" font-size="10.00" fill="#000000">ProductA</text>
<polygon fill="none" stroke="#000000" points="276,-52 276,-84 373,-84 373,-52 276,-52"/>
<text text-anchor="start" x="300.8835" y="-65" font-family="Helvetica,sans-Serif" font-size="10.00" fill="#000000">type: class</text>
<polygon fill="none" stroke="#000000" points="276,-32 276,-52 373,-52 373,-32 276,-32"/>
<polygon fill="none" stroke="#000000" points="276,0 276,-32 373,-32 373,0 276,0"/>
<text text-anchor="start" x="285.743" y="-13" font-family="Helvetica,sans-Serif" font-size="10.00" fill="#000000">+produce():String</text>
</g>
<!-- A1&#45;&gt;A4 -->
<g id="edge4" class="edge">
<title>A1&#45;&gt;A4</title>
<path fill="none" stroke="#000000" stroke-dasharray="5,2" d="M209.867,-165.9017C228.2353,-150.556 248.8399,-132.8352 267,-116 267.3494,-115.6761 267.6996,-115.3506 268.0503,-115.0237"/>
<polygon fill="#000000" stroke="#000000" points="275.4791,-107.9795 271.319,-118.1257 271.8508,-111.4199 268.2226,-114.8603 268.2226,-114.8603 268.2226,-114.8603 271.8508,-111.4199 265.1263,-111.5949 275.4791,-107.9795 275.4791,-107.9795"/>
</g>
<!-- A5 -->
<g id="node6" class="node">
<title>A5</title>
<polygon fill="none" stroke="#000000" points="161,-84 161,-116 258,-116 258,-84 161,-84"/>
<text text-anchor="start" x="188.9385" y="-97" font-family="Helvetica,sans-Serif" font-size="10.00" fill="#000000">ProductB</text>
<polygon fill="none" stroke="#000000" points="161,-52 161,-84 258,-84 258,-52 161,-52"/>
<text text-anchor="start" x="185.8835" y="-65" font-family="Helvetica,sans-Serif" font-size="10.00" fill="#000000">type: class</text>
<polygon fill="none" stroke="#000000" points="161,-32 161,-52 258,-52 258,-32 161,-32"/>
<polygon fill="none" stroke="#000000" points="161,0 161,-32 258,-32 258,0 161,0"/>
<text text-anchor="start" x="170.743" y="-13" font-family="Helvetica,sans-Serif" font-size="10.00" fill="#000000">+produce():String</text>
</g>
<!-- A1&#45;&gt;A5 -->
<g id="edge5" class="edge">
<title>A1&#45;&gt;A5</title>
<path fill="none" stroke="#000000" stroke-dasharray="5,2" d="M172.3421,-165.8175C176.562,-153.4058 181.2898,-139.5005 185.9111,-125.9086"/>
<polygon fill="#000000" stroke="#000000" points="189.2484,-116.0929 190.2898,-127.0092 187.6389,-120.8267 186.0293,-125.5606 186.0293,-125.5606 186.0293,-125.5606 187.6389,-120.8267 181.7689,-124.112 189.2484,-116.0929 189.2484,-116.0929"/>
</g>
<!-- A3 -->
<g id="node4" class="node">
<title>A3</title>
<polygon fill="none" stroke="#000000" points="238,-352 238,-396 335,-396 335,-352 238,-352"/>
<text text-anchor="start" x="255.651" y="-377" font-family="Helvetica,sans-Serif" font-size="10.00" fill="#000000">&lt;&lt;interface&gt;&gt;</text>
<text text-anchor="start" x="269.273" y="-365" font-family="Helvetica,sans-Serif" font-size="10.00" fill="#000000">Product</text>
<polygon fill="none" stroke="#000000" points="238,-332 238,-352 335,-352 335,-332 238,-332"/>
<polygon fill="none" stroke="#000000" points="238,-300 238,-332 335,-332 335,-300 238,-300"/>
<text text-anchor="start" x="247.743" y="-313" font-family="Helvetica,sans-Serif" font-size="10.00" fill="#000000">+produce():String</text>
</g>
<!-- A3&#45;&gt;A1 -->
<g id="edge6" class="edge">
<title>A3&#45;&gt;A1</title>
<path fill="none" stroke="#000000" d="M234.9331,-292.1455C222.1454,-278.159 208.6388,-263.3862 196.5724,-250.1885"/>
<polygon fill="#000000" stroke="#000000" points="241.9497,-299.8199 231.8808,-295.4761 238.5758,-296.1298 235.2019,-292.4396 235.2019,-292.4396 235.2019,-292.4396 238.5758,-296.1298 238.5231,-289.4032 241.9497,-299.8199 241.9497,-299.8199"/>
</g>
<!-- A3&#45;&gt;A4 -->
<g id="edge1" class="edge">
<title>A3&#45;&gt;A4</title>
<path fill="none" stroke="#000000" stroke-dasharray="5,2" d="M294.5071,-289.6501C296.3609,-276.6072 298.281,-262.8365 300,-250 306.0195,-205.0511 312.3645,-154.1157 317.0177,-116.0075"/>
<polygon fill="none" stroke="#000000" points="290.9891,-289.5278 293.0397,-299.9223 297.9188,-290.5178 290.9891,-289.5278"/>
</g>
<!-- A3&#45;&gt;A5 -->
<g id="edge2" class="edge">
<title>A3&#45;&gt;A5</title>
<path fill="none" stroke="#000000" stroke-dasharray="5,2" d="M285.6225,-289.4533C283.9939,-253.1976 279.3271,-206.0732 267,-166 261.8063,-149.1161 253.8835,-131.8276 245.5473,-116.1717"/>
<polygon fill="none" stroke="#000000" points="282.1406,-289.9962 286.0204,-299.8551 289.1355,-289.7286 282.1406,-289.9962"/>
</g>
</g>
</svg>
