<?xml version="1.0" encoding="UTF-8" standalone="no"?>
<!DOCTYPE svg PUBLIC "-//W3C//DTD SVG 1.1//EN"
 "http://www.w3.org/Graphics/SVG/1.1/DTD/svg11.dtd">
<!-- Generated by graphviz version 2.40.1 (20161225.0304)
 -->
<!-- Title: G Pages: 1 -->
<svg width="506pt" height="602pt"
 viewBox="0.00 0.00 505.50 602.00" xmlns="http://www.w3.org/2000/svg" xmlns:xlink="http://www.w3.org/1999/xlink">
<g id="graph0" class="graph" transform="scale(1 1) rotate(0) translate(4 598)">
<title>G</title>
<polygon fill="#ffffff" stroke="transparent" points="-4,4 -4,-598 501.5,-598 501.5,4 -4,4"/>
<!-- A0 -->
<g id="node1" class="node">
<title>A0</title>
<polygon fill="#ff0000" stroke="transparent" points="229,-498 229,-594 312,-594 312,-498 229,-498"/>
<polygon fill="none" stroke="#000000" points="229.5,-562 229.5,-594 312.5,-594 312.5,-562 229.5,-562"/>
<text text-anchor="start" x="249.8935" y="-575" font-family="Helvetica,sans-Serif" font-size="10.00" fill="#000000">CallClass</text>
<polygon fill="none" stroke="#000000" points="229.5,-530 229.5,-562 312.5,-562 312.5,-530 229.5,-530"/>
<text text-anchor="start" x="247.3835" y="-543" font-family="Helvetica,sans-Serif" font-size="10.00" fill="#000000">type: class</text>
<polygon fill="none" stroke="#000000" points="229.5,-498 229.5,-530 312.5,-530 312.5,-498 229.5,-498"/>
<text text-anchor="start" x="239.192" y="-511" font-family="Helvetica,sans-Serif" font-size="10.00" fill="#000000">+ main() : void</text>
</g>
<!-- A1 -->
<g id="node2" class="node">
<title>A1</title>
<polygon fill="none" stroke="#000000" points="107.5,-416 107.5,-448 434.5,-448 434.5,-416 107.5,-416"/>
<text text-anchor="start" x="254.3325" y="-429" font-family="Helvetica,sans-Serif" font-size="10.00" fill="#000000">Factory</text>
<polygon fill="none" stroke="#000000" points="107.5,-384 107.5,-416 434.5,-416 434.5,-384 107.5,-384"/>
<text text-anchor="start" x="247.3835" y="-397" font-family="Helvetica,sans-Serif" font-size="10.00" fill="#000000">type: class</text>
<polygon fill="none" stroke="#000000" points="107.5,-364 107.5,-384 434.5,-384 434.5,-364 107.5,-364"/>
<polygon fill="none" stroke="#000000" points="107.5,-332 107.5,-364 434.5,-364 434.5,-332 107.5,-332"/>
<text text-anchor="start" x="117.4925" y="-345" font-family="Helvetica,sans-Serif" font-size="10.00" fill="#000000">+generateFactoryMethod(FactoryType: type):FactoryMethodInterface</text>
</g>
<!-- A0&#45;&gt;A1 -->
<g id="edge7" class="edge">
<title>A0&#45;&gt;A1</title>
<path fill="none" stroke="#000000" d="M270.5,-497.9219C270.5,-485.3661 270.5,-471.5911 270.5,-458.2069"/>
<polygon fill="#000000" stroke="#000000" points="270.5,-448.0748 275.0001,-458.0747 270.5,-453.0748 270.5001,-458.0748 270.5001,-458.0748 270.5001,-458.0748 270.5,-453.0748 266.0001,-458.0748 270.5,-448.0748 270.5,-448.0748"/>
<text text-anchor="middle" x="262.0476" y="-476.7958" font-family="Helvetica,sans-Serif" font-size="10.00" fill="#000000">call</text>
</g>
<!-- A2 -->
<g id="node3" class="node">
<title>A2</title>
<polygon fill="none" stroke="#000000" points=".5,-246 .5,-278 189.5,-278 189.5,-246 .5,-246"/>
<text text-anchor="start" x="67.219" y="-259" font-family="Helvetica,sans-Serif" font-size="10.00" fill="#000000">FactoryType</text>
<polygon fill="none" stroke="#000000" points=".5,-214 .5,-246 189.5,-246 189.5,-214 .5,-214"/>
<text text-anchor="start" x="70.2695" y="-227" font-family="Helvetica,sans-Serif" font-size="10.00" fill="#000000">type: enum</text>
<polygon fill="none" stroke="#000000" points=".5,-170 .5,-214 189.5,-214 189.5,-170 .5,-170"/>
<text text-anchor="start" x="10.1425" y="-195" font-family="Helvetica,sans-Serif" font-size="10.00" fill="#000000">+CC_ENUM_FACTORY_METHOD_A</text>
<text text-anchor="start" x="10.1425" y="-183" font-family="Helvetica,sans-Serif" font-size="10.00" fill="#000000">+CC_ENUM_FACTORY_METHOD_B</text>
</g>
<!-- A1&#45;&gt;A2 -->
<g id="edge4" class="edge">
<title>A1&#45;&gt;A2</title>
<path fill="none" stroke="#000000" stroke-dasharray="5,2" d="M208.9437,-331.9413C192.8688,-316.7797 175.4961,-300.394 159.2602,-285.0807"/>
<polygon fill="#000000" stroke="#000000" points="151.8893,-278.1285 162.2516,-281.7163 155.5266,-281.5592 159.164,-284.9899 159.164,-284.9899 159.164,-284.9899 155.5266,-281.5592 156.0764,-288.2635 151.8893,-278.1285 151.8893,-278.1285"/>
</g>
<!-- A3 -->
<g id="node4" class="node">
<title>A3</title>
<polygon fill="none" stroke="#000000" points="245.5,-250 245.5,-282 401.5,-282 401.5,-250 245.5,-250"/>
<text text-anchor="start" x="270.7095" y="-263" font-family="Helvetica,sans-Serif" font-size="10.00" fill="#000000">FactoryMethodInterface</text>
<polygon fill="none" stroke="#000000" points="245.5,-218 245.5,-250 401.5,-250 401.5,-218 245.5,-218"/>
<text text-anchor="start" x="292.1015" y="-231" font-family="Helvetica,sans-Serif" font-size="10.00" fill="#000000">type: interface</text>
<polygon fill="none" stroke="#000000" points="245.5,-198 245.5,-218 401.5,-218 401.5,-198 245.5,-198"/>
<polygon fill="none" stroke="#000000" points="245.5,-166 245.5,-198 401.5,-198 401.5,-166 245.5,-166"/>
<text text-anchor="start" x="255.0175" y="-179" font-family="Helvetica,sans-Serif" font-size="10.00" fill="#000000">+invokeFactoryMethod():String</text>
</g>
<!-- A1&#45;&gt;A3 -->
<g id="edge3" class="edge">
<title>A1&#45;&gt;A3</title>
<path fill="none" stroke="#000000" stroke-dasharray="5,2" d="M289.0368,-331.9413C293.1924,-318.9257 297.636,-305.008 301.9037,-291.6411"/>
<polygon fill="#000000" stroke="#000000" points="304.9736,-282.026 306.2189,-292.9209 303.4528,-286.7891 301.9321,-291.5522 301.9321,-291.5522 301.9321,-291.5522 303.4528,-286.7891 297.6453,-290.1835 304.9736,-282.026 304.9736,-282.026"/>
</g>
<!-- A4 -->
<g id="node5" class="node">
<title>A4</title>
<polygon fill="none" stroke="#000000" points="158.5,-84 158.5,-116 314.5,-116 314.5,-84 158.5,-84"/>
<text text-anchor="start" x="199.826" y="-97" font-family="Helvetica,sans-Serif" font-size="10.00" fill="#000000">FactoryMethodA</text>
<polygon fill="none" stroke="#000000" points="158.5,-52 158.5,-84 314.5,-84 314.5,-52 158.5,-52"/>
<text text-anchor="start" x="212.8835" y="-65" font-family="Helvetica,sans-Serif" font-size="10.00" fill="#000000">type: class</text>
<polygon fill="none" stroke="#000000" points="158.5,-32 158.5,-52 314.5,-52 314.5,-32 158.5,-32"/>
<polygon fill="none" stroke="#000000" points="158.5,0 158.5,-32 314.5,-32 314.5,0 158.5,0"/>
<text text-anchor="start" x="168.0175" y="-13" font-family="Helvetica,sans-Serif" font-size="10.00" fill="#000000">+invokeFactoryMethod():String</text>
</g>
<!-- A1&#45;&gt;A4 -->
<g id="edge5" class="edge">
<title>A1&#45;&gt;A4</title>
<path fill="none" stroke="#000000" stroke-dasharray="5,2" d="M248.6533,-331.9184C243.6391,-315.9691 239.0381,-298.5147 236.5,-282 228.5532,-230.2932 228.9581,-171.0759 231.1318,-126.5188"/>
<polygon fill="#000000" stroke="#000000" points="231.6688,-116.3838 235.6333,-126.608 231.4042,-121.3768 231.1396,-126.3698 231.1396,-126.3698 231.1396,-126.3698 231.4042,-121.3768 226.6459,-126.1317 231.6688,-116.3838 231.6688,-116.3838"/>
</g>
<!-- A5 -->
<g id="node6" class="node">
<title>A5</title>
<polygon fill="none" stroke="#000000" points="341.5,-84 341.5,-116 497.5,-116 497.5,-84 341.5,-84"/>
<text text-anchor="start" x="382.826" y="-97" font-family="Helvetica,sans-Serif" font-size="10.00" fill="#000000">FactoryMethodB</text>
<polygon fill="none" stroke="#000000" points="341.5,-52 341.5,-84 497.5,-84 497.5,-52 341.5,-52"/>
<text text-anchor="start" x="395.8835" y="-65" font-family="Helvetica,sans-Serif" font-size="10.00" fill="#000000">type: class</text>
<polygon fill="none" stroke="#000000" points="341.5,-32 341.5,-52 497.5,-52 497.5,-32 341.5,-32"/>
<polygon fill="none" stroke="#000000" points="341.5,0 341.5,-32 497.5,-32 497.5,0 341.5,0"/>
<text text-anchor="start" x="351.0175" y="-13" font-family="Helvetica,sans-Serif" font-size="10.00" fill="#000000">+invokeFactoryMethod():String</text>
</g>
<!-- A1&#45;&gt;A5 -->
<g id="edge6" class="edge">
<title>A1&#45;&gt;A5</title>
<path fill="none" stroke="#000000" stroke-dasharray="5,2" d="M369.5531,-331.7362C385.9114,-317.5762 400.7061,-300.9538 410.5,-282 435.2185,-234.1633 435.8486,-172.6097 431.2069,-126.1363"/>
<polygon fill="#000000" stroke="#000000" points="430.1074,-116.1612 435.676,-125.608 430.6553,-121.1311 431.2031,-126.101 431.2031,-126.101 431.2031,-126.101 430.6553,-121.1311 426.7302,-126.5941 430.1074,-116.1612 430.1074,-116.1612"/>
</g>
<!-- A3&#45;&gt;A4 -->
<g id="edge1" class="edge">
<title>A3&#45;&gt;A4</title>
<path fill="none" stroke="#000000" stroke-dasharray="5,2" d="M288.2359,-156.7144C281.1675,-143.2277 273.798,-129.1664 266.9112,-116.026"/>
<polygon fill="none" stroke="#000000" points="285.3295,-158.7087 293.0716,-165.9413 291.5296,-155.4592 285.3295,-158.7087"/>
</g>
<!-- A3&#45;&gt;A5 -->
<g id="edge2" class="edge">
<title>A3&#45;&gt;A5</title>
<path fill="none" stroke="#000000" stroke-dasharray="5,2" d="M362.1872,-157.1033C370.0553,-143.4982 378.2705,-129.2927 385.9428,-116.026"/>
<polygon fill="none" stroke="#000000" points="359.0526,-155.5324 357.0761,-165.9413 365.1123,-159.0368 359.0526,-155.5324"/>
</g>
</g>
</svg>
