<?xml version="1.0" encoding="UTF-8" standalone="no"?>
<!DOCTYPE svg PUBLIC "-//W3C//DTD SVG 1.1//EN"
 "http://www.w3.org/Graphics/SVG/1.1/DTD/svg11.dtd">
<!-- Generated by graphviz version 2.40.1 (20161225.0304)
 -->
<!-- Title: G Pages: 1 -->
<svg width="408pt" height="518pt"
 viewBox="0.00 0.00 408.17 518.00" xmlns="http://www.w3.org/2000/svg" xmlns:xlink="http://www.w3.org/1999/xlink">
<g id="graph0" class="graph" transform="scale(1 1) rotate(0) translate(4 514)">
<title>G</title>
<polygon fill="#ffffff" stroke="transparent" points="-4,4 -4,-514 404.1735,-514 404.1735,4 -4,4"/>
<!-- A0 -->
<g id="node1" class="node">
<title>A0</title>
<polygon fill="#fff8dc" stroke="#000000" points="90.5211,-486 -.1741,-486 -.1741,-450 96.5211,-450 96.5211,-480 90.5211,-486"/>
<polyline fill="none" stroke="#000000" points="90.5211,-486 90.5211,-480 "/>
<polyline fill="none" stroke="#000000" points="96.5211,-480 90.5211,-480 "/>
<text text-anchor="middle" x="48.1735" y="-465" font-family="Helvetica,sans-Serif" font-size="10.00" fill="#000000">Factory Pattern</text>
</g>
<!-- A1 -->
<g id="node2" class="node">
<title>A1</title>
<polygon fill="#ff0000" stroke="transparent" points="114.6735,-426 114.6735,-510 189.6735,-510 189.6735,-426 114.6735,-426"/>
<polygon fill="none" stroke="#000000" points="115.1735,-478 115.1735,-510 190.1735,-510 190.1735,-478 115.1735,-478"/>
<text text-anchor="start" x="131.567" y="-491" font-family="Helvetica,sans-Serif" font-size="10.00" fill="#000000">CallClass</text>
<polygon fill="none" stroke="#000000" points="115.1735,-458 115.1735,-478 190.1735,-478 190.1735,-458 115.1735,-458"/>
<polygon fill="none" stroke="#000000" points="115.1735,-426 115.1735,-458 190.1735,-458 190.1735,-426 115.1735,-426"/>
<text text-anchor="start" x="125.034" y="-439" font-family="Helvetica,sans-Serif" font-size="10.00" fill="#000000">+main():void</text>
</g>
<!-- A2 -->
<g id="node3" class="node">
<title>A2</title>
<polygon fill="none" stroke="#000000" points="146.1735,-332 146.1735,-376 264.1735,-376 264.1735,-332 146.1735,-332"/>
<text text-anchor="start" x="174.3245" y="-357" font-family="Helvetica,sans-Serif" font-size="10.00" fill="#000000">&lt;&lt;interface&gt;&gt;</text>
<text text-anchor="start" x="188.506" y="-345" font-family="Helvetica,sans-Serif" font-size="10.00" fill="#000000">Factory</text>
<polygon fill="none" stroke="#000000" points="146.1735,-312 146.1735,-332 264.1735,-332 264.1735,-312 146.1735,-312"/>
<polygon fill="none" stroke="#000000" points="146.1735,-280 146.1735,-312 264.1735,-312 264.1735,-280 146.1735,-280"/>
<text text-anchor="start" x="156.133" y="-293" font-family="Helvetica,sans-Serif" font-size="10.00" fill="#000000">+getProduct():Product</text>
</g>
<!-- A1&#45;&gt;A2 -->
<g id="edge1" class="edge">
<title>A1&#45;&gt;A2</title>
<path fill="none" stroke="#000000" d="M168.0752,-425.9954C172.8352,-413.4219 178.1414,-399.4057 183.2181,-385.9953"/>
<polygon fill="#000000" stroke="#000000" points="186.8632,-376.3669 187.5311,-387.3124 185.0929,-381.043 183.3226,-385.7192 183.3226,-385.7192 183.3226,-385.7192 185.0929,-381.043 179.1141,-384.1259 186.8632,-376.3669 186.8632,-376.3669"/>
</g>
<!-- A5 -->
<g id="node6" class="node">
<title>A5</title>
<polygon fill="none" stroke="#000000" points="31.1735,-186 31.1735,-230 128.1735,-230 128.1735,-186 31.1735,-186"/>
<text text-anchor="start" x="48.8245" y="-211" font-family="Helvetica,sans-Serif" font-size="10.00" fill="#000000">&lt;&lt;interface&gt;&gt;</text>
<text text-anchor="start" x="62.4465" y="-199" font-family="Helvetica,sans-Serif" font-size="10.00" fill="#000000">Product</text>
<polygon fill="none" stroke="#000000" points="31.1735,-166 31.1735,-186 128.1735,-186 128.1735,-166 31.1735,-166"/>
<polygon fill="none" stroke="#000000" points="31.1735,-134 31.1735,-166 128.1735,-166 128.1735,-134 31.1735,-134"/>
<text text-anchor="start" x="40.9165" y="-147" font-family="Helvetica,sans-Serif" font-size="10.00" fill="#000000">+produce():String</text>
</g>
<!-- A1&#45;&gt;A5 -->
<g id="edge2" class="edge">
<title>A1&#45;&gt;A5</title>
<path fill="none" stroke="#000000" d="M141.4021,-425.7997C128.857,-376.6504 108.0615,-295.1777 93.9979,-240.0793"/>
<polygon fill="#000000" stroke="#000000" points="91.4538,-230.1119 98.2872,-238.6883 92.6904,-234.9565 93.927,-239.8012 93.927,-239.8012 93.927,-239.8012 92.6904,-234.9565 89.5668,-240.9142 91.4538,-230.1119 91.4538,-230.1119"/>
</g>
<!-- A3 -->
<g id="node4" class="node">
<title>A3</title>
<polygon fill="none" stroke="#000000" points="146.1735,-192 146.1735,-224 264.1735,-224 264.1735,-192 146.1735,-192"/>
<text text-anchor="start" x="185.1715" y="-205" font-family="Helvetica,sans-Serif" font-size="10.00" fill="#000000">FactoryA</text>
<polygon fill="none" stroke="#000000" points="146.1735,-172 146.1735,-192 264.1735,-192 264.1735,-172 146.1735,-172"/>
<polygon fill="none" stroke="#000000" points="146.1735,-140 146.1735,-172 264.1735,-172 264.1735,-140 146.1735,-140"/>
<text text-anchor="start" x="156.133" y="-153" font-family="Helvetica,sans-Serif" font-size="10.00" fill="#000000">+getProduct():Product</text>
</g>
<!-- A2&#45;&gt;A3 -->
<g id="edge3" class="edge">
<title>A2&#45;&gt;A3</title>
<path fill="none" stroke="#000000" stroke-dasharray="5,2" d="M205.1735,-269.4923C205.1735,-254.3705 205.1735,-238.3843 205.1735,-224.2721"/>
<polygon fill="none" stroke="#000000" points="201.6736,-269.7895 205.1735,-279.7895 208.6736,-269.7895 201.6736,-269.7895"/>
</g>
<!-- A4 -->
<g id="node5" class="node">
<title>A4</title>
<polygon fill="none" stroke="#000000" points="282.1735,-192 282.1735,-224 400.1735,-224 400.1735,-192 282.1735,-192"/>
<text text-anchor="start" x="321.1715" y="-205" font-family="Helvetica,sans-Serif" font-size="10.00" fill="#000000">FactoryB</text>
<polygon fill="none" stroke="#000000" points="282.1735,-172 282.1735,-192 400.1735,-192 400.1735,-172 282.1735,-172"/>
<polygon fill="none" stroke="#000000" points="282.1735,-140 282.1735,-172 400.1735,-172 400.1735,-140 282.1735,-140"/>
<text text-anchor="start" x="292.133" y="-153" font-family="Helvetica,sans-Serif" font-size="10.00" fill="#000000">+getProduct():Product</text>
</g>
<!-- A2&#45;&gt;A4 -->
<g id="edge4" class="edge">
<title>A2&#45;&gt;A4</title>
<path fill="none" stroke="#000000" stroke-dasharray="5,2" d="M257.2443,-272.1004C272.0358,-256.2213 287.8928,-239.1984 301.7967,-224.2721"/>
<polygon fill="none" stroke="#000000" points="254.3369,-270.0866 250.0819,-279.7895 259.459,-274.8579 254.3369,-270.0866"/>
</g>
<!-- A6 -->
<g id="node7" class="node">
<title>A6</title>
<polygon fill="none" stroke="#000000" points="94.1735,-52 94.1735,-84 191.1735,-84 191.1735,-52 94.1735,-52"/>
<text text-anchor="start" x="122.112" y="-65" font-family="Helvetica,sans-Serif" font-size="10.00" fill="#000000">ProductA</text>
<polygon fill="none" stroke="#000000" points="94.1735,-32 94.1735,-52 191.1735,-52 191.1735,-32 94.1735,-32"/>
<polygon fill="none" stroke="#000000" points="94.1735,0 94.1735,-32 191.1735,-32 191.1735,0 94.1735,0"/>
<text text-anchor="start" x="103.9165" y="-13" font-family="Helvetica,sans-Serif" font-size="10.00" fill="#000000">+produce():String</text>
</g>
<!-- A3&#45;&gt;A6 -->
<g id="edge7" class="edge">
<title>A3&#45;&gt;A6</title>
<path fill="none" stroke="#000000" stroke-dasharray="5,2" d="M186.2714,-139.9954C179.7282,-125.4549 172.3167,-108.9849 165.4627,-93.7539"/>
<polygon fill="#000000" stroke="#000000" points="161.28,-84.4588 169.4873,-91.7314 163.3318,-89.0185 165.3837,-93.5781 165.3837,-93.5781 165.3837,-93.5781 163.3318,-89.0185 161.28,-95.4247 161.28,-84.4588 161.28,-84.4588"/>
</g>
<!-- A7 -->
<g id="node8" class="node">
<title>A7</title>
<polygon fill="none" stroke="#000000" points="251.1735,-52 251.1735,-84 348.1735,-84 348.1735,-52 251.1735,-52"/>
<text text-anchor="start" x="279.112" y="-65" font-family="Helvetica,sans-Serif" font-size="10.00" fill="#000000">ProductB</text>
<polygon fill="none" stroke="#000000" points="251.1735,-32 251.1735,-52 348.1735,-52 348.1735,-32 251.1735,-32"/>
<polygon fill="none" stroke="#000000" points="251.1735,0 251.1735,-32 348.1735,-32 348.1735,0 251.1735,0"/>
<text text-anchor="start" x="260.9165" y="-13" font-family="Helvetica,sans-Serif" font-size="10.00" fill="#000000">+produce():String</text>
</g>
<!-- A4&#45;&gt;A7 -->
<g id="edge8" class="edge">
<title>A4&#45;&gt;A7</title>
<path fill="none" stroke="#000000" stroke-dasharray="5,2" d="M328.5721,-139.9954C324.2511,-125.5921 319.3622,-109.2955 314.8291,-94.1853"/>
<polygon fill="#000000" stroke="#000000" points="311.9112,-84.4588 319.0949,-92.744 313.3479,-89.248 314.7847,-94.0371 314.7847,-94.0371 314.7847,-94.0371 313.3479,-89.248 310.4745,-95.3302 311.9112,-84.4588 311.9112,-84.4588"/>
</g>
<!-- A5&#45;&gt;A6 -->
<g id="edge5" class="edge">
<title>A5&#45;&gt;A6</title>
<path fill="none" stroke="#000000" stroke-dasharray="5,2" d="M105.0087,-124.5884C111.0934,-111.0669 117.4697,-96.8974 123.1887,-84.1885"/>
<polygon fill="none" stroke="#000000" points="101.7665,-123.2644 100.8545,-133.8199 108.15,-126.137 101.7665,-123.2644"/>
</g>
<!-- A5&#45;&gt;A7 -->
<g id="edge6" class="edge">
<title>A5&#45;&gt;A7</title>
<path fill="none" stroke="#000000" stroke-dasharray="5,2" d="M136.0018,-134.8131C136.3929,-134.5401 136.7835,-134.2691 137.1735,-134 173.647,-108.8372 217.478,-84.2584 250.3459,-66.845"/>
<polygon fill="none" stroke="#000000" points="133.7986,-132.0872 127.7498,-140.7856 137.9028,-137.7578 133.7986,-132.0872"/>
</g>
</g>
</svg>
