<?xml version="1.0" encoding="UTF-8" standalone="no"?>
<!DOCTYPE svg PUBLIC "-//W3C//DTD SVG 1.1//EN"
 "http://www.w3.org/Graphics/SVG/1.1/DTD/svg11.dtd">
<!-- Generated by graphviz version 2.40.1 (20161225.0304)
 -->
<!-- Title: G Pages: 1 -->
<svg width="290pt" height="420pt"
 viewBox="0.00 0.00 289.56 420.00" xmlns="http://www.w3.org/2000/svg" xmlns:xlink="http://www.w3.org/1999/xlink">
<g id="graph0" class="graph" transform="scale(1 1) rotate(0) translate(4 416)">
<title>G</title>
<polygon fill="#ffffff" stroke="transparent" points="-4,4 -4,-416 285.5575,-416 285.5575,4 -4,4"/>
<!-- A0 -->
<g id="node1" class="node">
<title>A0</title>
<polygon fill="#fff8dc" stroke="#000000" points="103.1726,-388 -.0576,-388 -.0576,-352 109.1726,-352 109.1726,-382 103.1726,-388"/>
<polyline fill="none" stroke="#000000" points="103.1726,-388 103.1726,-382 "/>
<polyline fill="none" stroke="#000000" points="109.1726,-382 103.1726,-382 "/>
<text text-anchor="middle" x="54.5575" y="-373" font-family="Helvetica,sans-Serif" font-size="10.00" fill="#000000">Simple Composite</text>
<text text-anchor="middle" x="54.5575" y="-361" font-family="Helvetica,sans-Serif" font-size="10.00" fill="#000000">Pattern</text>
</g>
<!-- A1 -->
<g id="node2" class="node">
<title>A1</title>
<polygon fill="#ff0000" stroke="transparent" points="127.0575,-328 127.0575,-412 202.0575,-412 202.0575,-328 127.0575,-328"/>
<polygon fill="none" stroke="#000000" points="127.5575,-380 127.5575,-412 202.5575,-412 202.5575,-380 127.5575,-380"/>
<text text-anchor="start" x="143.951" y="-393" font-family="Helvetica,sans-Serif" font-size="10.00" fill="#000000">CallClass</text>
<polygon fill="none" stroke="#000000" points="127.5575,-360 127.5575,-380 202.5575,-380 202.5575,-360 127.5575,-360"/>
<polygon fill="none" stroke="#000000" points="127.5575,-328 127.5575,-360 202.5575,-360 202.5575,-328 127.5575,-328"/>
<text text-anchor="start" x="137.418" y="-341" font-family="Helvetica,sans-Serif" font-size="10.00" fill="#000000">+main():void</text>
</g>
<!-- A2 -->
<g id="node3" class="node">
<title>A2</title>
<polygon fill="none" stroke="#000000" points="47.5575,-234 47.5575,-278 281.5575,-278 281.5575,-234 47.5575,-234"/>
<text text-anchor="start" x="135.0975" y="-259" font-family="Helvetica,sans-Serif" font-size="10.00" fill="#000000">&lt;&lt;abstract&gt;&gt;</text>
<text text-anchor="start" x="140.6665" y="-247" font-family="Helvetica,sans-Serif" font-size="10.00" fill="#000000">Composite</text>
<polygon fill="none" stroke="#000000" points="47.5575,-202 47.5575,-234 281.5575,-234 281.5575,-202 47.5575,-202"/>
<text text-anchor="start" x="113.717" y="-215" font-family="Helvetica,sans-Serif" font-size="10.00" fill="#000000">&#45;List&lt;Composite&gt;:child</text>
<polygon fill="none" stroke="#000000" points="47.5575,-134 47.5575,-202 281.5575,-202 281.5575,-134 47.5575,-134"/>
<text text-anchor="start" x="126.911" y="-183" font-family="Helvetica,sans-Serif" font-size="10.00" fill="#000000">+operate():String</text>
<text text-anchor="start" x="57.452" y="-171" font-family="Helvetica,sans-Serif" font-size="10.00" fill="#000000">+addComposite(Composite: composite):boolean</text>
<text text-anchor="start" x="59.122" y="-159" font-family="Helvetica,sans-Serif" font-size="10.00" fill="#000000">+delComposite(Composite: composite):boolean</text>
<text text-anchor="start" x="83.018" y="-147" font-family="Helvetica,sans-Serif" font-size="10.00" fill="#000000">+getAllComposite():List&lt;Composite&gt;</text>
</g>
<!-- A1&#45;&gt;A2 -->
<g id="edge3" class="edge">
<title>A1&#45;&gt;A2</title>
<path fill="none" stroke="#000000" d="M164.5575,-327.7659C164.5575,-315.741 164.5575,-302.2107 164.5575,-288.6564"/>
<polygon fill="#000000" stroke="#000000" points="164.5575,-278.3113 169.0576,-288.3113 164.5575,-283.3113 164.5576,-288.3113 164.5576,-288.3113 164.5576,-288.3113 164.5575,-283.3113 160.0576,-288.3114 164.5575,-278.3113 164.5575,-278.3113"/>
</g>
<!-- A3 -->
<g id="node4" class="node">
<title>A3</title>
<polygon fill="none" stroke="#000000" points="61.5575,-52 61.5575,-84 156.5575,-84 156.5575,-52 61.5575,-52"/>
<text text-anchor="start" x="99.3295" y="-65" font-family="Helvetica,sans-Serif" font-size="10.00" fill="#000000">Leaf</text>
<polygon fill="none" stroke="#000000" points="61.5575,-32 61.5575,-52 156.5575,-52 156.5575,-32 61.5575,-32"/>
<polygon fill="none" stroke="#000000" points="61.5575,0 61.5575,-32 156.5575,-32 156.5575,0 61.5575,0"/>
<text text-anchor="start" x="71.411" y="-13" font-family="Helvetica,sans-Serif" font-size="10.00" fill="#000000">+operate():String</text>
</g>
<!-- A2&#45;&gt;A3 -->
<g id="edge1" class="edge">
<title>A2&#45;&gt;A3</title>
<path fill="none" stroke="#000000" stroke-dasharray="5,2" d="M136.5886,-124.091C131.8939,-110.3423 127.198,-96.5902 123.0289,-84.3807"/>
<polygon fill="none" stroke="#000000" points="133.2883,-125.2573 139.8321,-133.5898 139.9128,-122.9953 133.2883,-125.2573"/>
</g>
<!-- A4 -->
<g id="node5" class="node">
<title>A4</title>
<polygon fill="none" stroke="#000000" points="174.5575,-52 174.5575,-84 269.5575,-84 269.5575,-52 174.5575,-52"/>
<text text-anchor="start" x="189.273" y="-65" font-family="Helvetica,sans-Serif" font-size="10.00" fill="#000000">SubComposite</text>
<polygon fill="none" stroke="#000000" points="174.5575,-32 174.5575,-52 269.5575,-52 269.5575,-32 174.5575,-32"/>
<polygon fill="none" stroke="#000000" points="174.5575,0 174.5575,-32 269.5575,-32 269.5575,0 174.5575,0"/>
<text text-anchor="start" x="184.411" y="-13" font-family="Helvetica,sans-Serif" font-size="10.00" fill="#000000">+operate():String</text>
</g>
<!-- A2&#45;&gt;A4 -->
<g id="edge2" class="edge">
<title>A2&#45;&gt;A4</title>
<path fill="none" stroke="#000000" stroke-dasharray="5,2" d="M193.0259,-124.091C197.8044,-110.3423 202.5841,-96.5902 206.8276,-84.3807"/>
<polygon fill="none" stroke="#000000" points="189.7015,-122.995 189.7245,-133.5898 196.3135,-125.2931 189.7015,-122.995"/>
</g>
</g>
</svg>
