<?xml version="1.0" encoding="UTF-8" standalone="no"?>
<!DOCTYPE svg PUBLIC "-//W3C//DTD SVG 1.1//EN"
 "http://www.w3.org/Graphics/SVG/1.1/DTD/svg11.dtd">
<!-- Generated by graphviz version 2.40.1 (20161225.0304)
 -->
<!-- Title: G Pages: 1 -->
<svg width="290pt" height="432pt"
 viewBox="0.00 0.00 289.56 432.00" xmlns="http://www.w3.org/2000/svg" xmlns:xlink="http://www.w3.org/1999/xlink">
<g id="graph0" class="graph" transform="scale(1 1) rotate(0) translate(4 428)">
<title>G</title>
<polygon fill="#ffffff" stroke="transparent" points="-4,4 -4,-428 285.5575,-428 285.5575,4 -4,4"/>
<!-- A0 -->
<g id="node1" class="node">
<title>A0</title>
<polygon fill="#fff8dc" stroke="#000000" points="103.1726,-400 -.0576,-400 -.0576,-364 109.1726,-364 109.1726,-394 103.1726,-400"/>
<polyline fill="none" stroke="#000000" points="103.1726,-400 103.1726,-394 "/>
<polyline fill="none" stroke="#000000" points="109.1726,-394 103.1726,-394 "/>
<text text-anchor="middle" x="54.5575" y="-385" font-family="Helvetica,sans-Serif" font-size="10.00" fill="#000000">Simple Composite</text>
<text text-anchor="middle" x="54.5575" y="-373" font-family="Helvetica,sans-Serif" font-size="10.00" fill="#000000">Pattern</text>
</g>
<!-- A1 -->
<g id="node2" class="node">
<title>A1</title>
<polygon fill="#ff0000" stroke="transparent" points="127.0575,-340 127.0575,-424 202.0575,-424 202.0575,-340 127.0575,-340"/>
<polygon fill="none" stroke="#000000" points="127.5575,-392 127.5575,-424 202.5575,-424 202.5575,-392 127.5575,-392"/>
<text text-anchor="start" x="143.951" y="-405" font-family="Helvetica,sans-Serif" font-size="10.00" fill="#000000">CallClass</text>
<polygon fill="none" stroke="#000000" points="127.5575,-372 127.5575,-392 202.5575,-392 202.5575,-372 127.5575,-372"/>
<polygon fill="none" stroke="#000000" points="127.5575,-340 127.5575,-372 202.5575,-372 202.5575,-340 127.5575,-340"/>
<text text-anchor="start" x="137.418" y="-353" font-family="Helvetica,sans-Serif" font-size="10.00" fill="#000000">+main():void</text>
</g>
<!-- A2 -->
<g id="node3" class="node">
<title>A2</title>
<polygon fill="none" stroke="#000000" points="47.5575,-246 47.5575,-290 281.5575,-290 281.5575,-246 47.5575,-246"/>
<text text-anchor="start" x="135.0975" y="-271" font-family="Helvetica,sans-Serif" font-size="10.00" fill="#000000">&lt;&lt;abstract&gt;&gt;</text>
<text text-anchor="start" x="140.6665" y="-259" font-family="Helvetica,sans-Serif" font-size="10.00" fill="#000000">Composite</text>
<polygon fill="none" stroke="#000000" points="47.5575,-214 47.5575,-246 281.5575,-246 281.5575,-214 47.5575,-214"/>
<text text-anchor="start" x="113.717" y="-227" font-family="Helvetica,sans-Serif" font-size="10.00" fill="#000000">&#45;List&lt;Composite&gt;:child</text>
<polygon fill="none" stroke="#000000" points="47.5575,-134 47.5575,-214 281.5575,-214 281.5575,-134 47.5575,-134"/>
<text text-anchor="start" x="126.911" y="-195" font-family="Helvetica,sans-Serif" font-size="10.00" fill="#000000">+operate():String</text>
<text text-anchor="start" x="57.452" y="-183" font-family="Helvetica,sans-Serif" font-size="10.00" fill="#000000">+addComposite(Composite: composite):boolean</text>
<text text-anchor="start" x="59.122" y="-171" font-family="Helvetica,sans-Serif" font-size="10.00" fill="#000000">+delComposite(Composite: composite):boolean</text>
<text text-anchor="start" x="83.018" y="-159" font-family="Helvetica,sans-Serif" font-size="10.00" fill="#000000">+getAllComposite():List&lt;Composite&gt;</text>
<text text-anchor="start" x="94.4105" y="-147" font-family="Helvetica,sans-Serif" font-size="10.00" fill="#000000">+getCompositeRef():Composite</text>
</g>
<!-- A1&#45;&gt;A2 -->
<g id="edge3" class="edge">
<title>A1&#45;&gt;A2</title>
<path fill="none" stroke="#000000" d="M164.5575,-339.9775C164.5575,-327.8721 164.5575,-314.1886 164.5575,-300.3858"/>
<polygon fill="#000000" stroke="#000000" points="164.5575,-290.335 169.0576,-300.3349 164.5575,-295.335 164.5576,-300.335 164.5576,-300.335 164.5576,-300.335 164.5575,-295.335 160.0576,-300.335 164.5575,-290.335 164.5575,-290.335"/>
</g>
<!-- A3 -->
<g id="node4" class="node">
<title>A3</title>
<polygon fill="none" stroke="#000000" points="61.5575,-52 61.5575,-84 156.5575,-84 156.5575,-52 61.5575,-52"/>
<text text-anchor="start" x="99.3295" y="-65" font-family="Helvetica,sans-Serif" font-size="10.00" fill="#000000">Leaf</text>
<polygon fill="none" stroke="#000000" points="61.5575,-32 61.5575,-52 156.5575,-52 156.5575,-32 61.5575,-32"/>
<polygon fill="none" stroke="#000000" points="61.5575,0 61.5575,-32 156.5575,-32 156.5575,0 61.5575,0"/>
<text text-anchor="start" x="71.411" y="-13" font-family="Helvetica,sans-Serif" font-size="10.00" fill="#000000">+operate():String</text>
</g>
<!-- A2&#45;&gt;A3 -->
<g id="edge1" class="edge">
<title>A2&#45;&gt;A3</title>
<path fill="none" stroke="#000000" stroke-dasharray="5,2" d="M135.675,-124.321C131.0844,-110.3852 126.5255,-96.5456 122.4924,-84.3024"/>
<polygon fill="none" stroke="#000000" points="132.399,-125.5628 138.8521,-133.9657 139.0476,-123.3727 132.399,-125.5628"/>
</g>
<!-- A4 -->
<g id="node5" class="node">
<title>A4</title>
<polygon fill="none" stroke="#000000" points="174.5575,-52 174.5575,-84 269.5575,-84 269.5575,-52 174.5575,-52"/>
<text text-anchor="start" x="189.273" y="-65" font-family="Helvetica,sans-Serif" font-size="10.00" fill="#000000">SubComposite</text>
<polygon fill="none" stroke="#000000" points="174.5575,-32 174.5575,-52 269.5575,-52 269.5575,-32 174.5575,-32"/>
<polygon fill="none" stroke="#000000" points="174.5575,0 174.5575,-32 269.5575,-32 269.5575,0 174.5575,0"/>
<text text-anchor="start" x="184.411" y="-13" font-family="Helvetica,sans-Serif" font-size="10.00" fill="#000000">+operate():String</text>
</g>
<!-- A2&#45;&gt;A4 -->
<g id="edge2" class="edge">
<title>A2&#45;&gt;A4</title>
<path fill="none" stroke="#000000" stroke-dasharray="5,2" d="M193.9558,-124.321C198.6283,-110.3852 203.2687,-96.5456 207.3738,-84.3024"/>
<polygon fill="none" stroke="#000000" points="190.5826,-123.3718 190.7219,-133.9657 197.2194,-125.5971 190.5826,-123.3718"/>
</g>
</g>
</svg>
