<?xml version="1.0" encoding="UTF-8" standalone="no"?>
<!DOCTYPE svg PUBLIC "-//W3C//DTD SVG 1.1//EN"
 "http://www.w3.org/Graphics/SVG/1.1/DTD/svg11.dtd">
<!-- Generated by graphviz version 2.40.1 (20161225.0304)
 -->
<!-- Title: G Pages: 1 -->
<svg width="494pt" height="602pt"
 viewBox="0.00 0.00 494.00 602.00" xmlns="http://www.w3.org/2000/svg" xmlns:xlink="http://www.w3.org/1999/xlink">
<g id="graph0" class="graph" transform="scale(1 1) rotate(0) translate(4 598)">
<title>G</title>
<polygon fill="#ffffff" stroke="transparent" points="-4,4 -4,-598 490,-598 490,4 -4,4"/>
<!-- A0 -->
<g id="node1" class="node">
<title>A0</title>
<polygon fill="#fff8dc" stroke="#000000" points="181.6151,-570 78.3849,-570 78.3849,-534 187.6151,-534 187.6151,-564 181.6151,-570"/>
<polyline fill="none" stroke="#000000" points="181.6151,-570 181.6151,-564 "/>
<polyline fill="none" stroke="#000000" points="187.6151,-564 181.6151,-564 "/>
<text text-anchor="middle" x="133" y="-555" font-family="Helvetica,sans-Serif" font-size="10.00" fill="#000000">Simple Composite</text>
<text text-anchor="middle" x="133" y="-543" font-family="Helvetica,sans-Serif" font-size="10.00" fill="#000000">Pattern</text>
</g>
<!-- A1 -->
<g id="node2" class="node">
<title>A1</title>
<polygon fill="#ff0000" stroke="transparent" points="205.5,-510 205.5,-594 280.5,-594 280.5,-510 205.5,-510"/>
<polygon fill="none" stroke="#000000" points="206,-562 206,-594 281,-594 281,-562 206,-562"/>
<text text-anchor="start" x="222.3935" y="-575" font-family="Helvetica,sans-Serif" font-size="10.00" fill="#000000">CallClass</text>
<polygon fill="none" stroke="#000000" points="206,-542 206,-562 281,-562 281,-542 206,-542"/>
<polygon fill="none" stroke="#000000" points="206,-510 206,-542 281,-542 281,-510 206,-510"/>
<text text-anchor="start" x="215.8605" y="-523" font-family="Helvetica,sans-Serif" font-size="10.00" fill="#000000">+main():void</text>
</g>
<!-- A2 -->
<g id="node3" class="node">
<title>A2</title>
<polygon fill="none" stroke="#000000" points="126,-416 126,-460 360,-460 360,-416 126,-416"/>
<text text-anchor="start" x="212.151" y="-441" font-family="Helvetica,sans-Serif" font-size="10.00" fill="#000000">&lt;&lt;interface&gt;&gt;</text>
<text text-anchor="start" x="217.1595" y="-429" font-family="Helvetica,sans-Serif" font-size="10.00" fill="#000000">Component</text>
<polygon fill="none" stroke="#000000" points="126,-396 126,-416 360,-416 360,-396 126,-396"/>
<polygon fill="none" stroke="#000000" points="126,-328 126,-396 360,-396 360,-328 126,-328"/>
<text text-anchor="start" x="205.3535" y="-377" font-family="Helvetica,sans-Serif" font-size="10.00" fill="#000000">+operate():String</text>
<text text-anchor="start" x="135.8945" y="-365" font-family="Helvetica,sans-Serif" font-size="10.00" fill="#000000">+addComposite(Composite: composite):boolean</text>
<text text-anchor="start" x="137.5645" y="-353" font-family="Helvetica,sans-Serif" font-size="10.00" fill="#000000">+delComposite(Composite: composite):boolean</text>
<text text-anchor="start" x="161.4605" y="-341" font-family="Helvetica,sans-Serif" font-size="10.00" fill="#000000">+getAllComposite():List&lt;Composite&gt;</text>
</g>
<!-- A1&#45;&gt;A2 -->
<g id="edge5" class="edge">
<title>A1&#45;&gt;A2</title>
<path fill="none" stroke="#000000" d="M243,-509.6589C243,-497.5672 243,-484.0032 243,-470.5349"/>
<polygon fill="#000000" stroke="#000000" points="243,-460.2802 247.5001,-470.2801 243,-465.2802 243.0001,-470.2802 243.0001,-470.2802 243.0001,-470.2802 243,-465.2802 238.5001,-470.2802 243,-460.2802 243,-460.2802"/>
</g>
<!-- A3 -->
<g id="node4" class="node">
<title>A3</title>
<polygon fill="none" stroke="#000000" points="0,-228 0,-272 234,-272 234,-228 0,-228"/>
<text text-anchor="start" x="87.54" y="-253" font-family="Helvetica,sans-Serif" font-size="10.00" fill="#000000">&lt;&lt;abstract&gt;&gt;</text>
<text text-anchor="start" x="88.935" y="-241" font-family="Helvetica,sans-Serif" font-size="10.00" fill="#000000">AbsrtactLeaf</text>
<polygon fill="none" stroke="#000000" points="0,-208 0,-228 234,-228 234,-208 0,-208"/>
<polygon fill="none" stroke="#000000" points="0,-140 0,-208 234,-208 234,-140 0,-140"/>
<text text-anchor="start" x="79.3535" y="-189" font-family="Helvetica,sans-Serif" font-size="10.00" fill="#000000">+operate():String</text>
<text text-anchor="start" x="9.8945" y="-177" font-family="Helvetica,sans-Serif" font-size="10.00" fill="#000000">+addComposite(Composite: composite):boolean</text>
<text text-anchor="start" x="11.5645" y="-165" font-family="Helvetica,sans-Serif" font-size="10.00" fill="#000000">+delComposite(Composite: composite):boolean</text>
<text text-anchor="start" x="35.4605" y="-153" font-family="Helvetica,sans-Serif" font-size="10.00" fill="#000000">+getAllComposite():List&lt;Composite&gt;</text>
</g>
<!-- A2&#45;&gt;A3 -->
<g id="edge1" class="edge">
<title>A2&#45;&gt;A3</title>
<path fill="none" stroke="#000000" stroke-dasharray="5,2" d="M193.0035,-319.4021C182.5456,-303.7982 171.5878,-287.4485 161.3519,-272.1759"/>
<polygon fill="none" stroke="#000000" points="190.2795,-321.6243 198.7543,-327.9826 196.0943,-317.7271 190.2795,-321.6243"/>
</g>
<!-- A4 -->
<g id="node5" class="node">
<title>A4</title>
<polygon fill="none" stroke="#000000" points="252,-234 252,-278 486,-278 486,-234 252,-234"/>
<text text-anchor="start" x="339.54" y="-259" font-family="Helvetica,sans-Serif" font-size="10.00" fill="#000000">&lt;&lt;abstract&gt;&gt;</text>
<text text-anchor="start" x="345.109" y="-247" font-family="Helvetica,sans-Serif" font-size="10.00" fill="#000000">Composite</text>
<polygon fill="none" stroke="#000000" points="252,-202 252,-234 486,-234 486,-202 252,-202"/>
<text text-anchor="start" x="318.1595" y="-215" font-family="Helvetica,sans-Serif" font-size="10.00" fill="#000000">&#45;List&lt;Composite&gt;:child</text>
<polygon fill="none" stroke="#000000" points="252,-134 252,-202 486,-202 486,-134 252,-134"/>
<text text-anchor="start" x="331.3535" y="-183" font-family="Helvetica,sans-Serif" font-size="10.00" fill="#000000">+operate():String</text>
<text text-anchor="start" x="261.8945" y="-171" font-family="Helvetica,sans-Serif" font-size="10.00" fill="#000000">+addComposite(Composite: composite):boolean</text>
<text text-anchor="start" x="263.5645" y="-159" font-family="Helvetica,sans-Serif" font-size="10.00" fill="#000000">+delComposite(Composite: composite):boolean</text>
<text text-anchor="start" x="287.4605" y="-147" font-family="Helvetica,sans-Serif" font-size="10.00" fill="#000000">+getAllComposite():List&lt;Composite&gt;</text>
</g>
<!-- A2&#45;&gt;A4 -->
<g id="edge2" class="edge">
<title>A2&#45;&gt;A4</title>
<path fill="none" stroke="#000000" stroke-dasharray="5,2" d="M292.8674,-319.5947C301.9876,-305.9868 311.492,-291.8056 320.5695,-278.2614"/>
<polygon fill="none" stroke="#000000" points="289.9057,-317.7271 287.2457,-327.9826 295.7206,-321.6243 289.9057,-317.7271"/>
</g>
<!-- A5 -->
<g id="node6" class="node">
<title>A5</title>
<polygon fill="none" stroke="#000000" points="70,-52 70,-84 165,-84 165,-52 70,-52"/>
<text text-anchor="start" x="107.772" y="-65" font-family="Helvetica,sans-Serif" font-size="10.00" fill="#000000">Leaf</text>
<polygon fill="none" stroke="#000000" points="70,-32 70,-52 165,-52 165,-32 70,-32"/>
<polygon fill="none" stroke="#000000" points="70,0 70,-32 165,-32 165,0 70,0"/>
<text text-anchor="start" x="79.8535" y="-13" font-family="Helvetica,sans-Serif" font-size="10.00" fill="#000000">+operate():String</text>
</g>
<!-- A3&#45;&gt;A5 -->
<g id="edge3" class="edge">
<title>A3&#45;&gt;A5</title>
<path fill="none" stroke="#000000" stroke-dasharray="5,2" d="M117,-129.6179C117,-114.0775 117,-98.2668 117,-84.4323"/>
<polygon fill="none" stroke="#000000" points="113.5001,-129.7676 117,-139.7676 120.5001,-129.7677 113.5001,-129.7676"/>
</g>
<!-- A6 -->
<g id="node7" class="node">
<title>A6</title>
<polygon fill="none" stroke="#000000" points="322,-52 322,-84 417,-84 417,-52 322,-52"/>
<text text-anchor="start" x="336.7155" y="-65" font-family="Helvetica,sans-Serif" font-size="10.00" fill="#000000">SubComposite</text>
<polygon fill="none" stroke="#000000" points="322,-32 322,-52 417,-52 417,-32 322,-32"/>
<polygon fill="none" stroke="#000000" points="322,0 322,-32 417,-32 417,0 322,0"/>
<text text-anchor="start" x="331.8535" y="-13" font-family="Helvetica,sans-Serif" font-size="10.00" fill="#000000">+operate():String</text>
</g>
<!-- A4&#45;&gt;A6 -->
<g id="edge4" class="edge">
<title>A4&#45;&gt;A6</title>
<path fill="none" stroke="#000000" stroke-dasharray="5,2" d="M369,-123.2978C369,-109.814 369,-96.3554 369,-84.3807"/>
<polygon fill="none" stroke="#000000" points="365.5001,-123.5898 369,-133.5898 372.5001,-123.5899 365.5001,-123.5898"/>
</g>
</g>
</svg>
