<?xml version="1.0" encoding="UTF-8" standalone="no"?>
<!DOCTYPE svg PUBLIC "-//W3C//DTD SVG 1.1//EN"
 "http://www.w3.org/Graphics/SVG/1.1/DTD/svg11.dtd">
<!-- Generated by graphviz version 2.40.1 (20161225.0304)
 -->
<!-- Title: G Pages: 1 -->
<svg width="230pt" height="104pt"
 viewBox="0.00 0.00 229.56 104.00" xmlns="http://www.w3.org/2000/svg" xmlns:xlink="http://www.w3.org/1999/xlink">
<g id="graph0" class="graph" transform="scale(1 1) rotate(0) translate(4 100)">
<title>G</title>
<polygon fill="#ffffff" stroke="transparent" points="-4,4 -4,-100 225.5575,-100 225.5575,4 -4,4"/>
<!-- A0 -->
<g id="node1" class="node">
<title>A0</title>
<polygon fill="#fff8dc" stroke="#000000" points="103.1726,-66 -.0576,-66 -.0576,-30 109.1726,-30 109.1726,-60 103.1726,-66"/>
<polyline fill="none" stroke="#000000" points="103.1726,-66 103.1726,-60 "/>
<polyline fill="none" stroke="#000000" points="109.1726,-60 103.1726,-60 "/>
<text text-anchor="middle" x="54.5575" y="-51" font-family="Helvetica,sans-Serif" font-size="10.00" fill="#000000">Simple Composite</text>
<text text-anchor="middle" x="54.5575" y="-39" font-family="Helvetica,sans-Serif" font-size="10.00" fill="#000000">Pattern</text>
</g>
<!-- A1 -->
<g id="node2" class="node">
<title>A1</title>
<polygon fill="none" stroke="#000000" points="127.5575,-52 127.5575,-96 221.5575,-96 221.5575,-52 127.5575,-52"/>
<text text-anchor="start" x="145.0975" y="-77" font-family="Helvetica,sans-Serif" font-size="10.00" fill="#000000">&lt;&lt;abstract&gt;&gt;</text>
<text text-anchor="start" x="150.6665" y="-65" font-family="Helvetica,sans-Serif" font-size="10.00" fill="#000000">Composite</text>
<polygon fill="none" stroke="#000000" points="127.5575,-20 127.5575,-52 221.5575,-52 221.5575,-20 127.5575,-20"/>
<text text-anchor="start" x="137.3345" y="-33" font-family="Helvetica,sans-Serif" font-size="10.00" fill="#000000">&#45;Composite:child</text>
<polygon fill="none" stroke="#000000" points="127.5575,0 127.5575,-20 221.5575,-20 221.5575,0 127.5575,0"/>
</g>
</g>
</svg>
