<?xml version="1.0" encoding="UTF-8" standalone="no"?>
<!DOCTYPE svg PUBLIC "-//W3C//DTD SVG 1.1//EN"
 "http://www.w3.org/Graphics/SVG/1.1/DTD/svg11.dtd">
<!-- Generated by graphviz version 2.40.1 (20161225.0304)
 -->
<!-- Title: G Pages: 1 -->
<svg width="270pt" height="614pt"
 viewBox="0.00 0.00 270.34 614.00" xmlns="http://www.w3.org/2000/svg" xmlns:xlink="http://www.w3.org/1999/xlink">
<g id="graph0" class="graph" transform="scale(1 1) rotate(0) translate(4 610)">
<title>G</title>
<polygon fill="#ffffff" stroke="transparent" points="-4,4 -4,-610 266.3425,-610 266.3425,4 -4,4"/>
<!-- A0 -->
<g id="node1" class="node">
<title>A0</title>
<polygon fill="#fff8dc" stroke="#000000" points="98.528,-582 .157,-582 .157,-546 104.528,-546 104.528,-576 98.528,-582"/>
<polyline fill="none" stroke="#000000" points="98.528,-582 98.528,-576 "/>
<polyline fill="none" stroke="#000000" points="104.528,-576 98.528,-576 "/>
<text text-anchor="middle" x="52.3425" y="-561" font-family="Helvetica,sans-Serif" font-size="10.00" fill="#000000">Memento Pattern</text>
</g>
<!-- A1 -->
<g id="node2" class="node">
<title>A1</title>
<polygon fill="none" stroke="#000000" points="109.3425,-270 109.3425,-302 212.3425,-302 212.3425,-270 109.3425,-270"/>
<text text-anchor="start" x="140.006" y="-283" font-family="Helvetica,sans-Serif" font-size="10.00" fill="#000000">Memento</text>
<polygon fill="none" stroke="#000000" points="109.3425,-238 109.3425,-270 212.3425,-270 212.3425,-238 109.3425,-238"/>
<text text-anchor="start" x="131.3935" y="-251" font-family="Helvetica,sans-Serif" font-size="10.00" fill="#000000">&#45;String:status</text>
<polygon fill="none" stroke="#000000" points="109.3425,-170 109.3425,-238 212.3425,-238 212.3425,-170 109.3425,-170"/>
<text text-anchor="start" x="122.365" y="-219" font-family="Helvetica,sans-Serif" font-size="10.00" fill="#000000">+Memento(String</text>
<text text-anchor="start" x="145.84" y="-207" font-family="Helvetica,sans-Serif" font-size="10.00" fill="#000000">status)</text>
<text text-anchor="start" x="119.0265" y="-195" font-family="Helvetica,sans-Serif" font-size="10.00" fill="#000000">+getStatus():String</text>
<text text-anchor="start" x="123.1945" y="-183" font-family="Helvetica,sans-Serif" font-size="10.00" fill="#000000">+setStatus():void</text>
</g>
<!-- A2 -->
<g id="node3" class="node">
<title>A2</title>
<polygon fill="none" stroke="#000000" points="58.3425,-88 58.3425,-120 262.3425,-120 262.3425,-88 58.3425,-88"/>
<text text-anchor="start" x="134.2275" y="-101" font-family="Helvetica,sans-Serif" font-size="10.00" fill="#000000">Organizator</text>
<polygon fill="none" stroke="#000000" points="58.3425,-44 58.3425,-88 262.3425,-88 262.3425,-44 58.3425,-44"/>
<text text-anchor="start" x="115.6155" y="-69" font-family="Helvetica,sans-Serif" font-size="10.00" fill="#000000">&#45;Memento:memento</text>
<text text-anchor="start" x="130.8935" y="-57" font-family="Helvetica,sans-Serif" font-size="10.00" fill="#000000">&#45;String:status</text>
<polygon fill="none" stroke="#000000" points="58.3425,0 58.3425,-44 262.3425,-44 262.3425,0 58.3425,0"/>
<text text-anchor="start" x="97.139" y="-25" font-family="Helvetica,sans-Serif" font-size="10.00" fill="#000000">+createMemento():Memento</text>
<text text-anchor="start" x="68.2435" y="-13" font-family="Helvetica,sans-Serif" font-size="10.00" fill="#000000">+SaveMemento(Memento memento):void</text>
</g>
<!-- A1&#45;&gt;A2 -->
<g id="edge1" class="edge">
<title>A1&#45;&gt;A2</title>
<path fill="none" stroke="#000000" stroke-dasharray="5,2" d="M160.3425,-159.8641C160.3425,-146.5358 160.3425,-132.8378 160.3425,-120.0232"/>
<polygon fill="#000000" stroke="#000000" points="160.3425,-169.9634 155.8426,-159.9633 160.3425,-164.9634 160.3426,-159.9634 160.3426,-159.9634 160.3426,-159.9634 160.3425,-164.9634 164.8426,-159.9634 160.3425,-169.9634 160.3425,-169.9634"/>
</g>
<!-- A3 -->
<g id="node4" class="node">
<title>A3</title>
<polygon fill="none" stroke="#000000" points="76.3425,-440 76.3425,-472 245.3425,-472 245.3425,-440 76.3425,-440"/>
<text text-anchor="start" x="137.2315" y="-453" font-family="Helvetica,sans-Serif" font-size="10.00" fill="#000000">CareTaker</text>
<polygon fill="none" stroke="#000000" points="76.3425,-408 76.3425,-440 245.3425,-440 245.3425,-408 76.3425,-408"/>
<text text-anchor="start" x="94.7195" y="-421" font-family="Helvetica,sans-Serif" font-size="10.00" fill="#000000">&#45;List&lt;Memento&gt;:mementoList</text>
<polygon fill="none" stroke="#000000" points="76.3425,-352 76.3425,-408 245.3425,-408 245.3425,-352 76.3425,-352"/>
<text text-anchor="start" x="106.247" y="-389" font-family="Helvetica,sans-Serif" font-size="10.00" fill="#000000">+addMemento(Memento</text>
<text text-anchor="start" x="119.1655" y="-377" font-family="Helvetica,sans-Serif" font-size="10.00" fill="#000000">memento):boolean</text>
<text text-anchor="start" x="85.967" y="-365" font-family="Helvetica,sans-Serif" font-size="10.00" fill="#000000">+getMemento(int index):Memento</text>
</g>
<!-- A3&#45;&gt;A1 -->
<g id="edge2" class="edge">
<title>A3&#45;&gt;A1</title>
<path fill="none" stroke="#000000" d="M160.3425,-339.6782C160.3425,-330.6493 160.3425,-321.3929 160.3425,-312.3059"/>
<polygon fill="none" stroke="#000000" points="160.3426,-339.923 164.3425,-345.9231 160.3425,-351.923 156.3425,-345.923 160.3426,-339.923"/>
<polygon fill="#000000" stroke="#000000" points="160.3425,-302.1394 164.8426,-312.1394 160.3425,-307.1394 160.3426,-312.1394 160.3426,-312.1394 160.3426,-312.1394 160.3425,-307.1394 155.8426,-312.1395 160.3425,-302.1394 160.3425,-302.1394"/>
</g>
<!-- A4 -->
<g id="node5" class="node">
<title>A4</title>
<polygon fill="#ff0000" stroke="transparent" points="122.8425,-522 122.8425,-606 197.8425,-606 197.8425,-522 122.8425,-522"/>
<polygon fill="none" stroke="#000000" points="123.3425,-574 123.3425,-606 198.3425,-606 198.3425,-574 123.3425,-574"/>
<text text-anchor="start" x="139.736" y="-587" font-family="Helvetica,sans-Serif" font-size="10.00" fill="#000000">CallClass</text>
<polygon fill="none" stroke="#000000" points="123.3425,-554 123.3425,-574 198.3425,-574 198.3425,-554 123.3425,-554"/>
<polygon fill="none" stroke="#000000" points="123.3425,-522 123.3425,-554 198.3425,-554 198.3425,-522 123.3425,-522"/>
<text text-anchor="start" x="133.203" y="-535" font-family="Helvetica,sans-Serif" font-size="10.00" fill="#000000">+main():void</text>
</g>
<!-- A4&#45;&gt;A3 -->
<g id="edge3" class="edge">
<title>A4&#45;&gt;A3</title>
<path fill="none" stroke="#000000" d="M160.3425,-521.6595C160.3425,-509.4096 160.3425,-495.6975 160.3425,-482.2286"/>
<polygon fill="#000000" stroke="#000000" points="160.3425,-472.0045 164.8426,-482.0045 160.3425,-477.0045 160.3426,-482.0045 160.3426,-482.0045 160.3426,-482.0045 160.3425,-477.0045 155.8426,-482.0046 160.3425,-472.0045 160.3425,-472.0045"/>
</g>
</g>
</svg>
