<?xml version="1.0" encoding="UTF-8" standalone="no"?>
<!DOCTYPE svg PUBLIC "-//W3C//DTD SVG 1.1//EN"
 "http://www.w3.org/Graphics/SVG/1.1/DTD/svg11.dtd">
<!-- Generated by graphviz version 2.40.1 (20161225.0304)
 -->
<!-- Title: G Pages: 1 -->
<svg width="840pt" height="408pt"
 viewBox="0.00 0.00 839.50 408.00" xmlns="http://www.w3.org/2000/svg" xmlns:xlink="http://www.w3.org/1999/xlink">
<g id="graph0" class="graph" transform="scale(1 1) rotate(0) translate(4 404)">
<title>G</title>
<polygon fill="#ffffff" stroke="transparent" points="-4,4 -4,-404 835.5,-404 835.5,4 -4,4"/>
<!-- A0 -->
<g id="node1" class="node">
<title>A0</title>
<polygon fill="#fff8dc" stroke="#000000" points="319.6311,-376 216.3689,-376 216.3689,-340 325.6311,-340 325.6311,-370 319.6311,-376"/>
<polyline fill="none" stroke="#000000" points="319.6311,-376 319.6311,-370 "/>
<polyline fill="none" stroke="#000000" points="325.6311,-370 319.6311,-370 "/>
<text text-anchor="middle" x="271" y="-355" font-family="Helvetica,sans-Serif" font-size="10.00" fill="#000000">Interpreter Pattern</text>
</g>
<!-- A1 -->
<g id="node2" class="node">
<title>A1</title>
<polygon fill="none" stroke="#000000" points="295,-222 295,-266 377,-266 377,-222 295,-222"/>
<text text-anchor="start" x="305.151" y="-247" font-family="Helvetica,sans-Serif" font-size="10.00" fill="#000000">&lt;&lt;interface&gt;&gt;</text>
<text text-anchor="start" x="311.2735" y="-235" font-family="Helvetica,sans-Serif" font-size="10.00" fill="#000000">Expression</text>
<polygon fill="none" stroke="#000000" points="295,-202 295,-222 377,-222 377,-202 295,-202"/>
<polygon fill="none" stroke="#000000" points="295,-170 295,-202 377,-202 377,-170 295,-170"/>
<text text-anchor="start" x="304.748" y="-183" font-family="Helvetica,sans-Serif" font-size="10.00" fill="#000000">+interpret():int</text>
</g>
<!-- A2 -->
<g id="node3" class="node">
<title>A2</title>
<polygon fill="none" stroke="#000000" points="0,-82 0,-114 158,-114 158,-82 0,-82"/>
<text text-anchor="start" x="34.8325" y="-95" font-family="Helvetica,sans-Serif" font-size="10.00" fill="#000000">TerminalExpression</text>
<polygon fill="none" stroke="#000000" points="0,-50 0,-82 158,-82 158,-50 0,-50"/>
<text text-anchor="start" x="58.7195" y="-63" font-family="Helvetica,sans-Serif" font-size="10.00" fill="#000000">&#45;int:value</text>
<polygon fill="none" stroke="#000000" points="0,-6 0,-50 158,-50 158,-6 0,-6"/>
<text text-anchor="start" x="9.968" y="-31" font-family="Helvetica,sans-Serif" font-size="10.00" fill="#000000">+TreminalExpression(int value)</text>
<text text-anchor="start" x="47.748" y="-19" font-family="Helvetica,sans-Serif" font-size="10.00" fill="#000000">+interpret():int</text>
</g>
<!-- A1&#45;&gt;A2 -->
<g id="edge1" class="edge">
<title>A1&#45;&gt;A2</title>
<path fill="none" stroke="#000000" stroke-dasharray="5,2" d="M286.0615,-190.308C252.1128,-171.1752 206.3876,-144.8015 167,-120 164.027,-118.128 161.0106,-116.2033 157.9735,-114.2441"/>
<polygon fill="none" stroke="#000000" points="284.4353,-193.4089 294.8676,-195.2575 287.865,-187.3067 284.4353,-193.4089"/>
</g>
<!-- A3 -->
<g id="node4" class="node">
<title>A3</title>
<polygon fill="none" stroke="#000000" points="176,-88 176,-120 496,-120 496,-88 176,-88"/>
<text text-anchor="start" x="300.995" y="-101" font-family="Helvetica,sans-Serif" font-size="10.00" fill="#000000">SumExpression</text>
<polygon fill="none" stroke="#000000" points="176,-44 176,-88 496,-88 496,-44 176,-44"/>
<text text-anchor="start" x="281.2685" y="-69" font-family="Helvetica,sans-Serif" font-size="10.00" fill="#000000">&#45;Expression:expression1</text>
<text text-anchor="start" x="281.2685" y="-57" font-family="Helvetica,sans-Serif" font-size="10.00" fill="#000000">&#45;Expression:expression2</text>
<polygon fill="none" stroke="#000000" points="176,0 176,-44 496,-44 496,0 176,0"/>
<text text-anchor="start" x="185.8335" y="-25" font-family="Helvetica,sans-Serif" font-size="10.00" fill="#000000">+SumExpression(Expression expression1, Expression expression2)</text>
<text text-anchor="start" x="304.748" y="-13" font-family="Helvetica,sans-Serif" font-size="10.00" fill="#000000">+interpret():int</text>
</g>
<!-- A1&#45;&gt;A3 -->
<g id="edge2" class="edge">
<title>A1&#45;&gt;A3</title>
<path fill="none" stroke="#000000" stroke-dasharray="5,2" d="M336,-159.6338C336,-146.7923 336,-133.1686 336,-120.2542"/>
<polygon fill="none" stroke="#000000" points="332.5001,-159.7362 336,-169.7363 339.5001,-159.7363 332.5001,-159.7362"/>
</g>
<!-- A4 -->
<g id="node5" class="node">
<title>A4</title>
<polygon fill="none" stroke="#000000" points="515,-88 515,-120 832,-120 832,-88 515,-88"/>
<text text-anchor="start" x="639.88" y="-101" font-family="Helvetica,sans-Serif" font-size="10.00" fill="#000000">SubExpression</text>
<polygon fill="none" stroke="#000000" points="515,-44 515,-88 832,-88 832,-44 515,-44"/>
<text text-anchor="start" x="618.7685" y="-69" font-family="Helvetica,sans-Serif" font-size="10.00" fill="#000000">&#45;Expression:expression1</text>
<text text-anchor="start" x="618.7685" y="-57" font-family="Helvetica,sans-Serif" font-size="10.00" fill="#000000">&#45;Expression:expression2</text>
<polygon fill="none" stroke="#000000" points="515,0 515,-44 832,-44 832,0 515,0"/>
<text text-anchor="start" x="524.7185" y="-25" font-family="Helvetica,sans-Serif" font-size="10.00" fill="#000000">+SubExpression(Expression expression1, Expression expression2)</text>
<text text-anchor="start" x="642.248" y="-13" font-family="Helvetica,sans-Serif" font-size="10.00" fill="#000000">+interpret():int</text>
</g>
<!-- A1&#45;&gt;A4 -->
<g id="edge3" class="edge">
<title>A1&#45;&gt;A4</title>
<path fill="none" stroke="#000000" stroke-dasharray="5,2" d="M385.4479,-170.3528C385.6318,-170.2345 385.8159,-170.1169 386,-170 398.5869,-162.0119 454.8734,-140.037 514.3094,-117.8086"/>
<polygon fill="none" stroke="#000000" points="383.4261,-167.4958 377.2706,-176.119 387.4601,-173.2165 383.4261,-167.4958"/>
</g>
<!-- A5 -->
<g id="node6" class="node">
<title>A5</title>
<polygon fill="#ff0000" stroke="transparent" points="343.5,-316 343.5,-400 418.5,-400 418.5,-316 343.5,-316"/>
<polygon fill="none" stroke="#000000" points="344,-368 344,-400 419,-400 419,-368 344,-368"/>
<text text-anchor="start" x="360.3935" y="-381" font-family="Helvetica,sans-Serif" font-size="10.00" fill="#000000">CallClass</text>
<polygon fill="none" stroke="#000000" points="344,-348 344,-368 419,-368 419,-348 344,-348"/>
<polygon fill="none" stroke="#000000" points="344,-316 344,-348 419,-348 419,-316 344,-316"/>
<text text-anchor="start" x="353.8605" y="-329" font-family="Helvetica,sans-Serif" font-size="10.00" fill="#000000">+main():void</text>
</g>
<!-- A5&#45;&gt;A1 -->
<g id="edge4" class="edge">
<title>A5&#45;&gt;A1</title>
<path fill="none" stroke="#000000" d="M367.4985,-315.9954C363.457,-303.4219 358.9518,-289.4057 354.6414,-275.9953"/>
<polygon fill="#000000" stroke="#000000" points="351.5465,-266.3669 358.8908,-274.5101 353.0766,-271.127 354.6067,-275.8872 354.6067,-275.8872 354.6067,-275.8872 353.0766,-271.127 350.3225,-277.2643 351.5465,-266.3669 351.5465,-266.3669"/>
</g>
<!-- A6 -->
<g id="node7" class="node">
<title>A6</title>
<polygon fill="#c0c0c0" stroke="#000000" points="457.4557,-236 394.5443,-236 394.5443,-200 457.4557,-200 457.4557,-236"/>
<text text-anchor="middle" x="426" y="-215" font-family="Helvetica,sans-Serif" font-size="10.00" fill="#000000">Context</text>
</g>
<!-- A5&#45;&gt;A6 -->
<g id="edge5" class="edge">
<title>A5&#45;&gt;A6</title>
<path fill="none" stroke="#000000" d="M394.5015,-315.9954C401.7766,-293.3616 410.5545,-266.0526 416.994,-246.0188"/>
<polygon fill="#000000" stroke="#000000" points="420.1279,-236.2689 421.3518,-247.1662 418.5978,-241.029 417.0677,-245.7892 417.0677,-245.7892 417.0677,-245.7892 418.5978,-241.029 412.7836,-244.4121 420.1279,-236.2689 420.1279,-236.2689"/>
</g>
</g>
</svg>
