<?xml version="1.0" encoding="UTF-8" standalone="no"?>
<!DOCTYPE svg PUBLIC "-//W3C//DTD SVG 1.1//EN"
 "http://www.w3.org/Graphics/SVG/1.1/DTD/svg11.dtd">
<!-- Generated by graphviz version 2.40.1 (20161225.0304)
 -->
<!-- Title: G Pages: 1 -->
<svg width="341pt" height="396pt"
 viewBox="0.00 0.00 341.01 396.00" xmlns="http://www.w3.org/2000/svg" xmlns:xlink="http://www.w3.org/1999/xlink">
<g id="graph0" class="graph" transform="scale(1 1) rotate(0) translate(4 392)">
<title>G</title>
<polygon fill="#ffffff" stroke="transparent" points="-4,4 -4,-392 337.0125,-392 337.0125,4 -4,4"/>
<!-- A0 -->
<g id="node1" class="node">
<title>A0</title>
<polygon fill="#fff8dc" stroke="#000000" points="92.0375,-364 -.0125,-364 -.0125,-328 98.0375,-328 98.0375,-358 92.0375,-364"/>
<polyline fill="none" stroke="#000000" points="92.0375,-364 92.0375,-358 "/>
<polyline fill="none" stroke="#000000" points="98.0375,-358 92.0375,-358 "/>
<text text-anchor="middle" x="49.0125" y="-343" font-family="Helvetica,sans-Serif" font-size="10.00" fill="#000000">Adapter Pattern</text>
</g>
<!-- A1 -->
<g id="node2" class="node">
<title>A1</title>
<polygon fill="#ff0000" stroke="transparent" points="116.5125,-304 116.5125,-388 191.5125,-388 191.5125,-304 116.5125,-304"/>
<polygon fill="none" stroke="#000000" points="117.0125,-356 117.0125,-388 192.0125,-388 192.0125,-356 117.0125,-356"/>
<text text-anchor="start" x="133.406" y="-369" font-family="Helvetica,sans-Serif" font-size="10.00" fill="#000000">CallClass</text>
<polygon fill="none" stroke="#000000" points="117.0125,-336 117.0125,-356 192.0125,-356 192.0125,-336 117.0125,-336"/>
<polygon fill="none" stroke="#000000" points="117.0125,-304 117.0125,-336 192.0125,-336 192.0125,-304 117.0125,-304"/>
<text text-anchor="start" x="126.873" y="-317" font-family="Helvetica,sans-Serif" font-size="10.00" fill="#000000">+main():void</text>
</g>
<!-- A3 -->
<g id="node4" class="node">
<title>A3</title>
<polygon fill="none" stroke="#000000" points="88.0125,-210 88.0125,-254 221.0125,-254 221.0125,-210 88.0125,-210"/>
<text text-anchor="start" x="125.0525" y="-235" font-family="Helvetica,sans-Serif" font-size="10.00" fill="#000000">&lt;&lt;abstruct&gt;&gt;</text>
<text text-anchor="start" x="140.0655" y="-223" font-family="Helvetica,sans-Serif" font-size="10.00" fill="#000000">Target</text>
<polygon fill="none" stroke="#000000" points="88.0125,-178 88.0125,-210 221.0125,-210 221.0125,-178 88.0125,-178"/>
<text text-anchor="start" x="114.7705" y="-191" font-family="Helvetica,sans-Serif" font-size="10.00" fill="#000000">&#45;Adaptee:adaptee</text>
<polygon fill="none" stroke="#000000" points="88.0125,-146 88.0125,-178 221.0125,-178 221.0125,-146 88.0125,-146"/>
<text text-anchor="start" x="97.6895" y="-159" font-family="Helvetica,sans-Serif" font-size="10.00" fill="#000000">+adapterMethod():Integer</text>
</g>
<!-- A1&#45;&gt;A3 -->
<g id="edge1" class="edge">
<title>A1&#45;&gt;A3</title>
<path fill="none" stroke="#000000" d="M154.0125,-303.7708C154.0125,-291.4224 154.0125,-277.6361 154.0125,-264.2483"/>
<polygon fill="#000000" stroke="#000000" points="154.0125,-254.1186 158.5126,-264.1186 154.0125,-259.1186 154.0126,-264.1186 154.0126,-264.1186 154.0126,-264.1186 154.0125,-259.1186 149.5126,-264.1187 154.0125,-254.1186 154.0125,-254.1186"/>
</g>
<!-- A2 -->
<g id="node3" class="node">
<title>A2</title>
<polygon fill="none" stroke="#000000" points="239.0125,-210 239.0125,-242 333.0125,-242 333.0125,-210 239.0125,-210"/>
<text text-anchor="start" x="267.391" y="-223" font-family="Helvetica,sans-Serif" font-size="10.00" fill="#000000">Adaptee</text>
<polygon fill="none" stroke="#000000" points="239.0125,-190 239.0125,-210 333.0125,-210 333.0125,-190 239.0125,-190"/>
<polygon fill="none" stroke="#000000" points="239.0125,-158 239.0125,-190 333.0125,-190 333.0125,-158 239.0125,-158"/>
<text text-anchor="start" x="248.6455" y="-171" font-family="Helvetica,sans-Serif" font-size="10.00" fill="#000000">+method():String</text>
</g>
<!-- A4 -->
<g id="node5" class="node">
<title>A4</title>
<polygon fill="none" stroke="#000000" points="154.0125,-64 154.0125,-96 287.0125,-96 287.0125,-64 154.0125,-64"/>
<text text-anchor="start" x="203.006" y="-77" font-family="Helvetica,sans-Serif" font-size="10.00" fill="#000000">Adapter</text>
<polygon fill="none" stroke="#000000" points="154.0125,-32 154.0125,-64 287.0125,-64 287.0125,-32 154.0125,-32"/>
<text text-anchor="start" x="180.7705" y="-45" font-family="Helvetica,sans-Serif" font-size="10.00" fill="#000000">&#45;Adaptee:adaptee</text>
<polygon fill="none" stroke="#000000" points="154.0125,0 154.0125,-32 287.0125,-32 287.0125,0 154.0125,0"/>
<text text-anchor="start" x="163.6895" y="-13" font-family="Helvetica,sans-Serif" font-size="10.00" fill="#000000">+adapterMethod():Integer</text>
</g>
<!-- A2&#45;&gt;A4 -->
<g id="edge3" class="edge">
<title>A2&#45;&gt;A4</title>
<path fill="none" stroke="#000000" d="M263.6273,-148.4462C256.2607,-131.4807 248.1043,-112.6963 240.8571,-96.0057"/>
<polygon fill="#000000" stroke="#000000" points="267.6278,-157.6595 259.5172,-150.2792 265.6364,-153.0732 263.6449,-148.4869 263.6449,-148.4869 263.6449,-148.4869 265.6364,-153.0732 267.7726,-146.6946 267.6278,-157.6595 267.6278,-157.6595"/>
</g>
<!-- A3&#45;&gt;A4 -->
<g id="edge2" class="edge">
<title>A3&#45;&gt;A4</title>
<path fill="none" stroke="#000000" stroke-dasharray="5,2" d="M181.5061,-136.6814C187.4095,-123.0858 193.5548,-108.933 199.1573,-96.0302"/>
<polygon fill="none" stroke="#000000" points="178.24,-135.4159 177.4675,-145.9825 184.6608,-138.2039 178.24,-135.4159"/>
</g>
</g>
</svg>
