<?xml version="1.0" encoding="UTF-8" standalone="no"?>
<!DOCTYPE svg PUBLIC "-//W3C//DTD SVG 1.1//EN"
 "http://www.w3.org/Graphics/SVG/1.1/DTD/svg11.dtd">
<!-- Generated by graphviz version 2.40.1 (20161225.0304)
 -->
<!-- Title: G Pages: 1 -->
<svg width="250pt" height="716pt"
 viewBox="0.00 0.00 250.00 716.00" xmlns="http://www.w3.org/2000/svg" xmlns:xlink="http://www.w3.org/1999/xlink">
<g id="graph0" class="graph" transform="scale(1 1) rotate(0) translate(4 712)">
<title>G</title>
<polygon fill="#ffffff" stroke="transparent" points="-4,4 -4,-712 246,-712 246,4 -4,4"/>
<!-- A0 -->
<g id="node1" class="node">
<title>A0</title>
<polygon fill="#fff8dc" stroke="#000000" points="110.7862,-694 21.2138,-694 21.2138,-658 116.7862,-658 116.7862,-688 110.7862,-694"/>
<polyline fill="none" stroke="#000000" points="110.7862,-694 110.7862,-688 "/>
<polyline fill="none" stroke="#000000" points="116.7862,-688 110.7862,-688 "/>
<text text-anchor="middle" x="69" y="-679" font-family="Helvetica,sans-Serif" font-size="10.00" fill="#000000">Sample Builder</text>
<text text-anchor="middle" x="69" y="-667" font-family="Helvetica,sans-Serif" font-size="10.00" fill="#000000">Pattern</text>
</g>
<!-- A1 -->
<g id="node2" class="node">
<title>A1</title>
<polygon fill="#ff0000" stroke="transparent" points="134.5,-644 134.5,-708 209.5,-708 209.5,-644 134.5,-644"/>
<polygon fill="none" stroke="#000000" points="135,-676 135,-708 210,-708 210,-676 135,-676"/>
<text text-anchor="start" x="151.3935" y="-689" font-family="Helvetica,sans-Serif" font-size="10.00" fill="#000000">CallClass</text>
<polygon fill="none" stroke="#000000" points="135,-644 135,-676 210,-676 210,-644 135,-644"/>
<text text-anchor="start" x="144.8605" y="-657" font-family="Helvetica,sans-Serif" font-size="10.00" fill="#000000">+main():void</text>
</g>
<!-- A2 -->
<g id="node3" class="node">
<title>A2</title>
<polygon fill="none" stroke="#000000" points="0,-562 0,-594 210,-594 210,-562 0,-562"/>
<text text-anchor="start" x="87.5035" y="-575" font-family="Helvetica,sans-Serif" font-size="10.00" fill="#000000">Director</text>
<polygon fill="none" stroke="#000000" points="0,-542 0,-562 210,-562 210,-542 0,-542"/>
<polygon fill="none" stroke="#000000" points="0,-510 0,-542 210,-542 210,-510 0,-510"/>
<text text-anchor="start" x="9.84" y="-523" font-family="Helvetica,sans-Serif" font-size="10.00" fill="#000000">+generateProduct(Builder: builder):Product</text>
</g>
<!-- A1&#45;&gt;A2 -->
<g id="edge3" class="edge">
<title>A1&#45;&gt;A2</title>
<path fill="none" stroke="#000000" d="M154.5714,-643.7442C147.8922,-631.3825 140.0958,-616.9535 132.6903,-603.2476"/>
<polygon fill="#000000" stroke="#000000" points="127.8958,-594.3743 136.6086,-601.033 130.2727,-598.7733 132.6495,-603.1722 132.6495,-603.1722 132.6495,-603.1722 130.2727,-598.7733 128.6905,-605.3114 127.8958,-594.3743 127.8958,-594.3743"/>
<text text-anchor="middle" x="138.5186" y="-628.815" font-family="Helvetica,sans-Serif" font-size="10.00" fill="#000000">builder</text>
</g>
<!-- A5 -->
<g id="node6" class="node">
<title>A5</title>
<polygon fill="none" stroke="#000000" points="124,-282 124,-314 242,-314 242,-282 124,-282"/>
<text text-anchor="start" x="150.2165" y="-295" font-family="Helvetica,sans-Serif" font-size="10.00" fill="#000000">ProductBuilder</text>
<polygon fill="none" stroke="#000000" points="124,-250 124,-282 242,-282 242,-250 124,-250"/>
<text text-anchor="start" x="146.047" y="-263" font-family="Helvetica,sans-Serif" font-size="10.00" fill="#000000">&#45;product:Product</text>
<polygon fill="none" stroke="#000000" points="124,-194 124,-250 242,-250 242,-194 124,-194"/>
<text text-anchor="start" x="134.5155" y="-231" font-family="Helvetica,sans-Serif" font-size="10.00" fill="#000000">+buildPartA():boolean</text>
<text text-anchor="start" x="134.5155" y="-219" font-family="Helvetica,sans-Serif" font-size="10.00" fill="#000000">+buildPartB():boolean</text>
<text text-anchor="start" x="133.9595" y="-207" font-family="Helvetica,sans-Serif" font-size="10.00" fill="#000000">+getProduct():Product</text>
</g>
<!-- A1&#45;&gt;A5 -->
<g id="edge2" class="edge">
<title>A1&#45;&gt;A5</title>
<path fill="none" stroke="#000000" d="M195.6437,-643.8196C204.855,-629.3544 214.3136,-611.6005 219,-594 243.2737,-502.8369 223.5319,-393.8202 205.0712,-324.2556"/>
<polygon fill="#000000" stroke="#000000" points="202.3622,-314.285 209.3268,-322.7553 203.6732,-319.1101 204.9842,-323.9352 204.9842,-323.9352 204.9842,-323.9352 203.6732,-319.1101 200.6417,-325.1151 202.3622,-314.285 202.3622,-314.285"/>
</g>
<!-- A3 -->
<g id="node4" class="node">
<title>A3</title>
<polygon fill="none" stroke="#000000" points="70,-428 70,-460 186,-460 186,-428 70,-428"/>
<text text-anchor="start" x="112.4435" y="-441" font-family="Helvetica,sans-Serif" font-size="10.00" fill="#000000">Builder</text>
<polygon fill="none" stroke="#000000" points="70,-408 70,-428 186,-428 186,-408 70,-408"/>
<polygon fill="none" stroke="#000000" points="70,-364 70,-408 186,-408 186,-364 70,-364"/>
<text text-anchor="start" x="79.5155" y="-389" font-family="Helvetica,sans-Serif" font-size="10.00" fill="#000000">+buildPartA():boolean</text>
<text text-anchor="start" x="79.5155" y="-377" font-family="Helvetica,sans-Serif" font-size="10.00" fill="#000000">+buildPartB():boolean</text>
</g>
<!-- A2&#45;&gt;A3 -->
<g id="edge5" class="edge">
<title>A2&#45;&gt;A3</title>
<path fill="none" stroke="#000000" d="M113.8846,-497.9201C115.3611,-488.9323 116.8984,-479.5749 118.3919,-470.4838"/>
<polygon fill="none" stroke="#000000" points="113.8462,-498.1541 116.8206,-504.7232 111.9008,-509.9954 108.9264,-503.4263 113.8462,-498.1541"/>
<polygon fill="#000000" stroke="#000000" points="120.054,-460.3669 122.8733,-470.9642 119.2434,-465.3008 118.4328,-470.2346 118.4328,-470.2346 118.4328,-470.2346 119.2434,-465.3008 113.9923,-469.5051 120.054,-460.3669 120.054,-460.3669"/>
</g>
<!-- A3&#45;&gt;A5 -->
<g id="edge4" class="edge">
<title>A3&#45;&gt;A5</title>
<path fill="none" stroke="#000000" stroke-dasharray="5,2" d="M148.1846,-354.015C152.6936,-341.0622 157.4854,-327.2965 162.0254,-314.2542"/>
<polygon fill="none" stroke="#000000" points="144.7828,-353.1414 144.8007,-363.7363 151.3937,-355.4428 144.7828,-353.1414"/>
</g>
<!-- A4 -->
<g id="node5" class="node">
<title>A4</title>
<polygon fill="none" stroke="#000000" points="133,-112 133,-144 233,-144 233,-112 133,-112"/>
<text text-anchor="start" x="165.773" y="-125" font-family="Helvetica,sans-Serif" font-size="10.00" fill="#000000">Product</text>
<polygon fill="none" stroke="#000000" points="133,-68 133,-112 233,-112 233,-68 133,-68"/>
<text text-anchor="start" x="154.9415" y="-93" font-family="Helvetica,sans-Serif" font-size="10.00" fill="#000000">&#45;partA:String</text>
<text text-anchor="start" x="154.9415" y="-81" font-family="Helvetica,sans-Serif" font-size="10.00" fill="#000000">&#45;partB:String</text>
<polygon fill="none" stroke="#000000" points="133,0 133,-68 233,-68 233,0 133,0"/>
<text text-anchor="start" x="142.854" y="-49" font-family="Helvetica,sans-Serif" font-size="10.00" fill="#000000">+getPartA():String</text>
<text text-anchor="start" x="147.022" y="-37" font-family="Helvetica,sans-Serif" font-size="10.00" fill="#000000">+setPartA():void</text>
<text text-anchor="start" x="142.854" y="-25" font-family="Helvetica,sans-Serif" font-size="10.00" fill="#000000">+getPartB():String</text>
<text text-anchor="start" x="147.022" y="-13" font-family="Helvetica,sans-Serif" font-size="10.00" fill="#000000">+setPartB():void</text>
</g>
<!-- A5&#45;&gt;A4 -->
<g id="edge1" class="edge">
<title>A5&#45;&gt;A4</title>
<path fill="none" stroke="#000000" stroke-dasharray="5,2" d="M183,-193.902C183,-181.1957 183,-167.5772 183,-154.2139"/>
<polygon fill="#000000" stroke="#000000" points="183,-144.0639 187.5001,-154.0639 183,-149.0639 183.0001,-154.0639 183.0001,-154.0639 183.0001,-154.0639 183,-149.0639 178.5001,-154.064 183,-144.0639 183,-144.0639"/>
</g>
</g>
</svg>
