<?xml version="1.0" encoding="UTF-8" standalone="no"?>
<!DOCTYPE svg PUBLIC "-//W3C//DTD SVG 1.1//EN"
 "http://www.w3.org/Graphics/SVG/1.1/DTD/svg11.dtd">
<!-- Generated by graphviz version 2.40.1 (20161225.0304)
 -->
<!-- Title: G Pages: 1 -->
<svg width="459pt" height="602pt"
 viewBox="0.00 0.00 458.50 602.00" xmlns="http://www.w3.org/2000/svg" xmlns:xlink="http://www.w3.org/1999/xlink">
<g id="graph0" class="graph" transform="scale(1 1) rotate(0) translate(4 598)">
<title>G</title>
<polygon fill="#ffffff" stroke="transparent" points="-4,4 -4,-598 454.5,-598 454.5,4 -4,4"/>
<!-- A0 -->
<g id="node1" class="node">
<title>A0</title>
<polygon fill="#ff0000" stroke="transparent" points="148,-498 148,-594 231,-594 231,-498 148,-498"/>
<polygon fill="none" stroke="#000000" points="148.5,-562 148.5,-594 231.5,-594 231.5,-562 148.5,-562"/>
<text text-anchor="start" x="168.8935" y="-575" font-family="Helvetica,sans-Serif" font-size="10.00" fill="#000000">CallClass</text>
<polygon fill="none" stroke="#000000" points="148.5,-530 148.5,-562 231.5,-562 231.5,-530 148.5,-530"/>
<text text-anchor="start" x="166.3835" y="-543" font-family="Helvetica,sans-Serif" font-size="10.00" fill="#000000">type: class</text>
<polygon fill="none" stroke="#000000" points="148.5,-498 148.5,-530 231.5,-530 231.5,-498 148.5,-498"/>
<text text-anchor="start" x="158.192" y="-511" font-family="Helvetica,sans-Serif" font-size="10.00" fill="#000000">+ main() : void</text>
</g>
<!-- A1 -->
<g id="node2" class="node">
<title>A1</title>
<polygon fill="none" stroke="#000000" points="26.5,-416 26.5,-448 353.5,-448 353.5,-416 26.5,-416"/>
<text text-anchor="start" x="173.3325" y="-429" font-family="Helvetica,sans-Serif" font-size="10.00" fill="#000000">Factory</text>
<polygon fill="none" stroke="#000000" points="26.5,-384 26.5,-416 353.5,-416 353.5,-384 26.5,-384"/>
<text text-anchor="start" x="166.3835" y="-397" font-family="Helvetica,sans-Serif" font-size="10.00" fill="#000000">type: class</text>
<polygon fill="none" stroke="#000000" points="26.5,-364 26.5,-384 353.5,-384 353.5,-364 26.5,-364"/>
<polygon fill="none" stroke="#000000" points="26.5,-332 26.5,-364 353.5,-364 353.5,-332 26.5,-332"/>
<text text-anchor="start" x="36.4925" y="-345" font-family="Helvetica,sans-Serif" font-size="10.00" fill="#000000">+generateFactoryMethod(FactoryType: type):FactoryMethodInterface</text>
</g>
<!-- A0&#45;&gt;A1 -->
<g id="edge5" class="edge">
<title>A0&#45;&gt;A1</title>
<path fill="none" stroke="#000000" d="M189.5,-497.9219C189.5,-485.3661 189.5,-471.5911 189.5,-458.2069"/>
<polygon fill="#000000" stroke="#000000" points="189.5,-448.0748 194.0001,-458.0747 189.5,-453.0748 189.5001,-458.0748 189.5001,-458.0748 189.5001,-458.0748 189.5,-453.0748 185.0001,-458.0748 189.5,-448.0748 189.5,-448.0748"/>
<text text-anchor="middle" x="181.0476" y="-476.7958" font-family="Helvetica,sans-Serif" font-size="10.00" fill="#000000">call</text>
</g>
<!-- A2 -->
<g id="node3" class="node">
<title>A2</title>
<polygon fill="none" stroke="#000000" points=".5,-246 .5,-278 189.5,-278 189.5,-246 .5,-246"/>
<text text-anchor="start" x="67.219" y="-259" font-family="Helvetica,sans-Serif" font-size="10.00" fill="#000000">FactoryType</text>
<polygon fill="none" stroke="#000000" points=".5,-214 .5,-246 189.5,-246 189.5,-214 .5,-214"/>
<text text-anchor="start" x="70.2695" y="-227" font-family="Helvetica,sans-Serif" font-size="10.00" fill="#000000">type: enum</text>
<polygon fill="none" stroke="#000000" points=".5,-170 .5,-214 189.5,-214 189.5,-170 .5,-170"/>
<text text-anchor="start" x="10.1425" y="-195" font-family="Helvetica,sans-Serif" font-size="10.00" fill="#000000">+CC_ENUM_FACTORY_METHOD_A</text>
<text text-anchor="start" x="10.1425" y="-183" font-family="Helvetica,sans-Serif" font-size="10.00" fill="#000000">+CC_ENUM_FACTORY_METHOD_B</text>
</g>
<!-- A1&#45;&gt;A2 -->
<g id="edge4" class="edge">
<title>A1&#45;&gt;A2</title>
<path fill="none" stroke="#000000" stroke-dasharray="5,2" d="M156.2736,-331.9413C147.9876,-317.4626 139.0629,-301.8677 130.6437,-287.1564"/>
<polygon fill="#000000" stroke="#000000" points="125.4772,-278.1285 134.3499,-284.5725 127.9607,-282.4681 130.4442,-286.8077 130.4442,-286.8077 130.4442,-286.8077 127.9607,-282.4681 126.5386,-289.0429 125.4772,-278.1285 125.4772,-278.1285"/>
</g>
<!-- A3 -->
<g id="node4" class="node">
<title>A3</title>
<polygon fill="none" stroke="#000000" points="207.5,-250 207.5,-282 363.5,-282 363.5,-250 207.5,-250"/>
<text text-anchor="start" x="232.7095" y="-263" font-family="Helvetica,sans-Serif" font-size="10.00" fill="#000000">FactoryMethodInterface</text>
<polygon fill="none" stroke="#000000" points="207.5,-218 207.5,-250 363.5,-250 363.5,-218 207.5,-218"/>
<text text-anchor="start" x="254.1015" y="-231" font-family="Helvetica,sans-Serif" font-size="10.00" fill="#000000">type: interface</text>
<polygon fill="none" stroke="#000000" points="207.5,-198 207.5,-218 363.5,-218 363.5,-198 207.5,-198"/>
<polygon fill="none" stroke="#000000" points="207.5,-166 207.5,-198 363.5,-198 363.5,-166 207.5,-166"/>
<text text-anchor="start" x="217.0175" y="-179" font-family="Helvetica,sans-Serif" font-size="10.00" fill="#000000">+invokeFactoryMethod():String</text>
</g>
<!-- A1&#45;&gt;A3 -->
<g id="edge3" class="edge">
<title>A1&#45;&gt;A3</title>
<path fill="none" stroke="#000000" d="M223.0761,-331.9413C230.7494,-318.673 238.9647,-304.4672 246.8322,-290.8631"/>
<polygon fill="#000000" stroke="#000000" points="251.9428,-282.026 250.832,-292.9355 249.4397,-286.3543 246.9365,-290.6826 246.9365,-290.6826 246.9365,-290.6826 249.4397,-286.3543 243.041,-288.4298 251.9428,-282.026 251.9428,-282.026"/>
</g>
<!-- A4 -->
<g id="node5" class="node">
<title>A4</title>
<polygon fill="none" stroke="#000000" points="120.5,-84 120.5,-116 276.5,-116 276.5,-84 120.5,-84"/>
<text text-anchor="start" x="161.826" y="-97" font-family="Helvetica,sans-Serif" font-size="10.00" fill="#000000">FactoryMethodA</text>
<polygon fill="none" stroke="#000000" points="120.5,-52 120.5,-84 276.5,-84 276.5,-52 120.5,-52"/>
<text text-anchor="start" x="174.8835" y="-65" font-family="Helvetica,sans-Serif" font-size="10.00" fill="#000000">type: class</text>
<polygon fill="none" stroke="#000000" points="120.5,-32 120.5,-52 276.5,-52 276.5,-32 120.5,-32"/>
<polygon fill="none" stroke="#000000" points="120.5,0 120.5,-32 276.5,-32 276.5,0 120.5,0"/>
<text text-anchor="start" x="130.0175" y="-13" font-family="Helvetica,sans-Serif" font-size="10.00" fill="#000000">+invokeFactoryMethod():String</text>
</g>
<!-- A3&#45;&gt;A4 -->
<g id="edge1" class="edge">
<title>A3&#45;&gt;A4</title>
<path fill="none" stroke="#000000" stroke-dasharray="5,2" d="M250.2359,-156.7144C243.1675,-143.2277 235.798,-129.1664 228.9112,-116.026"/>
<polygon fill="none" stroke="#000000" points="247.3295,-158.7087 255.0716,-165.9413 253.5296,-155.4592 247.3295,-158.7087"/>
</g>
<!-- A5 -->
<g id="node6" class="node">
<title>A5</title>
<polygon fill="none" stroke="#000000" points="294.5,-84 294.5,-116 450.5,-116 450.5,-84 294.5,-84"/>
<text text-anchor="start" x="335.826" y="-97" font-family="Helvetica,sans-Serif" font-size="10.00" fill="#000000">FactoryMethodB</text>
<polygon fill="none" stroke="#000000" points="294.5,-52 294.5,-84 450.5,-84 450.5,-52 294.5,-52"/>
<text text-anchor="start" x="348.8835" y="-65" font-family="Helvetica,sans-Serif" font-size="10.00" fill="#000000">type: class</text>
<polygon fill="none" stroke="#000000" points="294.5,-32 294.5,-52 450.5,-52 450.5,-32 294.5,-32"/>
<polygon fill="none" stroke="#000000" points="294.5,0 294.5,-32 450.5,-32 450.5,0 294.5,0"/>
<text text-anchor="start" x="304.0175" y="-13" font-family="Helvetica,sans-Serif" font-size="10.00" fill="#000000">+invokeFactoryMethod():String</text>
</g>
<!-- A3&#45;&gt;A5 -->
<g id="edge2" class="edge">
<title>A3&#45;&gt;A5</title>
<path fill="none" stroke="#000000" stroke-dasharray="5,2" d="M320.7641,-156.7144C327.8325,-143.2277 335.202,-129.1664 342.0888,-116.026"/>
<polygon fill="none" stroke="#000000" points="317.4704,-155.4592 315.9284,-165.9413 323.6705,-158.7087 317.4704,-155.4592"/>
</g>
</g>
</svg>
