<?xml version="1.0" encoding="UTF-8" standalone="no"?>
<!DOCTYPE svg PUBLIC "-//W3C//DTD SVG 1.1//EN"
 "http://www.w3.org/Graphics/SVG/1.1/DTD/svg11.dtd">
<!-- Generated by graphviz version 2.40.1 (20161225.0304)
 -->
<!-- Title: G Pages: 1 -->
<svg width="347pt" height="662pt"
 viewBox="0.00 0.00 347.00 662.00" xmlns="http://www.w3.org/2000/svg" xmlns:xlink="http://www.w3.org/1999/xlink">
<g id="graph0" class="graph" transform="scale(1 1) rotate(0) translate(4 658)">
<title>G</title>
<polygon fill="#ffffff" stroke="transparent" points="-4,4 -4,-658 343,-658 343,4 -4,4"/>
<!-- A0 -->
<g id="node1" class="node">
<title>A0</title>
<polygon fill="#ff0000" stroke="transparent" points="45.5,-546 45.5,-642 128.5,-642 128.5,-546 45.5,-546"/>
<polygon fill="none" stroke="#000000" points="46,-610 46,-642 129,-642 129,-610 46,-610"/>
<text text-anchor="start" x="66.3935" y="-623" font-family="Helvetica,sans-Serif" font-size="10.00" fill="#000000">CallClass</text>
<polygon fill="none" stroke="#000000" points="46,-578 46,-610 129,-610 129,-578 46,-578"/>
<text text-anchor="start" x="63.8835" y="-591" font-family="Helvetica,sans-Serif" font-size="10.00" fill="#000000">type: class</text>
<polygon fill="none" stroke="#000000" points="46,-546 46,-578 129,-578 129,-546 46,-546"/>
<text text-anchor="start" x="55.692" y="-559" font-family="Helvetica,sans-Serif" font-size="10.00" fill="#000000">+ main() : void</text>
</g>
<!-- A1 -->
<g id="node2" class="node">
<title>A1</title>
<polygon fill="none" stroke="#000000" points="2,-452 2,-484 328,-484 328,-452 2,-452"/>
<text text-anchor="start" x="148.3325" y="-465" font-family="Helvetica,sans-Serif" font-size="10.00" fill="#000000">Factory</text>
<polygon fill="none" stroke="#000000" points="2,-420 2,-452 328,-452 328,-420 2,-420"/>
<text text-anchor="start" x="141.3835" y="-433" font-family="Helvetica,sans-Serif" font-size="10.00" fill="#000000">type: class</text>
<polygon fill="none" stroke="#000000" points="2,-400 2,-420 328,-420 328,-400 2,-400"/>
<polygon fill="none" stroke="#000000" points="2,-356 2,-400 328,-400 328,-356 2,-356"/>
<text text-anchor="start" x="162.0805" y="-381" font-family="Helvetica,sans-Serif" font-size="10.00" fill="#000000">+</text>
<text text-anchor="start" x="11.633" y="-369" font-family="Helvetica,sans-Serif" font-size="10.00" fill="#000000">generateFactoryMethod(FactoryType: type) : FactoryMethodInterface</text>
</g>
<!-- A0&#45;&gt;A1 -->
<g id="edge5" class="edge">
<title>A0&#45;&gt;A1</title>
<path fill="none" stroke="#000000" d="M108.5203,-545.9931C115.8162,-529.7177 124.1411,-511.1467 132.1161,-493.3563"/>
<polygon fill="#000000" stroke="#000000" points="136.2473,-484.1405 136.263,-495.1064 134.202,-488.7031 132.1567,-493.2656 132.1567,-493.2656 132.1567,-493.2656 134.202,-488.7031 128.0504,-491.4249 136.2473,-484.1405 136.2473,-484.1405"/>
<text text-anchor="middle" x="136.5456" y="-501.1383" font-family="Helvetica,sans-Serif" font-size="10.00" fill="#000000">call</text>
</g>
<!-- A3 -->
<g id="node4" class="node">
<title>A3</title>
<polygon fill="none" stroke="#000000" points="87,-274 87,-306 243,-306 243,-274 87,-274"/>
<text text-anchor="start" x="112.2095" y="-287" font-family="Helvetica,sans-Serif" font-size="10.00" fill="#000000">FactoryMethodInterface</text>
<polygon fill="none" stroke="#000000" points="87,-242 87,-274 243,-274 243,-242 87,-242"/>
<text text-anchor="start" x="133.6015" y="-255" font-family="Helvetica,sans-Serif" font-size="10.00" fill="#000000">type: interface</text>
<polygon fill="none" stroke="#000000" points="87,-222 87,-242 243,-242 243,-222 87,-222"/>
<polygon fill="none" stroke="#000000" points="87,-178 87,-222 243,-222 243,-178 87,-178"/>
<text text-anchor="start" x="162.0805" y="-203" font-family="Helvetica,sans-Serif" font-size="10.00" fill="#000000">+</text>
<text text-anchor="start" x="96.658" y="-191" font-family="Helvetica,sans-Serif" font-size="10.00" fill="#000000">invokeFactoryMethod() : String</text>
</g>
<!-- A1&#45;&gt;A3 -->
<g id="edge3" class="edge">
<title>A1&#45;&gt;A3</title>
<path fill="none" stroke="#000000" d="M165,-345.96C165,-332.7019 165,-318.9879 165,-306.0406"/>
<polygon fill="none" stroke="#000000" points="161.5001,-345.9894 165,-355.9894 168.5001,-345.9894 161.5001,-345.9894"/>
</g>
<!-- A2 -->
<g id="node3" class="node">
<title>A2</title>
<polygon fill="none" stroke="#000000" points="147,-622 147,-654 339,-654 339,-622 147,-622"/>
<text text-anchor="start" x="215.219" y="-635" font-family="Helvetica,sans-Serif" font-size="10.00" fill="#000000">FactoryType</text>
<polygon fill="none" stroke="#000000" points="147,-590 147,-622 339,-622 339,-590 147,-590"/>
<text text-anchor="start" x="218.2695" y="-603" font-family="Helvetica,sans-Serif" font-size="10.00" fill="#000000">type: enum</text>
<polygon fill="none" stroke="#000000" points="147,-534 147,-590 339,-590 339,-534 147,-534"/>
<text text-anchor="start" x="240.0805" y="-571" font-family="Helvetica,sans-Serif" font-size="10.00" fill="#000000">+</text>
<text text-anchor="start" x="161.062" y="-559" font-family="Helvetica,sans-Serif" font-size="10.00" fill="#000000">CC_ENUM_FACTORY_METHOD_A</text>
<text text-anchor="start" x="156.753" y="-547" font-family="Helvetica,sans-Serif" font-size="10.00" fill="#000000">+ CC_ENUM_FACTORY_METHOD_A</text>
</g>
<!-- A2&#45;&gt;A1 -->
<g id="edge4" class="edge">
<title>A2&#45;&gt;A1</title>
<path fill="none" stroke="#000000" d="M215.9383,-533.6316C210.3911,-521.2571 204.4874,-508.0872 198.7389,-495.2638"/>
<polygon fill="none" stroke="#000000" points="198.6488,-495.0627 192.5444,-491.2239 193.7401,-484.1126 199.8445,-487.9514 198.6488,-495.0627"/>
</g>
<!-- A4 -->
<g id="node5" class="node">
<title>A4</title>
<polygon fill="none" stroke="#000000" points="0,-96 0,-128 156,-128 156,-96 0,-96"/>
<text text-anchor="start" x="41.326" y="-109" font-family="Helvetica,sans-Serif" font-size="10.00" fill="#000000">FactoryMethodA</text>
<polygon fill="none" stroke="#000000" points="0,-64 0,-96 156,-96 156,-64 0,-64"/>
<text text-anchor="start" x="54.3835" y="-77" font-family="Helvetica,sans-Serif" font-size="10.00" fill="#000000">type: class</text>
<polygon fill="none" stroke="#000000" points="0,-44 0,-64 156,-64 156,-44 0,-44"/>
<polygon fill="none" stroke="#000000" points="0,0 0,-44 156,-44 156,0 0,0"/>
<text text-anchor="start" x="75.0805" y="-25" font-family="Helvetica,sans-Serif" font-size="10.00" fill="#000000">+</text>
<text text-anchor="start" x="9.658" y="-13" font-family="Helvetica,sans-Serif" font-size="10.00" fill="#000000">invokeFactoryMethod() : String</text>
</g>
<!-- A3&#45;&gt;A4 -->
<g id="edge1" class="edge">
<title>A3&#45;&gt;A4</title>
<path fill="none" stroke="#000000" stroke-dasharray="5,2" d="M129.1928,-168.7394C122.5949,-155.24 115.753,-141.2418 109.3007,-128.0406"/>
<polygon fill="none" stroke="#000000" points="126.1782,-170.542 133.7139,-177.9894 132.4672,-167.4682 126.1782,-170.542"/>
</g>
<!-- A5 -->
<g id="node6" class="node">
<title>A5</title>
<polygon fill="none" stroke="#000000" points="174,-96 174,-128 330,-128 330,-96 174,-96"/>
<text text-anchor="start" x="215.326" y="-109" font-family="Helvetica,sans-Serif" font-size="10.00" fill="#000000">FactoryMethodB</text>
<polygon fill="none" stroke="#000000" points="174,-64 174,-96 330,-96 330,-64 174,-64"/>
<text text-anchor="start" x="228.3835" y="-77" font-family="Helvetica,sans-Serif" font-size="10.00" fill="#000000">type: class</text>
<polygon fill="none" stroke="#000000" points="174,-44 174,-64 330,-64 330,-44 174,-44"/>
<polygon fill="none" stroke="#000000" points="174,0 174,-44 330,-44 330,0 174,0"/>
<text text-anchor="start" x="249.0805" y="-25" font-family="Helvetica,sans-Serif" font-size="10.00" fill="#000000">+</text>
<text text-anchor="start" x="183.658" y="-13" font-family="Helvetica,sans-Serif" font-size="10.00" fill="#000000">invokeFactoryMethod() : String</text>
</g>
<!-- A3&#45;&gt;A5 -->
<g id="edge2" class="edge">
<title>A3&#45;&gt;A5</title>
<path fill="none" stroke="#000000" stroke-dasharray="5,2" d="M200.8072,-168.7394C207.4051,-155.24 214.247,-141.2418 220.6993,-128.0406"/>
<polygon fill="none" stroke="#000000" points="197.5328,-167.4682 196.2861,-177.9894 203.8218,-170.542 197.5328,-167.4682"/>
</g>
</g>
</svg>
