<?xml version="1.0" encoding="UTF-8" standalone="no"?>
<!DOCTYPE svg PUBLIC "-//W3C//DTD SVG 1.1//EN"
 "http://www.w3.org/Graphics/SVG/1.1/DTD/svg11.dtd">
<!-- Generated by graphviz version 2.40.1 (20161225.0304)
 -->
<!-- Title: G Pages: 1 -->
<svg width="461pt" height="638pt"
 viewBox="0.00 0.00 461.00 638.00" xmlns="http://www.w3.org/2000/svg" xmlns:xlink="http://www.w3.org/1999/xlink">
<g id="graph0" class="graph" transform="scale(1 1) rotate(0) translate(4 634)">
<title>G</title>
<polygon fill="#ffffff" stroke="transparent" points="-4,4 -4,-634 457,-634 457,4 -4,4"/>
<!-- A0 -->
<g id="node1" class="node">
<title>A0</title>
<polygon fill="#ff0000" stroke="transparent" points="150.5,-534 150.5,-630 233.5,-630 233.5,-534 150.5,-534"/>
<polygon fill="none" stroke="#000000" points="151,-598 151,-630 234,-630 234,-598 151,-598"/>
<text text-anchor="start" x="171.3935" y="-611" font-family="Helvetica,sans-Serif" font-size="10.00" fill="#000000">CallClass</text>
<polygon fill="none" stroke="#000000" points="151,-566 151,-598 234,-598 234,-566 151,-566"/>
<text text-anchor="start" x="168.8835" y="-579" font-family="Helvetica,sans-Serif" font-size="10.00" fill="#000000">type: class</text>
<polygon fill="none" stroke="#000000" points="151,-534 151,-566 234,-566 234,-534 151,-534"/>
<text text-anchor="start" x="160.692" y="-547" font-family="Helvetica,sans-Serif" font-size="10.00" fill="#000000">+ main() : void</text>
</g>
<!-- A1 -->
<g id="node2" class="node">
<title>A1</title>
<polygon fill="none" stroke="#000000" points="29,-452 29,-484 355,-484 355,-452 29,-452"/>
<text text-anchor="start" x="175.3325" y="-465" font-family="Helvetica,sans-Serif" font-size="10.00" fill="#000000">Factory</text>
<polygon fill="none" stroke="#000000" points="29,-420 29,-452 355,-452 355,-420 29,-420"/>
<text text-anchor="start" x="168.3835" y="-433" font-family="Helvetica,sans-Serif" font-size="10.00" fill="#000000">type: class</text>
<polygon fill="none" stroke="#000000" points="29,-400 29,-420 355,-420 355,-400 29,-400"/>
<polygon fill="none" stroke="#000000" points="29,-356 29,-400 355,-400 355,-356 29,-356"/>
<text text-anchor="start" x="189.0805" y="-381" font-family="Helvetica,sans-Serif" font-size="10.00" fill="#000000">+</text>
<text text-anchor="start" x="38.633" y="-369" font-family="Helvetica,sans-Serif" font-size="10.00" fill="#000000">generateFactoryMethod(FactoryType: type) : FactoryMethodInterface</text>
</g>
<!-- A0&#45;&gt;A1 -->
<g id="edge5" class="edge">
<title>A0&#45;&gt;A1</title>
<path fill="none" stroke="#000000" d="M192,-533.8333C192,-521.4213 192,-507.7713 192,-494.3653"/>
<polygon fill="#000000" stroke="#000000" points="192,-484.1857 196.5001,-494.1857 192,-489.1857 192.0001,-494.1857 192.0001,-494.1857 192.0001,-494.1857 192,-489.1857 187.5001,-494.1858 192,-484.1857 192,-484.1857"/>
<text text-anchor="middle" x="183.5476" y="-512.7071" font-family="Helvetica,sans-Serif" font-size="10.00" fill="#000000">call</text>
</g>
<!-- A2 -->
<g id="node3" class="node">
<title>A2</title>
<polygon fill="none" stroke="#000000" points="0,-270 0,-302 192,-302 192,-270 0,-270"/>
<text text-anchor="start" x="68.219" y="-283" font-family="Helvetica,sans-Serif" font-size="10.00" fill="#000000">FactoryType</text>
<polygon fill="none" stroke="#000000" points="0,-238 0,-270 192,-270 192,-238 0,-238"/>
<text text-anchor="start" x="71.2695" y="-251" font-family="Helvetica,sans-Serif" font-size="10.00" fill="#000000">type: enum</text>
<polygon fill="none" stroke="#000000" points="0,-182 0,-238 192,-238 192,-182 0,-182"/>
<text text-anchor="start" x="93.0805" y="-219" font-family="Helvetica,sans-Serif" font-size="10.00" fill="#000000">+</text>
<text text-anchor="start" x="14.062" y="-207" font-family="Helvetica,sans-Serif" font-size="10.00" fill="#000000">CC_ENUM_FACTORY_METHOD_A</text>
<text text-anchor="start" x="9.753" y="-195" font-family="Helvetica,sans-Serif" font-size="10.00" fill="#000000">+ CC_ENUM_FACTORY_METHOD_A</text>
</g>
<!-- A1&#45;&gt;A2 -->
<g id="edge4" class="edge">
<title>A1&#45;&gt;A2</title>
<path fill="none" stroke="#000000" stroke-dasharray="5,2" d="M157.4774,-355.9894C149.6427,-341.4625 141.2867,-325.9691 133.3411,-311.2366"/>
<polygon fill="#000000" stroke="#000000" points="128.4552,-302.1774 137.1628,-308.8428 130.8287,-306.5781 133.2021,-310.9789 133.2021,-310.9789 133.2021,-310.9789 130.8287,-306.5781 129.2415,-313.115 128.4552,-302.1774 128.4552,-302.1774"/>
</g>
<!-- A3 -->
<g id="node4" class="node">
<title>A3</title>
<polygon fill="none" stroke="#000000" points="210,-274 210,-306 366,-306 366,-274 210,-274"/>
<text text-anchor="start" x="235.2095" y="-287" font-family="Helvetica,sans-Serif" font-size="10.00" fill="#000000">FactoryMethodInterface</text>
<polygon fill="none" stroke="#000000" points="210,-242 210,-274 366,-274 366,-242 210,-242"/>
<text text-anchor="start" x="256.6015" y="-255" font-family="Helvetica,sans-Serif" font-size="10.00" fill="#000000">type: interface</text>
<polygon fill="none" stroke="#000000" points="210,-222 210,-242 366,-242 366,-222 210,-222"/>
<polygon fill="none" stroke="#000000" points="210,-178 210,-222 366,-222 366,-178 210,-178"/>
<text text-anchor="start" x="285.0805" y="-203" font-family="Helvetica,sans-Serif" font-size="10.00" fill="#000000">+</text>
<text text-anchor="start" x="219.658" y="-191" font-family="Helvetica,sans-Serif" font-size="10.00" fill="#000000">invokeFactoryMethod() : String</text>
</g>
<!-- A1&#45;&gt;A3 -->
<g id="edge3" class="edge">
<title>A1&#45;&gt;A3</title>
<path fill="none" stroke="#000000" d="M226.5226,-355.9894C233.7101,-342.6625 241.3364,-328.5221 248.6821,-314.902"/>
<polygon fill="#000000" stroke="#000000" points="253.4613,-306.0406 252.675,-316.9782 251.0878,-310.4413 248.7143,-314.8421 248.7143,-314.8421 248.7143,-314.8421 251.0878,-310.4413 244.7536,-312.706 253.4613,-306.0406 253.4613,-306.0406"/>
</g>
<!-- A4 -->
<g id="node5" class="node">
<title>A4</title>
<polygon fill="none" stroke="#000000" points="123,-96 123,-128 279,-128 279,-96 123,-96"/>
<text text-anchor="start" x="164.326" y="-109" font-family="Helvetica,sans-Serif" font-size="10.00" fill="#000000">FactoryMethodA</text>
<polygon fill="none" stroke="#000000" points="123,-64 123,-96 279,-96 279,-64 123,-64"/>
<text text-anchor="start" x="177.3835" y="-77" font-family="Helvetica,sans-Serif" font-size="10.00" fill="#000000">type: class</text>
<polygon fill="none" stroke="#000000" points="123,-44 123,-64 279,-64 279,-44 123,-44"/>
<polygon fill="none" stroke="#000000" points="123,0 123,-44 279,-44 279,0 123,0"/>
<text text-anchor="start" x="198.0805" y="-25" font-family="Helvetica,sans-Serif" font-size="10.00" fill="#000000">+</text>
<text text-anchor="start" x="132.658" y="-13" font-family="Helvetica,sans-Serif" font-size="10.00" fill="#000000">invokeFactoryMethod() : String</text>
</g>
<!-- A3&#45;&gt;A4 -->
<g id="edge1" class="edge">
<title>A3&#45;&gt;A4</title>
<path fill="none" stroke="#000000" stroke-dasharray="5,2" d="M252.1928,-168.7394C245.5949,-155.24 238.753,-141.2418 232.3007,-128.0406"/>
<polygon fill="none" stroke="#000000" points="249.1782,-170.542 256.7139,-177.9894 255.4672,-167.4682 249.1782,-170.542"/>
</g>
<!-- A5 -->
<g id="node6" class="node">
<title>A5</title>
<polygon fill="none" stroke="#000000" points="297,-96 297,-128 453,-128 453,-96 297,-96"/>
<text text-anchor="start" x="338.326" y="-109" font-family="Helvetica,sans-Serif" font-size="10.00" fill="#000000">FactoryMethodB</text>
<polygon fill="none" stroke="#000000" points="297,-64 297,-96 453,-96 453,-64 297,-64"/>
<text text-anchor="start" x="351.3835" y="-77" font-family="Helvetica,sans-Serif" font-size="10.00" fill="#000000">type: class</text>
<polygon fill="none" stroke="#000000" points="297,-44 297,-64 453,-64 453,-44 297,-44"/>
<polygon fill="none" stroke="#000000" points="297,0 297,-44 453,-44 453,0 297,0"/>
<text text-anchor="start" x="372.0805" y="-25" font-family="Helvetica,sans-Serif" font-size="10.00" fill="#000000">+</text>
<text text-anchor="start" x="306.658" y="-13" font-family="Helvetica,sans-Serif" font-size="10.00" fill="#000000">invokeFactoryMethod() : String</text>
</g>
<!-- A3&#45;&gt;A5 -->
<g id="edge2" class="edge">
<title>A3&#45;&gt;A5</title>
<path fill="none" stroke="#000000" stroke-dasharray="5,2" d="M323.8072,-168.7394C330.4051,-155.24 337.247,-141.2418 343.6993,-128.0406"/>
<polygon fill="none" stroke="#000000" points="320.5328,-167.4682 319.2861,-177.9894 326.8218,-170.542 320.5328,-167.4682"/>
</g>
</g>
</svg>
