<?xml version="1.0" encoding="UTF-8" standalone="no"?>
<!DOCTYPE svg PUBLIC "-//W3C//DTD SVG 1.1//EN"
 "http://www.w3.org/Graphics/SVG/1.1/DTD/svg11.dtd">
<!-- Generated by graphviz version 2.40.1 (20161225.0304)
 -->
<!-- Title: G Pages: 1 -->
<svg width="275pt" height="530pt"
 viewBox="0.00 0.00 275.12 530.00" xmlns="http://www.w3.org/2000/svg" xmlns:xlink="http://www.w3.org/1999/xlink">
<g id="graph0" class="graph" transform="scale(1 1) rotate(0) translate(4 526)">
<title>G</title>
<polygon fill="#ffffff" stroke="transparent" points="-4,4 -4,-526 271.1225,-526 271.1225,4 -4,4"/>
<!-- A0 -->
<g id="node1" class="node">
<title>A0</title>
<polygon fill="#fff8dc" stroke="#000000" points="94.3678,-498 -.1228,-498 -.1228,-462 100.3678,-462 100.3678,-492 94.3678,-498"/>
<polyline fill="none" stroke="#000000" points="94.3678,-498 94.3678,-492 "/>
<polyline fill="none" stroke="#000000" points="100.3678,-492 94.3678,-492 "/>
<text text-anchor="middle" x="50.1225" y="-477" font-family="Helvetica,sans-Serif" font-size="10.00" fill="#000000">Strategy Pattern</text>
</g>
<!-- A1 -->
<g id="node2" class="node">
<title>A1</title>
<polygon fill="none" stroke="#000000" points="105.1225,-186 105.1225,-230 207.1225,-230 207.1225,-186 105.1225,-186"/>
<text text-anchor="start" x="125.2735" y="-211" font-family="Helvetica,sans-Serif" font-size="10.00" fill="#000000">&lt;&lt;interface&gt;&gt;</text>
<text text-anchor="start" x="137.506" y="-199" font-family="Helvetica,sans-Serif" font-size="10.00" fill="#000000">Strategy</text>
<polygon fill="none" stroke="#000000" points="105.1225,-166 105.1225,-186 207.1225,-186 207.1225,-166 105.1225,-166"/>
<polygon fill="none" stroke="#000000" points="105.1225,-134 105.1225,-166 207.1225,-166 207.1225,-134 105.1225,-134"/>
<text text-anchor="start" x="114.872" y="-147" font-family="Helvetica,sans-Serif" font-size="10.00" fill="#000000">+algorithm():String</text>
</g>
<!-- A2 -->
<g id="node3" class="node">
<title>A2</title>
<polygon fill="none" stroke="#000000" points="45.1225,-52 45.1225,-84 147.1225,-84 147.1225,-52 45.1225,-52"/>
<text text-anchor="start" x="74.1715" y="-65" font-family="Helvetica,sans-Serif" font-size="10.00" fill="#000000">StrategyA</text>
<polygon fill="none" stroke="#000000" points="45.1225,-32 45.1225,-52 147.1225,-52 147.1225,-32 45.1225,-32"/>
<polygon fill="none" stroke="#000000" points="45.1225,0 45.1225,-32 147.1225,-32 147.1225,0 45.1225,0"/>
<text text-anchor="start" x="54.872" y="-13" font-family="Helvetica,sans-Serif" font-size="10.00" fill="#000000">+algorithm():String</text>
</g>
<!-- A1&#45;&gt;A2 -->
<g id="edge1" class="edge">
<title>A1&#45;&gt;A2</title>
<path fill="none" stroke="#000000" stroke-dasharray="5,2" d="M131.5175,-124.5884C125.7226,-111.0669 119.65,-96.8974 114.2033,-84.1885"/>
<polygon fill="none" stroke="#000000" points="128.3176,-126.0072 135.4739,-133.8199 134.7517,-123.2497 128.3176,-126.0072"/>
</g>
<!-- A3 -->
<g id="node4" class="node">
<title>A3</title>
<polygon fill="none" stroke="#000000" points="165.1225,-52 165.1225,-84 267.1225,-84 267.1225,-52 165.1225,-52"/>
<text text-anchor="start" x="194.1715" y="-65" font-family="Helvetica,sans-Serif" font-size="10.00" fill="#000000">StrategyB</text>
<polygon fill="none" stroke="#000000" points="165.1225,-32 165.1225,-52 267.1225,-52 267.1225,-32 165.1225,-32"/>
<polygon fill="none" stroke="#000000" points="165.1225,0 165.1225,-32 267.1225,-32 267.1225,0 165.1225,0"/>
<text text-anchor="start" x="174.872" y="-13" font-family="Helvetica,sans-Serif" font-size="10.00" fill="#000000">+algorithm():String</text>
</g>
<!-- A1&#45;&gt;A3 -->
<g id="edge2" class="edge">
<title>A1&#45;&gt;A3</title>
<path fill="none" stroke="#000000" stroke-dasharray="5,2" d="M180.7275,-124.5884C186.5224,-111.0669 192.595,-96.8974 198.0417,-84.1885"/>
<polygon fill="none" stroke="#000000" points="177.4933,-123.2497 176.7711,-133.8199 183.9274,-126.0072 177.4933,-123.2497"/>
</g>
<!-- A4 -->
<g id="node5" class="node">
<title>A4</title>
<polygon fill="none" stroke="#000000" points="70.1225,-356 70.1225,-388 243.1225,-388 243.1225,-356 70.1225,-356"/>
<text text-anchor="start" x="139.3955" y="-369" font-family="Helvetica,sans-Serif" font-size="10.00" fill="#000000">Context</text>
<polygon fill="none" stroke="#000000" points="70.1225,-324 70.1225,-356 243.1225,-356 243.1225,-324 70.1225,-324"/>
<text text-anchor="start" x="117.17" y="-337" font-family="Helvetica,sans-Serif" font-size="10.00" fill="#000000">&#45;Strategy:strategy</text>
<polygon fill="none" stroke="#000000" points="70.1225,-280 70.1225,-324 243.1225,-324 243.1225,-280 70.1225,-280"/>
<text text-anchor="start" x="118.976" y="-305" font-family="Helvetica,sans-Serif" font-size="10.00" fill="#000000">+operate():String</text>
<text text-anchor="start" x="79.662" y="-293" font-family="Helvetica,sans-Serif" font-size="10.00" fill="#000000">setStrategy(Strategy strategy):void</text>
</g>
<!-- A4&#45;&gt;A1 -->
<g id="edge3" class="edge">
<title>A4&#45;&gt;A1</title>
<path fill="none" stroke="#000000" d="M156.1225,-267.9291C156.1225,-255.1863 156.1225,-242.0645 156.1225,-230.0302"/>
<polygon fill="none" stroke="#000000" points="156.1226,-267.9825 160.1225,-273.9825 156.1225,-279.9825 152.1225,-273.9825 156.1226,-267.9825"/>
</g>
<!-- A5 -->
<g id="node6" class="node">
<title>A5</title>
<polygon fill="#ff0000" stroke="transparent" points="118.6225,-438 118.6225,-522 193.6225,-522 193.6225,-438 118.6225,-438"/>
<polygon fill="none" stroke="#000000" points="119.1225,-490 119.1225,-522 194.1225,-522 194.1225,-490 119.1225,-490"/>
<text text-anchor="start" x="135.516" y="-503" font-family="Helvetica,sans-Serif" font-size="10.00" fill="#000000">CallClass</text>
<polygon fill="none" stroke="#000000" points="119.1225,-470 119.1225,-490 194.1225,-490 194.1225,-470 119.1225,-470"/>
<polygon fill="none" stroke="#000000" points="119.1225,-438 119.1225,-470 194.1225,-470 194.1225,-438 119.1225,-438"/>
<text text-anchor="start" x="128.983" y="-451" font-family="Helvetica,sans-Serif" font-size="10.00" fill="#000000">+main():void</text>
</g>
<!-- A5&#45;&gt;A4 -->
<g id="edge4" class="edge">
<title>A5&#45;&gt;A4</title>
<path fill="none" stroke="#000000" d="M156.1225,-437.7708C156.1225,-425.4224 156.1225,-411.6361 156.1225,-398.2483"/>
<polygon fill="#000000" stroke="#000000" points="156.1225,-388.1186 160.6226,-398.1186 156.1225,-393.1186 156.1226,-398.1186 156.1226,-398.1186 156.1226,-398.1186 156.1225,-393.1186 151.6226,-398.1187 156.1225,-388.1186 156.1225,-388.1186"/>
</g>
</g>
</svg>
