<?xml version="1.0" encoding="UTF-8" standalone="no"?>
<!DOCTYPE svg PUBLIC "-//W3C//DTD SVG 1.1//EN"
 "http://www.w3.org/Graphics/SVG/1.1/DTD/svg11.dtd">
<!-- Generated by graphviz version 2.40.1 (20161225.0304)
 -->
<!-- Title: G Pages: 1 -->
<svg width="305pt" height="566pt"
 viewBox="0.00 0.00 304.95 566.00" xmlns="http://www.w3.org/2000/svg" xmlns:xlink="http://www.w3.org/1999/xlink">
<g id="graph0" class="graph" transform="scale(1 1) rotate(0) translate(4 562)">
<title>G</title>
<polygon fill="#ffffff" stroke="transparent" points="-4,4 -4,-562 300.952,-562 300.952,4 -4,4"/>
<!-- A0 -->
<g id="node1" class="node">
<title>A0</title>
<polygon fill="#fff8dc" stroke="#000000" points="100.856,-534 .048,-534 .048,-498 106.856,-498 106.856,-528 100.856,-534"/>
<polyline fill="none" stroke="#000000" points="100.856,-534 100.856,-528 "/>
<polyline fill="none" stroke="#000000" points="106.856,-528 100.856,-528 "/>
<text text-anchor="middle" x="53.452" y="-513" font-family="Helvetica,sans-Serif" font-size="10.00" fill="#000000">Decorator Pattern</text>
</g>
<!-- A1 -->
<g id="node2" class="node">
<title>A1</title>
<polygon fill="#ff0000" stroke="transparent" points="124.952,-474 124.952,-558 199.952,-558 199.952,-474 124.952,-474"/>
<polygon fill="none" stroke="#000000" points="125.452,-526 125.452,-558 200.452,-558 200.452,-526 125.452,-526"/>
<text text-anchor="start" x="141.8455" y="-539" font-family="Helvetica,sans-Serif" font-size="10.00" fill="#000000">CallClass</text>
<polygon fill="none" stroke="#000000" points="125.452,-506 125.452,-526 200.452,-526 200.452,-506 125.452,-506"/>
<polygon fill="none" stroke="#000000" points="125.452,-474 125.452,-506 200.452,-506 200.452,-474 125.452,-474"/>
<text text-anchor="start" x="135.3125" y="-487" font-family="Helvetica,sans-Serif" font-size="10.00" fill="#000000">+main():void</text>
</g>
<!-- A2 -->
<g id="node3" class="node">
<title>A2</title>
<polygon fill="none" stroke="#000000" points="115.452,-380 115.452,-424 210.452,-424 210.452,-380 115.452,-380"/>
<text text-anchor="start" x="132.103" y="-405" font-family="Helvetica,sans-Serif" font-size="10.00" fill="#000000">&lt;&lt;interface&gt;&gt;</text>
<text text-anchor="start" x="137.1115" y="-393" font-family="Helvetica,sans-Serif" font-size="10.00" fill="#000000">Component</text>
<polygon fill="none" stroke="#000000" points="115.452,-360 115.452,-380 210.452,-380 210.452,-360 115.452,-360"/>
<polygon fill="none" stroke="#000000" points="115.452,-328 115.452,-360 210.452,-360 210.452,-328 115.452,-328"/>
<text text-anchor="start" x="125.3055" y="-341" font-family="Helvetica,sans-Serif" font-size="10.00" fill="#000000">+operate():String</text>
</g>
<!-- A1&#45;&gt;A2 -->
<g id="edge4" class="edge">
<title>A1&#45;&gt;A2</title>
<path fill="none" stroke="#000000" d="M162.452,-473.9954C162.452,-461.544 162.452,-447.6777 162.452,-434.3861"/>
<polygon fill="#000000" stroke="#000000" points="162.452,-424.3669 166.9521,-434.3669 162.452,-429.3669 162.4521,-434.3669 162.4521,-434.3669 162.4521,-434.3669 162.452,-429.3669 157.9521,-434.3669 162.452,-424.3669 162.452,-424.3669"/>
</g>
<!-- A3 -->
<g id="node4" class="node">
<title>A3</title>
<polygon fill="none" stroke="#000000" points="31.452,-222 31.452,-254 151.452,-254 151.452,-222 31.452,-222"/>
<text text-anchor="start" x="41.441" y="-235" font-family="Helvetica,sans-Serif" font-size="10.00" fill="#000000">ConCreateComponent</text>
<polygon fill="none" stroke="#000000" points="31.452,-202 31.452,-222 151.452,-222 151.452,-202 31.452,-202"/>
<polygon fill="none" stroke="#000000" points="31.452,-170 31.452,-202 151.452,-202 151.452,-170 31.452,-170"/>
<text text-anchor="start" x="53.8055" y="-183" font-family="Helvetica,sans-Serif" font-size="10.00" fill="#000000">+operate():String</text>
</g>
<!-- A2&#45;&gt;A3 -->
<g id="edge1" class="edge">
<title>A2&#45;&gt;A3</title>
<path fill="none" stroke="#000000" stroke-dasharray="5,2" d="M137.5404,-318.4576C128.3716,-297.2791 118.1656,-273.7048 109.693,-254.1342"/>
<polygon fill="none" stroke="#000000" points="134.3488,-319.8952 141.5337,-327.6816 140.7726,-317.1141 134.3488,-319.8952"/>
</g>
<!-- A4 -->
<g id="node5" class="node">
<title>A4</title>
<polygon fill="none" stroke="#000000" points="170.452,-234 170.452,-278 297.452,-278 297.452,-234 170.452,-234"/>
<text text-anchor="start" x="204.492" y="-259" font-family="Helvetica,sans-Serif" font-size="10.00" fill="#000000">&lt;&lt;abstruct&gt;&gt;</text>
<text text-anchor="start" x="212.006" y="-247" font-family="Helvetica,sans-Serif" font-size="10.00" fill="#000000">Decorator</text>
<polygon fill="none" stroke="#000000" points="170.452,-202 170.452,-234 297.452,-234 297.452,-202 170.452,-202"/>
<text text-anchor="start" x="180.3265" y="-215" font-family="Helvetica,sans-Serif" font-size="10.00" fill="#000000">&#45;Component:component</text>
<polygon fill="none" stroke="#000000" points="170.452,-146 170.452,-202 297.452,-202 297.452,-146 170.452,-146"/>
<text text-anchor="start" x="181.5815" y="-183" font-family="Helvetica,sans-Serif" font-size="10.00" fill="#000000">+Decorator(Component</text>
<text text-anchor="start" x="207.5565" y="-171" font-family="Helvetica,sans-Serif" font-size="10.00" fill="#000000">component)</text>
<text text-anchor="start" x="196.3055" y="-159" font-family="Helvetica,sans-Serif" font-size="10.00" fill="#000000">+operate():String</text>
</g>
<!-- A2&#45;&gt;A4 -->
<g id="edge2" class="edge">
<title>A2&#45;&gt;A4</title>
<path fill="none" stroke="#000000" stroke-dasharray="5,2" d="M187.3881,-318.4011C193.0129,-305.4086 199.027,-291.517 204.791,-278.2028"/>
<polygon fill="none" stroke="#000000" points="184.1314,-317.1141 183.3703,-327.6816 190.5552,-319.8952 184.1314,-317.1141"/>
</g>
<!-- A5 -->
<g id="node6" class="node">
<title>A5</title>
<polygon fill="none" stroke="#000000" points="173.452,-64 173.452,-96 293.452,-96 293.452,-64 173.452,-64"/>
<text text-anchor="start" x="187.3355" y="-77" font-family="Helvetica,sans-Serif" font-size="10.00" fill="#000000">ConCreateDecorator</text>
<polygon fill="none" stroke="#000000" points="173.452,-44 173.452,-64 293.452,-64 293.452,-44 173.452,-44"/>
<polygon fill="none" stroke="#000000" points="173.452,0 173.452,-44 293.452,-44 293.452,0 173.452,0"/>
<text text-anchor="start" x="195.8055" y="-25" font-family="Helvetica,sans-Serif" font-size="10.00" fill="#000000">+operate():String</text>
<text text-anchor="start" x="183.303" y="-13" font-family="Helvetica,sans-Serif" font-size="10.00" fill="#000000">+otherOperate():String</text>
</g>
<!-- A4&#45;&gt;A5 -->
<g id="edge3" class="edge">
<title>A4&#45;&gt;A5</title>
<path fill="none" stroke="#000000" stroke-dasharray="5,2" d="M233.452,-135.6052C233.452,-122.234 233.452,-108.6631 233.452,-96.3236"/>
<polygon fill="none" stroke="#000000" points="229.9521,-135.7676 233.452,-145.7676 236.9521,-135.7677 229.9521,-135.7676"/>
</g>
</g>
</svg>
