<?xml version="1.0" encoding="UTF-8" standalone="no"?>
<!DOCTYPE svg PUBLIC "-//W3C//DTD SVG 1.1//EN"
 "http://www.w3.org/Graphics/SVG/1.1/DTD/svg11.dtd">
<!-- Generated by graphviz version 2.40.1 (20161225.0304)
 -->
<!-- Title: G Pages: 1 -->
<svg width="355pt" height="578pt"
 viewBox="0.00 0.00 355.45 578.00" xmlns="http://www.w3.org/2000/svg" xmlns:xlink="http://www.w3.org/1999/xlink">
<g id="graph0" class="graph" transform="scale(1 1) rotate(0) translate(4 574)">
<title>G</title>
<polygon fill="#ffffff" stroke="transparent" points="-4,4 -4,-574 351.452,-574 351.452,4 -4,4"/>
<!-- A0 -->
<g id="node1" class="node">
<title>A0</title>
<polygon fill="#fff8dc" stroke="#000000" points="100.856,-546 .048,-546 .048,-510 106.856,-510 106.856,-540 100.856,-546"/>
<polyline fill="none" stroke="#000000" points="100.856,-546 100.856,-540 "/>
<polyline fill="none" stroke="#000000" points="106.856,-540 100.856,-540 "/>
<text text-anchor="middle" x="53.452" y="-525" font-family="Helvetica,sans-Serif" font-size="10.00" fill="#000000">Decorator Pattern</text>
</g>
<!-- A1 -->
<g id="node2" class="node">
<title>A1</title>
<polygon fill="#ff0000" stroke="transparent" points="124.952,-486 124.952,-570 199.952,-570 199.952,-486 124.952,-486"/>
<polygon fill="none" stroke="#000000" points="125.452,-538 125.452,-570 200.452,-570 200.452,-538 125.452,-538"/>
<text text-anchor="start" x="141.8455" y="-551" font-family="Helvetica,sans-Serif" font-size="10.00" fill="#000000">CallClass</text>
<polygon fill="none" stroke="#000000" points="125.452,-518 125.452,-538 200.452,-538 200.452,-518 125.452,-518"/>
<polygon fill="none" stroke="#000000" points="125.452,-486 125.452,-518 200.452,-518 200.452,-486 125.452,-486"/>
<text text-anchor="start" x="135.3125" y="-499" font-family="Helvetica,sans-Serif" font-size="10.00" fill="#000000">+main():void</text>
</g>
<!-- A2 -->
<g id="node3" class="node">
<title>A2</title>
<polygon fill="none" stroke="#000000" points="115.452,-392 115.452,-436 210.452,-436 210.452,-392 115.452,-392"/>
<text text-anchor="start" x="132.103" y="-417" font-family="Helvetica,sans-Serif" font-size="10.00" fill="#000000">&lt;&lt;interface&gt;&gt;</text>
<text text-anchor="start" x="137.1115" y="-405" font-family="Helvetica,sans-Serif" font-size="10.00" fill="#000000">Component</text>
<polygon fill="none" stroke="#000000" points="115.452,-372 115.452,-392 210.452,-392 210.452,-372 115.452,-372"/>
<polygon fill="none" stroke="#000000" points="115.452,-340 115.452,-372 210.452,-372 210.452,-340 115.452,-340"/>
<text text-anchor="start" x="125.3055" y="-353" font-family="Helvetica,sans-Serif" font-size="10.00" fill="#000000">+operate():String</text>
</g>
<!-- A1&#45;&gt;A2 -->
<g id="edge4" class="edge">
<title>A1&#45;&gt;A2</title>
<path fill="none" stroke="#000000" d="M162.452,-485.9954C162.452,-473.544 162.452,-459.6777 162.452,-446.3861"/>
<polygon fill="#000000" stroke="#000000" points="162.452,-436.3669 166.9521,-446.3669 162.452,-441.3669 162.4521,-446.3669 162.4521,-446.3669 162.4521,-446.3669 162.452,-441.3669 157.9521,-446.3669 162.452,-436.3669 162.452,-436.3669"/>
</g>
<!-- A3 -->
<g id="node4" class="node">
<title>A3</title>
<polygon fill="none" stroke="#000000" points="31.452,-234 31.452,-266 151.452,-266 151.452,-234 31.452,-234"/>
<text text-anchor="start" x="41.441" y="-247" font-family="Helvetica,sans-Serif" font-size="10.00" fill="#000000">ConCreateComponent</text>
<polygon fill="none" stroke="#000000" points="31.452,-214 31.452,-234 151.452,-234 151.452,-214 31.452,-214"/>
<polygon fill="none" stroke="#000000" points="31.452,-182 31.452,-214 151.452,-214 151.452,-182 31.452,-182"/>
<text text-anchor="start" x="53.8055" y="-195" font-family="Helvetica,sans-Serif" font-size="10.00" fill="#000000">+operate():String</text>
</g>
<!-- A2&#45;&gt;A3 -->
<g id="edge1" class="edge">
<title>A2&#45;&gt;A3</title>
<path fill="none" stroke="#000000" stroke-dasharray="5,2" d="M137.5404,-330.4576C128.3716,-309.2791 118.1656,-285.7048 109.693,-266.1342"/>
<polygon fill="none" stroke="#000000" points="134.3488,-331.8952 141.5337,-339.6816 140.7726,-329.1141 134.3488,-331.8952"/>
</g>
<!-- A4 -->
<g id="node5" class="node">
<title>A4</title>
<polygon fill="none" stroke="#000000" points="170.452,-246 170.452,-290 297.452,-290 297.452,-246 170.452,-246"/>
<text text-anchor="start" x="204.492" y="-271" font-family="Helvetica,sans-Serif" font-size="10.00" fill="#000000">&lt;&lt;abstruct&gt;&gt;</text>
<text text-anchor="start" x="212.006" y="-259" font-family="Helvetica,sans-Serif" font-size="10.00" fill="#000000">Decorator</text>
<polygon fill="none" stroke="#000000" points="170.452,-214 170.452,-246 297.452,-246 297.452,-214 170.452,-214"/>
<text text-anchor="start" x="180.3265" y="-227" font-family="Helvetica,sans-Serif" font-size="10.00" fill="#000000">&#45;Component:component</text>
<polygon fill="none" stroke="#000000" points="170.452,-158 170.452,-214 297.452,-214 297.452,-158 170.452,-158"/>
<text text-anchor="start" x="181.5815" y="-195" font-family="Helvetica,sans-Serif" font-size="10.00" fill="#000000">+Decorator(Component</text>
<text text-anchor="start" x="207.5565" y="-183" font-family="Helvetica,sans-Serif" font-size="10.00" fill="#000000">component)</text>
<text text-anchor="start" x="196.3055" y="-171" font-family="Helvetica,sans-Serif" font-size="10.00" fill="#000000">+operate():String</text>
</g>
<!-- A2&#45;&gt;A4 -->
<g id="edge2" class="edge">
<title>A2&#45;&gt;A4</title>
<path fill="none" stroke="#000000" stroke-dasharray="5,2" d="M187.3881,-330.4011C193.0129,-317.4086 199.027,-303.517 204.791,-290.2028"/>
<polygon fill="none" stroke="#000000" points="184.1314,-329.1141 183.3703,-339.6816 190.5552,-331.8952 184.1314,-329.1141"/>
</g>
<!-- A5 -->
<g id="node6" class="node">
<title>A5</title>
<polygon fill="none" stroke="#000000" points="119.452,-76 119.452,-108 347.452,-108 347.452,-76 119.452,-76"/>
<text text-anchor="start" x="187.3355" y="-89" font-family="Helvetica,sans-Serif" font-size="10.00" fill="#000000">ConCreateDecorator</text>
<polygon fill="none" stroke="#000000" points="119.452,-56 119.452,-76 347.452,-76 347.452,-56 119.452,-56"/>
<polygon fill="none" stroke="#000000" points="119.452,0 119.452,-56 347.452,-56 347.452,0 119.452,0"/>
<text text-anchor="start" x="129.126" y="-37" font-family="Helvetica,sans-Serif" font-size="10.00" fill="#000000">+ConCreateDecorator(Component component)</text>
<text text-anchor="start" x="195.8055" y="-25" font-family="Helvetica,sans-Serif" font-size="10.00" fill="#000000">+operate():String</text>
<text text-anchor="start" x="184.558" y="-13" font-family="Helvetica,sans-Serif" font-size="10.00" fill="#000000">&#45;otherOperate():String</text>
</g>
<!-- A4&#45;&gt;A5 -->
<g id="edge3" class="edge">
<title>A4&#45;&gt;A5</title>
<path fill="none" stroke="#000000" stroke-dasharray="5,2" d="M233.452,-147.6882C233.452,-134.3805 233.452,-120.7858 233.452,-108.2272"/>
<polygon fill="none" stroke="#000000" points="229.9521,-147.7867 233.452,-157.7868 236.9521,-147.7868 229.9521,-147.7867"/>
</g>
</g>
</svg>
