<?xml version="1.0" encoding="UTF-8" standalone="no"?>
<!DOCTYPE svg PUBLIC "-//W3C//DTD SVG 1.1//EN"
 "http://www.w3.org/Graphics/SVG/1.1/DTD/svg11.dtd">
<!-- Generated by graphviz version 2.40.1 (20161225.0304)
 -->
<!-- Title: G Pages: 1 -->
<svg width="368pt" height="566pt"
 viewBox="0.00 0.00 368.00 566.00" xmlns="http://www.w3.org/2000/svg" xmlns:xlink="http://www.w3.org/1999/xlink">
<g id="graph0" class="graph" transform="scale(1 1) rotate(0) translate(4 562)">
<title>G</title>
<polygon fill="#ffffff" stroke="transparent" points="-4,4 -4,-562 364,-562 364,4 -4,4"/>
<!-- A0 -->
<g id="node1" class="node">
<title>A0</title>
<polygon fill="#fff8dc" stroke="#000000" points="119.455,-534 17.545,-534 17.545,-498 125.455,-498 125.455,-528 119.455,-534"/>
<polyline fill="none" stroke="#000000" points="119.455,-534 119.455,-528 "/>
<polyline fill="none" stroke="#000000" points="125.455,-528 119.455,-528 "/>
<text text-anchor="middle" x="71.5" y="-513" font-family="Helvetica,sans-Serif" font-size="10.00" fill="#000000">FlyWeight Pattern</text>
</g>
<!-- A1 -->
<g id="node2" class="node">
<title>A1</title>
<polygon fill="#ff0000" stroke="transparent" points="143,-474 143,-558 218,-558 218,-474 143,-474"/>
<polygon fill="none" stroke="#000000" points="143.5,-526 143.5,-558 218.5,-558 218.5,-526 143.5,-526"/>
<text text-anchor="start" x="159.8935" y="-539" font-family="Helvetica,sans-Serif" font-size="10.00" fill="#000000">CallClass</text>
<polygon fill="none" stroke="#000000" points="143.5,-506 143.5,-526 218.5,-526 218.5,-506 143.5,-506"/>
<polygon fill="none" stroke="#000000" points="143.5,-474 143.5,-506 218.5,-506 218.5,-474 143.5,-474"/>
<text text-anchor="start" x="153.3605" y="-487" font-family="Helvetica,sans-Serif" font-size="10.00" fill="#000000">+main():void</text>
</g>
<!-- A2 -->
<g id="node3" class="node">
<title>A2</title>
<polygon fill="none" stroke="#000000" points="124.5,-392 124.5,-424 237.5,-424 237.5,-392 124.5,-392"/>
<text text-anchor="start" x="142.1115" y="-405" font-family="Helvetica,sans-Serif" font-size="10.00" fill="#000000">FlyWeightFactory</text>
<polygon fill="none" stroke="#000000" points="124.5,-372 124.5,-392 237.5,-392 237.5,-372 124.5,-372"/>
<polygon fill="none" stroke="#000000" points="124.5,-328 124.5,-372 237.5,-372 237.5,-328 124.5,-328"/>
<text text-anchor="start" x="134.1895" y="-353" font-family="Helvetica,sans-Serif" font-size="10.00" fill="#000000">+getFlyWeight(String</text>
<text text-anchor="start" x="155.441" y="-341" font-family="Helvetica,sans-Serif" font-size="10.00" fill="#000000">guid):String</text>
</g>
<!-- A1&#45;&gt;A2 -->
<g id="edge4" class="edge">
<title>A1&#45;&gt;A2</title>
<path fill="none" stroke="#000000" d="M180.5,-473.9954C180.5,-461.544 180.5,-447.6777 180.5,-434.3861"/>
<polygon fill="#000000" stroke="#000000" points="180.5,-424.3669 185.0001,-434.3669 180.5,-429.3669 180.5001,-434.3669 180.5001,-434.3669 180.5001,-434.3669 180.5,-429.3669 176.0001,-434.3669 180.5,-424.3669 180.5,-424.3669"/>
</g>
<!-- A3 -->
<g id="node4" class="node">
<title>A3</title>
<polygon fill="none" stroke="#000000" points="131.5,-234 131.5,-278 230.5,-278 230.5,-234 131.5,-234"/>
<text text-anchor="start" x="151.54" y="-259" font-family="Helvetica,sans-Serif" font-size="10.00" fill="#000000">&lt;&lt;abstract&gt;&gt;</text>
<text text-anchor="start" x="158.779" y="-247" font-family="Helvetica,sans-Serif" font-size="10.00" fill="#000000">FlyWeight</text>
<polygon fill="none" stroke="#000000" points="131.5,-202 131.5,-234 230.5,-234 230.5,-202 131.5,-202"/>
<text text-anchor="start" x="155.441" y="-215" font-family="Helvetica,sans-Serif" font-size="10.00" fill="#000000">&#45;String:guid</text>
<polygon fill="none" stroke="#000000" points="131.5,-146 131.5,-202 230.5,-202 230.5,-146 131.5,-146"/>
<text text-anchor="start" x="141.138" y="-183" font-family="Helvetica,sans-Serif" font-size="10.00" fill="#000000">+FlyWeight(String</text>
<text text-anchor="start" x="169.8875" y="-171" font-family="Helvetica,sans-Serif" font-size="10.00" fill="#000000">guid)</text>
<text text-anchor="start" x="143.3535" y="-159" font-family="Helvetica,sans-Serif" font-size="10.00" fill="#000000">+operate():String</text>
</g>
<!-- A2&#45;&gt;A3 -->
<g id="edge1" class="edge">
<title>A2&#45;&gt;A3</title>
<path fill="none" stroke="#000000" d="M180.5,-315.3582C180.5,-306.5639 180.5,-297.4173 180.5,-288.3628"/>
<polygon fill="none" stroke="#000000" points="180.5001,-315.6816 184.5,-321.6816 180.5,-327.6816 176.5,-321.6816 180.5001,-315.6816"/>
<polygon fill="#000000" stroke="#000000" points="180.5,-278.2028 185.0001,-288.2028 180.5,-283.2028 180.5001,-288.2028 180.5001,-288.2028 180.5001,-288.2028 180.5,-283.2028 176.0001,-288.2029 180.5,-278.2028 180.5,-278.2028"/>
</g>
<!-- A4 -->
<g id="node5" class="node">
<title>A4</title>
<polygon fill="none" stroke="#000000" points=".5,-64 .5,-96 173.5,-96 173.5,-64 .5,-64"/>
<text text-anchor="start" x="40.6085" y="-77" font-family="Helvetica,sans-Serif" font-size="10.00" fill="#000000">ConCreateFlyWeight</text>
<polygon fill="none" stroke="#000000" points=".5,-44 .5,-64 173.5,-64 173.5,-44 .5,-44"/>
<polygon fill="none" stroke="#000000" points=".5,0 .5,-44 173.5,-44 173.5,0 .5,0"/>
<text text-anchor="start" x="10.4655" y="-25" font-family="Helvetica,sans-Serif" font-size="10.00" fill="#000000">+ConCreateFlyWeight(String guid)</text>
<text text-anchor="start" x="49.3535" y="-13" font-family="Helvetica,sans-Serif" font-size="10.00" fill="#000000">+operate():String</text>
</g>
<!-- A3&#45;&gt;A4 -->
<g id="edge2" class="edge">
<title>A3&#45;&gt;A4</title>
<path fill="none" stroke="#000000" stroke-dasharray="5,2" d="M137.3887,-136.7845C129.5069,-123.0334 121.4783,-109.026 114.1977,-96.3236"/>
<polygon fill="none" stroke="#000000" points="134.5282,-138.8322 142.5376,-145.7676 140.6013,-135.3512 134.5282,-138.8322"/>
</g>
<!-- A5 -->
<g id="node6" class="node">
<title>A5</title>
<polygon fill="none" stroke="#000000" points="191.5,-64 191.5,-96 360.5,-96 360.5,-64 191.5,-64"/>
<text text-anchor="start" x="231.273" y="-77" font-family="Helvetica,sans-Serif" font-size="10.00" fill="#000000">UnSharedFlyWeight</text>
<polygon fill="none" stroke="#000000" points="191.5,-44 191.5,-64 360.5,-64 360.5,-44 191.5,-44"/>
<polygon fill="none" stroke="#000000" points="191.5,0 191.5,-44 360.5,-44 360.5,0 191.5,0"/>
<text text-anchor="start" x="201.13" y="-25" font-family="Helvetica,sans-Serif" font-size="10.00" fill="#000000">+UnSharedFlyWeight(String guid)</text>
<text text-anchor="start" x="238.3535" y="-13" font-family="Helvetica,sans-Serif" font-size="10.00" fill="#000000">+operate():String</text>
</g>
<!-- A3&#45;&gt;A5 -->
<g id="edge3" class="edge">
<title>A3&#45;&gt;A5</title>
<path fill="none" stroke="#000000" stroke-dasharray="5,2" d="M224.07,-136.7845C232.0355,-123.0334 240.1496,-109.026 247.5077,-96.3236"/>
<polygon fill="none" stroke="#000000" points="220.8502,-135.3602 218.8663,-145.7676 226.9074,-138.8689 220.8502,-135.3602"/>
</g>
</g>
</svg>
