<?xml version="1.0" encoding="UTF-8" standalone="no"?>
<!DOCTYPE svg PUBLIC "-//W3C//DTD SVG 1.1//EN"
 "http://www.w3.org/Graphics/SVG/1.1/DTD/svg11.dtd">
<!-- Generated by graphviz version 2.40.1 (20161225.0304)
 -->
<!-- Title: G Pages: 1 -->
<svg width="311pt" height="262pt"
 viewBox="0.00 0.00 311.44 262.00" xmlns="http://www.w3.org/2000/svg" xmlns:xlink="http://www.w3.org/1999/xlink">
<g id="graph0" class="graph" transform="scale(1 1) rotate(0) translate(4 258)">
<title>G</title>
<polygon fill="#ffffff" stroke="transparent" points="-4,4 -4,-258 307.4435,-258 307.4435,4 -4,4"/>
<!-- A0 -->
<g id="node1" class="node">
<title>A0</title>
<polygon fill="#fff8dc" stroke="#000000" points="95.8306,-218 .0564,-218 .0564,-182 101.8306,-182 101.8306,-212 95.8306,-218"/>
<polyline fill="none" stroke="#000000" points="95.8306,-218 95.8306,-212 "/>
<polyline fill="none" stroke="#000000" points="101.8306,-212 95.8306,-212 "/>
<text text-anchor="middle" x="50.9435" y="-203" font-family="Helvetica,sans-Serif" font-size="10.00" fill="#000000">Simple Common</text>
<text text-anchor="middle" x="50.9435" y="-191" font-family="Helvetica,sans-Serif" font-size="10.00" fill="#000000">Pattern</text>
</g>
<!-- A1 -->
<g id="node2" class="node">
<title>A1</title>
<polygon fill="none" stroke="#000000" points="119.9435,-210 119.9435,-254 202.9435,-254 202.9435,-210 119.9435,-210"/>
<text text-anchor="start" x="130.5945" y="-235" font-family="Helvetica,sans-Serif" font-size="10.00" fill="#000000">&lt;&lt;interface&gt;&gt;</text>
<text text-anchor="start" x="143.107" y="-223" font-family="Helvetica,sans-Serif" font-size="10.00" fill="#000000">Element</text>
<polygon fill="none" stroke="#000000" points="119.9435,-190 119.9435,-210 202.9435,-210 202.9435,-190 119.9435,-190"/>
<polygon fill="none" stroke="#000000" points="119.9435,-146 119.9435,-190 202.9435,-190 202.9435,-146 119.9435,-146"/>
<text text-anchor="start" x="129.9155" y="-171" font-family="Helvetica,sans-Serif" font-size="10.00" fill="#000000">+draw():String</text>
<text text-anchor="start" x="131.026" y="-159" font-family="Helvetica,sans-Serif" font-size="10.00" fill="#000000">+print():String</text>
</g>
<!-- A2 -->
<g id="node3" class="node">
<title>A2</title>
<polygon fill="none" stroke="#000000" points="18.9435,-64 18.9435,-96 101.9435,-96 101.9435,-64 18.9435,-64"/>
<text text-anchor="start" x="38.7725" y="-77" font-family="Helvetica,sans-Serif" font-size="10.00" fill="#000000">ElementA</text>
<polygon fill="none" stroke="#000000" points="18.9435,-44 18.9435,-64 101.9435,-64 101.9435,-44 18.9435,-44"/>
<polygon fill="none" stroke="#000000" points="18.9435,0 18.9435,-44 101.9435,-44 101.9435,0 18.9435,0"/>
<text text-anchor="start" x="28.9155" y="-25" font-family="Helvetica,sans-Serif" font-size="10.00" fill="#000000">+draw():String</text>
<text text-anchor="start" x="30.026" y="-13" font-family="Helvetica,sans-Serif" font-size="10.00" fill="#000000">+print():String</text>
</g>
<!-- A1&#45;&gt;A2 -->
<g id="edge1" class="edge">
<title>A1&#45;&gt;A2</title>
<path fill="none" stroke="#000000" stroke-dasharray="5,2" d="M119.3907,-137.4651C110.198,-123.6306 100.5967,-109.1811 91.8583,-96.0302"/>
<polygon fill="none" stroke="#000000" points="116.6008,-139.5906 125.0503,-145.9825 122.431,-135.7165 116.6008,-139.5906"/>
</g>
<!-- A3 -->
<g id="node4" class="node">
<title>A3</title>
<polygon fill="none" stroke="#000000" points="119.9435,-64 119.9435,-96 202.9435,-96 202.9435,-64 119.9435,-64"/>
<text text-anchor="start" x="139.7725" y="-77" font-family="Helvetica,sans-Serif" font-size="10.00" fill="#000000">ElementB</text>
<polygon fill="none" stroke="#000000" points="119.9435,-44 119.9435,-64 202.9435,-64 202.9435,-44 119.9435,-44"/>
<polygon fill="none" stroke="#000000" points="119.9435,0 119.9435,-44 202.9435,-44 202.9435,0 119.9435,0"/>
<text text-anchor="start" x="129.9155" y="-25" font-family="Helvetica,sans-Serif" font-size="10.00" fill="#000000">+draw():String</text>
<text text-anchor="start" x="131.026" y="-13" font-family="Helvetica,sans-Serif" font-size="10.00" fill="#000000">+print():String</text>
</g>
<!-- A1&#45;&gt;A3 -->
<g id="edge2" class="edge">
<title>A1&#45;&gt;A3</title>
<path fill="none" stroke="#000000" stroke-dasharray="5,2" d="M160.9435,-135.8964C160.9435,-122.5419 160.9435,-108.6849 160.9435,-96.0302"/>
<polygon fill="none" stroke="#000000" points="157.4436,-135.9825 160.9435,-145.9825 164.4436,-135.9825 157.4436,-135.9825"/>
</g>
<!-- A4 -->
<g id="node5" class="node">
<title>A4</title>
<polygon fill="none" stroke="#000000" points="220.9435,-64 220.9435,-96 303.9435,-96 303.9435,-64 220.9435,-64"/>
<text text-anchor="start" x="240.4975" y="-77" font-family="Helvetica,sans-Serif" font-size="10.00" fill="#000000">ElementC</text>
<polygon fill="none" stroke="#000000" points="220.9435,-44 220.9435,-64 303.9435,-64 303.9435,-44 220.9435,-44"/>
<polygon fill="none" stroke="#000000" points="220.9435,0 220.9435,-44 303.9435,-44 303.9435,0 220.9435,0"/>
<text text-anchor="start" x="230.9155" y="-25" font-family="Helvetica,sans-Serif" font-size="10.00" fill="#000000">+draw():String</text>
<text text-anchor="start" x="232.026" y="-13" font-family="Helvetica,sans-Serif" font-size="10.00" fill="#000000">+print():String</text>
</g>
<!-- A1&#45;&gt;A4 -->
<g id="edge3" class="edge">
<title>A1&#45;&gt;A4</title>
<path fill="none" stroke="#000000" stroke-dasharray="5,2" d="M202.4963,-137.4651C211.689,-123.6306 221.2903,-109.1811 230.0287,-96.0302"/>
<polygon fill="none" stroke="#000000" points="199.456,-135.7165 196.8367,-145.9825 205.2862,-139.5906 199.456,-135.7165"/>
</g>
</g>
</svg>
