<?xml version="1.0" encoding="UTF-8" standalone="no"?>
<!DOCTYPE svg PUBLIC "-//W3C//DTD SVG 1.1//EN"
 "http://www.w3.org/Graphics/SVG/1.1/DTD/svg11.dtd">
<!-- Generated by graphviz version 2.40.1 (20161225.0304)
 -->
<!-- Title: G Pages: 1 -->
<svg width="569pt" height="468pt"
 viewBox="0.00 0.00 569.00 468.00" xmlns="http://www.w3.org/2000/svg" xmlns:xlink="http://www.w3.org/1999/xlink">
<g id="graph0" class="graph" transform="scale(1 1) rotate(0) translate(4 464)">
<title>G</title>
<polygon fill="#ffffff" stroke="transparent" points="-4,4 -4,-464 565,-464 565,4 -4,4"/>
<!-- A0 -->
<g id="node1" class="node">
<title>A0</title>
<polygon fill="#fff8dc" stroke="#000000" points="132.2863,-424 47.7137,-424 47.7137,-388 138.2863,-388 138.2863,-418 132.2863,-424"/>
<polyline fill="none" stroke="#000000" points="132.2863,-424 132.2863,-418 "/>
<polyline fill="none" stroke="#000000" points="138.2863,-418 132.2863,-418 "/>
<text text-anchor="middle" x="93" y="-403" font-family="Helvetica,sans-Serif" font-size="10.00" fill="#000000">Visitor Pattern</text>
</g>
<!-- A1 -->
<g id="node2" class="node">
<title>A1</title>
<polygon fill="none" stroke="#000000" points="156,-416 156,-460 242,-460 242,-416 156,-416"/>
<text text-anchor="start" x="168.151" y="-441" font-family="Helvetica,sans-Serif" font-size="10.00" fill="#000000">&lt;&lt;interface&gt;&gt;</text>
<text text-anchor="start" x="180.6635" y="-429" font-family="Helvetica,sans-Serif" font-size="10.00" fill="#000000">Element</text>
<polygon fill="none" stroke="#000000" points="156,-396 156,-416 242,-416 242,-396 156,-396"/>
<polygon fill="none" stroke="#000000" points="156,-352 156,-396 242,-396 242,-352 156,-352"/>
<text text-anchor="start" x="165.801" y="-377" font-family="Helvetica,sans-Serif" font-size="10.00" fill="#000000">+accept(Visitor</text>
<text text-anchor="start" x="169.8365" y="-365" font-family="Helvetica,sans-Serif" font-size="10.00" fill="#000000">visitor):String</text>
</g>
<!-- A2 -->
<g id="node3" class="node">
<title>A2</title>
<polygon fill="none" stroke="#000000" points="0,-252 0,-284 86,-284 86,-252 0,-252"/>
<text text-anchor="start" x="21.329" y="-265" font-family="Helvetica,sans-Serif" font-size="10.00" fill="#000000">ElementA</text>
<polygon fill="none" stroke="#000000" points="0,-232 0,-252 86,-252 86,-232 0,-232"/>
<polygon fill="none" stroke="#000000" points="0,-188 0,-232 86,-232 86,-188 0,-188"/>
<text text-anchor="start" x="9.801" y="-213" font-family="Helvetica,sans-Serif" font-size="10.00" fill="#000000">+accept(Visitor</text>
<text text-anchor="start" x="13.8365" y="-201" font-family="Helvetica,sans-Serif" font-size="10.00" fill="#000000">visitor):String</text>
</g>
<!-- A1&#45;&gt;A2 -->
<g id="edge1" class="edge">
<title>A1&#45;&gt;A2</title>
<path fill="none" stroke="#000000" stroke-dasharray="5,2" d="M148.6125,-353.6144C148.0728,-353.073 147.5351,-352.5347 147,-352 124.3206,-329.3374 116.5276,-325.7595 95,-302 89.9068,-296.3787 84.7372,-290.318 79.7324,-284.2282"/>
<polygon fill="none" stroke="#000000" points="146.1948,-356.1471 155.7168,-360.7928 151.1701,-351.2231 146.1948,-356.1471"/>
</g>
<!-- A3 -->
<g id="node4" class="node">
<title>A3</title>
<polygon fill="none" stroke="#000000" points="104,-252 104,-284 190,-284 190,-252 104,-252"/>
<text text-anchor="start" x="125.329" y="-265" font-family="Helvetica,sans-Serif" font-size="10.00" fill="#000000">ElementB</text>
<polygon fill="none" stroke="#000000" points="104,-232 104,-252 190,-252 190,-232 104,-232"/>
<polygon fill="none" stroke="#000000" points="104,-188 104,-232 190,-232 190,-188 104,-188"/>
<text text-anchor="start" x="113.801" y="-213" font-family="Helvetica,sans-Serif" font-size="10.00" fill="#000000">+accept(Visitor</text>
<text text-anchor="start" x="117.8365" y="-201" font-family="Helvetica,sans-Serif" font-size="10.00" fill="#000000">visitor):String</text>
</g>
<!-- A1&#45;&gt;A3 -->
<g id="edge2" class="edge">
<title>A1&#45;&gt;A3</title>
<path fill="none" stroke="#000000" stroke-dasharray="5,2" d="M179.4638,-342.1318C173.5707,-322.8657 167.2045,-302.0531 161.6839,-284.0052"/>
<polygon fill="none" stroke="#000000" points="176.1319,-343.2047 182.4039,-351.7435 182.8257,-341.1571 176.1319,-343.2047"/>
</g>
<!-- A4 -->
<g id="node5" class="node">
<title>A4</title>
<polygon fill="none" stroke="#000000" points="208,-252 208,-284 294,-284 294,-252 208,-252"/>
<text text-anchor="start" x="229.054" y="-265" font-family="Helvetica,sans-Serif" font-size="10.00" fill="#000000">ElementC</text>
<polygon fill="none" stroke="#000000" points="208,-232 208,-252 294,-252 294,-232 208,-232"/>
<polygon fill="none" stroke="#000000" points="208,-188 208,-232 294,-232 294,-188 208,-188"/>
<text text-anchor="start" x="217.801" y="-213" font-family="Helvetica,sans-Serif" font-size="10.00" fill="#000000">+accept(Visitor</text>
<text text-anchor="start" x="221.8365" y="-201" font-family="Helvetica,sans-Serif" font-size="10.00" fill="#000000">visitor):String</text>
</g>
<!-- A1&#45;&gt;A4 -->
<g id="edge3" class="edge">
<title>A1&#45;&gt;A4</title>
<path fill="none" stroke="#000000" stroke-dasharray="5,2" d="M218.5362,-342.1318C224.4293,-322.8657 230.7955,-302.0531 236.3161,-284.0052"/>
<polygon fill="none" stroke="#000000" points="215.1743,-341.1571 215.5961,-351.7435 221.8681,-343.2047 215.1743,-341.1571"/>
</g>
<!-- A5 -->
<g id="node6" class="node">
<title>A5</title>
<polygon fill="none" stroke="#000000" points="312,-258 312,-302 472,-302 472,-258 312,-258"/>
<text text-anchor="start" x="361.151" y="-283" font-family="Helvetica,sans-Serif" font-size="10.00" fill="#000000">&lt;&lt;interface&gt;&gt;</text>
<text text-anchor="start" x="378.113" y="-271" font-family="Helvetica,sans-Serif" font-size="10.00" fill="#000000">Visitor</text>
<polygon fill="none" stroke="#000000" points="312,-238 312,-258 472,-258 472,-238 312,-238"/>
<polygon fill="none" stroke="#000000" points="312,-170 312,-238 472,-238 472,-170 312,-170"/>
<text text-anchor="start" x="357.1365" y="-219" font-family="Helvetica,sans-Serif" font-size="10.00" fill="#000000">+visit(ElementA</text>
<text text-anchor="start" x="358.1075" y="-207" font-family="Helvetica,sans-Serif" font-size="10.00" fill="#000000">element):Stirng</text>
<text text-anchor="start" x="321.8545" y="-195" font-family="Helvetica,sans-Serif" font-size="10.00" fill="#000000">+visit(ElementB element):Stirng</text>
<text text-anchor="start" x="321.5795" y="-183" font-family="Helvetica,sans-Serif" font-size="10.00" fill="#000000">+visit(ElementC element):Stirng</text>
</g>
<!-- A1&#45;&gt;A5 -->
<g id="edge6" class="edge">
<title>A1&#45;&gt;A5</title>
<path fill="none" stroke="#000000" d="M251.3473,-359.891C268.7899,-344.527 288.686,-327.0019 307.9136,-310.0657"/>
<polygon fill="none" stroke="#000000" points="251.3179,-359.9169 249.4593,-366.8844 242.313,-367.8487 244.1715,-360.8812 251.3179,-359.9169"/>
<polygon fill="none" stroke="#000000" points="307.9813,-310.0061 309.8398,-303.0386 316.9862,-302.0744 315.1277,-309.0419 307.9813,-310.0061"/>
</g>
<!-- A6 -->
<g id="node7" class="node">
<title>A6</title>
<polygon fill="none" stroke="#000000" points="223,-88 223,-120 383,-120 383,-88 223,-88"/>
<text text-anchor="start" x="277.45" y="-101" font-family="Helvetica,sans-Serif" font-size="10.00" fill="#000000">DrawVisitor</text>
<polygon fill="none" stroke="#000000" points="223,-68 223,-88 383,-88 383,-68 223,-68"/>
<polygon fill="none" stroke="#000000" points="223,0 223,-68 383,-68 383,0 223,0"/>
<text text-anchor="start" x="268.1365" y="-49" font-family="Helvetica,sans-Serif" font-size="10.00" fill="#000000">+visit(ElementA</text>
<text text-anchor="start" x="269.1075" y="-37" font-family="Helvetica,sans-Serif" font-size="10.00" fill="#000000">element):Stirng</text>
<text text-anchor="start" x="232.8545" y="-25" font-family="Helvetica,sans-Serif" font-size="10.00" fill="#000000">+visit(ElementB element):Stirng</text>
<text text-anchor="start" x="232.5795" y="-13" font-family="Helvetica,sans-Serif" font-size="10.00" fill="#000000">+visit(ElementC element):Stirng</text>
</g>
<!-- A5&#45;&gt;A6 -->
<g id="edge4" class="edge">
<title>A5&#45;&gt;A6</title>
<path fill="none" stroke="#000000" stroke-dasharray="5,2" d="M354.0936,-161.0391C347.1675,-147.3424 340.0233,-133.2147 333.3526,-120.0232"/>
<polygon fill="none" stroke="#000000" points="350.9704,-162.6189 358.6065,-169.9634 357.2171,-159.46 350.9704,-162.6189"/>
</g>
<!-- A7 -->
<g id="node8" class="node">
<title>A7</title>
<polygon fill="none" stroke="#000000" points="401,-88 401,-120 561,-120 561,-88 401,-88"/>
<text text-anchor="start" x="456.8355" y="-101" font-family="Helvetica,sans-Serif" font-size="10.00" fill="#000000">PrintVisitor</text>
<polygon fill="none" stroke="#000000" points="401,-68 401,-88 561,-88 561,-68 401,-68"/>
<polygon fill="none" stroke="#000000" points="401,0 401,-68 561,-68 561,0 401,0"/>
<text text-anchor="start" x="446.1365" y="-49" font-family="Helvetica,sans-Serif" font-size="10.00" fill="#000000">+visit(ElementA</text>
<text text-anchor="start" x="447.1075" y="-37" font-family="Helvetica,sans-Serif" font-size="10.00" fill="#000000">element):Stirng</text>
<text text-anchor="start" x="410.8545" y="-25" font-family="Helvetica,sans-Serif" font-size="10.00" fill="#000000">+visit(ElementB element):Stirng</text>
<text text-anchor="start" x="410.5795" y="-13" font-family="Helvetica,sans-Serif" font-size="10.00" fill="#000000">+visit(ElementC element):Stirng</text>
</g>
<!-- A5&#45;&gt;A7 -->
<g id="edge5" class="edge">
<title>A5&#45;&gt;A7</title>
<path fill="none" stroke="#000000" stroke-dasharray="5,2" d="M429.9064,-161.0391C436.8325,-147.3424 443.9767,-133.2147 450.6474,-120.0232"/>
<polygon fill="none" stroke="#000000" points="426.7829,-159.46 425.3935,-169.9634 433.0296,-162.6189 426.7829,-159.46"/>
</g>
</g>
</svg>
