<?xml version="1.0" encoding="UTF-8" standalone="no"?>
<!DOCTYPE svg PUBLIC "-//W3C//DTD SVG 1.1//EN"
 "http://www.w3.org/Graphics/SVG/1.1/DTD/svg11.dtd">
<!-- Generated by graphviz version 2.40.1 (20161225.0304)
 -->
<!-- Title: G Pages: 1 -->
<svg width="327pt" height="566pt"
 viewBox="0.00 0.00 326.50 566.00" xmlns="http://www.w3.org/2000/svg" xmlns:xlink="http://www.w3.org/1999/xlink">
<g id="graph0" class="graph" transform="scale(1 1) rotate(0) translate(4 562)">
<title>G</title>
<polygon fill="#ffffff" stroke="transparent" points="-4,4 -4,-562 322.5,-562 322.5,4 -4,4"/>
<!-- A0 -->
<g id="node1" class="node">
<title>A0</title>
<polygon fill="#fff8dc" stroke="#000000" points="99.3577,-534 18.6423,-534 18.6423,-498 105.3577,-498 105.3577,-528 99.3577,-534"/>
<polyline fill="none" stroke="#000000" points="99.3577,-534 99.3577,-528 "/>
<polyline fill="none" stroke="#000000" points="105.3577,-528 99.3577,-528 "/>
<text text-anchor="middle" x="62" y="-513" font-family="Helvetica,sans-Serif" font-size="10.00" fill="#000000">State Pattern</text>
</g>
<!-- A1 -->
<g id="node2" class="node">
<title>A1</title>
<polygon fill="none" stroke="#000000" points="113,-210 113,-254 209,-254 209,-210 113,-210"/>
<text text-anchor="start" x="130.151" y="-235" font-family="Helvetica,sans-Serif" font-size="10.00" fill="#000000">&lt;&lt;interface&gt;&gt;</text>
<text text-anchor="start" x="149.3275" y="-223" font-family="Helvetica,sans-Serif" font-size="10.00" fill="#000000">State</text>
<polygon fill="none" stroke="#000000" points="113,-190 113,-210 209,-210 209,-190 113,-190"/>
<polygon fill="none" stroke="#000000" points="113,-146 113,-190 209,-190 209,-146 113,-146"/>
<text text-anchor="start" x="122.7925" y="-171" font-family="Helvetica,sans-Serif" font-size="10.00" fill="#000000">+handle(Context:</text>
<text text-anchor="start" x="128.7715" y="-159" font-family="Helvetica,sans-Serif" font-size="10.00" fill="#000000">context):String</text>
</g>
<!-- A2 -->
<g id="node3" class="node">
<title>A2</title>
<polygon fill="none" stroke="#000000" points="0,-64 0,-96 96,-96 96,-64 0,-64"/>
<text text-anchor="start" x="32.993" y="-77" font-family="Helvetica,sans-Serif" font-size="10.00" fill="#000000">StateA</text>
<polygon fill="none" stroke="#000000" points="0,-44 0,-64 96,-64 96,-44 0,-44"/>
<polygon fill="none" stroke="#000000" points="0,0 0,-44 96,-44 96,0 0,0"/>
<text text-anchor="start" x="9.7925" y="-25" font-family="Helvetica,sans-Serif" font-size="10.00" fill="#000000">+handle(Context:</text>
<text text-anchor="start" x="15.7715" y="-13" font-family="Helvetica,sans-Serif" font-size="10.00" fill="#000000">context):String</text>
</g>
<!-- A1&#45;&gt;A2 -->
<g id="edge1" class="edge">
<title>A1&#45;&gt;A2</title>
<path fill="none" stroke="#000000" stroke-dasharray="5,2" d="M114.8012,-137.8565C104.4281,-123.9033 93.5756,-109.3052 83.7066,-96.0302"/>
<polygon fill="none" stroke="#000000" points="112.0672,-140.0454 120.8423,-145.9825 117.6849,-135.869 112.0672,-140.0454"/>
</g>
<!-- A3 -->
<g id="node4" class="node">
<title>A3</title>
<polygon fill="none" stroke="#000000" points="115,-64 115,-96 208,-96 208,-64 115,-64"/>
<text text-anchor="start" x="146.493" y="-77" font-family="Helvetica,sans-Serif" font-size="10.00" fill="#000000">StateB</text>
<polygon fill="none" stroke="#000000" points="115,-44 115,-64 208,-64 208,-44 115,-44"/>
<polygon fill="none" stroke="#000000" points="115,0 115,-44 208,-44 208,0 115,0"/>
<text text-anchor="start" x="124.957" y="-25" font-family="Helvetica,sans-Serif" font-size="10.00" fill="#000000">+handleContext:</text>
<text text-anchor="start" x="127.607" y="-13" font-family="Helvetica,sans-Serif" font-size="10.00" fill="#000000">context():String</text>
</g>
<!-- A1&#45;&gt;A3 -->
<g id="edge2" class="edge">
<title>A1&#45;&gt;A3</title>
<path fill="none" stroke="#000000" stroke-dasharray="5,2" d="M161,-135.8964C161,-122.5419 161,-108.6849 161,-96.0302"/>
<polygon fill="none" stroke="#000000" points="157.5001,-135.9825 161,-145.9825 164.5001,-135.9825 157.5001,-135.9825"/>
</g>
<!-- A4 -->
<g id="node5" class="node">
<title>A4</title>
<polygon fill="none" stroke="#000000" points="226,-64 226,-96 319,-96 319,-64 226,-64"/>
<text text-anchor="start" x="257.218" y="-77" font-family="Helvetica,sans-Serif" font-size="10.00" fill="#000000">StateC</text>
<polygon fill="none" stroke="#000000" points="226,-44 226,-64 319,-64 319,-44 226,-44"/>
<polygon fill="none" stroke="#000000" points="226,0 226,-44 319,-44 319,0 226,0"/>
<text text-anchor="start" x="235.957" y="-25" font-family="Helvetica,sans-Serif" font-size="10.00" fill="#000000">+handleContext:</text>
<text text-anchor="start" x="238.607" y="-13" font-family="Helvetica,sans-Serif" font-size="10.00" fill="#000000">context():String</text>
</g>
<!-- A1&#45;&gt;A4 -->
<g id="edge3" class="edge">
<title>A1&#45;&gt;A4</title>
<path fill="none" stroke="#000000" stroke-dasharray="5,2" d="M206.3811,-137.8565C216.5706,-123.9033 227.2311,-109.3052 236.9253,-96.0302"/>
<polygon fill="none" stroke="#000000" points="203.518,-135.8425 200.447,-145.9825 209.1711,-139.9708 203.518,-135.8425"/>
</g>
<!-- A5 -->
<g id="node6" class="node">
<title>A5</title>
<polygon fill="none" stroke="#000000" points="108,-392 108,-424 214,-424 214,-392 108,-392"/>
<text text-anchor="start" x="143.773" y="-405" font-family="Helvetica,sans-Serif" font-size="10.00" fill="#000000">Context</text>
<polygon fill="none" stroke="#000000" points="108,-360 108,-392 214,-392 214,-360 108,-360"/>
<text text-anchor="start" x="135.4355" y="-373" font-family="Helvetica,sans-Serif" font-size="10.00" fill="#000000">&#45;State:state</text>
<polygon fill="none" stroke="#000000" points="108,-304 108,-360 214,-360 214,-304 108,-304"/>
<text text-anchor="start" x="117.9285" y="-341" font-family="Helvetica,sans-Serif" font-size="10.00" fill="#000000">&#45;changeState(State</text>
<text text-anchor="start" x="137.9395" y="-329" font-family="Helvetica,sans-Serif" font-size="10.00" fill="#000000">state):void</text>
<text text-anchor="start" x="123.633" y="-317" font-family="Helvetica,sans-Serif" font-size="10.00" fill="#000000">+request():String</text>
</g>
<!-- A5&#45;&gt;A1 -->
<g id="edge4" class="edge">
<title>A5&#45;&gt;A1</title>
<path fill="none" stroke="#000000" d="M161,-291.863C161,-282.6644 161,-273.2978 161,-264.2353"/>
<polygon fill="none" stroke="#000000" points="161.0001,-291.8637 165,-297.8637 161,-303.8637 157,-297.8637 161.0001,-291.8637"/>
<polygon fill="#000000" stroke="#000000" points="161,-254.1578 165.5001,-264.1578 161,-259.1578 161.0001,-264.1578 161.0001,-264.1578 161.0001,-264.1578 161,-259.1578 156.5001,-264.1578 161,-254.1578 161,-254.1578"/>
</g>
<!-- A6 -->
<g id="node7" class="node">
<title>A6</title>
<polygon fill="#ff0000" stroke="transparent" points="123.5,-474 123.5,-558 198.5,-558 198.5,-474 123.5,-474"/>
<polygon fill="none" stroke="#000000" points="124,-526 124,-558 199,-558 199,-526 124,-526"/>
<text text-anchor="start" x="140.3935" y="-539" font-family="Helvetica,sans-Serif" font-size="10.00" fill="#000000">CallClass</text>
<polygon fill="none" stroke="#000000" points="124,-506 124,-526 199,-526 199,-506 124,-506"/>
<polygon fill="none" stroke="#000000" points="124,-474 124,-506 199,-506 199,-474 124,-474"/>
<text text-anchor="start" x="133.8605" y="-487" font-family="Helvetica,sans-Serif" font-size="10.00" fill="#000000">+main():void</text>
</g>
<!-- A6&#45;&gt;A5 -->
<g id="edge5" class="edge">
<title>A6&#45;&gt;A5</title>
<path fill="none" stroke="#000000" d="M161,-473.6595C161,-461.4096 161,-447.6975 161,-434.2286"/>
<polygon fill="#000000" stroke="#000000" points="161,-424.0045 165.5001,-434.0045 161,-429.0045 161.0001,-434.0045 161.0001,-434.0045 161.0001,-434.0045 161,-429.0045 156.5001,-434.0046 161,-424.0045 161,-424.0045"/>
</g>
</g>
</svg>
