<?xml version="1.0" encoding="UTF-8" standalone="no"?>
<!DOCTYPE svg PUBLIC "-//W3C//DTD SVG 1.1//EN"
 "http://www.w3.org/Graphics/SVG/1.1/DTD/svg11.dtd">
<!-- Generated by graphviz version 2.40.1 (20161225.0304)
 -->
<!-- Title: G Pages: 1 -->
<svg width="231pt" height="664pt"
 viewBox="0.00 0.00 230.56 664.00" xmlns="http://www.w3.org/2000/svg" xmlns:xlink="http://www.w3.org/1999/xlink">
<g id="graph0" class="graph" transform="scale(1 1) rotate(0) translate(4 660)">
<title>G</title>
<polygon fill="#ffffff" stroke="transparent" points="-4,4 -4,-660 226.5625,-660 226.5625,4 -4,4"/>
<!-- A0 -->
<g id="node1" class="node">
<title>A0</title>
<polygon fill="#fff8dc" stroke="#000000" points="103.1876,-632 -.0626,-632 -.0626,-596 109.1876,-596 109.1876,-626 103.1876,-632"/>
<polyline fill="none" stroke="#000000" points="103.1876,-632 103.1876,-626 "/>
<polyline fill="none" stroke="#000000" points="109.1876,-626 103.1876,-626 "/>
<text text-anchor="middle" x="54.5625" y="-611" font-family="Helvetica,sans-Serif" font-size="10.00" fill="#000000">Command Pattern</text>
</g>
<!-- A1 -->
<g id="node2" class="node">
<title>A1</title>
<polygon fill="#c0c0c0" stroke="transparent" points="106.5625,-426 106.5625,-522 222.5625,-522 222.5625,-426 106.5625,-426"/>
<polygon fill="none" stroke="#000000" points="106.5625,-490 106.5625,-522 222.5625,-522 222.5625,-490 106.5625,-490"/>
<text text-anchor="start" x="148.17" y="-503" font-family="Helvetica,sans-Serif" font-size="10.00" fill="#000000">Invoker</text>
<polygon fill="none" stroke="#000000" points="106.5625,-458 106.5625,-490 222.5625,-490 222.5625,-458 106.5625,-458"/>
<text text-anchor="start" x="116.505" y="-471" font-family="Helvetica,sans-Serif" font-size="10.00" fill="#000000">&#45;Command:command</text>
<polygon fill="none" stroke="#000000" points="106.5625,-426 106.5625,-458 222.5625,-458 222.5625,-426 106.5625,-426"/>
<text text-anchor="start" x="129.4195" y="-439" font-family="Helvetica,sans-Serif" font-size="10.00" fill="#000000">+invoke():String</text>
</g>
<!-- A2 -->
<g id="node3" class="node">
<title>A2</title>
<polygon fill="none" stroke="#000000" points="119.5625,-332 119.5625,-376 209.5625,-376 209.5625,-332 119.5625,-332"/>
<text text-anchor="start" x="133.7135" y="-357" font-family="Helvetica,sans-Serif" font-size="10.00" fill="#000000">&lt;&lt;interface&gt;&gt;</text>
<text text-anchor="start" x="141.506" y="-345" font-family="Helvetica,sans-Serif" font-size="10.00" fill="#000000">Command</text>
<polygon fill="none" stroke="#000000" points="119.5625,-312 119.5625,-332 209.5625,-332 209.5625,-312 119.5625,-312"/>
<polygon fill="none" stroke="#000000" points="119.5625,-280 119.5625,-312 209.5625,-312 209.5625,-280 119.5625,-280"/>
<text text-anchor="start" x="129.1395" y="-293" font-family="Helvetica,sans-Serif" font-size="10.00" fill="#000000">+excute():String</text>
</g>
<!-- A1&#45;&gt;A2 -->
<g id="edge1" class="edge">
<title>A1&#45;&gt;A2</title>
<path fill="none" stroke="#000000" d="M164.5625,-413.5491C164.5625,-404.4931 164.5625,-395.1715 164.5625,-386.1645"/>
<polygon fill="none" stroke="#000000" points="164.5626,-413.7895 168.5625,-419.7895 164.5625,-425.7895 160.5625,-419.7895 164.5626,-413.7895"/>
<polygon fill="#000000" stroke="#000000" points="164.5625,-376.1599 169.0626,-386.1598 164.5625,-381.1599 164.5626,-386.1599 164.5626,-386.1599 164.5626,-386.1599 164.5625,-381.1599 160.0626,-386.1599 164.5625,-376.1599 164.5625,-376.1599"/>
</g>
<!-- A3 -->
<g id="node4" class="node">
<title>A3</title>
<polygon fill="none" stroke="#000000" points="114.5625,-198 114.5625,-230 215.5625,-230 215.5625,-198 114.5625,-198"/>
<text text-anchor="start" x="138.6715" y="-211" font-family="Helvetica,sans-Serif" font-size="10.00" fill="#000000">CommandA</text>
<polygon fill="none" stroke="#000000" points="114.5625,-166 114.5625,-198 215.5625,-198 215.5625,-166 114.5625,-166"/>
<text text-anchor="start" x="124.5095" y="-179" font-family="Helvetica,sans-Serif" font-size="10.00" fill="#000000">&#45;Receiver:receiver</text>
<polygon fill="none" stroke="#000000" points="114.5625,-134 114.5625,-166 215.5625,-166 215.5625,-134 114.5625,-134"/>
<text text-anchor="start" x="129.6395" y="-147" font-family="Helvetica,sans-Serif" font-size="10.00" fill="#000000">+excute():String</text>
</g>
<!-- A2&#45;&gt;A3 -->
<g id="edge2" class="edge">
<title>A2&#45;&gt;A3</title>
<path fill="none" stroke="#000000" stroke-dasharray="5,2" d="M164.5625,-269.4923C164.5625,-256.4385 164.5625,-242.7404 164.5625,-230.1599"/>
<polygon fill="none" stroke="#000000" points="161.0626,-269.7895 164.5625,-279.7895 168.0626,-269.7895 161.0626,-269.7895"/>
</g>
<!-- A4 -->
<g id="node5" class="node">
<title>A4</title>
<polygon fill="none" stroke="#000000" points="117.5625,-52 117.5625,-84 212.5625,-84 212.5625,-52 117.5625,-52"/>
<text text-anchor="start" x="145.3405" y="-65" font-family="Helvetica,sans-Serif" font-size="10.00" fill="#000000">Receiver</text>
<polygon fill="none" stroke="#000000" points="117.5625,-32 117.5625,-52 212.5625,-52 212.5625,-32 117.5625,-32"/>
<polygon fill="none" stroke="#000000" points="117.5625,0 117.5625,-32 212.5625,-32 212.5625,0 117.5625,0"/>
<text text-anchor="start" x="127.416" y="-13" font-family="Helvetica,sans-Serif" font-size="10.00" fill="#000000">+operate():String</text>
</g>
<!-- A3&#45;&gt;A4 -->
<g id="edge3" class="edge">
<title>A3&#45;&gt;A4</title>
<path fill="none" stroke="#000000" d="M164.5625,-133.8199C164.5625,-121.088 164.5625,-107.286 164.5625,-94.3452"/>
<polygon fill="#000000" stroke="#000000" points="164.5625,-84.1885 169.0626,-94.1885 164.5625,-89.1885 164.5626,-94.1885 164.5626,-94.1885 164.5626,-94.1885 164.5625,-89.1885 160.0626,-94.1886 164.5625,-84.1885 164.5625,-84.1885"/>
</g>
<!-- A5 -->
<g id="node6" class="node">
<title>A5</title>
<polygon fill="#ff0000" stroke="transparent" points="127.0625,-572 127.0625,-656 202.0625,-656 202.0625,-572 127.0625,-572"/>
<polygon fill="none" stroke="#000000" points="127.5625,-624 127.5625,-656 202.5625,-656 202.5625,-624 127.5625,-624"/>
<text text-anchor="start" x="143.956" y="-637" font-family="Helvetica,sans-Serif" font-size="10.00" fill="#000000">CallClass</text>
<polygon fill="none" stroke="#000000" points="127.5625,-604 127.5625,-624 202.5625,-624 202.5625,-604 127.5625,-604"/>
<polygon fill="none" stroke="#000000" points="127.5625,-572 127.5625,-604 202.5625,-604 202.5625,-572 127.5625,-572"/>
<text text-anchor="start" x="137.423" y="-585" font-family="Helvetica,sans-Serif" font-size="10.00" fill="#000000">+main():void</text>
</g>
<!-- A5&#45;&gt;A1 -->
<g id="edge4" class="edge">
<title>A5&#45;&gt;A1</title>
<path fill="none" stroke="#000000" d="M164.5625,-571.9954C164.5625,-559.544 164.5625,-545.6777 164.5625,-532.3861"/>
<polygon fill="#000000" stroke="#000000" points="164.5625,-522.3669 169.0626,-532.3669 164.5625,-527.3669 164.5626,-532.3669 164.5626,-532.3669 164.5626,-532.3669 164.5625,-527.3669 160.0626,-532.3669 164.5625,-522.3669 164.5625,-522.3669"/>
</g>
</g>
</svg>
