<?xml version="1.0" encoding="UTF-8" standalone="no"?>
<!DOCTYPE svg PUBLIC "-//W3C//DTD SVG 1.1//EN"
 "http://www.w3.org/Graphics/SVG/1.1/DTD/svg11.dtd">
<!-- Generated by graphviz version 2.40.1 (20161225.0304)
 -->
<!-- Title: G Pages: 1 -->
<svg width="219pt" height="274pt"
 viewBox="0.00 0.00 218.90 274.00" xmlns="http://www.w3.org/2000/svg" xmlns:xlink="http://www.w3.org/1999/xlink">
<g id="graph0" class="graph" transform="scale(1 1) rotate(0) translate(4 270)">
<title>G</title>
<polygon fill="#ffffff" stroke="transparent" points="-4,4 -4,-270 214.902,-270 214.902,4 -4,4"/>
<!-- A0 -->
<g id="node1" class="node">
<title>A0</title>
<polygon fill="#fff8dc" stroke="#000000" points="99.7062,-242 .0978,-242 .0978,-206 105.7062,-206 105.7062,-236 99.7062,-242"/>
<polyline fill="none" stroke="#000000" points="99.7062,-242 99.7062,-236 "/>
<polyline fill="none" stroke="#000000" points="105.7062,-236 99.7062,-236 "/>
<text text-anchor="middle" x="52.902" y="-221" font-family="Helvetica,sans-Serif" font-size="10.00" fill="#000000">Prototype Pattern</text>
</g>
<!-- A1 -->
<g id="node2" class="node">
<title>A1</title>
<polygon fill="#ff0000" stroke="transparent" points="123.402,-182 123.402,-266 198.402,-266 198.402,-182 123.402,-182"/>
<polygon fill="none" stroke="#000000" points="123.902,-234 123.902,-266 198.902,-266 198.902,-234 123.902,-234"/>
<text text-anchor="start" x="140.2955" y="-247" font-family="Helvetica,sans-Serif" font-size="10.00" fill="#000000">CallClass</text>
<polygon fill="none" stroke="#000000" points="123.902,-214 123.902,-234 198.902,-234 198.902,-214 123.902,-214"/>
<polygon fill="none" stroke="#000000" points="123.902,-182 123.902,-214 198.902,-214 198.902,-182 123.902,-182"/>
<text text-anchor="start" x="133.7625" y="-195" font-family="Helvetica,sans-Serif" font-size="10.00" fill="#000000">+main():void</text>
</g>
<!-- A2 -->
<g id="node3" class="node">
<title>A2</title>
<polygon fill="none" stroke="#000000" points="110.902,-100 110.902,-132 210.902,-132 210.902,-100 110.902,-100"/>
<text text-anchor="start" x="139.506" y="-113" font-family="Helvetica,sans-Serif" font-size="10.00" fill="#000000">Prototype</text>
<polygon fill="none" stroke="#000000" points="110.902,-68 110.902,-100 210.902,-100 210.902,-68 110.902,-68"/>
<text text-anchor="start" x="132.843" y="-81" font-family="Helvetica,sans-Serif" font-size="10.00" fill="#000000">&#45;value:String</text>
<polygon fill="none" stroke="#000000" points="110.902,0 110.902,-68 210.902,-68 210.902,0 110.902,0"/>
<text text-anchor="start" x="123.8095" y="-49" font-family="Helvetica,sans-Serif" font-size="10.00" fill="#000000">+setValue(String</text>
<text text-anchor="start" x="136.7315" y="-37" font-family="Helvetica,sans-Serif" font-size="10.00" fill="#000000">value):void</text>
<text text-anchor="start" x="120.476" y="-25" font-family="Helvetica,sans-Serif" font-size="10.00" fill="#000000">+getValue():String</text>
<text text-anchor="start" x="126.8685" y="-13" font-family="Helvetica,sans-Serif" font-size="10.00" fill="#000000">+clone():Object</text>
</g>
<!-- A1&#45;&gt;A2 -->
<g id="edge1" class="edge">
<title>A1&#45;&gt;A2</title>
<path fill="none" stroke="#000000" d="M160.902,-181.6589C160.902,-169.5672 160.902,-156.0032 160.902,-142.5349"/>
<polygon fill="#000000" stroke="#000000" points="160.902,-132.2802 165.4021,-142.2801 160.902,-137.2802 160.9021,-142.2802 160.9021,-142.2802 160.9021,-142.2802 160.902,-137.2802 156.4021,-142.2802 160.902,-132.2802 160.902,-132.2802"/>
</g>
</g>
</svg>
