<?xml version="1.0" encoding="UTF-8" standalone="no"?>
<!DOCTYPE svg PUBLIC "-//W3C//DTD SVG 1.1//EN"
 "http://www.w3.org/Graphics/SVG/1.1/DTD/svg11.dtd">
<!-- Generated by graphviz version 2.40.1 (20161225.0304)
 -->
<!-- Title: G Pages: 1 -->
<svg width="266pt" height="396pt"
 viewBox="0.00 0.00 266.00 396.00" xmlns="http://www.w3.org/2000/svg" xmlns:xlink="http://www.w3.org/1999/xlink">
<g id="graph0" class="graph" transform="scale(1 1) rotate(0) translate(4 392)">
<title>G</title>
<polygon fill="#ffffff" stroke="transparent" points="-4,4 -4,-392 262,-392 262,4 -4,4"/>
<!-- A0 -->
<g id="node1" class="node">
<title>A0</title>
<polygon fill="#fff8dc" stroke="#000000" points="96.57,-364 14.43,-364 14.43,-328 102.57,-328 102.57,-358 96.57,-364"/>
<polyline fill="none" stroke="#000000" points="96.57,-364 96.57,-358 "/>
<polyline fill="none" stroke="#000000" points="102.57,-358 96.57,-358 "/>
<text text-anchor="middle" x="58.5" y="-343" font-family="Helvetica,sans-Serif" font-size="10.00" fill="#000000">Proxy Pattern</text>
</g>
<!-- A1 -->
<g id="node2" class="node">
<title>A1</title>
<polygon fill="#ff0000" stroke="transparent" points="121,-304 121,-388 196,-388 196,-304 121,-304"/>
<polygon fill="none" stroke="#000000" points="121.5,-356 121.5,-388 196.5,-388 196.5,-356 121.5,-356"/>
<text text-anchor="start" x="137.8935" y="-369" font-family="Helvetica,sans-Serif" font-size="10.00" fill="#000000">CallClass</text>
<polygon fill="none" stroke="#000000" points="121.5,-336 121.5,-356 196.5,-356 196.5,-336 121.5,-336"/>
<polygon fill="none" stroke="#000000" points="121.5,-304 121.5,-336 196.5,-336 196.5,-304 121.5,-304"/>
<text text-anchor="start" x="131.3605" y="-317" font-family="Helvetica,sans-Serif" font-size="10.00" fill="#000000">+main():void</text>
</g>
<!-- A2 -->
<g id="node3" class="node">
<title>A2</title>
<polygon fill="none" stroke="#000000" points="73.5,-210 73.5,-254 168.5,-254 168.5,-210 73.5,-210"/>
<text text-anchor="start" x="90.151" y="-235" font-family="Helvetica,sans-Serif" font-size="10.00" fill="#000000">&lt;&lt;interface&gt;&gt;</text>
<text text-anchor="start" x="95.1595" y="-223" font-family="Helvetica,sans-Serif" font-size="10.00" fill="#000000">Component</text>
<polygon fill="none" stroke="#000000" points="73.5,-190 73.5,-210 168.5,-210 168.5,-190 73.5,-190"/>
<polygon fill="none" stroke="#000000" points="73.5,-158 73.5,-190 168.5,-190 168.5,-158 73.5,-158"/>
<text text-anchor="start" x="83.3535" y="-171" font-family="Helvetica,sans-Serif" font-size="10.00" fill="#000000">+operate():String</text>
</g>
<!-- A1&#45;&gt;A2 -->
<g id="edge3" class="edge">
<title>A1&#45;&gt;A2</title>
<path fill="none" stroke="#000000" d="M147.0987,-303.9954C143.7191,-291.544 139.9554,-277.6777 136.3477,-264.3861"/>
<polygon fill="#000000" stroke="#000000" points="133.6282,-254.3669 140.5906,-262.8389 134.9379,-259.1923 136.2477,-264.0177 136.2477,-264.0177 136.2477,-264.0177 134.9379,-259.1923 131.9049,-265.1965 133.6282,-254.3669 133.6282,-254.3669"/>
</g>
<!-- A4 -->
<g id="node5" class="node">
<title>A4</title>
<polygon fill="none" stroke="#000000" points="135.5,-76 135.5,-108 258.5,-108 258.5,-76 135.5,-76"/>
<text text-anchor="start" x="158.381" y="-89" font-family="Helvetica,sans-Serif" font-size="10.00" fill="#000000">ProxyComponent</text>
<polygon fill="none" stroke="#000000" points="135.5,-32 135.5,-76 258.5,-76 258.5,-32 135.5,-32"/>
<text text-anchor="start" x="145.0445" y="-57" font-family="Helvetica,sans-Serif" font-size="10.00" fill="#000000">&#45;ConcreateComponent:</text>
<text text-anchor="start" x="149.208" y="-45" font-family="Helvetica,sans-Serif" font-size="10.00" fill="#000000">concreateComponent</text>
<polygon fill="none" stroke="#000000" points="135.5,0 135.5,-32 258.5,-32 258.5,0 135.5,0"/>
<text text-anchor="start" x="159.3535" y="-13" font-family="Helvetica,sans-Serif" font-size="10.00" fill="#000000">+operate():String</text>
</g>
<!-- A1&#45;&gt;A4 -->
<g id="edge4" class="edge">
<title>A1&#45;&gt;A4</title>
<path fill="none" stroke="#000000" d="M168.2686,-303.5759C171.5777,-288.0457 175.0516,-270.2894 177.5,-254 184.2958,-208.786 189.1139,-157.4348 192.1977,-118.0873"/>
<polygon fill="#000000" stroke="#000000" points="192.9637,-108.0967 196.6859,-118.4115 192.5814,-113.0821 192.1991,-118.0674 192.1991,-118.0674 192.1991,-118.0674 192.5814,-113.0821 187.7123,-117.7233 192.9637,-108.0967 192.9637,-108.0967"/>
</g>
<!-- A3 -->
<g id="node4" class="node">
<title>A3</title>
<polygon fill="none" stroke="#000000" points=".5,-64 .5,-96 117.5,-96 117.5,-64 .5,-64"/>
<text text-anchor="start" x="10.0985" y="-77" font-family="Helvetica,sans-Serif" font-size="10.00" fill="#000000">ConcreateComponent</text>
<polygon fill="none" stroke="#000000" points=".5,-44 .5,-64 117.5,-64 117.5,-44 .5,-44"/>
<polygon fill="none" stroke="#000000" points=".5,-12 .5,-44 117.5,-44 117.5,-12 .5,-12"/>
<text text-anchor="start" x="21.3535" y="-25" font-family="Helvetica,sans-Serif" font-size="10.00" fill="#000000">+operate():String</text>
</g>
<!-- A2&#45;&gt;A3 -->
<g id="edge1" class="edge">
<title>A2&#45;&gt;A3</title>
<path fill="none" stroke="#000000" stroke-dasharray="5,2" d="M97.0135,-148.4202C89.9272,-131.0472 82.2834,-112.3078 75.6881,-96.1386"/>
<polygon fill="none" stroke="#000000" points="93.8651,-149.9688 100.8828,-157.9063 100.3467,-147.325 93.8651,-149.9688"/>
</g>
<!-- A2&#45;&gt;A4 -->
<g id="edge2" class="edge">
<title>A2&#45;&gt;A4</title>
<path fill="none" stroke="#000000" stroke-dasharray="5,2" d="M149.0868,-148.8263C155.7557,-135.4886 162.8373,-121.3254 169.4377,-108.1246"/>
<polygon fill="none" stroke="#000000" points="145.8886,-147.3967 144.5469,-157.9063 152.1496,-150.5272 145.8886,-147.3967"/>
</g>
</g>
</svg>
