<?xml version="1.0" encoding="UTF-8" standalone="no"?>
<!DOCTYPE svg PUBLIC "-//W3C//DTD SVG 1.1//EN"
 "http://www.w3.org/Graphics/SVG/1.1/DTD/svg11.dtd">
<!-- Generated by graphviz version 2.40.1 (20161225.0304)
 -->
<!-- Title: G Pages: 1 -->
<svg width="349pt" height="396pt"
 viewBox="0.00 0.00 348.50 396.00" xmlns="http://www.w3.org/2000/svg" xmlns:xlink="http://www.w3.org/1999/xlink">
<g id="graph0" class="graph" transform="scale(1 1) rotate(0) translate(4 392)">
<title>G</title>
<polygon fill="#ffffff" stroke="transparent" points="-4,4 -4,-392 344.5,-392 344.5,4 -4,4"/>
<!-- A0 -->
<g id="node1" class="node">
<title>A0</title>
<polygon fill="#fff8dc" stroke="#000000" points="107.8577,-364 17.1423,-364 17.1423,-328 113.8577,-328 113.8577,-358 107.8577,-364"/>
<polyline fill="none" stroke="#000000" points="107.8577,-364 107.8577,-358 "/>
<polyline fill="none" stroke="#000000" points="113.8577,-358 107.8577,-358 "/>
<text text-anchor="middle" x="65.5" y="-343" font-family="Helvetica,sans-Serif" font-size="10.00" fill="#000000">Facade Pattern</text>
</g>
<!-- A1 -->
<g id="node2" class="node">
<title>A1</title>
<polygon fill="#ff0000" stroke="transparent" points="132,-304 132,-388 207,-388 207,-304 132,-304"/>
<polygon fill="none" stroke="#000000" points="132.5,-356 132.5,-388 207.5,-388 207.5,-356 132.5,-356"/>
<text text-anchor="start" x="148.8935" y="-369" font-family="Helvetica,sans-Serif" font-size="10.00" fill="#000000">CallClass</text>
<polygon fill="none" stroke="#000000" points="132.5,-336 132.5,-356 207.5,-356 207.5,-336 132.5,-336"/>
<polygon fill="none" stroke="#000000" points="132.5,-304 132.5,-336 207.5,-336 207.5,-304 132.5,-304"/>
<text text-anchor="start" x="142.3605" y="-317" font-family="Helvetica,sans-Serif" font-size="10.00" fill="#000000">+main():void</text>
</g>
<!-- A2 -->
<g id="node3" class="node">
<title>A2</title>
<polygon fill="none" stroke="#000000" points="106.5,-222 106.5,-254 232.5,-254 232.5,-222 106.5,-222"/>
<text text-anchor="start" x="152.8275" y="-235" font-family="Helvetica,sans-Serif" font-size="10.00" fill="#000000">Facade</text>
<polygon fill="none" stroke="#000000" points="106.5,-166 106.5,-222 232.5,-222 232.5,-166 106.5,-166"/>
<text text-anchor="start" x="127.2755" y="-203" font-family="Helvetica,sans-Serif" font-size="10.00" fill="#000000">&#45;SystemA:systemA</text>
<text text-anchor="start" x="127.2755" y="-191" font-family="Helvetica,sans-Serif" font-size="10.00" fill="#000000">&#45;SystemB:systemB</text>
<text text-anchor="start" x="126.7255" y="-179" font-family="Helvetica,sans-Serif" font-size="10.00" fill="#000000">&#45;SystemC:systemC</text>
<polygon fill="none" stroke="#000000" points="106.5,-134 106.5,-166 232.5,-166 232.5,-134 106.5,-134"/>
<text text-anchor="start" x="116.0215" y="-147" font-family="Helvetica,sans-Serif" font-size="10.00" fill="#000000">+wrapOperation():String</text>
</g>
<!-- A1&#45;&gt;A2 -->
<g id="edge4" class="edge">
<title>A1&#45;&gt;A2</title>
<path fill="none" stroke="#000000" d="M169.5,-303.6595C169.5,-291.4096 169.5,-277.6975 169.5,-264.2286"/>
<polygon fill="#000000" stroke="#000000" points="169.5,-254.0045 174.0001,-264.0045 169.5,-259.0045 169.5001,-264.0045 169.5001,-264.0045 169.5001,-264.0045 169.5,-259.0045 165.0001,-264.0046 169.5,-254.0045 169.5,-254.0045"/>
</g>
<!-- A3 -->
<g id="node4" class="node">
<title>A3</title>
<polygon fill="none" stroke="#000000" points=".5,-52 .5,-84 101.5,-84 101.5,-52 .5,-52"/>
<text text-anchor="start" x="30.9975" y="-65" font-family="Helvetica,sans-Serif" font-size="10.00" fill="#000000">SystemA</text>
<polygon fill="none" stroke="#000000" points=".5,-32 .5,-52 101.5,-52 101.5,-32 .5,-32"/>
<polygon fill="none" stroke="#000000" points=".5,0 .5,-32 101.5,-32 101.5,0 .5,0"/>
<text text-anchor="start" x="10.019" y="-13" font-family="Helvetica,sans-Serif" font-size="10.00" fill="#000000">+operateA():String</text>
</g>
<!-- A2&#45;&gt;A3 -->
<g id="edge1" class="edge">
<title>A2&#45;&gt;A3</title>
<path fill="none" stroke="#000000" d="M122.468,-133.9256C111.7081,-120.1817 100.3785,-105.7104 89.9739,-92.4204"/>
<polygon fill="#000000" stroke="#000000" points="83.6284,-84.3152 93.3362,-89.4152 86.7106,-88.2522 89.7929,-92.1892 89.7929,-92.1892 89.7929,-92.1892 86.7106,-88.2522 86.2496,-94.9632 83.6284,-84.3152 83.6284,-84.3152"/>
</g>
<!-- A4 -->
<g id="node5" class="node">
<title>A4</title>
<polygon fill="none" stroke="#000000" points="119.5,-52 119.5,-84 220.5,-84 220.5,-52 119.5,-52"/>
<text text-anchor="start" x="149.9975" y="-65" font-family="Helvetica,sans-Serif" font-size="10.00" fill="#000000">SystemB</text>
<polygon fill="none" stroke="#000000" points="119.5,-32 119.5,-52 220.5,-52 220.5,-32 119.5,-32"/>
<polygon fill="none" stroke="#000000" points="119.5,0 119.5,-32 220.5,-32 220.5,0 119.5,0"/>
<text text-anchor="start" x="129.019" y="-13" font-family="Helvetica,sans-Serif" font-size="10.00" fill="#000000">+operateB():String</text>
</g>
<!-- A2&#45;&gt;A4 -->
<g id="edge2" class="edge">
<title>A2&#45;&gt;A4</title>
<path fill="none" stroke="#000000" d="M169.5,-133.9256C169.5,-120.9597 169.5,-107.3463 169.5,-94.6882"/>
<polygon fill="#000000" stroke="#000000" points="169.5,-84.3152 174.0001,-94.3152 169.5,-89.3152 169.5001,-94.3152 169.5001,-94.3152 169.5001,-94.3152 169.5,-89.3152 165.0001,-94.3153 169.5,-84.3152 169.5,-84.3152"/>
</g>
<!-- A5 -->
<g id="node6" class="node">
<title>A5</title>
<polygon fill="none" stroke="#000000" points="238.5,-52 238.5,-84 340.5,-84 340.5,-52 238.5,-52"/>
<text text-anchor="start" x="269.2225" y="-65" font-family="Helvetica,sans-Serif" font-size="10.00" fill="#000000">SystemC</text>
<polygon fill="none" stroke="#000000" points="238.5,-32 238.5,-52 340.5,-52 340.5,-32 238.5,-32"/>
<polygon fill="none" stroke="#000000" points="238.5,0 238.5,-32 340.5,-32 340.5,0 238.5,0"/>
<text text-anchor="start" x="248.244" y="-13" font-family="Helvetica,sans-Serif" font-size="10.00" fill="#000000">+operateC():String</text>
</g>
<!-- A2&#45;&gt;A5 -->
<g id="edge3" class="edge">
<title>A2&#45;&gt;A5</title>
<path fill="none" stroke="#000000" d="M216.9272,-133.9256C227.7776,-120.1817 239.2023,-105.7104 249.6944,-92.4204"/>
<polygon fill="#000000" stroke="#000000" points="256.0932,-84.3152 253.4287,-94.9525 252.995,-88.2397 249.8968,-92.1641 249.8968,-92.1641 249.8968,-92.1641 252.995,-88.2397 246.3648,-89.3757 256.0932,-84.3152 256.0932,-84.3152"/>
</g>
</g>
</svg>
