<?xml version="1.0" encoding="UTF-8" standalone="no"?>
<!DOCTYPE svg PUBLIC "-//W3C//DTD SVG 1.1//EN"
 "http://www.w3.org/Graphics/SVG/1.1/DTD/svg11.dtd">
<!-- Generated by graphviz version 2.40.1 (20161225.0304)
 -->
<!-- Title: G Pages: 1 -->
<svg width="230pt" height="408pt"
 viewBox="0.00 0.00 230.34 408.00" xmlns="http://www.w3.org/2000/svg" xmlns:xlink="http://www.w3.org/1999/xlink">
<g id="graph0" class="graph" transform="scale(1 1) rotate(0) translate(4 404)">
<title>G</title>
<polygon fill="#ffffff" stroke="transparent" points="-4,4 -4,-404 226.342,-404 226.342,4 -4,4"/>
<!-- A0 -->
<g id="node1" class="node">
<title>A0</title>
<polygon fill="#fff8dc" stroke="#000000" points="98.5265,-376 .1575,-376 .1575,-340 104.5265,-340 104.5265,-370 98.5265,-376"/>
<polyline fill="none" stroke="#000000" points="98.5265,-376 98.5265,-370 "/>
<polyline fill="none" stroke="#000000" points="104.5265,-370 98.5265,-370 "/>
<text text-anchor="middle" x="52.342" y="-355" font-family="Helvetica,sans-Serif" font-size="10.00" fill="#000000">Templete Pattern</text>
</g>
<!-- A1 -->
<g id="node2" class="node">
<title>A1</title>
<polygon fill="none" stroke="#000000" points="98.342,-222 98.342,-266 222.342,-266 222.342,-222 98.342,-222"/>
<text text-anchor="start" x="130.882" y="-247" font-family="Helvetica,sans-Serif" font-size="10.00" fill="#000000">&lt;&lt;abstract&gt;&gt;</text>
<text text-anchor="start" x="129.5065" y="-235" font-family="Helvetica,sans-Serif" font-size="10.00" fill="#000000">AbstractClass</text>
<polygon fill="none" stroke="#000000" points="98.342,-202 98.342,-222 222.342,-222 222.342,-202 98.342,-202"/>
<polygon fill="none" stroke="#000000" points="98.342,-146 98.342,-202 222.342,-202 222.342,-146 98.342,-146"/>
<text text-anchor="start" x="122.6955" y="-183" font-family="Helvetica,sans-Serif" font-size="10.00" fill="#000000">+operate():String</text>
<text text-anchor="start" x="108.2475" y="-171" font-family="Helvetica,sans-Serif" font-size="10.00" fill="#000000">+abstract func1():String</text>
<text text-anchor="start" x="108.2475" y="-159" font-family="Helvetica,sans-Serif" font-size="10.00" fill="#000000">+abstract func2():String</text>
</g>
<!-- A2 -->
<g id="node3" class="node">
<title>A2</title>
<polygon fill="none" stroke="#000000" points="118.342,-64 118.342,-96 203.342,-96 203.342,-64 118.342,-64"/>
<text text-anchor="start" x="145.009" y="-77" font-family="Helvetica,sans-Serif" font-size="10.00" fill="#000000">ClassA</text>
<polygon fill="none" stroke="#000000" points="118.342,-44 118.342,-64 203.342,-64 203.342,-44 118.342,-44"/>
<polygon fill="none" stroke="#000000" points="118.342,0 118.342,-44 203.342,-44 203.342,0 118.342,0"/>
<text text-anchor="start" x="127.919" y="-25" font-family="Helvetica,sans-Serif" font-size="10.00" fill="#000000">+func1():String</text>
<text text-anchor="start" x="127.919" y="-13" font-family="Helvetica,sans-Serif" font-size="10.00" fill="#000000">+func2():String</text>
</g>
<!-- A1&#45;&gt;A2 -->
<g id="edge1" class="edge">
<title>A1&#45;&gt;A2</title>
<path fill="none" stroke="#000000" stroke-dasharray="5,2" d="M160.342,-135.7089C160.342,-122.3728 160.342,-108.7015 160.342,-96.2402"/>
<polygon fill="none" stroke="#000000" points="156.8421,-135.8162 160.342,-145.8162 163.8421,-135.8163 156.8421,-135.8162"/>
</g>
<!-- A3 -->
<g id="node4" class="node">
<title>A3</title>
<polygon fill="#ff0000" stroke="transparent" points="122.842,-316 122.842,-400 197.842,-400 197.842,-316 122.842,-316"/>
<polygon fill="none" stroke="#000000" points="123.342,-368 123.342,-400 198.342,-400 198.342,-368 123.342,-368"/>
<text text-anchor="start" x="139.7355" y="-381" font-family="Helvetica,sans-Serif" font-size="10.00" fill="#000000">CallClass</text>
<polygon fill="none" stroke="#000000" points="123.342,-348 123.342,-368 198.342,-368 198.342,-348 123.342,-348"/>
<polygon fill="none" stroke="#000000" points="123.342,-316 123.342,-348 198.342,-348 198.342,-316 123.342,-316"/>
<text text-anchor="start" x="133.2025" y="-329" font-family="Helvetica,sans-Serif" font-size="10.00" fill="#000000">+main():void</text>
</g>
<!-- A3&#45;&gt;A1 -->
<g id="edge2" class="edge">
<title>A3&#45;&gt;A1</title>
<path fill="none" stroke="#000000" d="M160.342,-315.6595C160.342,-303.4096 160.342,-289.6975 160.342,-276.2286"/>
<polygon fill="#000000" stroke="#000000" points="160.342,-266.0045 164.8421,-276.0045 160.342,-271.0045 160.3421,-276.0045 160.3421,-276.0045 160.3421,-276.0045 160.342,-271.0045 155.8421,-276.0046 160.342,-266.0045 160.342,-266.0045"/>
</g>
</g>
</svg>
