<?xml version="1.0" encoding="UTF-8" standalone="no"?>
<!DOCTYPE svg PUBLIC "-//W3C//DTD SVG 1.1//EN"
 "http://www.w3.org/Graphics/SVG/1.1/DTD/svg11.dtd">
<!-- Generated by graphviz version 2.40.1 (20161225.0304)
 -->
<!-- Title: G Pages: 1 -->
<svg width="232pt" height="250pt"
 viewBox="0.00 0.00 232.35 250.00" xmlns="http://www.w3.org/2000/svg" xmlns:xlink="http://www.w3.org/1999/xlink">
<g id="graph0" class="graph" transform="scale(1 1) rotate(0) translate(4 246)">
<title>G</title>
<polygon fill="#ffffff" stroke="transparent" points="-4,4 -4,-246 228.3465,-246 228.3465,4 -4,4"/>
<!-- A0 -->
<g id="node1" class="node">
<title>A0</title>
<polygon fill="#fff8dc" stroke="#000000" points="98.5399,-218 .1531,-218 .1531,-182 104.5399,-182 104.5399,-212 98.5399,-218"/>
<polyline fill="none" stroke="#000000" points="98.5399,-218 98.5399,-212 "/>
<polyline fill="none" stroke="#000000" points="104.5399,-212 98.5399,-212 "/>
<text text-anchor="middle" x="52.3465" y="-197" font-family="Helvetica,sans-Serif" font-size="10.00" fill="#000000">Singleton Pattern</text>
</g>
<!-- A1 -->
<g id="node2" class="node">
<title>A1</title>
<polygon fill="#ff0000" stroke="transparent" points="122.8465,-158 122.8465,-242 197.8465,-242 197.8465,-158 122.8465,-158"/>
<polygon fill="none" stroke="#000000" points="123.3465,-210 123.3465,-242 198.3465,-242 198.3465,-210 123.3465,-210"/>
<text text-anchor="start" x="139.74" y="-223" font-family="Helvetica,sans-Serif" font-size="10.00" fill="#000000">CallClass</text>
<polygon fill="none" stroke="#000000" points="123.3465,-190 123.3465,-210 198.3465,-210 198.3465,-190 123.3465,-190"/>
<polygon fill="none" stroke="#000000" points="123.3465,-158 123.3465,-190 198.3465,-190 198.3465,-158 123.3465,-158"/>
<text text-anchor="start" x="133.207" y="-171" font-family="Helvetica,sans-Serif" font-size="10.00" fill="#000000">+main():void</text>
</g>
<!-- A2 -->
<g id="node3" class="node">
<title>A2</title>
<polygon fill="none" stroke="#000000" points="96.3465,-76 96.3465,-108 224.3465,-108 224.3465,-76 96.3465,-76"/>
<text text-anchor="start" x="139.506" y="-89" font-family="Helvetica,sans-Serif" font-size="10.00" fill="#000000">Singleton</text>
<polygon fill="none" stroke="#000000" points="96.3465,-44 96.3465,-76 224.3465,-76 224.3465,-44 96.3465,-44"/>
<text text-anchor="start" x="116.446" y="-57" font-family="Helvetica,sans-Serif" font-size="10.00" fill="#000000">&#45;singleton:Singleton</text>
<polygon fill="none" stroke="#000000" points="96.3465,0 96.3465,-44 224.3465,-44 224.3465,0 96.3465,0"/>
<text text-anchor="start" x="134.5125" y="-25" font-family="Helvetica,sans-Serif" font-size="10.00" fill="#000000">&#45;Singleton()</text>
<text text-anchor="start" x="106.0225" y="-13" font-family="Helvetica,sans-Serif" font-size="10.00" fill="#000000">+getInstance():Singleton</text>
</g>
<!-- A1&#45;&gt;A2 -->
<g id="edge1" class="edge">
<title>A1&#45;&gt;A2</title>
<path fill="none" stroke="#000000" d="M160.3465,-157.7708C160.3465,-145.4224 160.3465,-131.6361 160.3465,-118.2483"/>
<polygon fill="#000000" stroke="#000000" points="160.3465,-108.1186 164.8466,-118.1186 160.3465,-113.1186 160.3466,-118.1186 160.3466,-118.1186 160.3466,-118.1186 160.3465,-113.1186 155.8466,-118.1187 160.3465,-108.1186 160.3465,-108.1186"/>
</g>
</g>
</svg>
