<?xml version="1.0" encoding="UTF-8" standalone="no"?>
<!DOCTYPE svg PUBLIC "-//W3C//DTD SVG 1.1//EN"
 "http://www.w3.org/Graphics/SVG/1.1/DTD/svg11.dtd">
<!-- Generated by graphviz version 2.40.1 (20161225.0304)
 -->
<!-- Title: G Pages: 1 -->
<svg width="304pt" height="590pt"
 viewBox="0.00 0.00 303.50 590.00" xmlns="http://www.w3.org/2000/svg" xmlns:xlink="http://www.w3.org/1999/xlink">
<g id="graph0" class="graph" transform="scale(1 1) rotate(0) translate(4 586)">
<title>G</title>
<polygon fill="#ffffff" stroke="transparent" points="-4,4 -4,-586 299.5,-586 299.5,4 -4,4"/>
<!-- A0 -->
<g id="node1" class="node">
<title>A0</title>
<polygon fill="#fff8dc" stroke="#000000" points="111.2433,-558 16.7567,-558 16.7567,-522 117.2433,-522 117.2433,-552 111.2433,-558"/>
<polyline fill="none" stroke="#000000" points="111.2433,-558 111.2433,-552 "/>
<polyline fill="none" stroke="#000000" points="117.2433,-552 111.2433,-552 "/>
<text text-anchor="middle" x="67" y="-537" font-family="Helvetica,sans-Serif" font-size="10.00" fill="#000000">Interator Pattern</text>
</g>
<!-- A1 -->
<g id="node2" class="node">
<title>A1</title>
<polygon fill="none" stroke="#000000" points="0,-88 0,-120 84,-120 84,-88 0,-88"/>
<text text-anchor="start" x="21.1585" y="-101" font-family="Helvetica,sans-Serif" font-size="10.00" fill="#000000">Node&lt;T&gt;</text>
<polygon fill="none" stroke="#000000" points="0,-44 0,-88 84,-88 84,-44 0,-44"/>
<text text-anchor="start" x="26.1635" y="-69" font-family="Helvetica,sans-Serif" font-size="10.00" fill="#000000">&#45;T:data</text>
<text text-anchor="start" x="17.5495" y="-57" font-family="Helvetica,sans-Serif" font-size="10.00" fill="#000000">&#45;Node:next</text>
<polygon fill="none" stroke="#000000" points="0,-12 0,-44 84,-44 84,-12 0,-12"/>
<text text-anchor="start" x="9.6315" y="-25" font-family="Helvetica,sans-Serif" font-size="10.00" fill="#000000">+Node(T data)</text>
</g>
<!-- A2 -->
<g id="node3" class="node">
<title>A2</title>
<polygon fill="none" stroke="#000000" points="122,-404 122,-448 225,-448 225,-404 122,-404"/>
<text text-anchor="start" x="142.651" y="-429" font-family="Helvetica,sans-Serif" font-size="10.00" fill="#000000">&lt;&lt;interface&gt;&gt;</text>
<text text-anchor="start" x="142.381" y="-417" font-family="Helvetica,sans-Serif" font-size="10.00" fill="#000000">Collection&lt;E&gt;</text>
<polygon fill="none" stroke="#000000" points="122,-384 122,-404 225,-404 225,-384 122,-384"/>
<polygon fill="none" stroke="#000000" points="122,-352 122,-384 225,-384 225,-352 122,-352"/>
<text text-anchor="start" x="131.6905" y="-365" font-family="Helvetica,sans-Serif" font-size="10.00" fill="#000000">+iterator():Interator</text>
</g>
<!-- A3 -->
<g id="node4" class="node">
<title>A3</title>
<polygon fill="none" stroke="#000000" points="38,-270 38,-302 170,-302 170,-270 38,-270"/>
<text text-anchor="start" x="48.7105" y="-283" font-family="Helvetica,sans-Serif" font-size="10.00" fill="#000000">ConCreateCollection&lt;E&gt;</text>
<polygon fill="none" stroke="#000000" points="38,-238 38,-270 170,-270 170,-238 38,-238"/>
<text text-anchor="start" x="51.485" y="-251" font-family="Helvetica,sans-Serif" font-size="10.00" fill="#000000">&#45;Node&lt;E&gt;:elementData</text>
<polygon fill="none" stroke="#000000" points="38,-182 38,-238 170,-238 170,-182 38,-182"/>
<text text-anchor="start" x="59.411" y="-219" font-family="Helvetica,sans-Serif" font-size="10.00" fill="#000000">+interator():Interator</text>
<text text-anchor="start" x="56.07" y="-207" font-family="Helvetica,sans-Serif" font-size="10.00" fill="#000000">+add(E item):boolean</text>
<text text-anchor="start" x="47.741" y="-195" font-family="Helvetica,sans-Serif" font-size="10.00" fill="#000000">+remove(E item):boolean</text>
</g>
<!-- A2&#45;&gt;A3 -->
<g id="edge3" class="edge">
<title>A2&#45;&gt;A3</title>
<path fill="none" stroke="#000000" stroke-dasharray="5,2" d="M147.8437,-342.3958C142.1387,-329.3321 136.0651,-315.4244 130.3136,-302.2542"/>
<polygon fill="none" stroke="#000000" points="144.7132,-343.9728 151.9228,-351.7363 151.1281,-341.1713 144.7132,-343.9728"/>
</g>
<!-- A4 -->
<g id="node5" class="node">
<title>A4</title>
<polygon fill="none" stroke="#000000" points="189,-258 189,-302 296,-302 296,-258 189,-258"/>
<text text-anchor="start" x="211.651" y="-283" font-family="Helvetica,sans-Serif" font-size="10.00" fill="#000000">&lt;&lt;interface&gt;&gt;</text>
<text text-anchor="start" x="214.711" y="-271" font-family="Helvetica,sans-Serif" font-size="10.00" fill="#000000">Interator&lt;E&gt;</text>
<polygon fill="none" stroke="#000000" points="189,-238 189,-258 296,-258 296,-238 189,-238"/>
<polygon fill="none" stroke="#000000" points="189,-182 189,-238 296,-238 296,-182 189,-182"/>
<text text-anchor="start" x="219.3" y="-219" font-family="Helvetica,sans-Serif" font-size="10.00" fill="#000000">+begin():E</text>
<text text-anchor="start" x="198.738" y="-207" font-family="Helvetica,sans-Serif" font-size="10.00" fill="#000000">+hasNext():boolean</text>
<text text-anchor="start" x="222.079" y="-195" font-family="Helvetica,sans-Serif" font-size="10.00" fill="#000000">+next():E</text>
</g>
<!-- A2&#45;&gt;A4 -->
<g id="edge2" class="edge">
<title>A2&#45;&gt;A4</title>
<path fill="none" stroke="#000000" stroke-dasharray="5,2" d="M194.0772,-351.7363C199.6158,-339.0537 205.7012,-325.119 211.6222,-311.5607"/>
<polygon fill="#000000" stroke="#000000" points="215.6864,-302.2542 215.8082,-313.2194 213.6854,-306.8364 211.6843,-311.4185 211.6843,-311.4185 211.6843,-311.4185 213.6854,-306.8364 207.5604,-309.6175 215.6864,-302.2542 215.6864,-302.2542"/>
</g>
<!-- A3&#45;&gt;A1 -->
<g id="edge1" class="edge">
<title>A3&#45;&gt;A1</title>
<path fill="none" stroke="#000000" stroke-dasharray="5,2" d="M82.8365,-181.923C76.9423,-165.191 70.5187,-146.9564 64.5481,-130.0075"/>
<polygon fill="#000000" stroke="#000000" points="61.0924,-120.1978 68.6594,-128.1345 62.7537,-124.9138 64.4151,-129.6297 64.4151,-129.6297 64.4151,-129.6297 62.7537,-124.9138 60.1707,-131.1249 61.0924,-120.1978 61.0924,-120.1978"/>
</g>
<!-- A5 -->
<g id="node6" class="node">
<title>A5</title>
<polygon fill="none" stroke="#000000" points="102,-100 102,-132 232,-132 232,-100 102,-100"/>
<text text-anchor="start" x="115.0405" y="-113" font-family="Helvetica,sans-Serif" font-size="10.00" fill="#000000">ConCreateInterator&lt;E&gt;</text>
<polygon fill="none" stroke="#000000" points="102,-68 102,-100 232,-100 232,-68 102,-68"/>
<text text-anchor="start" x="111.991" y="-81" font-family="Helvetica,sans-Serif" font-size="10.00" fill="#000000">&#45;Collection&lt;E&gt;:collection</text>
<polygon fill="none" stroke="#000000" points="102,0 102,-68 232,-68 232,0 102,0"/>
<text text-anchor="start" x="117.9655" y="-49" font-family="Helvetica,sans-Serif" font-size="10.00" fill="#000000">+ConCreateInterator()</text>
<text text-anchor="start" x="143.8" y="-37" font-family="Helvetica,sans-Serif" font-size="10.00" fill="#000000">+begin():E</text>
<text text-anchor="start" x="123.238" y="-25" font-family="Helvetica,sans-Serif" font-size="10.00" fill="#000000">+hasNext():boolean</text>
<text text-anchor="start" x="146.579" y="-13" font-family="Helvetica,sans-Serif" font-size="10.00" fill="#000000">+next():E</text>
</g>
<!-- A3&#45;&gt;A5 -->
<g id="edge5" class="edge">
<title>A3&#45;&gt;A5</title>
<path fill="none" stroke="#000000" stroke-dasharray="5,2" d="M119.0664,-181.923C123.3873,-169.0218 128.2405,-155.2272 133.1686,-141.8175"/>
<polygon fill="#000000" stroke="#000000" points="136.7637,-132.1394 137.4998,-143.0806 135.0226,-136.8265 133.2815,-141.5135 133.2815,-141.5135 133.2815,-141.5135 135.0226,-136.8265 129.0631,-139.9465 136.7637,-132.1394 136.7637,-132.1394"/>
</g>
<!-- A4&#45;&gt;A5 -->
<g id="edge4" class="edge">
<title>A4&#45;&gt;A5</title>
<path fill="none" stroke="#000000" stroke-dasharray="5,2" d="M212.3364,-172.3893C206.6859,-159.1297 200.7871,-145.287 195.1844,-132.1394"/>
<polygon fill="none" stroke="#000000" points="209.2589,-174.0956 216.399,-181.923 215.6985,-171.3514 209.2589,-174.0956"/>
</g>
<!-- A5&#45;&gt;A3 -->
<g id="edge6" class="edge">
<title>A5&#45;&gt;A3</title>
<path fill="none" stroke="#000000" d="M149.8865,-132.1394C145.4115,-145.287 140.475,-159.1297 135.5347,-172.3893"/>
<polygon fill="#000000" stroke="#000000" points="131.9433,-181.923 131.2575,-170.9786 133.7059,-177.244 135.4686,-172.565 135.4686,-172.565 135.4686,-172.565 133.7059,-177.244 139.6797,-174.1514 131.9433,-181.923 131.9433,-181.923"/>
</g>
<!-- A6 -->
<g id="node7" class="node">
<title>A6</title>
<polygon fill="#ff0000" stroke="transparent" points="135.5,-498 135.5,-582 210.5,-582 210.5,-498 135.5,-498"/>
<polygon fill="none" stroke="#000000" points="136,-550 136,-582 211,-582 211,-550 136,-550"/>
<text text-anchor="start" x="152.3935" y="-563" font-family="Helvetica,sans-Serif" font-size="10.00" fill="#000000">CallClass</text>
<polygon fill="none" stroke="#000000" points="136,-530 136,-550 211,-550 211,-530 136,-530"/>
<polygon fill="none" stroke="#000000" points="136,-498 136,-530 211,-530 211,-498 136,-498"/>
<text text-anchor="start" x="145.8605" y="-511" font-family="Helvetica,sans-Serif" font-size="10.00" fill="#000000">+main():void</text>
</g>
<!-- A6&#45;&gt;A2 -->
<g id="edge7" class="edge">
<title>A6&#45;&gt;A2</title>
<path fill="none" stroke="#000000" d="M173,-497.9954C173,-485.544 173,-471.6777 173,-458.3861"/>
<polygon fill="#000000" stroke="#000000" points="173,-448.3669 177.5001,-458.3669 173,-453.3669 173.0001,-458.3669 173.0001,-458.3669 173.0001,-458.3669 173,-453.3669 168.5001,-458.3669 173,-448.3669 173,-448.3669"/>
</g>
</g>
</svg>
