<?xml version="1.0" encoding="UTF-8" standalone="no"?>
<!DOCTYPE svg PUBLIC "-//W3C//DTD SVG 1.1//EN"
 "http://www.w3.org/Graphics/SVG/1.1/DTD/svg11.dtd">
<!-- Generated by graphviz version 2.40.1 (20161225.0304)
 -->
<!-- Title: G Pages: 1 -->
<svg width="293pt" height="602pt"
 viewBox="0.00 0.00 292.50 602.00" xmlns="http://www.w3.org/2000/svg" xmlns:xlink="http://www.w3.org/1999/xlink">
<g id="graph0" class="graph" transform="scale(1 1) rotate(0) translate(4 598)">
<title>G</title>
<polygon fill="#ffffff" stroke="transparent" points="-4,4 -4,-598 288.5,-598 288.5,4 -4,4"/>
<!-- A0 -->
<g id="node1" class="node">
<title>A0</title>
<polygon fill="#fff8dc" stroke="#000000" points="105.2433,-570 10.7567,-570 10.7567,-534 111.2433,-534 111.2433,-564 105.2433,-570"/>
<polyline fill="none" stroke="#000000" points="105.2433,-570 105.2433,-564 "/>
<polyline fill="none" stroke="#000000" points="111.2433,-564 105.2433,-564 "/>
<text text-anchor="middle" x="61" y="-549" font-family="Helvetica,sans-Serif" font-size="10.00" fill="#000000">Interator Pattern</text>
</g>
<!-- A1 -->
<g id="node2" class="node">
<title>A1</title>
<polygon fill="none" stroke="#000000" points="109,-416 109,-460 225,-460 225,-416 109,-416"/>
<text text-anchor="start" x="137.54" y="-441" font-family="Helvetica,sans-Serif" font-size="10.00" fill="#000000">&lt;&lt;abstract&gt;&gt;</text>
<text text-anchor="start" x="145.0545" y="-429" font-family="Helvetica,sans-Serif" font-size="10.00" fill="#000000">Collection</text>
<polygon fill="none" stroke="#000000" points="109,-384 109,-416 225,-416 225,-384 109,-384"/>
<text text-anchor="start" x="118.655" y="-397" font-family="Helvetica,sans-Serif" font-size="10.00" fill="#000000">Object[\]:elementData</text>
<polygon fill="none" stroke="#000000" points="109,-352 109,-384 225,-384 225,-352 109,-352"/>
<text text-anchor="start" x="125.1905" y="-365" font-family="Helvetica,sans-Serif" font-size="10.00" fill="#000000">+iterator():Interator</text>
</g>
<!-- A2 -->
<g id="node3" class="node">
<title>A2</title>
<polygon fill="none" stroke="#000000" points="47,-252 47,-284 159,-284 159,-252 47,-252"/>
<text text-anchor="start" x="56.884" y="-265" font-family="Helvetica,sans-Serif" font-size="10.00" fill="#000000">ConCreateCollection</text>
<polygon fill="none" stroke="#000000" points="47,-232 47,-252 159,-252 159,-232 47,-232"/>
<polygon fill="none" stroke="#000000" points="47,-200 47,-232 159,-232 159,-200 47,-200"/>
<text text-anchor="start" x="58.411" y="-213" font-family="Helvetica,sans-Serif" font-size="10.00" fill="#000000">+interator():Interator</text>
</g>
<!-- A1&#45;&gt;A2 -->
<g id="edge2" class="edge">
<title>A1&#45;&gt;A2</title>
<path fill="none" stroke="#000000" stroke-dasharray="5,2" d="M142.1793,-342.3971C134.5579,-322.8671 126.3636,-301.8692 119.4491,-284.1508"/>
<polygon fill="none" stroke="#000000" points="138.9706,-343.8024 145.8666,-351.8458 145.4917,-341.2575 138.9706,-343.8024"/>
</g>
<!-- A3 -->
<g id="node4" class="node">
<title>A3</title>
<polygon fill="none" stroke="#000000" points="178,-258 178,-302 285,-302 285,-258 178,-258"/>
<text text-anchor="start" x="200.651" y="-283" font-family="Helvetica,sans-Serif" font-size="10.00" fill="#000000">&lt;&lt;interface&gt;&gt;</text>
<text text-anchor="start" x="212.8845" y="-271" font-family="Helvetica,sans-Serif" font-size="10.00" fill="#000000">Interator</text>
<polygon fill="none" stroke="#000000" points="178,-238 178,-258 285,-258 285,-238 178,-238"/>
<polygon fill="none" stroke="#000000" points="178,-182 178,-238 285,-238 285,-182 178,-182"/>
<text text-anchor="start" x="197.187" y="-219" font-family="Helvetica,sans-Serif" font-size="10.00" fill="#000000">+begin():Object</text>
<text text-anchor="start" x="187.738" y="-207" font-family="Helvetica,sans-Serif" font-size="10.00" fill="#000000">+hasNext():boolean</text>
<text text-anchor="start" x="199.966" y="-195" font-family="Helvetica,sans-Serif" font-size="10.00" fill="#000000">+next():Object</text>
</g>
<!-- A1&#45;&gt;A3 -->
<g id="edge1" class="edge">
<title>A1&#45;&gt;A3</title>
<path fill="none" stroke="#000000" stroke-dasharray="5,2" d="M188.1334,-351.8458C193.1434,-339.0075 198.5567,-325.136 203.7946,-311.7138"/>
<polygon fill="#000000" stroke="#000000" points="207.5694,-302.041 208.126,-312.9927 205.7516,-306.6989 203.9339,-311.3568 203.9339,-311.3568 203.9339,-311.3568 205.7516,-306.6989 199.7418,-309.7208 207.5694,-302.041 207.5694,-302.041"/>
</g>
<!-- A4 -->
<g id="node5" class="node">
<title>A4</title>
<polygon fill="none" stroke="#000000" points="0,-100 0,-132 206,-132 206,-100 0,-100"/>
<text text-anchor="start" x="60.214" y="-113" font-family="Helvetica,sans-Serif" font-size="10.00" fill="#000000">ConCreateInterator</text>
<polygon fill="none" stroke="#000000" points="0,-68 0,-100 206,-100 206,-68 0,-68"/>
<text text-anchor="start" x="57.1645" y="-81" font-family="Helvetica,sans-Serif" font-size="10.00" fill="#000000">&#45;Collection:collection</text>
<polygon fill="none" stroke="#000000" points="0,0 0,-68 206,-68 206,0 0,0"/>
<text text-anchor="start" x="9.7945" y="-49" font-family="Helvetica,sans-Serif" font-size="10.00" fill="#000000">+ConCreateInterator(Collection:collection)</text>
<text text-anchor="start" x="68.687" y="-37" font-family="Helvetica,sans-Serif" font-size="10.00" fill="#000000">+begin():Object</text>
<text text-anchor="start" x="59.238" y="-25" font-family="Helvetica,sans-Serif" font-size="10.00" fill="#000000">+hasNext():boolean</text>
<text text-anchor="start" x="71.466" y="-13" font-family="Helvetica,sans-Serif" font-size="10.00" fill="#000000">+next():Object</text>
</g>
<!-- A2&#45;&gt;A4 -->
<g id="edge4" class="edge">
<title>A2&#45;&gt;A4</title>
<path fill="none" stroke="#000000" stroke-dasharray="5,2" d="M97.1408,-199.8436C96.4032,-182.6102 96.1236,-162.1225 96.3022,-142.4224"/>
<polygon fill="#000000" stroke="#000000" points="96.4373,-132.2138 100.8045,-142.2725 96.3711,-137.2134 96.3049,-142.2129 96.3049,-142.2129 96.3049,-142.2129 96.3711,-137.2134 91.8053,-142.1533 96.4373,-132.2138 96.4373,-132.2138"/>
</g>
<!-- A3&#45;&gt;A4 -->
<g id="edge3" class="edge">
<title>A3&#45;&gt;A4</title>
<path fill="none" stroke="#000000" stroke-dasharray="5,2" d="M181.2156,-173.5464C171.3176,-159.9367 160.9418,-145.67 151.1014,-132.1394"/>
<polygon fill="none" stroke="#000000" points="178.5953,-175.8943 187.3077,-181.923 184.2565,-171.777 178.5953,-175.8943"/>
</g>
<!-- A4&#45;&gt;A2 -->
<g id="edge5" class="edge">
<title>A4&#45;&gt;A2</title>
<path fill="none" stroke="#000000" d="M109.5627,-132.2138C109.8963,-151.2508 109.7843,-171.7392 109.2268,-189.8017"/>
<polygon fill="#000000" stroke="#000000" points="108.8592,-199.8436 104.7281,-189.6857 109.0421,-194.847 109.2251,-189.8503 109.2251,-189.8503 109.2251,-189.8503 109.0421,-194.847 113.7221,-190.015 108.8592,-199.8436 108.8592,-199.8436"/>
</g>
<!-- A5 -->
<g id="node6" class="node">
<title>A5</title>
<polygon fill="#ff0000" stroke="transparent" points="129.5,-510 129.5,-594 204.5,-594 204.5,-510 129.5,-510"/>
<polygon fill="none" stroke="#000000" points="130,-562 130,-594 205,-594 205,-562 130,-562"/>
<text text-anchor="start" x="146.3935" y="-575" font-family="Helvetica,sans-Serif" font-size="10.00" fill="#000000">CallClass</text>
<polygon fill="none" stroke="#000000" points="130,-542 130,-562 205,-562 205,-542 130,-542"/>
<polygon fill="none" stroke="#000000" points="130,-510 130,-542 205,-542 205,-510 130,-510"/>
<text text-anchor="start" x="139.8605" y="-523" font-family="Helvetica,sans-Serif" font-size="10.00" fill="#000000">+main():void</text>
</g>
<!-- A5&#45;&gt;A1 -->
<g id="edge6" class="edge">
<title>A5&#45;&gt;A1</title>
<path fill="none" stroke="#000000" d="M167,-509.7708C167,-497.4224 167,-483.6361 167,-470.2483"/>
<polygon fill="#000000" stroke="#000000" points="167,-460.1186 171.5001,-470.1186 167,-465.1186 167.0001,-470.1186 167.0001,-470.1186 167.0001,-470.1186 167,-465.1186 162.5001,-470.1187 167,-460.1186 167,-460.1186"/>
</g>
</g>
</svg>
