<?xml version="1.0" encoding="UTF-8" standalone="no"?>
<!DOCTYPE svg PUBLIC "-//W3C//DTD SVG 1.1//EN"
 "http://www.w3.org/Graphics/SVG/1.1/DTD/svg11.dtd">
<!-- Generated by graphviz version 2.40.1 (20161225.0304)
 -->
<!-- Title: G Pages: 1 -->
<svg width="410pt" height="420pt"
 viewBox="0.00 0.00 410.00 420.00" xmlns="http://www.w3.org/2000/svg" xmlns:xlink="http://www.w3.org/1999/xlink">
<g id="graph0" class="graph" transform="scale(1 1) rotate(0) translate(4 416)">
<title>G</title>
<polygon fill="#ffffff" stroke="transparent" points="-4,4 -4,-416 406,-416 406,4 -4,4"/>
<!-- A0 -->
<g id="node1" class="node">
<title>A0</title>
<polygon fill="#fff8dc" stroke="#000000" points="139.8911,-388 64.1089,-388 64.1089,-352 145.8911,-352 145.8911,-382 139.8911,-388"/>
<polyline fill="none" stroke="#000000" points="139.8911,-388 139.8911,-382 "/>
<polyline fill="none" stroke="#000000" points="145.8911,-382 139.8911,-382 "/>
<text text-anchor="middle" x="105" y="-373" font-family="Helvetica,sans-Serif" font-size="10.00" fill="#000000">Responsility</text>
<text text-anchor="middle" x="105" y="-361" font-family="Helvetica,sans-Serif" font-size="10.00" fill="#000000">Pattern</text>
</g>
<!-- A1 -->
<g id="node2" class="node">
<title>A1</title>
<polygon fill="none" stroke="#000000" points="140,-234 140,-278 262,-278 262,-234 140,-234"/>
<text text-anchor="start" x="171.54" y="-259" font-family="Helvetica,sans-Serif" font-size="10.00" fill="#000000">&lt;&lt;abstract&gt;&gt;</text>
<text text-anchor="start" x="183.4985" y="-247" font-family="Helvetica,sans-Serif" font-size="10.00" fill="#000000">Handler</text>
<polygon fill="none" stroke="#000000" points="140,-202 140,-234 262,-234 262,-202 140,-202"/>
<text text-anchor="start" x="163.773" y="-215" font-family="Helvetica,sans-Serif" font-size="10.00" fill="#000000">&#45;Handler:handler</text>
<polygon fill="none" stroke="#000000" points="140,-134 140,-202 262,-202 262,-134 140,-134"/>
<text text-anchor="start" x="154.744" y="-183" font-family="Helvetica,sans-Serif" font-size="10.00" fill="#000000">+setHandler(Handler</text>
<text text-anchor="start" x="172.106" y="-171" font-family="Helvetica,sans-Serif" font-size="10.00" fill="#000000">handler):void</text>
<text text-anchor="start" x="151.4105" y="-159" font-family="Helvetica,sans-Serif" font-size="10.00" fill="#000000">+getHandler():Handler</text>
<text text-anchor="start" x="149.6005" y="-147" font-family="Helvetica,sans-Serif" font-size="10.00" fill="#000000">handleRequest():String</text>
</g>
<!-- A2 -->
<g id="node3" class="node">
<title>A2</title>
<polygon fill="none" stroke="#000000" points="0,-52 0,-84 122,-84 122,-52 0,-52"/>
<text text-anchor="start" x="40.164" y="-65" font-family="Helvetica,sans-Serif" font-size="10.00" fill="#000000">HandlerA</text>
<polygon fill="none" stroke="#000000" points="0,-32 0,-52 122,-52 122,-32 0,-32"/>
<polygon fill="none" stroke="#000000" points="0,0 0,-32 122,-32 122,0 0,0"/>
<text text-anchor="start" x="9.6005" y="-13" font-family="Helvetica,sans-Serif" font-size="10.00" fill="#000000">handleRequest():String</text>
</g>
<!-- A1&#45;&gt;A2 -->
<g id="edge1" class="edge">
<title>A1&#45;&gt;A2</title>
<path fill="none" stroke="#000000" stroke-dasharray="5,2" d="M133.0912,-126.4497C120.6246,-111.846 108.0695,-97.1386 97.0094,-84.1825"/>
<polygon fill="none" stroke="#000000" points="130.4393,-128.734 139.594,-134.0672 135.7633,-124.1891 130.4393,-128.734"/>
</g>
<!-- A3 -->
<g id="node4" class="node">
<title>A3</title>
<polygon fill="none" stroke="#000000" points="140,-52 140,-84 262,-84 262,-52 140,-52"/>
<text text-anchor="start" x="180.164" y="-65" font-family="Helvetica,sans-Serif" font-size="10.00" fill="#000000">HandlerB</text>
<polygon fill="none" stroke="#000000" points="140,-32 140,-52 262,-52 262,-32 140,-32"/>
<polygon fill="none" stroke="#000000" points="140,0 140,-32 262,-32 262,0 140,0"/>
<text text-anchor="start" x="149.6005" y="-13" font-family="Helvetica,sans-Serif" font-size="10.00" fill="#000000">handleRequest():String</text>
</g>
<!-- A1&#45;&gt;A3 -->
<g id="edge2" class="edge">
<title>A1&#45;&gt;A3</title>
<path fill="none" stroke="#000000" stroke-dasharray="5,2" d="M201,-123.2978C201,-109.814 201,-96.3554 201,-84.3807"/>
<polygon fill="none" stroke="#000000" points="197.5001,-123.5898 201,-133.5898 204.5001,-123.5899 197.5001,-123.5898"/>
</g>
<!-- A4 -->
<g id="node5" class="node">
<title>A4</title>
<polygon fill="none" stroke="#000000" points="280,-52 280,-84 402,-84 402,-52 280,-52"/>
<text text-anchor="start" x="319.889" y="-65" font-family="Helvetica,sans-Serif" font-size="10.00" fill="#000000">HandlerC</text>
<polygon fill="none" stroke="#000000" points="280,-32 280,-52 402,-52 402,-32 280,-32"/>
<polygon fill="none" stroke="#000000" points="280,0 280,-32 402,-32 402,0 280,0"/>
<text text-anchor="start" x="289.6005" y="-13" font-family="Helvetica,sans-Serif" font-size="10.00" fill="#000000">handleRequest():String</text>
</g>
<!-- A1&#45;&gt;A4 -->
<g id="edge3" class="edge">
<title>A1&#45;&gt;A4</title>
<path fill="none" stroke="#000000" stroke-dasharray="5,2" d="M268.9088,-126.4497C281.3754,-111.846 293.9305,-97.1386 304.9906,-84.1825"/>
<polygon fill="none" stroke="#000000" points="266.2367,-124.1891 262.406,-134.0672 271.5607,-128.734 266.2367,-124.1891"/>
</g>
<!-- A5 -->
<g id="node6" class="node">
<title>A5</title>
<polygon fill="#ff0000" stroke="transparent" points="163.5,-328 163.5,-412 238.5,-412 238.5,-328 163.5,-328"/>
<polygon fill="none" stroke="#000000" points="164,-380 164,-412 239,-412 239,-380 164,-380"/>
<text text-anchor="start" x="180.3935" y="-393" font-family="Helvetica,sans-Serif" font-size="10.00" fill="#000000">CallClass</text>
<polygon fill="none" stroke="#000000" points="164,-360 164,-380 239,-380 239,-360 164,-360"/>
<polygon fill="none" stroke="#000000" points="164,-328 164,-360 239,-360 239,-328 164,-328"/>
<text text-anchor="start" x="173.8605" y="-341" font-family="Helvetica,sans-Serif" font-size="10.00" fill="#000000">+main():void</text>
</g>
<!-- A5&#45;&gt;A1 -->
<g id="edge4" class="edge">
<title>A5&#45;&gt;A1</title>
<path fill="none" stroke="#000000" d="M201,-327.7659C201,-315.741 201,-302.2107 201,-288.6564"/>
<polygon fill="#000000" stroke="#000000" points="201,-278.3113 205.5001,-288.3113 201,-283.3113 201.0001,-288.3113 201.0001,-288.3113 201.0001,-288.3113 201,-283.3113 196.5001,-288.3114 201,-278.3113 201,-278.3113"/>
</g>
</g>
</svg>
