<?xml version="1.0" encoding="UTF-8" standalone="no"?>
<!DOCTYPE svg PUBLIC "-//W3C//DTD SVG 1.1//EN"
 "http://www.w3.org/Graphics/SVG/1.1/DTD/svg11.dtd">
<!-- Generated by graphviz version 2.40.1 (20161225.0304)
 -->
<!-- Title: G Pages: 1 -->
<svg width="450pt" height="530pt"
 viewBox="0.00 0.00 449.50 530.00" xmlns="http://www.w3.org/2000/svg" xmlns:xlink="http://www.w3.org/1999/xlink">
<g id="graph0" class="graph" transform="scale(1 1) rotate(0) translate(4 526)">
<title>G</title>
<polygon fill="#ffffff" stroke="transparent" points="-4,4 -4,-526 445.5,-526 445.5,4 -4,4"/>
<!-- A0 -->
<g id="node1" class="node">
<title>A0</title>
<polygon fill="#fff8dc" stroke="#000000" points="118.406,-498 32.594,-498 32.594,-462 124.406,-462 124.406,-492 118.406,-498"/>
<polyline fill="none" stroke="#000000" points="118.406,-498 118.406,-492 "/>
<polyline fill="none" stroke="#000000" points="124.406,-492 118.406,-492 "/>
<text text-anchor="middle" x="78.5" y="-477" font-family="Helvetica,sans-Serif" font-size="10.00" fill="#000000">Bridge Pattern</text>
</g>
<!-- A1 -->
<g id="node2" class="node">
<title>A1</title>
<polygon fill="#ff0000" stroke="transparent" points="142,-438 142,-522 217,-522 217,-438 142,-438"/>
<polygon fill="none" stroke="#000000" points="142.5,-490 142.5,-522 217.5,-522 217.5,-490 142.5,-490"/>
<text text-anchor="start" x="158.8935" y="-503" font-family="Helvetica,sans-Serif" font-size="10.00" fill="#000000">CallClass</text>
<polygon fill="none" stroke="#000000" points="142.5,-470 142.5,-490 217.5,-490 217.5,-470 142.5,-470"/>
<polygon fill="none" stroke="#000000" points="142.5,-438 142.5,-470 217.5,-470 217.5,-438 142.5,-438"/>
<text text-anchor="start" x="152.3605" y="-451" font-family="Helvetica,sans-Serif" font-size="10.00" fill="#000000">+main():void</text>
</g>
<!-- A2 -->
<g id="node3" class="node">
<title>A2</title>
<polygon fill="none" stroke="#000000" points="109.5,-344 109.5,-388 250.5,-388 250.5,-344 109.5,-344"/>
<text text-anchor="start" x="150.54" y="-369" font-family="Helvetica,sans-Serif" font-size="10.00" fill="#000000">&lt;&lt;absrtuct&gt;&gt;</text>
<text text-anchor="start" x="153.6095" y="-357" font-family="Helvetica,sans-Serif" font-size="10.00" fill="#000000">AbstractCar</text>
<polygon fill="none" stroke="#000000" points="109.5,-312 109.5,-344 250.5,-344 250.5,-312 109.5,-312"/>
<text text-anchor="start" x="119.17" y="-325" font-family="Helvetica,sans-Serif" font-size="10.00" fill="#000000">&#45;Transmission:transmission</text>
<polygon fill="none" stroke="#000000" points="109.5,-280 109.5,-312 250.5,-312 250.5,-280 109.5,-280"/>
<text text-anchor="start" x="152.0815" y="-293" font-family="Helvetica,sans-Serif" font-size="10.00" fill="#000000">+run():String</text>
</g>
<!-- A1&#45;&gt;A2 -->
<g id="edge7" class="edge">
<title>A1&#45;&gt;A2</title>
<path fill="none" stroke="#000000" d="M179.5,-437.7708C179.5,-425.4224 179.5,-411.6361 179.5,-398.2483"/>
<polygon fill="#000000" stroke="#000000" points="179.5,-388.1186 184.0001,-398.1186 179.5,-393.1186 179.5001,-398.1186 179.5001,-398.1186 179.5001,-398.1186 179.5,-393.1186 175.0001,-398.1187 179.5,-388.1186 179.5,-388.1186"/>
</g>
<!-- A3 -->
<g id="node4" class="node">
<title>A3</title>
<polygon fill="none" stroke="#000000" points=".5,-192 .5,-224 75.5,-224 75.5,-192 .5,-192"/>
<text text-anchor="start" x="17.728" y="-205" font-family="Helvetica,sans-Serif" font-size="10.00" fill="#000000">BMWCar</text>
<polygon fill="none" stroke="#000000" points=".5,-172 .5,-192 75.5,-192 75.5,-172 .5,-172"/>
<polygon fill="none" stroke="#000000" points=".5,-140 .5,-172 75.5,-172 75.5,-140 .5,-140"/>
<text text-anchor="start" x="10.0815" y="-153" font-family="Helvetica,sans-Serif" font-size="10.00" fill="#000000">+run():String</text>
</g>
<!-- A2&#45;&gt;A3 -->
<g id="edge1" class="edge">
<title>A2&#45;&gt;A3</title>
<path fill="none" stroke="#000000" stroke-dasharray="5,2" d="M121.8981,-272.3417C106.198,-255.5359 89.5909,-237.7593 75.2999,-222.4618"/>
<polygon fill="none" stroke="#000000" points="119.6521,-275.0644 129.0363,-279.9825 124.7672,-270.2858 119.6521,-275.0644"/>
</g>
<!-- A4 -->
<g id="node5" class="node">
<title>A4</title>
<polygon fill="none" stroke="#000000" points="93.5,-192 93.5,-224 168.5,-224 168.5,-192 93.5,-192"/>
<text text-anchor="start" x="110.9985" y="-205" font-family="Helvetica,sans-Serif" font-size="10.00" fill="#000000">BenZCar</text>
<polygon fill="none" stroke="#000000" points="93.5,-172 93.5,-192 168.5,-192 168.5,-172 93.5,-172"/>
<polygon fill="none" stroke="#000000" points="93.5,-140 93.5,-172 168.5,-172 168.5,-140 93.5,-140"/>
<text text-anchor="start" x="103.0815" y="-153" font-family="Helvetica,sans-Serif" font-size="10.00" fill="#000000">+run():String</text>
</g>
<!-- A2&#45;&gt;A4 -->
<g id="edge2" class="edge">
<title>A2&#45;&gt;A4</title>
<path fill="none" stroke="#000000" stroke-dasharray="5,2" d="M159.006,-270.4267C153.9984,-254.8931 148.7614,-238.6477 144.1625,-224.3815"/>
<polygon fill="none" stroke="#000000" points="155.687,-271.5387 162.0865,-279.9825 162.3494,-269.3909 155.687,-271.5387"/>
</g>
<!-- A5 -->
<g id="node6" class="node">
<title>A5</title>
<polygon fill="none" stroke="#000000" points="186.5,-192 186.5,-224 271.5,-224 271.5,-192 186.5,-192"/>
<text text-anchor="start" x="196.4955" y="-205" font-family="Helvetica,sans-Serif" font-size="10.00" fill="#000000">LandRoverCar</text>
<polygon fill="none" stroke="#000000" points="186.5,-172 186.5,-192 271.5,-192 271.5,-172 186.5,-172"/>
<polygon fill="none" stroke="#000000" points="186.5,-140 186.5,-172 271.5,-172 271.5,-140 186.5,-140"/>
<text text-anchor="start" x="201.0815" y="-153" font-family="Helvetica,sans-Serif" font-size="10.00" fill="#000000">+run():String</text>
</g>
<!-- A2&#45;&gt;A5 -->
<g id="edge3" class="edge">
<title>A2&#45;&gt;A5</title>
<path fill="none" stroke="#000000" stroke-dasharray="5,2" d="M199.994,-270.4267C205.0016,-254.8931 210.2386,-238.6477 214.8375,-224.3815"/>
<polygon fill="none" stroke="#000000" points="196.6506,-269.3909 196.9135,-279.9825 203.313,-271.5387 196.6506,-269.3909"/>
</g>
<!-- A6 -->
<g id="node7" class="node">
<title>A6</title>
<polygon fill="none" stroke="#000000" points="289.5,-186 289.5,-230 370.5,-230 370.5,-186 289.5,-186"/>
<text text-anchor="start" x="299.151" y="-211" font-family="Helvetica,sans-Serif" font-size="10.00" fill="#000000">&lt;&lt;interface&gt;&gt;</text>
<text text-anchor="start" x="300.2795" y="-199" font-family="Helvetica,sans-Serif" font-size="10.00" fill="#000000">Transmission</text>
<polygon fill="none" stroke="#000000" points="289.5,-166 289.5,-186 370.5,-186 370.5,-166 289.5,-166"/>
<polygon fill="none" stroke="#000000" points="289.5,-134 289.5,-166 370.5,-166 370.5,-134 289.5,-134"/>
<text text-anchor="start" x="299.302" y="-147" font-family="Helvetica,sans-Serif" font-size="10.00" fill="#000000">+gear():String</text>
</g>
<!-- A2&#45;&gt;A6 -->
<g id="edge4" class="edge">
<title>A2&#45;&gt;A6</title>
<path fill="none" stroke="#000000" d="M241.5318,-271.1411C254.8126,-257.6832 268.6529,-243.6583 281.3182,-230.8242"/>
<polygon fill="none" stroke="#000000" points="241.2357,-271.4412 239.8683,-278.5215 232.8067,-279.9825 234.1741,-272.9022 241.2357,-271.4412"/>
<polygon fill="#000000" stroke="#000000" points="288.6264,-223.4186 284.8053,-233.6972 285.1144,-226.9774 281.6023,-230.5363 281.6023,-230.5363 281.6023,-230.5363 285.1144,-226.9774 278.3993,-227.3755 288.6264,-223.4186 288.6264,-223.4186"/>
</g>
<!-- A7 -->
<g id="node8" class="node">
<title>A7</title>
<polygon fill="none" stroke="#000000" points="219.5,-52 219.5,-84 319.5,-84 319.5,-52 219.5,-52"/>
<text text-anchor="start" x="229.4965" y="-65" font-family="Helvetica,sans-Serif" font-size="10.00" fill="#000000">AutoTransMission</text>
<polygon fill="none" stroke="#000000" points="219.5,-32 219.5,-52 319.5,-52 319.5,-32 219.5,-32"/>
<polygon fill="none" stroke="#000000" points="219.5,0 219.5,-32 319.5,-32 319.5,0 219.5,0"/>
<text text-anchor="start" x="238.802" y="-13" font-family="Helvetica,sans-Serif" font-size="10.00" fill="#000000">+gear():String</text>
</g>
<!-- A6&#45;&gt;A7 -->
<g id="edge5" class="edge">
<title>A6&#45;&gt;A7</title>
<path fill="none" stroke="#000000" stroke-dasharray="5,2" d="M304.895,-124.5884C299.1001,-111.0669 293.0275,-96.8974 287.5808,-84.1885"/>
<polygon fill="none" stroke="#000000" points="301.6951,-126.0072 308.8514,-133.8199 308.1292,-123.2497 301.6951,-126.0072"/>
</g>
<!-- A8 -->
<g id="node9" class="node">
<title>A8</title>
<polygon fill="none" stroke="#000000" points="337.5,-52 337.5,-84 441.5,-84 441.5,-52 337.5,-52"/>
<text text-anchor="start" x="347.2765" y="-65" font-family="Helvetica,sans-Serif" font-size="10.00" fill="#000000">ManuTransMission</text>
<polygon fill="none" stroke="#000000" points="337.5,-32 337.5,-52 441.5,-52 441.5,-32 337.5,-32"/>
<polygon fill="none" stroke="#000000" points="337.5,0 337.5,-32 441.5,-32 441.5,0 337.5,0"/>
<text text-anchor="start" x="358.802" y="-13" font-family="Helvetica,sans-Serif" font-size="10.00" fill="#000000">+gear():String</text>
</g>
<!-- A6&#45;&gt;A8 -->
<g id="edge6" class="edge">
<title>A6&#45;&gt;A8</title>
<path fill="none" stroke="#000000" stroke-dasharray="5,2" d="M354.105,-124.5884C359.8999,-111.0669 365.9725,-96.8974 371.4192,-84.1885"/>
<polygon fill="none" stroke="#000000" points="350.8708,-123.2497 350.1486,-133.8199 357.3049,-126.0072 350.8708,-123.2497"/>
</g>
</g>
</svg>
