<?xml version="1.0" encoding="UTF-8" standalone="no"?>
<!DOCTYPE svg PUBLIC "-//W3C//DTD SVG 1.1//EN"
 "http://www.w3.org/Graphics/SVG/1.1/DTD/svg11.dtd">
<!-- Generated by graphviz version 2.40.1 (20161225.0304)
 -->
<!-- Title: G Pages: 1 -->
<svg width="750pt" height="554pt"
 viewBox="0.00 0.00 749.50 554.00" xmlns="http://www.w3.org/2000/svg" xmlns:xlink="http://www.w3.org/1999/xlink">
<g id="graph0" class="graph" transform="scale(1 1) rotate(0) translate(4 550)">
<title>G</title>
<polygon fill="#ffffff" stroke="transparent" points="-4,4 -4,-550 745.5,-550 745.5,4 -4,4"/>
<!-- A0 -->
<g id="node1" class="node">
<title>A0</title>
<polygon fill="#fff8dc" stroke="#000000" points="291.406,-522 205.594,-522 205.594,-486 297.406,-486 297.406,-516 291.406,-522"/>
<polyline fill="none" stroke="#000000" points="291.406,-522 291.406,-516 "/>
<polyline fill="none" stroke="#000000" points="297.406,-516 291.406,-516 "/>
<text text-anchor="middle" x="251.5" y="-501" font-family="Helvetica,sans-Serif" font-size="10.00" fill="#000000">Bridge Pattern</text>
</g>
<!-- A1 -->
<g id="node2" class="node">
<title>A1</title>
<polygon fill="#ff0000" stroke="transparent" points="315,-462 315,-546 390,-546 390,-462 315,-462"/>
<polygon fill="none" stroke="#000000" points="315.5,-514 315.5,-546 390.5,-546 390.5,-514 315.5,-514"/>
<text text-anchor="start" x="331.8935" y="-527" font-family="Helvetica,sans-Serif" font-size="10.00" fill="#000000">CallClass</text>
<polygon fill="none" stroke="#000000" points="315.5,-494 315.5,-514 390.5,-514 390.5,-494 315.5,-494"/>
<polygon fill="none" stroke="#000000" points="315.5,-462 315.5,-494 390.5,-494 390.5,-462 315.5,-462"/>
<text text-anchor="start" x="325.3605" y="-475" font-family="Helvetica,sans-Serif" font-size="10.00" fill="#000000">+main():void</text>
</g>
<!-- A2 -->
<g id="node3" class="node">
<title>A2</title>
<polygon fill="none" stroke="#000000" points="251.5,-368 251.5,-412 454.5,-412 454.5,-368 251.5,-368"/>
<text text-anchor="start" x="323.54" y="-393" font-family="Helvetica,sans-Serif" font-size="10.00" fill="#000000">&lt;&lt;absrtuct&gt;&gt;</text>
<text text-anchor="start" x="326.6095" y="-381" font-family="Helvetica,sans-Serif" font-size="10.00" fill="#000000">AbstractCar</text>
<polygon fill="none" stroke="#000000" points="251.5,-336 251.5,-368 454.5,-368 454.5,-336 251.5,-336"/>
<text text-anchor="start" x="292.17" y="-349" font-family="Helvetica,sans-Serif" font-size="10.00" fill="#000000">&#45;Transmission:transmission</text>
<polygon fill="none" stroke="#000000" points="251.5,-292 251.5,-336 454.5,-336 454.5,-292 251.5,-292"/>
<text text-anchor="start" x="261.1955" y="-317" font-family="Helvetica,sans-Serif" font-size="10.00" fill="#000000">+AbstractCar(Transmission transmission)</text>
<text text-anchor="start" x="325.0815" y="-305" font-family="Helvetica,sans-Serif" font-size="10.00" fill="#000000">+run():String</text>
</g>
<!-- A1&#45;&gt;A2 -->
<g id="edge7" class="edge">
<title>A1&#45;&gt;A2</title>
<path fill="none" stroke="#000000" d="M352.5,-461.6595C352.5,-449.4096 352.5,-435.6975 352.5,-422.2286"/>
<polygon fill="#000000" stroke="#000000" points="352.5,-412.0045 357.0001,-422.0045 352.5,-417.0045 352.5001,-422.0045 352.5001,-422.0045 352.5001,-422.0045 352.5,-417.0045 348.0001,-422.0046 352.5,-412.0045 352.5,-412.0045"/>
</g>
<!-- A3 -->
<g id="node4" class="node">
<title>A3</title>
<polygon fill="none" stroke="#000000" points=".5,-210 .5,-242 129.5,-242 129.5,-210 .5,-210"/>
<text text-anchor="start" x="44.728" y="-223" font-family="Helvetica,sans-Serif" font-size="10.00" fill="#000000">BMWCar</text>
<polygon fill="none" stroke="#000000" points=".5,-190 .5,-210 129.5,-210 129.5,-190 .5,-190"/>
<polygon fill="none" stroke="#000000" points=".5,-134 .5,-190 129.5,-190 129.5,-134 .5,-134"/>
<text text-anchor="start" x="10.4235" y="-171" font-family="Helvetica,sans-Serif" font-size="10.00" fill="#000000">+BMWCar(Transmission</text>
<text text-anchor="start" x="35.28" y="-159" font-family="Helvetica,sans-Serif" font-size="10.00" fill="#000000">transmission)</text>
<text text-anchor="start" x="37.0815" y="-147" font-family="Helvetica,sans-Serif" font-size="10.00" fill="#000000">+run():String</text>
</g>
<!-- A2&#45;&gt;A3 -->
<g id="edge1" class="edge">
<title>A2&#45;&gt;A3</title>
<path fill="none" stroke="#000000" stroke-dasharray="5,2" d="M241.8532,-299.2603C208.0711,-282.0645 171.221,-262.1787 138.5,-242 135.3865,-240.0799 132.2351,-238.069 129.0778,-235.999"/>
<polygon fill="none" stroke="#000000" points="240.3282,-302.4112 250.8311,-303.8042 243.4893,-296.1656 240.3282,-302.4112"/>
</g>
<!-- A4 -->
<g id="node5" class="node">
<title>A4</title>
<polygon fill="none" stroke="#000000" points="147.5,-204 147.5,-236 337.5,-236 337.5,-204 147.5,-204"/>
<text text-anchor="start" x="222.4985" y="-217" font-family="Helvetica,sans-Serif" font-size="10.00" fill="#000000">BenZCar</text>
<polygon fill="none" stroke="#000000" points="147.5,-184 147.5,-204 337.5,-204 337.5,-184 147.5,-184"/>
<polygon fill="none" stroke="#000000" points="147.5,-140 147.5,-184 337.5,-184 337.5,-140 147.5,-140"/>
<text text-anchor="start" x="157.0845" y="-165" font-family="Helvetica,sans-Serif" font-size="10.00" fill="#000000">+BenZCar(Transmission transmission)</text>
<text text-anchor="start" x="214.5815" y="-153" font-family="Helvetica,sans-Serif" font-size="10.00" fill="#000000">+run():String</text>
</g>
<!-- A2&#45;&gt;A4 -->
<g id="edge2" class="edge">
<title>A2&#45;&gt;A4</title>
<path fill="none" stroke="#000000" stroke-dasharray="5,2" d="M306.3203,-283.1503C295.6983,-267.3138 284.6256,-250.8054 274.743,-236.0714"/>
<polygon fill="none" stroke="#000000" points="303.6876,-285.5084 312.1647,-291.8637 309.501,-281.6092 303.6876,-285.5084"/>
</g>
<!-- A5 -->
<g id="node6" class="node">
<title>A5</title>
<polygon fill="none" stroke="#000000" points="356.5,-204 356.5,-236 571.5,-236 571.5,-204 356.5,-204"/>
<text text-anchor="start" x="431.4955" y="-217" font-family="Helvetica,sans-Serif" font-size="10.00" fill="#000000">LandRoverCar</text>
<polygon fill="none" stroke="#000000" points="356.5,-184 356.5,-204 571.5,-204 571.5,-184 356.5,-184"/>
<polygon fill="none" stroke="#000000" points="356.5,-140 356.5,-184 571.5,-184 571.5,-140 356.5,-140"/>
<text text-anchor="start" x="366.0815" y="-165" font-family="Helvetica,sans-Serif" font-size="10.00" fill="#000000">+LandRoverCar(Transmission transmission)</text>
<text text-anchor="start" x="436.0815" y="-153" font-family="Helvetica,sans-Serif" font-size="10.00" fill="#000000">+run():String</text>
</g>
<!-- A2&#45;&gt;A5 -->
<g id="edge3" class="edge">
<title>A2&#45;&gt;A5</title>
<path fill="none" stroke="#000000" stroke-dasharray="5,2" d="M399.0995,-283.1503C409.8181,-267.3138 420.9915,-250.8054 430.9639,-236.0714"/>
<polygon fill="none" stroke="#000000" points="395.9087,-281.6204 393.202,-291.8637 401.7057,-285.544 395.9087,-281.6204"/>
</g>
<!-- A6 -->
<g id="node7" class="node">
<title>A6</title>
<polygon fill="none" stroke="#000000" points="589.5,-192 589.5,-236 670.5,-236 670.5,-192 589.5,-192"/>
<text text-anchor="start" x="599.151" y="-217" font-family="Helvetica,sans-Serif" font-size="10.00" fill="#000000">&lt;&lt;interface&gt;&gt;</text>
<text text-anchor="start" x="600.2795" y="-205" font-family="Helvetica,sans-Serif" font-size="10.00" fill="#000000">Transmission</text>
<polygon fill="none" stroke="#000000" points="589.5,-172 589.5,-192 670.5,-192 670.5,-172 589.5,-172"/>
<polygon fill="none" stroke="#000000" points="589.5,-140 589.5,-172 670.5,-172 670.5,-140 589.5,-140"/>
<text text-anchor="start" x="599.302" y="-153" font-family="Helvetica,sans-Serif" font-size="10.00" fill="#000000">+gear():String</text>
</g>
<!-- A2&#45;&gt;A6 -->
<g id="edge4" class="edge">
<title>A2&#45;&gt;A6</title>
<path fill="none" stroke="#000000" d="M465.2753,-308.0034C503.6683,-290.3854 545.6526,-268.0381 580.5,-242 580.6775,-241.8674 580.8548,-241.7341 581.032,-241.6001"/>
<polygon fill="none" stroke="#000000" points="464.959,-308.146 461.1351,-314.2598 454.0209,-313.0815 457.8448,-306.9678 464.959,-308.146"/>
<polygon fill="#000000" stroke="#000000" points="588.8873,-235.1545 584.0111,-244.9766 585.022,-238.3261 581.1566,-241.4978 581.1566,-241.4978 581.1566,-241.4978 585.022,-238.3261 578.3021,-238.019 588.8873,-235.1545 588.8873,-235.1545"/>
</g>
<!-- A7 -->
<g id="node8" class="node">
<title>A7</title>
<polygon fill="none" stroke="#000000" points="519.5,-52 519.5,-84 619.5,-84 619.5,-52 519.5,-52"/>
<text text-anchor="start" x="529.4965" y="-65" font-family="Helvetica,sans-Serif" font-size="10.00" fill="#000000">AutoTransMission</text>
<polygon fill="none" stroke="#000000" points="519.5,-32 519.5,-52 619.5,-52 619.5,-32 519.5,-32"/>
<polygon fill="none" stroke="#000000" points="519.5,0 519.5,-32 619.5,-32 619.5,0 519.5,0"/>
<text text-anchor="start" x="538.802" y="-13" font-family="Helvetica,sans-Serif" font-size="10.00" fill="#000000">+gear():String</text>
</g>
<!-- A6&#45;&gt;A7 -->
<g id="edge5" class="edge">
<title>A6&#45;&gt;A7</title>
<path fill="none" stroke="#000000" stroke-dasharray="5,2" d="M605.8139,-130.3638C599.4943,-114.9861 592.7831,-98.6557 586.8721,-84.2721"/>
<polygon fill="none" stroke="#000000" points="602.649,-131.8705 609.6875,-139.7895 609.1236,-129.2097 602.649,-131.8705"/>
</g>
<!-- A8 -->
<g id="node9" class="node">
<title>A8</title>
<polygon fill="none" stroke="#000000" points="637.5,-52 637.5,-84 741.5,-84 741.5,-52 637.5,-52"/>
<text text-anchor="start" x="647.2765" y="-65" font-family="Helvetica,sans-Serif" font-size="10.00" fill="#000000">ManuTransMission</text>
<polygon fill="none" stroke="#000000" points="637.5,-32 637.5,-52 741.5,-52 741.5,-32 637.5,-32"/>
<polygon fill="none" stroke="#000000" points="637.5,0 637.5,-32 741.5,-32 741.5,0 637.5,0"/>
<text text-anchor="start" x="658.802" y="-13" font-family="Helvetica,sans-Serif" font-size="10.00" fill="#000000">+gear():String</text>
</g>
<!-- A6&#45;&gt;A8 -->
<g id="edge6" class="edge">
<title>A6&#45;&gt;A8</title>
<path fill="none" stroke="#000000" stroke-dasharray="5,2" d="M653.1861,-130.3638C659.5057,-114.9861 666.2169,-98.6557 672.1279,-84.2721"/>
<polygon fill="none" stroke="#000000" points="649.8764,-129.2097 649.3125,-139.7895 656.351,-131.8705 649.8764,-129.2097"/>
</g>
</g>
</svg>
