<?xml version="1.0" encoding="UTF-8" standalone="no"?>
<!DOCTYPE svg PUBLIC "-//W3C//DTD SVG 1.1//EN"
 "http://www.w3.org/Graphics/SVG/1.1/DTD/svg11.dtd">
<!-- Generated by graphviz version 2.40.1 (20161225.0304)
 -->
<!-- Title: G Pages: 1 -->
<svg width="646pt" height="518pt"
 viewBox="0.00 0.00 645.50 518.00" xmlns="http://www.w3.org/2000/svg" xmlns:xlink="http://www.w3.org/1999/xlink">
<g id="graph0" class="graph" transform="scale(1 1) rotate(0) translate(4 514)">
<title>G</title>
<polygon fill="#ffffff" stroke="transparent" points="-4,4 -4,-514 641.5,-514 641.5,4 -4,4"/>
<!-- A0 -->
<g id="node1" class="node">
<title>A0</title>
<polygon fill="#fff8dc" stroke="#000000" points="230.7423,-486 126.2577,-486 126.2577,-450 236.7423,-450 236.7423,-480 230.7423,-486"/>
<polyline fill="none" stroke="#000000" points="230.7423,-486 230.7423,-480 "/>
<polyline fill="none" stroke="#000000" points="236.7423,-480 230.7423,-480 "/>
<text text-anchor="middle" x="181.5" y="-465" font-family="Helvetica,sans-Serif" font-size="10.00" fill="#000000">Not Bridge Pattern</text>
</g>
<!-- A1 -->
<g id="node2" class="node">
<title>A1</title>
<polygon fill="#ff0000" stroke="transparent" points="255,-426 255,-510 330,-510 330,-426 255,-426"/>
<polygon fill="none" stroke="#000000" points="255.5,-478 255.5,-510 330.5,-510 330.5,-478 255.5,-478"/>
<text text-anchor="start" x="271.8935" y="-491" font-family="Helvetica,sans-Serif" font-size="10.00" fill="#000000">CallClass</text>
<polygon fill="none" stroke="#000000" points="255.5,-458 255.5,-478 330.5,-478 330.5,-458 255.5,-458"/>
<polygon fill="none" stroke="#000000" points="255.5,-426 255.5,-458 330.5,-458 330.5,-426 255.5,-426"/>
<text text-anchor="start" x="265.3605" y="-439" font-family="Helvetica,sans-Serif" font-size="10.00" fill="#000000">+main():void</text>
</g>
<!-- A2 -->
<g id="node3" class="node">
<title>A2</title>
<polygon fill="none" stroke="#000000" points="252.5,-332 252.5,-376 333.5,-376 333.5,-332 252.5,-332"/>
<text text-anchor="start" x="262.151" y="-357" font-family="Helvetica,sans-Serif" font-size="10.00" fill="#000000">&lt;&lt;interface&gt;&gt;</text>
<text text-anchor="start" x="266.6095" y="-345" font-family="Helvetica,sans-Serif" font-size="10.00" fill="#000000">AbstractCar</text>
<polygon fill="none" stroke="#000000" points="252.5,-312 252.5,-332 333.5,-332 333.5,-312 252.5,-312"/>
<polygon fill="none" stroke="#000000" points="252.5,-280 252.5,-312 333.5,-312 333.5,-280 252.5,-280"/>
<text text-anchor="start" x="268.4105" y="-293" font-family="Helvetica,sans-Serif" font-size="10.00" fill="#000000">+run:String</text>
</g>
<!-- A1&#45;&gt;A2 -->
<g id="edge10" class="edge">
<title>A1&#45;&gt;A2</title>
<path fill="none" stroke="#000000" d="M292.5,-425.9954C292.5,-413.544 292.5,-399.6777 292.5,-386.3861"/>
<polygon fill="#000000" stroke="#000000" points="292.5,-376.3669 297.0001,-386.3669 292.5,-381.3669 292.5001,-386.3669 292.5001,-386.3669 292.5001,-386.3669 292.5,-381.3669 288.0001,-386.3669 292.5,-376.3669 292.5,-376.3669"/>
</g>
<!-- A3 -->
<g id="node4" class="node">
<title>A3</title>
<polygon fill="none" stroke="#000000" points="101.5,-186 101.5,-230 182.5,-230 182.5,-186 101.5,-186"/>
<text text-anchor="start" x="111.151" y="-211" font-family="Helvetica,sans-Serif" font-size="10.00" fill="#000000">&lt;&lt;interface&gt;&gt;</text>
<text text-anchor="start" x="121.728" y="-199" font-family="Helvetica,sans-Serif" font-size="10.00" fill="#000000">BMWCar</text>
<polygon fill="none" stroke="#000000" points="101.5,-166 101.5,-186 182.5,-186 182.5,-166 101.5,-166"/>
<polygon fill="none" stroke="#000000" points="101.5,-134 101.5,-166 182.5,-166 182.5,-134 101.5,-134"/>
<text text-anchor="start" x="114.0815" y="-147" font-family="Helvetica,sans-Serif" font-size="10.00" fill="#000000">+run():String</text>
</g>
<!-- A2&#45;&gt;A3 -->
<g id="edge1" class="edge">
<title>A2&#45;&gt;A3</title>
<path fill="none" stroke="#000000" stroke-dasharray="5,2" d="M244.3982,-281.4909C224.3487,-262.1054 201.317,-239.8363 182.1336,-221.2881"/>
<polygon fill="none" stroke="#000000" points="242.0152,-284.0554 251.6372,-288.4903 246.881,-279.023 242.0152,-284.0554"/>
</g>
<!-- A6 -->
<g id="node7" class="node">
<title>A6</title>
<polygon fill="none" stroke="#000000" points="252.5,-186 252.5,-230 333.5,-230 333.5,-186 252.5,-186"/>
<text text-anchor="start" x="262.151" y="-211" font-family="Helvetica,sans-Serif" font-size="10.00" fill="#000000">&lt;&lt;interface&gt;&gt;</text>
<text text-anchor="start" x="272.9985" y="-199" font-family="Helvetica,sans-Serif" font-size="10.00" fill="#000000">BenZCar</text>
<polygon fill="none" stroke="#000000" points="252.5,-166 252.5,-186 333.5,-186 333.5,-166 252.5,-166"/>
<polygon fill="none" stroke="#000000" points="252.5,-134 252.5,-166 333.5,-166 333.5,-134 252.5,-134"/>
<text text-anchor="start" x="265.0815" y="-147" font-family="Helvetica,sans-Serif" font-size="10.00" fill="#000000">+run():String</text>
</g>
<!-- A2&#45;&gt;A6 -->
<g id="edge2" class="edge">
<title>A2&#45;&gt;A6</title>
<path fill="none" stroke="#000000" stroke-dasharray="5,2" d="M292.5,-269.4923C292.5,-256.4385 292.5,-242.7404 292.5,-230.1599"/>
<polygon fill="none" stroke="#000000" points="289.0001,-269.7895 292.5,-279.7895 296.0001,-269.7895 289.0001,-269.7895"/>
</g>
<!-- A9 -->
<g id="node10" class="node">
<title>A9</title>
<polygon fill="none" stroke="#000000" points="414.5,-186 414.5,-230 499.5,-230 499.5,-186 414.5,-186"/>
<text text-anchor="start" x="426.151" y="-211" font-family="Helvetica,sans-Serif" font-size="10.00" fill="#000000">&lt;&lt;interface&gt;&gt;</text>
<text text-anchor="start" x="424.4955" y="-199" font-family="Helvetica,sans-Serif" font-size="10.00" fill="#000000">LandRoverCar</text>
<polygon fill="none" stroke="#000000" points="414.5,-166 414.5,-186 499.5,-186 499.5,-166 414.5,-166"/>
<polygon fill="none" stroke="#000000" points="414.5,-134 414.5,-166 499.5,-166 499.5,-134 414.5,-134"/>
<text text-anchor="start" x="429.0815" y="-147" font-family="Helvetica,sans-Serif" font-size="10.00" fill="#000000">+run():String</text>
</g>
<!-- A2&#45;&gt;A9 -->
<g id="edge3" class="edge">
<title>A2&#45;&gt;A9</title>
<path fill="none" stroke="#000000" stroke-dasharray="5,2" d="M340.7194,-285.073C363.8996,-264.4369 391.4443,-239.9155 413.8507,-219.9682"/>
<polygon fill="none" stroke="#000000" points="338.1812,-282.6466 333.0393,-291.9101 342.8357,-287.875 338.1812,-282.6466"/>
</g>
<!-- A4 -->
<g id="node5" class="node">
<title>A4</title>
<polygon fill="none" stroke="#000000" points=".5,-52 .5,-84 81.5,-84 81.5,-52 .5,-52"/>
<text text-anchor="start" x="10.445" y="-65" font-family="Helvetica,sans-Serif" font-size="10.00" fill="#000000">BMWAutoCar</text>
<polygon fill="none" stroke="#000000" points=".5,-32 .5,-52 81.5,-52 81.5,-32 .5,-32"/>
<polygon fill="none" stroke="#000000" points=".5,0 .5,-32 81.5,-32 81.5,0 .5,0"/>
<text text-anchor="start" x="13.0815" y="-13" font-family="Helvetica,sans-Serif" font-size="10.00" fill="#000000">+run():String</text>
</g>
<!-- A3&#45;&gt;A4 -->
<g id="edge4" class="edge">
<title>A3&#45;&gt;A4</title>
<path fill="none" stroke="#000000" stroke-dasharray="5,2" d="M100.6438,-125.3677C90.7204,-111.6124 80.2809,-97.1418 70.936,-84.1885"/>
<polygon fill="none" stroke="#000000" points="98.0524,-127.7578 106.7415,-133.8199 103.7293,-123.6623 98.0524,-127.7578"/>
</g>
<!-- A5 -->
<g id="node6" class="node">
<title>A5</title>
<polygon fill="none" stroke="#000000" points="99.5,-52 99.5,-84 184.5,-84 184.5,-52 99.5,-52"/>
<text text-anchor="start" x="109.225" y="-65" font-family="Helvetica,sans-Serif" font-size="10.00" fill="#000000">BMWManuCar</text>
<polygon fill="none" stroke="#000000" points="99.5,-32 99.5,-52 184.5,-52 184.5,-32 99.5,-32"/>
<polygon fill="none" stroke="#000000" points="99.5,0 99.5,-32 184.5,-32 184.5,0 99.5,0"/>
<text text-anchor="start" x="114.0815" y="-13" font-family="Helvetica,sans-Serif" font-size="10.00" fill="#000000">+run():String</text>
</g>
<!-- A3&#45;&gt;A5 -->
<g id="edge5" class="edge">
<title>A3&#45;&gt;A5</title>
<path fill="none" stroke="#000000" stroke-dasharray="5,2" d="M141.5,-123.8076C141.5,-110.5224 141.5,-96.653 141.5,-84.1885"/>
<polygon fill="none" stroke="#000000" points="138.0001,-123.8199 141.5,-133.8199 145.0001,-123.82 138.0001,-123.8199"/>
</g>
<!-- A7 -->
<g id="node8" class="node">
<title>A7</title>
<polygon fill="none" stroke="#000000" points="202.5,-52 202.5,-84 282.5,-84 282.5,-52 202.5,-52"/>
<text text-anchor="start" x="212.2155" y="-65" font-family="Helvetica,sans-Serif" font-size="10.00" fill="#000000">BenZAutoCar</text>
<polygon fill="none" stroke="#000000" points="202.5,-32 202.5,-52 282.5,-52 282.5,-32 202.5,-32"/>
<polygon fill="none" stroke="#000000" points="202.5,0 202.5,-32 282.5,-32 282.5,0 202.5,0"/>
<text text-anchor="start" x="214.5815" y="-13" font-family="Helvetica,sans-Serif" font-size="10.00" fill="#000000">+run():String</text>
</g>
<!-- A6&#45;&gt;A7 -->
<g id="edge6" class="edge">
<title>A6&#45;&gt;A7</title>
<path fill="none" stroke="#000000" stroke-dasharray="5,2" d="M271.8565,-124.1981C267.0695,-110.7945 262.0626,-96.7752 257.5673,-84.1885"/>
<polygon fill="none" stroke="#000000" points="268.6333,-125.5797 275.2928,-133.8199 275.2255,-123.2253 268.6333,-125.5797"/>
</g>
<!-- A8 -->
<g id="node9" class="node">
<title>A8</title>
<polygon fill="none" stroke="#000000" points="301.5,-52 301.5,-84 386.5,-84 386.5,-52 301.5,-52"/>
<text text-anchor="start" x="311.4955" y="-65" font-family="Helvetica,sans-Serif" font-size="10.00" fill="#000000">BenZManuCar</text>
<polygon fill="none" stroke="#000000" points="301.5,-32 301.5,-52 386.5,-52 386.5,-32 301.5,-32"/>
<polygon fill="none" stroke="#000000" points="301.5,0 301.5,-32 386.5,-32 386.5,0 301.5,0"/>
<text text-anchor="start" x="316.0815" y="-13" font-family="Helvetica,sans-Serif" font-size="10.00" fill="#000000">+run():String</text>
</g>
<!-- A6&#45;&gt;A8 -->
<g id="edge7" class="edge">
<title>A6&#45;&gt;A8</title>
<path fill="none" stroke="#000000" stroke-dasharray="5,2" d="M313.5564,-124.1981C318.4391,-110.7945 323.5462,-96.7752 328.1313,-84.1885"/>
<polygon fill="none" stroke="#000000" points="310.1856,-123.226 310.0513,-133.8199 316.7628,-125.622 310.1856,-123.226"/>
</g>
<!-- A10 -->
<g id="node11" class="node">
<title>A10</title>
<polygon fill="none" stroke="#000000" points="404.5,-52 404.5,-84 509.5,-84 509.5,-52 404.5,-52"/>
<text text-anchor="start" x="414.2125" y="-65" font-family="Helvetica,sans-Serif" font-size="10.00" fill="#000000">LandRoverAutoCar</text>
<polygon fill="none" stroke="#000000" points="404.5,-32 404.5,-52 509.5,-52 509.5,-32 404.5,-32"/>
<polygon fill="none" stroke="#000000" points="404.5,0 404.5,-32 509.5,-32 509.5,0 404.5,0"/>
<text text-anchor="start" x="429.0815" y="-13" font-family="Helvetica,sans-Serif" font-size="10.00" fill="#000000">+run():String</text>
</g>
<!-- A9&#45;&gt;A10 -->
<g id="edge8" class="edge">
<title>A9&#45;&gt;A10</title>
<path fill="none" stroke="#000000" stroke-dasharray="5,2" d="M456.5,-123.8076C456.5,-110.5224 456.5,-96.653 456.5,-84.1885"/>
<polygon fill="none" stroke="#000000" points="453.0001,-123.8199 456.5,-133.8199 460.0001,-123.82 453.0001,-123.8199"/>
</g>
<!-- A11 -->
<g id="node12" class="node">
<title>A11</title>
<polygon fill="none" stroke="#000000" points="527.5,-52 527.5,-84 637.5,-84 637.5,-52 527.5,-52"/>
<text text-anchor="start" x="537.4925" y="-65" font-family="Helvetica,sans-Serif" font-size="10.00" fill="#000000">LandRoverManuCar</text>
<polygon fill="none" stroke="#000000" points="527.5,-32 527.5,-52 637.5,-52 637.5,-32 527.5,-32"/>
<polygon fill="none" stroke="#000000" points="527.5,0 527.5,-32 637.5,-32 637.5,0 527.5,0"/>
<text text-anchor="start" x="554.5815" y="-13" font-family="Helvetica,sans-Serif" font-size="10.00" fill="#000000">+run():String</text>
</g>
<!-- A9&#45;&gt;A11 -->
<g id="edge9" class="edge">
<title>A9&#45;&gt;A11</title>
<path fill="none" stroke="#000000" stroke-dasharray="5,2" d="M506.159,-126.8233C518.9285,-112.635 532.4643,-97.5952 544.5357,-84.1826"/>
<polygon fill="none" stroke="#000000" points="503.246,-124.828 499.1579,-134.6024 508.4491,-129.5108 503.246,-124.828"/>
</g>
</g>
</svg>
