<?xml version="1.0" encoding="UTF-8" standalone="no"?>
<!DOCTYPE svg PUBLIC "-//W3C//DTD SVG 1.1//EN"
 "http://www.w3.org/Graphics/SVG/1.1/DTD/svg11.dtd">
<!-- Generated by graphviz version 2.40.1 (20161225.0304)
 -->
<!-- Title: G Pages: 1 -->
<svg width="746pt" height="692pt"
 viewBox="0.00 0.00 745.50 692.00" xmlns="http://www.w3.org/2000/svg" xmlns:xlink="http://www.w3.org/1999/xlink">
<g id="graph0" class="graph" transform="scale(1 1) rotate(0) translate(4 688)">
<title>G</title>
<polygon fill="#ffffff" stroke="transparent" points="-4,4 -4,-688 741.5,-688 741.5,4 -4,4"/>
<!-- A0 -->
<g id="node1" class="node">
<title>A0</title>
<polygon fill="#fff8dc" stroke="#000000" points="194.1865,-658 100.8135,-658 100.8135,-622 200.1865,-622 200.1865,-652 194.1865,-658"/>
<polyline fill="none" stroke="#000000" points="194.1865,-658 194.1865,-652 "/>
<polyline fill="none" stroke="#000000" points="200.1865,-652 194.1865,-652 "/>
<text text-anchor="middle" x="150.5" y="-637" font-family="Helvetica,sans-Serif" font-size="10.00" fill="#000000">Abstract Pattern</text>
</g>
<!-- A1 -->
<g id="node2" class="node">
<title>A1</title>
<polygon fill="#ff0000" stroke="transparent" points="218,-598 218,-682 319,-682 319,-598 218,-598"/>
<polygon fill="none" stroke="#000000" points="218.5,-650 218.5,-682 319.5,-682 319.5,-650 218.5,-650"/>
<text text-anchor="start" x="247.8935" y="-663" font-family="Helvetica,sans-Serif" font-size="10.00" fill="#000000">CallClass</text>
<polygon fill="none" stroke="#000000" points="218.5,-630 218.5,-650 319.5,-650 319.5,-630 218.5,-630"/>
<polygon fill="none" stroke="#000000" points="218.5,-598 218.5,-630 319.5,-630 319.5,-598 218.5,-598"/>
<text text-anchor="start" x="228.303" y="-611" font-family="Helvetica,sans-Serif" font-size="10.00" fill="#000000">+static main():void</text>
</g>
<!-- A3 -->
<g id="node4" class="node">
<title>A3</title>
<polygon fill="none" stroke="#000000" points="210.5,-514 210.5,-546 465.5,-546 465.5,-514 210.5,-514"/>
<text text-anchor="start" x="321.3325" y="-527" font-family="Helvetica,sans-Serif" font-size="10.00" fill="#000000">Factory</text>
<polygon fill="none" stroke="#000000" points="210.5,-494 210.5,-514 465.5,-514 465.5,-494 210.5,-494"/>
<polygon fill="none" stroke="#000000" points="210.5,-462 210.5,-494 465.5,-494 465.5,-462 210.5,-462"/>
<text text-anchor="start" x="220.34" y="-475" font-family="Helvetica,sans-Serif" font-size="10.00" fill="#000000">+generateFactory(FactoryType:type):AbstractFactory</text>
</g>
<!-- A1&#45;&gt;A3 -->
<g id="edge1" class="edge">
<title>A1&#45;&gt;A3</title>
<path fill="none" stroke="#000000" d="M289.9538,-597.7142C296.7688,-584.2819 304.3802,-569.2796 311.4807,-555.2844"/>
<polygon fill="#000000" stroke="#000000" points="316.0595,-546.2596 315.548,-557.2136 313.7972,-550.7186 311.5349,-555.1775 311.5349,-555.1775 311.5349,-555.1775 313.7972,-550.7186 307.5218,-553.1414 316.0595,-546.2596 316.0595,-546.2596"/>
<text text-anchor="middle" x="290.6173" y="-574.7253" font-family="Helvetica,sans-Serif" font-size="10.00" fill="#000000">generateFactory</text>
</g>
<!-- A2 -->
<g id="node3" class="node">
<title>A2</title>
<polygon fill="none" stroke="#000000" points="337.5,-640 337.5,-684 477.5,-684 477.5,-640 337.5,-640"/>
<text text-anchor="start" x="383.319" y="-665" font-family="Helvetica,sans-Serif" font-size="10.00" fill="#000000">&lt;&lt;enum&gt;&gt;</text>
<text text-anchor="start" x="379.719" y="-653" font-family="Helvetica,sans-Serif" font-size="10.00" fill="#000000">FactoryType</text>
<polygon fill="none" stroke="#000000" points="337.5,-596 337.5,-640 477.5,-640 477.5,-596 337.5,-596"/>
<text text-anchor="start" x="347.084" y="-621" font-family="Helvetica,sans-Serif" font-size="10.00" fill="#000000">+CC_ENUM_FACTORY_A</text>
<text text-anchor="start" x="347.084" y="-609" font-family="Helvetica,sans-Serif" font-size="10.00" fill="#000000">+CC_ENUM_FACTORY_B</text>
</g>
<!-- A2&#45;&gt;A3 -->
<g id="edge2" class="edge">
<title>A2&#45;&gt;A3</title>
<path fill="none" stroke="#000000" stroke-dasharray="5,2" d="M380.0523,-586.673C373.1169,-573.1986 365.7662,-558.9172 359.1608,-546.0839"/>
<polygon fill="#000000" stroke="#000000" points="384.773,-595.8447 376.1954,-589.0127 382.4848,-591.399 380.1965,-586.9533 380.1965,-586.9533 380.1965,-586.9533 382.4848,-591.399 384.1976,-584.8939 384.773,-595.8447 384.773,-595.8447"/>
</g>
<!-- A4 -->
<g id="node5" class="node">
<title>A4</title>
<polygon fill="none" stroke="#000000" points="272.5,-368 272.5,-412 403.5,-412 403.5,-368 272.5,-368"/>
<text text-anchor="start" x="308.54" y="-393" font-family="Helvetica,sans-Serif" font-size="10.00" fill="#000000">&lt;&lt;abstruct&gt;&gt;</text>
<text text-anchor="start" x="302.9955" y="-381" font-family="Helvetica,sans-Serif" font-size="10.00" fill="#000000">AbstractFactory</text>
<polygon fill="none" stroke="#000000" points="272.5,-348 272.5,-368 403.5,-368 403.5,-348 272.5,-348"/>
<polygon fill="none" stroke="#000000" points="272.5,-292 272.5,-348 403.5,-348 403.5,-292 272.5,-292"/>
<text text-anchor="start" x="317.2985" y="-329" font-family="Helvetica,sans-Serif" font-size="10.00" fill="#000000">+abstract</text>
<text text-anchor="start" x="285.21" y="-317" font-family="Helvetica,sans-Serif" font-size="10.00" fill="#000000">getProductA():ProductA</text>
<text text-anchor="start" x="282.2905" y="-305" font-family="Helvetica,sans-Serif" font-size="10.00" fill="#000000">+getProductB():ProductB</text>
</g>
<!-- A3&#45;&gt;A4 -->
<g id="edge3" class="edge">
<title>A3&#45;&gt;A4</title>
<path fill="none" stroke="#000000" d="M337.5,-461.6595C337.5,-449.4096 337.5,-435.6975 337.5,-422.2286"/>
<polygon fill="#000000" stroke="#000000" points="337.5,-412.0045 342.0001,-422.0045 337.5,-417.0045 337.5001,-422.0045 337.5001,-422.0045 337.5001,-422.0045 337.5,-417.0045 333.0001,-422.0046 337.5,-412.0045 337.5,-412.0045"/>
</g>
<!-- A5 -->
<g id="node6" class="node">
<title>A5</title>
<polygon fill="none" stroke="#000000" points=".5,-210 .5,-242 131.5,-242 131.5,-210 .5,-210"/>
<text text-anchor="start" x="45.998" y="-223" font-family="Helvetica,sans-Serif" font-size="10.00" fill="#000000">FactoryA</text>
<polygon fill="none" stroke="#000000" points=".5,-190 .5,-210 131.5,-210 131.5,-190 .5,-190"/>
<polygon fill="none" stroke="#000000" points=".5,-134 .5,-190 131.5,-190 131.5,-134 .5,-134"/>
<text text-anchor="start" x="43.914" y="-171" font-family="Helvetica,sans-Serif" font-size="10.00" fill="#000000">+Override</text>
<text text-anchor="start" x="13.21" y="-159" font-family="Helvetica,sans-Serif" font-size="10.00" fill="#000000">getProductB():ProductB</text>
<text text-anchor="start" x="10.2905" y="-147" font-family="Helvetica,sans-Serif" font-size="10.00" fill="#000000">+getProductA():ProductA</text>
</g>
<!-- A4&#45;&gt;A5 -->
<g id="edge4" class="edge">
<title>A4&#45;&gt;A5</title>
<path fill="none" stroke="#000000" stroke-dasharray="5,2" d="M262.8188,-312.9238C225.4868,-292.7335 179.97,-267.1121 140.5,-242 137.3865,-240.0191 134.227,-237.9582 131.055,-235.8477"/>
<polygon fill="none" stroke="#000000" points="261.1685,-316.0103 271.6323,-317.6719 264.4886,-309.8477 261.1685,-316.0103"/>
</g>
<!-- A6 -->
<g id="node7" class="node">
<title>A6</title>
<polygon fill="none" stroke="#000000" points="272.5,-210 272.5,-242 403.5,-242 403.5,-210 272.5,-210"/>
<text text-anchor="start" x="317.998" y="-223" font-family="Helvetica,sans-Serif" font-size="10.00" fill="#000000">FactoryB</text>
<polygon fill="none" stroke="#000000" points="272.5,-190 272.5,-210 403.5,-210 403.5,-190 272.5,-190"/>
<polygon fill="none" stroke="#000000" points="272.5,-134 272.5,-190 403.5,-190 403.5,-134 272.5,-134"/>
<text text-anchor="start" x="315.914" y="-171" font-family="Helvetica,sans-Serif" font-size="10.00" fill="#000000">+Override</text>
<text text-anchor="start" x="285.21" y="-159" font-family="Helvetica,sans-Serif" font-size="10.00" fill="#000000">getProductA():ProductA</text>
<text text-anchor="start" x="282.2905" y="-147" font-family="Helvetica,sans-Serif" font-size="10.00" fill="#000000">+getProductB():ProductB</text>
</g>
<!-- A4&#45;&gt;A6 -->
<g id="edge5" class="edge">
<title>A4&#45;&gt;A6</title>
<path fill="none" stroke="#000000" stroke-dasharray="5,2" d="M337.5,-281.8181C337.5,-268.543 337.5,-254.8458 337.5,-242.1578"/>
<polygon fill="none" stroke="#000000" points="334.0001,-281.8637 337.5,-291.8637 341.0001,-281.8637 334.0001,-281.8637"/>
</g>
<!-- A7 -->
<g id="node8" class="node">
<title>A7</title>
<polygon fill="none" stroke="#000000" points="544.5,-210 544.5,-242 675.5,-242 675.5,-210 544.5,-210"/>
<text text-anchor="start" x="589.723" y="-223" font-family="Helvetica,sans-Serif" font-size="10.00" fill="#000000">FactoryC</text>
<polygon fill="none" stroke="#000000" points="544.5,-190 544.5,-210 675.5,-210 675.5,-190 544.5,-190"/>
<polygon fill="none" stroke="#000000" points="544.5,-134 544.5,-190 675.5,-190 675.5,-134 544.5,-134"/>
<text text-anchor="start" x="587.914" y="-171" font-family="Helvetica,sans-Serif" font-size="10.00" fill="#000000">+Override</text>
<text text-anchor="start" x="557.21" y="-159" font-family="Helvetica,sans-Serif" font-size="10.00" fill="#000000">getProductA():ProductA</text>
<text text-anchor="start" x="554.2905" y="-147" font-family="Helvetica,sans-Serif" font-size="10.00" fill="#000000">+getProductB():ProductB</text>
</g>
<!-- A4&#45;&gt;A7 -->
<g id="edge6" class="edge">
<title>A4&#45;&gt;A7</title>
<path fill="none" stroke="#000000" stroke-dasharray="5,2" d="M412.1812,-312.9238C449.5132,-292.7335 495.03,-267.1121 534.5,-242 537.6135,-240.0191 540.773,-237.9582 543.945,-235.8477"/>
<polygon fill="none" stroke="#000000" points="410.5114,-309.8477 403.3677,-317.6719 413.8315,-316.0103 410.5114,-309.8477"/>
</g>
<!-- A8 -->
<g id="node9" class="node">
<title>A8</title>
<polygon fill="none" stroke="#000000" points="149.5,-192 149.5,-236 253.5,-236 253.5,-192 149.5,-192"/>
<text text-anchor="start" x="170.651" y="-217" font-family="Helvetica,sans-Serif" font-size="10.00" fill="#000000">&lt;&lt;interface&gt;&gt;</text>
<text text-anchor="start" x="180.9385" y="-205" font-family="Helvetica,sans-Serif" font-size="10.00" fill="#000000">ProductA</text>
<polygon fill="none" stroke="#000000" points="149.5,-172 149.5,-192 253.5,-192 253.5,-172 149.5,-172"/>
<polygon fill="none" stroke="#000000" points="149.5,-140 149.5,-172 253.5,-172 253.5,-140 149.5,-140"/>
<text text-anchor="start" x="159.4085" y="-153" font-family="Helvetica,sans-Serif" font-size="10.00" fill="#000000">+produceA():String</text>
</g>
<!-- A4&#45;&gt;A8 -->
<g id="edge7" class="edge">
<title>A4&#45;&gt;A8</title>
<path fill="none" stroke="#000000" stroke-dasharray="5,2" d="M287.6309,-291.8637C274.655,-276.2164 260.729,-259.4232 247.9383,-243.9991"/>
<polygon fill="#000000" stroke="#000000" points="241.3641,-236.0714 251.2114,-240.8965 244.5558,-239.9202 247.7475,-243.769 247.7475,-243.769 247.7475,-243.769 244.5558,-239.9202 244.2836,-246.6415 241.3641,-236.0714 241.3641,-236.0714"/>
</g>
<!-- A12 -->
<g id="node13" class="node">
<title>A12</title>
<polygon fill="none" stroke="#000000" points="421.5,-192 421.5,-236 525.5,-236 525.5,-192 421.5,-192"/>
<text text-anchor="start" x="442.651" y="-217" font-family="Helvetica,sans-Serif" font-size="10.00" fill="#000000">&lt;&lt;interface&gt;&gt;</text>
<text text-anchor="start" x="452.9385" y="-205" font-family="Helvetica,sans-Serif" font-size="10.00" fill="#000000">ProductB</text>
<polygon fill="none" stroke="#000000" points="421.5,-172 421.5,-192 525.5,-192 525.5,-172 421.5,-172"/>
<polygon fill="none" stroke="#000000" points="421.5,-140 421.5,-172 525.5,-172 525.5,-140 421.5,-140"/>
<text text-anchor="start" x="431.4085" y="-153" font-family="Helvetica,sans-Serif" font-size="10.00" fill="#000000">+produceB():String</text>
</g>
<!-- A4&#45;&gt;A12 -->
<g id="edge8" class="edge">
<title>A4&#45;&gt;A12</title>
<path fill="none" stroke="#000000" stroke-dasharray="5,2" d="M387.3691,-291.8637C400.345,-276.2164 414.271,-259.4232 427.0617,-243.9991"/>
<polygon fill="#000000" stroke="#000000" points="433.6359,-236.0714 430.7164,-246.6415 430.4442,-239.9202 427.2525,-243.769 427.2525,-243.769 427.2525,-243.769 430.4442,-239.9202 423.7886,-240.8965 433.6359,-236.0714 433.6359,-236.0714"/>
</g>
<!-- A9 -->
<g id="node10" class="node">
<title>A9</title>
<polygon fill="none" stroke="#000000" points="20.5,-52 20.5,-84 124.5,-84 124.5,-52 20.5,-52"/>
<text text-anchor="start" x="49.159" y="-65" font-family="Helvetica,sans-Serif" font-size="10.00" fill="#000000">ProductA1</text>
<polygon fill="none" stroke="#000000" points="20.5,-32 20.5,-52 124.5,-52 124.5,-32 20.5,-32"/>
<polygon fill="none" stroke="#000000" points="20.5,0 20.5,-32 124.5,-32 124.5,0 20.5,0"/>
<text text-anchor="start" x="30.4085" y="-13" font-family="Helvetica,sans-Serif" font-size="10.00" fill="#000000">+produceA():String</text>
</g>
<!-- A5&#45;&gt;A9 -->
<g id="edge15" class="edge">
<title>A5&#45;&gt;A9</title>
<path fill="none" stroke="#000000" d="M68.1065,-133.635C68.7261,-120.7126 69.3857,-106.9552 70.0004,-94.1351"/>
<polygon fill="#000000" stroke="#000000" points="70.4821,-84.0884 74.4979,-94.2925 70.2426,-89.0827 70.0031,-94.077 70.0031,-94.077 70.0031,-94.077 70.2426,-89.0827 65.5082,-93.8614 70.4821,-84.0884 70.4821,-84.0884"/>
</g>
<!-- A13 -->
<g id="node14" class="node">
<title>A13</title>
<polygon fill="none" stroke="#000000" points="267.5,-52 267.5,-84 371.5,-84 371.5,-52 267.5,-52"/>
<text text-anchor="start" x="296.159" y="-65" font-family="Helvetica,sans-Serif" font-size="10.00" fill="#000000">ProductB1</text>
<polygon fill="none" stroke="#000000" points="267.5,-32 267.5,-52 371.5,-52 371.5,-32 267.5,-32"/>
<polygon fill="none" stroke="#000000" points="267.5,0 267.5,-32 371.5,-32 371.5,0 267.5,0"/>
<text text-anchor="start" x="277.4085" y="-13" font-family="Helvetica,sans-Serif" font-size="10.00" fill="#000000">+produceB():String</text>
</g>
<!-- A5&#45;&gt;A13 -->
<g id="edge16" class="edge">
<title>A5&#45;&gt;A13</title>
<path fill="none" stroke="#000000" d="M131.2222,-139.4657C134.3219,-137.5626 137.4235,-135.7306 140.5,-134 190.1429,-106.0746 208.566,-111.4016 258.5,-84 258.5916,-83.9497 258.6832,-83.8994 258.7749,-83.8489"/>
<polygon fill="#000000" stroke="#000000" points="267.3568,-78.8938 260.9468,-87.7911 263.0268,-81.3939 258.6967,-83.8941 258.6967,-83.8941 258.6967,-83.8941 263.0268,-81.3939 256.4466,-79.997 267.3568,-78.8938 267.3568,-78.8938"/>
</g>
<!-- A10 -->
<g id="node11" class="node">
<title>A10</title>
<polygon fill="none" stroke="#000000" points="145.5,-52 145.5,-84 249.5,-84 249.5,-52 145.5,-52"/>
<text text-anchor="start" x="174.159" y="-65" font-family="Helvetica,sans-Serif" font-size="10.00" fill="#000000">ProductA2</text>
<polygon fill="none" stroke="#000000" points="145.5,-32 145.5,-52 249.5,-52 249.5,-32 145.5,-32"/>
<polygon fill="none" stroke="#000000" points="145.5,0 145.5,-32 249.5,-32 249.5,0 145.5,0"/>
<text text-anchor="start" x="155.4085" y="-13" font-family="Helvetica,sans-Serif" font-size="10.00" fill="#000000">+produceA():String</text>
</g>
<!-- A6&#45;&gt;A10 -->
<g id="edge17" class="edge">
<title>A6&#45;&gt;A10</title>
<path fill="none" stroke="#000000" d="M285.3692,-133.635C272.119,-119.8169 257.9534,-105.0442 244.9501,-91.4836"/>
<polygon fill="#000000" stroke="#000000" points="237.8588,-84.0884 248.028,-88.1917 241.3194,-87.6974 244.78,-91.3063 244.78,-91.3063 244.78,-91.3063 241.3194,-87.6974 241.532,-94.4208 237.8588,-84.0884 237.8588,-84.0884"/>
</g>
<!-- A14 -->
<g id="node15" class="node">
<title>A14</title>
<polygon fill="none" stroke="#000000" points="389.5,-52 389.5,-84 493.5,-84 493.5,-52 389.5,-52"/>
<text text-anchor="start" x="418.159" y="-65" font-family="Helvetica,sans-Serif" font-size="10.00" fill="#000000">ProductB2</text>
<polygon fill="none" stroke="#000000" points="389.5,-32 389.5,-52 493.5,-52 493.5,-32 389.5,-32"/>
<polygon fill="none" stroke="#000000" points="389.5,0 389.5,-32 493.5,-32 493.5,0 389.5,0"/>
<text text-anchor="start" x="399.4085" y="-13" font-family="Helvetica,sans-Serif" font-size="10.00" fill="#000000">+produceB():String</text>
</g>
<!-- A6&#45;&gt;A14 -->
<g id="edge18" class="edge">
<title>A6&#45;&gt;A14</title>
<path fill="none" stroke="#000000" d="M376.2258,-133.635C385.8865,-120.0728 396.2023,-105.591 405.7139,-92.2382"/>
<polygon fill="#000000" stroke="#000000" points="411.5192,-84.0884 409.3825,-94.8442 408.6183,-88.1609 405.7173,-92.2333 405.7173,-92.2333 405.7173,-92.2333 408.6183,-88.1609 402.0521,-89.6225 411.5192,-84.0884 411.5192,-84.0884"/>
</g>
<!-- A11 -->
<g id="node12" class="node">
<title>A11</title>
<polygon fill="none" stroke="#000000" points="511.5,-52 511.5,-84 615.5,-84 615.5,-52 511.5,-52"/>
<text text-anchor="start" x="540.159" y="-65" font-family="Helvetica,sans-Serif" font-size="10.00" fill="#000000">ProductA3</text>
<polygon fill="none" stroke="#000000" points="511.5,-32 511.5,-52 615.5,-52 615.5,-32 511.5,-32"/>
<polygon fill="none" stroke="#000000" points="511.5,0 511.5,-32 615.5,-32 615.5,0 511.5,0"/>
<text text-anchor="start" x="521.4085" y="-13" font-family="Helvetica,sans-Serif" font-size="10.00" fill="#000000">+produceA():String</text>
</g>
<!-- A7&#45;&gt;A11 -->
<g id="edge19" class="edge">
<title>A7&#45;&gt;A11</title>
<path fill="none" stroke="#000000" d="M592.3713,-133.635C588.2595,-120.5846 583.8795,-106.6827 579.8062,-93.7546"/>
<polygon fill="#000000" stroke="#000000" points="576.7607,-84.0884 584.0579,-92.2739 578.2633,-88.8573 579.7659,-93.6262 579.7659,-93.6262 579.7659,-93.6262 578.2633,-88.8573 575.4739,-94.9786 576.7607,-84.0884 576.7607,-84.0884"/>
</g>
<!-- A15 -->
<g id="node16" class="node">
<title>A15</title>
<polygon fill="none" stroke="#000000" points="633.5,-52 633.5,-84 737.5,-84 737.5,-52 633.5,-52"/>
<text text-anchor="start" x="662.159" y="-65" font-family="Helvetica,sans-Serif" font-size="10.00" fill="#000000">ProductB3</text>
<polygon fill="none" stroke="#000000" points="633.5,-32 633.5,-52 737.5,-52 737.5,-32 633.5,-32"/>
<polygon fill="none" stroke="#000000" points="633.5,0 633.5,-32 737.5,-32 737.5,0 633.5,0"/>
<text text-anchor="start" x="643.4085" y="-13" font-family="Helvetica,sans-Serif" font-size="10.00" fill="#000000">+produceB():String</text>
</g>
<!-- A7&#45;&gt;A15 -->
<g id="edge20" class="edge">
<title>A7&#45;&gt;A15</title>
<path fill="none" stroke="#000000" d="M637.7996,-133.635C644.7261,-120.3287 652.1135,-106.1372 658.9545,-92.9952"/>
<polygon fill="#000000" stroke="#000000" points="663.5909,-84.0884 662.9651,-95.0365 661.2822,-88.5235 658.9735,-92.9586 658.9735,-92.9586 658.9735,-92.9586 661.2822,-88.5235 654.982,-90.8808 663.5909,-84.0884 663.5909,-84.0884"/>
</g>
<!-- A8&#45;&gt;A9 -->
<g id="edge9" class="edge">
<title>A8&#45;&gt;A9</title>
<path fill="none" stroke="#000000" stroke-dasharray="5,2" d="M152.1093,-132.1004C138.0791,-116.2213 123.0383,-99.1984 109.85,-84.2721"/>
<polygon fill="none" stroke="#000000" points="149.6589,-134.6131 158.9031,-139.7895 154.9046,-129.9781 149.6589,-134.6131"/>
</g>
<!-- A8&#45;&gt;A10 -->
<g id="edge10" class="edge">
<title>A8&#45;&gt;A10</title>
<path fill="none" stroke="#000000" stroke-dasharray="5,2" d="M199.8971,-129.4923C199.4828,-114.3705 199.0448,-98.3843 198.6581,-84.2721"/>
<polygon fill="none" stroke="#000000" points="196.4065,-129.8892 200.1792,-139.7895 203.4039,-129.6974 196.4065,-129.8892"/>
</g>
<!-- A8&#45;&gt;A11 -->
<g id="edge11" class="edge">
<title>A8&#45;&gt;A11</title>
<path fill="none" stroke="#000000" stroke-dasharray="5,2" d="M261.222,-134.6533C261.6473,-134.4319 262.0733,-134.2141 262.5,-134 359.888,-85.1413 402.3227,-126.8498 502.5,-84 505.4554,-82.7358 508.4154,-81.3181 511.3507,-79.7887"/>
<polygon fill="none" stroke="#000000" points="259.2915,-131.7273 252.4136,-139.7861 262.8159,-137.7753 259.2915,-131.7273"/>
</g>
<!-- A12&#45;&gt;A13 -->
<g id="edge12" class="edge">
<title>A12&#45;&gt;A13</title>
<path fill="none" stroke="#000000" stroke-dasharray="5,2" d="M414.958,-132.4992C397.9991,-116.4212 379.7708,-99.1398 363.8342,-84.0311"/>
<polygon fill="none" stroke="#000000" points="412.9827,-135.4494 422.6478,-139.7895 417.7988,-130.3694 412.9827,-135.4494"/>
</g>
<!-- A12&#45;&gt;A14 -->
<g id="edge13" class="edge">
<title>A12&#45;&gt;A14</title>
<path fill="none" stroke="#000000" stroke-dasharray="5,2" d="M460.772,-129.9283C457.4295,-114.6781 453.8879,-98.52 450.7651,-84.2721"/>
<polygon fill="none" stroke="#000000" points="457.3734,-130.7707 462.9333,-139.7895 464.2111,-129.272 457.3734,-130.7707"/>
</g>
<!-- A12&#45;&gt;A15 -->
<g id="edge14" class="edge">
<title>A12&#45;&gt;A15</title>
<path fill="none" stroke="#000000" stroke-dasharray="5,2" d="M533.9586,-134.3843C534.1391,-134.2558 534.3196,-134.1277 534.5,-134 571.8517,-107.5675 585.6109,-108.1136 624.5,-84 627.4504,-82.1705 630.4571,-80.2598 633.4752,-78.3053"/>
<polygon fill="none" stroke="#000000" points="531.757,-131.6598 525.8181,-140.4336 535.9322,-137.2783 531.757,-131.6598"/>
</g>
</g>
</svg>
