<?xml version="1.0" encoding="UTF-8" standalone="no"?>
<!DOCTYPE svg PUBLIC "-//W3C//DTD SVG 1.1//EN"
 "http://www.w3.org/Graphics/SVG/1.1/DTD/svg11.dtd">
<!-- Generated by graphviz version 2.40.1 (20161225.0304)
 -->
<!-- Title: G Pages: 1 -->
<svg width="702pt" height="692pt"
 viewBox="0.00 0.00 702.00 692.00" xmlns="http://www.w3.org/2000/svg" xmlns:xlink="http://www.w3.org/1999/xlink">
<g id="graph0" class="graph" transform="scale(1 1) rotate(0) translate(4 688)">
<title>G</title>
<polygon fill="#ffffff" stroke="transparent" points="-4,4 -4,-688 698,-688 698,4 -4,4"/>
<!-- A0 -->
<g id="node1" class="node">
<title>A0</title>
<polygon fill="#fff8dc" stroke="#000000" points="203.6865,-658 110.3135,-658 110.3135,-622 209.6865,-622 209.6865,-652 203.6865,-658"/>
<polyline fill="none" stroke="#000000" points="203.6865,-658 203.6865,-652 "/>
<polyline fill="none" stroke="#000000" points="209.6865,-652 203.6865,-652 "/>
<text text-anchor="middle" x="160" y="-637" font-family="Helvetica,sans-Serif" font-size="10.00" fill="#000000">Abstract Pattern</text>
</g>
<!-- A1 -->
<g id="node2" class="node">
<title>A1</title>
<polygon fill="#ff0000" stroke="transparent" points="227.5,-598 227.5,-682 328.5,-682 328.5,-598 227.5,-598"/>
<polygon fill="none" stroke="#000000" points="228,-650 228,-682 329,-682 329,-650 228,-650"/>
<text text-anchor="start" x="257.3935" y="-663" font-family="Helvetica,sans-Serif" font-size="10.00" fill="#000000">CallClass</text>
<polygon fill="none" stroke="#000000" points="228,-630 228,-650 329,-650 329,-630 228,-630"/>
<polygon fill="none" stroke="#000000" points="228,-598 228,-630 329,-630 329,-598 228,-598"/>
<text text-anchor="start" x="237.803" y="-611" font-family="Helvetica,sans-Serif" font-size="10.00" fill="#000000">+static main():void</text>
</g>
<!-- A3 -->
<g id="node4" class="node">
<title>A3</title>
<polygon fill="none" stroke="#000000" points="220,-514 220,-546 475,-546 475,-514 220,-514"/>
<text text-anchor="start" x="330.8325" y="-527" font-family="Helvetica,sans-Serif" font-size="10.00" fill="#000000">Factory</text>
<polygon fill="none" stroke="#000000" points="220,-494 220,-514 475,-514 475,-494 220,-494"/>
<polygon fill="none" stroke="#000000" points="220,-462 220,-494 475,-494 475,-462 220,-462"/>
<text text-anchor="start" x="229.84" y="-475" font-family="Helvetica,sans-Serif" font-size="10.00" fill="#000000">+generateFactory(FactoryType:type):AbstractFactory</text>
</g>
<!-- A1&#45;&gt;A3 -->
<g id="edge1" class="edge">
<title>A1&#45;&gt;A3</title>
<path fill="none" stroke="#000000" d="M299.4538,-597.7142C306.2688,-584.2819 313.8802,-569.2796 320.9807,-555.2844"/>
<polygon fill="#000000" stroke="#000000" points="325.5595,-546.2596 325.048,-557.2136 323.2972,-550.7186 321.0349,-555.1775 321.0349,-555.1775 321.0349,-555.1775 323.2972,-550.7186 317.0218,-553.1414 325.5595,-546.2596 325.5595,-546.2596"/>
<text text-anchor="middle" x="300.1173" y="-574.7253" font-family="Helvetica,sans-Serif" font-size="10.00" fill="#000000">generateFactory</text>
</g>
<!-- A2 -->
<g id="node3" class="node">
<title>A2</title>
<polygon fill="none" stroke="#000000" points="347,-640 347,-684 487,-684 487,-640 347,-640"/>
<text text-anchor="start" x="392.819" y="-665" font-family="Helvetica,sans-Serif" font-size="10.00" fill="#000000">&lt;&lt;enum&gt;&gt;</text>
<text text-anchor="start" x="389.219" y="-653" font-family="Helvetica,sans-Serif" font-size="10.00" fill="#000000">FactoryType</text>
<polygon fill="none" stroke="#000000" points="347,-596 347,-640 487,-640 487,-596 347,-596"/>
<text text-anchor="start" x="356.584" y="-621" font-family="Helvetica,sans-Serif" font-size="10.00" fill="#000000">+CC_ENUM_FACTORY_A</text>
<text text-anchor="start" x="356.584" y="-609" font-family="Helvetica,sans-Serif" font-size="10.00" fill="#000000">+CC_ENUM_FACTORY_B</text>
</g>
<!-- A2&#45;&gt;A3 -->
<g id="edge2" class="edge">
<title>A2&#45;&gt;A3</title>
<path fill="none" stroke="#000000" stroke-dasharray="5,2" d="M389.5523,-586.673C382.6169,-573.1986 375.2662,-558.9172 368.6608,-546.0839"/>
<polygon fill="#000000" stroke="#000000" points="394.273,-595.8447 385.6954,-589.0127 391.9848,-591.399 389.6965,-586.9533 389.6965,-586.9533 389.6965,-586.9533 391.9848,-591.399 393.6976,-584.8939 394.273,-595.8447 394.273,-595.8447"/>
</g>
<!-- A4 -->
<g id="node5" class="node">
<title>A4</title>
<polygon fill="none" stroke="#000000" points="239,-368 239,-412 455,-412 455,-368 239,-368"/>
<text text-anchor="start" x="317.54" y="-393" font-family="Helvetica,sans-Serif" font-size="10.00" fill="#000000">&lt;&lt;abstruct&gt;&gt;</text>
<text text-anchor="start" x="311.9955" y="-381" font-family="Helvetica,sans-Serif" font-size="10.00" fill="#000000">AbstractFactory</text>
<polygon fill="none" stroke="#000000" points="239,-348 239,-368 455,-368 455,-348 239,-348"/>
<polygon fill="none" stroke="#000000" points="239,-292 239,-348 455,-348 455,-292 239,-292"/>
<text text-anchor="start" x="326.2985" y="-329" font-family="Helvetica,sans-Serif" font-size="10.00" fill="#000000">+abstract</text>
<text text-anchor="start" x="251.697" y="-317" font-family="Helvetica,sans-Serif" font-size="10.00" fill="#000000">getProductA(ProductAType:type):ProductA</text>
<text text-anchor="start" x="248.7775" y="-305" font-family="Helvetica,sans-Serif" font-size="10.00" fill="#000000">+getProductB(ProductBType:type):ProductB</text>
</g>
<!-- A3&#45;&gt;A4 -->
<g id="edge5" class="edge">
<title>A3&#45;&gt;A4</title>
<path fill="none" stroke="#000000" d="M347,-461.6595C347,-449.4096 347,-435.6975 347,-422.2286"/>
<polygon fill="#000000" stroke="#000000" points="347,-412.0045 351.5001,-422.0045 347,-417.0045 347.0001,-422.0045 347.0001,-422.0045 347.0001,-422.0045 347,-417.0045 342.5001,-422.0046 347,-412.0045 347,-412.0045"/>
</g>
<!-- A6 -->
<g id="node7" class="node">
<title>A6</title>
<polygon fill="none" stroke="#000000" points="0,-210 0,-242 216,-242 216,-210 0,-210"/>
<text text-anchor="start" x="87.998" y="-223" font-family="Helvetica,sans-Serif" font-size="10.00" fill="#000000">FactoryA</text>
<polygon fill="none" stroke="#000000" points="0,-190 0,-210 216,-210 216,-190 0,-190"/>
<polygon fill="none" stroke="#000000" points="0,-134 0,-190 216,-190 216,-134 0,-134"/>
<text text-anchor="start" x="85.914" y="-171" font-family="Helvetica,sans-Serif" font-size="10.00" fill="#000000">+Override</text>
<text text-anchor="start" x="12.697" y="-159" font-family="Helvetica,sans-Serif" font-size="10.00" fill="#000000">getProductB(ProductBType:type):ProductB</text>
<text text-anchor="start" x="9.7775" y="-147" font-family="Helvetica,sans-Serif" font-size="10.00" fill="#000000">+getProductA(ProductAType:type):ProductA</text>
</g>
<!-- A4&#45;&gt;A6 -->
<g id="edge6" class="edge">
<title>A4&#45;&gt;A6</title>
<path fill="none" stroke="#000000" stroke-dasharray="5,2" d="M250.9577,-286.0965C229.6992,-271.509 207.4097,-256.2142 186.9251,-242.1578"/>
<polygon fill="none" stroke="#000000" points="249.1366,-289.0916 259.3623,-291.8637 253.0972,-283.3198 249.1366,-289.0916"/>
</g>
<!-- A7 -->
<g id="node8" class="node">
<title>A7</title>
<polygon fill="none" stroke="#000000" points="356,-192 356,-236 460,-236 460,-192 356,-192"/>
<text text-anchor="start" x="377.151" y="-217" font-family="Helvetica,sans-Serif" font-size="10.00" fill="#000000">&lt;&lt;interface&gt;&gt;</text>
<text text-anchor="start" x="387.4385" y="-205" font-family="Helvetica,sans-Serif" font-size="10.00" fill="#000000">ProductA</text>
<polygon fill="none" stroke="#000000" points="356,-172 356,-192 460,-192 460,-172 356,-172"/>
<polygon fill="none" stroke="#000000" points="356,-140 356,-172 460,-172 460,-140 356,-140"/>
<text text-anchor="start" x="365.9085" y="-153" font-family="Helvetica,sans-Serif" font-size="10.00" fill="#000000">+produceA():String</text>
</g>
<!-- A4&#45;&gt;A7 -->
<g id="edge8" class="edge">
<title>A4&#45;&gt;A7</title>
<path fill="none" stroke="#000000" stroke-dasharray="5,2" d="M369.3678,-291.8637C374.9742,-276.7906 380.9762,-260.6542 386.5375,-245.7026"/>
<polygon fill="#000000" stroke="#000000" points="390.1198,-236.0714 390.8512,-247.0129 388.3767,-240.7577 386.6336,-245.4441 386.6336,-245.4441 386.6336,-245.4441 388.3767,-240.7577 382.4159,-243.8753 390.1198,-236.0714 390.1198,-236.0714"/>
</g>
<!-- A11 -->
<g id="node12" class="node">
<title>A11</title>
<polygon fill="none" stroke="#000000" points="478,-210 478,-242 694,-242 694,-210 478,-210"/>
<text text-anchor="start" x="565.998" y="-223" font-family="Helvetica,sans-Serif" font-size="10.00" fill="#000000">FactoryB</text>
<polygon fill="none" stroke="#000000" points="478,-190 478,-210 694,-210 694,-190 478,-190"/>
<polygon fill="none" stroke="#000000" points="478,-134 478,-190 694,-190 694,-134 478,-134"/>
<text text-anchor="start" x="563.914" y="-171" font-family="Helvetica,sans-Serif" font-size="10.00" fill="#000000">+Override</text>
<text text-anchor="start" x="490.697" y="-159" font-family="Helvetica,sans-Serif" font-size="10.00" fill="#000000">getProductA(ProductAType:type):ProductA</text>
<text text-anchor="start" x="487.7775" y="-147" font-family="Helvetica,sans-Serif" font-size="10.00" fill="#000000">+getProductB(ProductBType:type):ProductB</text>
</g>
<!-- A4&#45;&gt;A11 -->
<g id="edge7" class="edge">
<title>A4&#45;&gt;A11</title>
<path fill="none" stroke="#000000" stroke-dasharray="5,2" d="M443.0423,-286.0965C464.3008,-271.509 486.5903,-256.2142 507.0749,-242.1578"/>
<polygon fill="none" stroke="#000000" points="440.9028,-283.3198 434.6377,-291.8637 444.8634,-289.0916 440.9028,-283.3198"/>
</g>
<!-- A12 -->
<g id="node13" class="node">
<title>A12</title>
<polygon fill="none" stroke="#000000" points="234,-192 234,-236 338,-236 338,-192 234,-192"/>
<text text-anchor="start" x="255.151" y="-217" font-family="Helvetica,sans-Serif" font-size="10.00" fill="#000000">&lt;&lt;interface&gt;&gt;</text>
<text text-anchor="start" x="265.4385" y="-205" font-family="Helvetica,sans-Serif" font-size="10.00" fill="#000000">ProductB</text>
<polygon fill="none" stroke="#000000" points="234,-172 234,-192 338,-192 338,-172 234,-172"/>
<polygon fill="none" stroke="#000000" points="234,-140 234,-172 338,-172 338,-140 234,-140"/>
<text text-anchor="start" x="243.9085" y="-153" font-family="Helvetica,sans-Serif" font-size="10.00" fill="#000000">+produceB():String</text>
</g>
<!-- A4&#45;&gt;A12 -->
<g id="edge9" class="edge">
<title>A4&#45;&gt;A12</title>
<path fill="none" stroke="#000000" stroke-dasharray="5,2" d="M324.6322,-291.8637C319.0258,-276.7906 313.0238,-260.6542 307.4625,-245.7026"/>
<polygon fill="#000000" stroke="#000000" points="303.8802,-236.0714 311.5841,-243.8753 305.6233,-240.7577 307.3664,-245.4441 307.3664,-245.4441 307.3664,-245.4441 305.6233,-240.7577 303.1488,-247.0129 303.8802,-236.0714 303.8802,-236.0714"/>
</g>
<!-- A5 -->
<g id="node6" class="node">
<title>A5</title>
<polygon fill="none" stroke="#000000" points="32,-352 32,-396 185,-396 185,-352 32,-352"/>
<text text-anchor="start" x="84.319" y="-377" font-family="Helvetica,sans-Serif" font-size="10.00" fill="#000000">&lt;&lt;enum&gt;&gt;</text>
<text text-anchor="start" x="76.825" y="-365" font-family="Helvetica,sans-Serif" font-size="10.00" fill="#000000">ProductAType</text>
<polygon fill="none" stroke="#000000" points="32,-308 32,-352 185,-352 185,-308 32,-308"/>
<text text-anchor="start" x="41.695" y="-333" font-family="Helvetica,sans-Serif" font-size="10.00" fill="#000000">+CC_ENUM_PRODUCT_A_1</text>
<text text-anchor="start" x="41.695" y="-321" font-family="Helvetica,sans-Serif" font-size="10.00" fill="#000000">+CC_ENUM_PRODUCT_A_2</text>
</g>
<!-- A5&#45;&gt;A6 -->
<g id="edge3" class="edge">
<title>A5&#45;&gt;A6</title>
<path fill="none" stroke="#000000" stroke-dasharray="5,2" d="M108,-297.3899C108,-279.5836 108,-259.8306 108,-242.0645"/>
<polygon fill="#000000" stroke="#000000" points="108,-307.6192 103.5001,-297.6192 108,-302.6192 108.0001,-297.6192 108.0001,-297.6192 108.0001,-297.6192 108,-302.6192 112.5001,-297.6193 108,-307.6192 108,-307.6192"/>
</g>
<!-- A8 -->
<g id="node9" class="node">
<title>A8</title>
<polygon fill="none" stroke="#000000" points="262,-52 262,-84 366,-84 366,-52 262,-52"/>
<text text-anchor="start" x="290.659" y="-65" font-family="Helvetica,sans-Serif" font-size="10.00" fill="#000000">ProductA1</text>
<polygon fill="none" stroke="#000000" points="262,-32 262,-52 366,-52 366,-32 262,-32"/>
<polygon fill="none" stroke="#000000" points="262,0 262,-32 366,-32 366,0 262,0"/>
<text text-anchor="start" x="271.9085" y="-13" font-family="Helvetica,sans-Serif" font-size="10.00" fill="#000000">+produceA():String</text>
</g>
<!-- A6&#45;&gt;A8 -->
<g id="edge14" class="edge">
<title>A6&#45;&gt;A8</title>
<path fill="none" stroke="#000000" d="M184.4141,-133.8425C207.1581,-117.7229 231.7587,-100.2876 253.3521,-84.9835"/>
<polygon fill="#000000" stroke="#000000" points="261.7809,-79.0097 256.2242,-88.4635 257.7015,-81.9009 253.6222,-84.7921 253.6222,-84.7921 253.6222,-84.7921 257.7015,-81.9009 251.0201,-81.1207 261.7809,-79.0097 261.7809,-79.0097"/>
</g>
<!-- A13 -->
<g id="node14" class="node">
<title>A13</title>
<polygon fill="none" stroke="#000000" points="112,-52 112,-84 216,-84 216,-52 112,-52"/>
<text text-anchor="start" x="140.659" y="-65" font-family="Helvetica,sans-Serif" font-size="10.00" fill="#000000">ProductB1</text>
<polygon fill="none" stroke="#000000" points="112,-32 112,-52 216,-52 216,-32 112,-32"/>
<polygon fill="none" stroke="#000000" points="112,0 112,-32 216,-32 216,0 112,0"/>
<text text-anchor="start" x="121.9085" y="-13" font-family="Helvetica,sans-Serif" font-size="10.00" fill="#000000">+produceB():String</text>
</g>
<!-- A6&#45;&gt;A13 -->
<g id="edge15" class="edge">
<title>A6&#45;&gt;A13</title>
<path fill="none" stroke="#000000" d="M128.8523,-133.635C133.858,-120.5846 139.1902,-106.6827 144.1489,-93.7546"/>
<polygon fill="#000000" stroke="#000000" points="147.8565,-84.0884 148.4767,-95.0368 146.0658,-88.7568 144.2752,-93.4252 144.2752,-93.4252 144.2752,-93.4252 146.0658,-88.7568 140.0737,-91.8136 147.8565,-84.0884 147.8565,-84.0884"/>
</g>
<!-- A7&#45;&gt;A8 -->
<g id="edge10" class="edge">
<title>A7&#45;&gt;A8</title>
<path fill="none" stroke="#000000" stroke-dasharray="5,2" d="M371.4515,-131.2332C361.3882,-115.603 350.6517,-98.927 341.2163,-84.2721"/>
<polygon fill="none" stroke="#000000" points="368.6041,-133.2762 376.9604,-139.7895 374.4897,-129.4868 368.6041,-133.2762"/>
</g>
<!-- A9 -->
<g id="node10" class="node">
<title>A9</title>
<polygon fill="none" stroke="#000000" points="527,-52 527,-84 631,-84 631,-52 527,-52"/>
<text text-anchor="start" x="555.659" y="-65" font-family="Helvetica,sans-Serif" font-size="10.00" fill="#000000">ProductA2</text>
<polygon fill="none" stroke="#000000" points="527,-32 527,-52 631,-52 631,-32 527,-32"/>
<polygon fill="none" stroke="#000000" points="527,0 527,-32 631,-32 631,0 527,0"/>
<text text-anchor="start" x="536.9085" y="-13" font-family="Helvetica,sans-Serif" font-size="10.00" fill="#000000">+produceA():String</text>
</g>
<!-- A7&#45;&gt;A9 -->
<g id="edge11" class="edge">
<title>A7&#45;&gt;A9</title>
<path fill="none" stroke="#000000" stroke-dasharray="5,2" d="M467.9114,-134.9375C468.2753,-134.6239 468.6382,-134.3114 469,-134 488.1542,-117.5177 509.4117,-99.6429 528.0936,-84.0709"/>
<polygon fill="none" stroke="#000000" points="465.4246,-132.4612 460.1588,-141.6548 470.0084,-137.7516 465.4246,-132.4612"/>
</g>
<!-- A10 -->
<g id="node11" class="node">
<title>A10</title>
<polygon fill="none" stroke="#000000" points="510,-352 510,-396 663,-396 663,-352 510,-352"/>
<text text-anchor="start" x="562.319" y="-377" font-family="Helvetica,sans-Serif" font-size="10.00" fill="#000000">&lt;&lt;enum&gt;&gt;</text>
<text text-anchor="start" x="554.825" y="-365" font-family="Helvetica,sans-Serif" font-size="10.00" fill="#000000">ProductBType</text>
<polygon fill="none" stroke="#000000" points="510,-308 510,-352 663,-352 663,-308 510,-308"/>
<text text-anchor="start" x="519.695" y="-333" font-family="Helvetica,sans-Serif" font-size="10.00" fill="#000000">+CC_ENUM_PRODUCT_B_1</text>
<text text-anchor="start" x="519.695" y="-321" font-family="Helvetica,sans-Serif" font-size="10.00" fill="#000000">+CC_ENUM_PRODUCT_B_2</text>
</g>
<!-- A10&#45;&gt;A11 -->
<g id="edge4" class="edge">
<title>A10&#45;&gt;A11</title>
<path fill="none" stroke="#000000" stroke-dasharray="5,2" d="M586,-297.3899C586,-279.5836 586,-259.8306 586,-242.0645"/>
<polygon fill="#000000" stroke="#000000" points="586,-307.6192 581.5001,-297.6192 586,-302.6192 586.0001,-297.6192 586.0001,-297.6192 586.0001,-297.6192 586,-302.6192 590.5001,-297.6193 586,-307.6192 586,-307.6192"/>
</g>
<!-- A11&#45;&gt;A9 -->
<g id="edge16" class="edge">
<title>A11&#45;&gt;A9</title>
<path fill="none" stroke="#000000" d="M583.3935,-133.635C582.7739,-120.7126 582.1143,-106.9552 581.4996,-94.1351"/>
<polygon fill="#000000" stroke="#000000" points="581.0179,-84.0884 585.9918,-93.8614 581.2574,-89.0827 581.4969,-94.077 581.4969,-94.077 581.4969,-94.077 581.2574,-89.0827 577.0021,-94.2925 581.0179,-84.0884 581.0179,-84.0884"/>
</g>
<!-- A14 -->
<g id="node15" class="node">
<title>A14</title>
<polygon fill="none" stroke="#000000" points="398,-52 398,-84 502,-84 502,-52 398,-52"/>
<text text-anchor="start" x="426.659" y="-65" font-family="Helvetica,sans-Serif" font-size="10.00" fill="#000000">ProductB2</text>
<polygon fill="none" stroke="#000000" points="398,-32 398,-52 502,-52 502,-32 398,-32"/>
<polygon fill="none" stroke="#000000" points="398,0 398,-32 502,-32 502,0 398,0"/>
<text text-anchor="start" x="407.9085" y="-13" font-family="Helvetica,sans-Serif" font-size="10.00" fill="#000000">+produceB():String</text>
</g>
<!-- A11&#45;&gt;A14 -->
<g id="edge17" class="edge">
<title>A11&#45;&gt;A14</title>
<path fill="none" stroke="#000000" d="M535.3586,-133.635C522.487,-119.8169 508.7261,-105.0442 496.0943,-91.4836"/>
<polygon fill="#000000" stroke="#000000" points="489.2057,-84.0884 499.3145,-88.3385 492.6137,-87.7471 496.0217,-91.4057 496.0217,-91.4057 496.0217,-91.4057 492.6137,-87.7471 492.729,-94.4729 489.2057,-84.0884 489.2057,-84.0884"/>
</g>
<!-- A12&#45;&gt;A13 -->
<g id="edge12" class="edge">
<title>A12&#45;&gt;A13</title>
<path fill="none" stroke="#000000" stroke-dasharray="5,2" d="M239.2894,-132.1004C226.0206,-116.2213 211.796,-99.1984 199.3233,-84.2721"/>
<polygon fill="none" stroke="#000000" points="236.6165,-134.3602 245.7145,-139.7895 241.9881,-129.8716 236.6165,-134.3602"/>
</g>
<!-- A12&#45;&gt;A14 -->
<g id="edge13" class="edge">
<title>A12&#45;&gt;A14</title>
<path fill="none" stroke="#000000" stroke-dasharray="5,2" d="M346.1985,-134.4086C364.7905,-117.8572 384.9948,-99.8704 402.5954,-84.2017"/>
<polygon fill="none" stroke="#000000" points="343.4834,-132.1398 338.3415,-141.4033 348.1379,-137.3681 343.4834,-132.1398"/>
</g>
</g>
</svg>
