<?xml version="1.0" encoding="UTF-8" standalone="no"?>
<!DOCTYPE svg PUBLIC "-//W3C//DTD SVG 1.1//EN"
 "http://www.w3.org/Graphics/SVG/1.1/DTD/svg11.dtd">
<!-- Generated by graphviz version 2.40.1 (20161225.0304)
 -->
<!-- Title: G Pages: 1 -->
<svg width="533pt" height="692pt"
 viewBox="0.00 0.00 533.00 692.00" xmlns="http://www.w3.org/2000/svg" xmlns:xlink="http://www.w3.org/1999/xlink">
<g id="graph0" class="graph" transform="scale(1 1) rotate(0) translate(4 688)">
<title>G</title>
<polygon fill="#ffffff" stroke="transparent" points="-4,4 -4,-688 529,-688 529,4 -4,4"/>
<!-- A0 -->
<g id="node1" class="node">
<title>A0</title>
<polygon fill="#fff8dc" stroke="#000000" points="118.6865,-658 25.3135,-658 25.3135,-622 124.6865,-622 124.6865,-652 118.6865,-658"/>
<polyline fill="none" stroke="#000000" points="118.6865,-658 118.6865,-652 "/>
<polyline fill="none" stroke="#000000" points="124.6865,-652 118.6865,-652 "/>
<text text-anchor="middle" x="75" y="-637" font-family="Helvetica,sans-Serif" font-size="10.00" fill="#000000">Abstract Pattern</text>
</g>
<!-- A1 -->
<g id="node2" class="node">
<title>A1</title>
<polygon fill="#ff0000" stroke="transparent" points="142.5,-598 142.5,-682 243.5,-682 243.5,-598 142.5,-598"/>
<polygon fill="none" stroke="#000000" points="143,-650 143,-682 244,-682 244,-650 143,-650"/>
<text text-anchor="start" x="172.3935" y="-663" font-family="Helvetica,sans-Serif" font-size="10.00" fill="#000000">CallClass</text>
<polygon fill="none" stroke="#000000" points="143,-630 143,-650 244,-650 244,-630 143,-630"/>
<polygon fill="none" stroke="#000000" points="143,-598 143,-630 244,-630 244,-598 143,-598"/>
<text text-anchor="start" x="152.803" y="-611" font-family="Helvetica,sans-Serif" font-size="10.00" fill="#000000">+static main():void</text>
</g>
<!-- A3 -->
<g id="node4" class="node">
<title>A3</title>
<polygon fill="none" stroke="#000000" points="135,-514 135,-546 390,-546 390,-514 135,-514"/>
<text text-anchor="start" x="245.8325" y="-527" font-family="Helvetica,sans-Serif" font-size="10.00" fill="#000000">Factory</text>
<polygon fill="none" stroke="#000000" points="135,-494 135,-514 390,-514 390,-494 135,-494"/>
<polygon fill="none" stroke="#000000" points="135,-462 135,-494 390,-494 390,-462 135,-462"/>
<text text-anchor="start" x="144.84" y="-475" font-family="Helvetica,sans-Serif" font-size="10.00" fill="#000000">+generateFactory(FactoryType:type):AbstractFactory</text>
</g>
<!-- A1&#45;&gt;A3 -->
<g id="edge1" class="edge">
<title>A1&#45;&gt;A3</title>
<path fill="none" stroke="#000000" d="M214.4538,-597.7142C221.2688,-584.2819 228.8802,-569.2796 235.9807,-555.2844"/>
<polygon fill="#000000" stroke="#000000" points="240.5595,-546.2596 240.048,-557.2136 238.2972,-550.7186 236.0349,-555.1775 236.0349,-555.1775 236.0349,-555.1775 238.2972,-550.7186 232.0218,-553.1414 240.5595,-546.2596 240.5595,-546.2596"/>
<text text-anchor="middle" x="215.1173" y="-574.7253" font-family="Helvetica,sans-Serif" font-size="10.00" fill="#000000">generateFactory</text>
</g>
<!-- A2 -->
<g id="node3" class="node">
<title>A2</title>
<polygon fill="none" stroke="#000000" points="262,-640 262,-684 402,-684 402,-640 262,-640"/>
<text text-anchor="start" x="307.819" y="-665" font-family="Helvetica,sans-Serif" font-size="10.00" fill="#000000">&lt;&lt;enum&gt;&gt;</text>
<text text-anchor="start" x="304.219" y="-653" font-family="Helvetica,sans-Serif" font-size="10.00" fill="#000000">FactoryType</text>
<polygon fill="none" stroke="#000000" points="262,-596 262,-640 402,-640 402,-596 262,-596"/>
<text text-anchor="start" x="271.584" y="-621" font-family="Helvetica,sans-Serif" font-size="10.00" fill="#000000">+CC_ENUM_FACTORY_A</text>
<text text-anchor="start" x="271.584" y="-609" font-family="Helvetica,sans-Serif" font-size="10.00" fill="#000000">+CC_ENUM_FACTORY_B</text>
</g>
<!-- A2&#45;&gt;A3 -->
<g id="edge2" class="edge">
<title>A2&#45;&gt;A3</title>
<path fill="none" stroke="#000000" stroke-dasharray="5,2" d="M304.5523,-586.673C297.6169,-573.1986 290.2662,-558.9172 283.6608,-546.0839"/>
<polygon fill="#000000" stroke="#000000" points="309.273,-595.8447 300.6954,-589.0127 306.9848,-591.399 304.6965,-586.9533 304.6965,-586.9533 304.6965,-586.9533 306.9848,-591.399 308.6976,-584.8939 309.273,-595.8447 309.273,-595.8447"/>
</g>
<!-- A4 -->
<g id="node5" class="node">
<title>A4</title>
<polygon fill="none" stroke="#000000" points="197,-368 197,-412 328,-412 328,-368 197,-368"/>
<text text-anchor="start" x="233.04" y="-393" font-family="Helvetica,sans-Serif" font-size="10.00" fill="#000000">&lt;&lt;abstruct&gt;&gt;</text>
<text text-anchor="start" x="227.4955" y="-381" font-family="Helvetica,sans-Serif" font-size="10.00" fill="#000000">AbstractFactory</text>
<polygon fill="none" stroke="#000000" points="197,-348 197,-368 328,-368 328,-348 197,-348"/>
<polygon fill="none" stroke="#000000" points="197,-292 197,-348 328,-348 328,-292 197,-292"/>
<text text-anchor="start" x="241.7985" y="-329" font-family="Helvetica,sans-Serif" font-size="10.00" fill="#000000">+abstract</text>
<text text-anchor="start" x="209.71" y="-317" font-family="Helvetica,sans-Serif" font-size="10.00" fill="#000000">getProductA():ProductA</text>
<text text-anchor="start" x="206.7905" y="-305" font-family="Helvetica,sans-Serif" font-size="10.00" fill="#000000">+getProductB():ProductB</text>
</g>
<!-- A3&#45;&gt;A4 -->
<g id="edge3" class="edge">
<title>A3&#45;&gt;A4</title>
<path fill="none" stroke="#000000" d="M262,-461.6595C262,-449.4096 262,-435.6975 262,-422.2286"/>
<polygon fill="#000000" stroke="#000000" points="262,-412.0045 266.5001,-422.0045 262,-417.0045 262.0001,-422.0045 262.0001,-422.0045 262.0001,-422.0045 262,-417.0045 257.5001,-422.0046 262,-412.0045 262,-412.0045"/>
</g>
<!-- A5 -->
<g id="node6" class="node">
<title>A5</title>
<polygon fill="none" stroke="#000000" points="123,-210 123,-242 254,-242 254,-210 123,-210"/>
<text text-anchor="start" x="168.498" y="-223" font-family="Helvetica,sans-Serif" font-size="10.00" fill="#000000">FactoryA</text>
<polygon fill="none" stroke="#000000" points="123,-190 123,-210 254,-210 254,-190 123,-190"/>
<polygon fill="none" stroke="#000000" points="123,-134 123,-190 254,-190 254,-134 123,-134"/>
<text text-anchor="start" x="166.414" y="-171" font-family="Helvetica,sans-Serif" font-size="10.00" fill="#000000">+Override</text>
<text text-anchor="start" x="135.71" y="-159" font-family="Helvetica,sans-Serif" font-size="10.00" fill="#000000">getProductB():ProductB</text>
<text text-anchor="start" x="132.7905" y="-147" font-family="Helvetica,sans-Serif" font-size="10.00" fill="#000000">+getProductA():ProductA</text>
</g>
<!-- A4&#45;&gt;A5 -->
<g id="edge4" class="edge">
<title>A4&#45;&gt;A5</title>
<path fill="none" stroke="#000000" stroke-dasharray="5,2" d="M230.6847,-282.5985C224.5851,-269.0805 218.2744,-255.0946 212.4371,-242.1578"/>
<polygon fill="none" stroke="#000000" points="227.5621,-284.1882 234.8653,-291.8637 233.9426,-281.3091 227.5621,-284.1882"/>
</g>
<!-- A6 -->
<g id="node7" class="node">
<title>A6</title>
<polygon fill="none" stroke="#000000" points="0,-192 0,-236 104,-236 104,-192 0,-192"/>
<text text-anchor="start" x="21.151" y="-217" font-family="Helvetica,sans-Serif" font-size="10.00" fill="#000000">&lt;&lt;interface&gt;&gt;</text>
<text text-anchor="start" x="31.4385" y="-205" font-family="Helvetica,sans-Serif" font-size="10.00" fill="#000000">ProductA</text>
<polygon fill="none" stroke="#000000" points="0,-172 0,-192 104,-192 104,-172 0,-172"/>
<polygon fill="none" stroke="#000000" points="0,-140 0,-172 104,-172 104,-140 0,-140"/>
<text text-anchor="start" x="9.9085" y="-153" font-family="Helvetica,sans-Serif" font-size="10.00" fill="#000000">+produceA():String</text>
</g>
<!-- A4&#45;&gt;A6 -->
<g id="edge6" class="edge">
<title>A4&#45;&gt;A6</title>
<path fill="none" stroke="#000000" stroke-dasharray="5,2" d="M196.1424,-305.3102C169.8799,-286.195 139.6211,-263.5395 113,-242 112.732,-241.7831 112.4636,-241.5655 112.1947,-241.3472"/>
<polygon fill="#000000" stroke="#000000" points="104.3174,-234.8408 114.8933,-237.7396 108.1725,-238.025 112.0275,-241.2091 112.0275,-241.2091 112.0275,-241.2091 108.1725,-238.025 109.1618,-244.6787 104.3174,-234.8408 104.3174,-234.8408"/>
</g>
<!-- A9 -->
<g id="node10" class="node">
<title>A9</title>
<polygon fill="none" stroke="#000000" points="272,-210 272,-242 403,-242 403,-210 272,-210"/>
<text text-anchor="start" x="317.498" y="-223" font-family="Helvetica,sans-Serif" font-size="10.00" fill="#000000">FactoryB</text>
<polygon fill="none" stroke="#000000" points="272,-190 272,-210 403,-210 403,-190 272,-190"/>
<polygon fill="none" stroke="#000000" points="272,-134 272,-190 403,-190 403,-134 272,-134"/>
<text text-anchor="start" x="315.414" y="-171" font-family="Helvetica,sans-Serif" font-size="10.00" fill="#000000">+Override</text>
<text text-anchor="start" x="284.71" y="-159" font-family="Helvetica,sans-Serif" font-size="10.00" fill="#000000">getProductA():ProductA</text>
<text text-anchor="start" x="281.7905" y="-147" font-family="Helvetica,sans-Serif" font-size="10.00" fill="#000000">+getProductB():ProductB</text>
</g>
<!-- A4&#45;&gt;A9 -->
<g id="edge5" class="edge">
<title>A4&#45;&gt;A9</title>
<path fill="none" stroke="#000000" stroke-dasharray="5,2" d="M293.7385,-282.5985C299.9205,-269.0805 306.3165,-255.0946 312.2327,-242.1578"/>
<polygon fill="none" stroke="#000000" points="290.4774,-281.3139 289.5014,-291.8637 296.8433,-284.2252 290.4774,-281.3139"/>
</g>
<!-- A10 -->
<g id="node11" class="node">
<title>A10</title>
<polygon fill="none" stroke="#000000" points="421,-192 421,-236 525,-236 525,-192 421,-192"/>
<text text-anchor="start" x="442.151" y="-217" font-family="Helvetica,sans-Serif" font-size="10.00" fill="#000000">&lt;&lt;interface&gt;&gt;</text>
<text text-anchor="start" x="452.4385" y="-205" font-family="Helvetica,sans-Serif" font-size="10.00" fill="#000000">ProductB</text>
<polygon fill="none" stroke="#000000" points="421,-172 421,-192 525,-192 525,-172 421,-172"/>
<polygon fill="none" stroke="#000000" points="421,-140 421,-172 525,-172 525,-140 421,-140"/>
<text text-anchor="start" x="430.9085" y="-153" font-family="Helvetica,sans-Serif" font-size="10.00" fill="#000000">+produceB():String</text>
</g>
<!-- A4&#45;&gt;A10 -->
<g id="edge7" class="edge">
<title>A4&#45;&gt;A10</title>
<path fill="none" stroke="#000000" stroke-dasharray="5,2" d="M327.769,-305.2002C354.019,-286.0695 384.2923,-263.432 411,-242 411.6053,-241.5142 412.213,-241.0247 412.8224,-240.5319"/>
<polygon fill="#000000" stroke="#000000" points="420.8221,-233.967 415.9466,-243.7894 416.957,-237.1389 413.0919,-240.3108 413.0919,-240.3108 413.0919,-240.3108 416.957,-237.1389 410.2371,-236.8322 420.8221,-233.967 420.8221,-233.967"/>
</g>
<!-- A7 -->
<g id="node8" class="node">
<title>A7</title>
<polygon fill="none" stroke="#000000" points="27,-52 27,-84 131,-84 131,-52 27,-52"/>
<text text-anchor="start" x="55.659" y="-65" font-family="Helvetica,sans-Serif" font-size="10.00" fill="#000000">ProductA1</text>
<polygon fill="none" stroke="#000000" points="27,-32 27,-52 131,-52 131,-32 27,-32"/>
<polygon fill="none" stroke="#000000" points="27,0 27,-32 131,-32 131,0 27,0"/>
<text text-anchor="start" x="36.9085" y="-13" font-family="Helvetica,sans-Serif" font-size="10.00" fill="#000000">+produceA():String</text>
</g>
<!-- A5&#45;&gt;A7 -->
<g id="edge12" class="edge">
<title>A5&#45;&gt;A7</title>
<path fill="none" stroke="#000000" d="M147.4124,-133.635C137.2873,-120.0728 126.4755,-105.591 116.5066,-92.2382"/>
<polygon fill="#000000" stroke="#000000" points="110.4222,-84.0884 120.0106,-89.4095 113.4134,-88.095 116.4047,-92.1016 116.4047,-92.1016 116.4047,-92.1016 113.4134,-88.095 112.7987,-94.7937 110.4222,-84.0884 110.4222,-84.0884"/>
</g>
<!-- A11 -->
<g id="node12" class="node">
<title>A11</title>
<polygon fill="none" stroke="#000000" points="292,-52 292,-84 396,-84 396,-52 292,-52"/>
<text text-anchor="start" x="320.659" y="-65" font-family="Helvetica,sans-Serif" font-size="10.00" fill="#000000">ProductB1</text>
<polygon fill="none" stroke="#000000" points="292,-32 292,-52 396,-52 396,-32 292,-32"/>
<polygon fill="none" stroke="#000000" points="292,0 292,-32 396,-32 396,0 292,0"/>
<text text-anchor="start" x="301.9085" y="-13" font-family="Helvetica,sans-Serif" font-size="10.00" fill="#000000">+produceB():String</text>
</g>
<!-- A5&#45;&gt;A11 -->
<g id="edge13" class="edge">
<title>A5&#45;&gt;A11</title>
<path fill="none" stroke="#000000" d="M246.0886,-133.635C260.9898,-119.689 276.9301,-104.7706 291.5292,-91.1073"/>
<polygon fill="#000000" stroke="#000000" points="299.0288,-84.0884 294.8025,-94.2072 295.3782,-87.505 291.7276,-90.9217 291.7276,-90.9217 291.7276,-90.9217 295.3782,-87.505 288.6526,-87.6361 299.0288,-84.0884 299.0288,-84.0884"/>
</g>
<!-- A6&#45;&gt;A7 -->
<g id="edge8" class="edge">
<title>A6&#45;&gt;A7</title>
<path fill="none" stroke="#000000" stroke-dasharray="5,2" d="M62.7393,-129.9283C65.5595,-114.6781 68.5477,-98.52 71.1826,-84.2721"/>
<polygon fill="none" stroke="#000000" points="59.2926,-129.3197 60.9156,-139.7895 66.1758,-130.5927 59.2926,-129.3197"/>
</g>
<!-- A8 -->
<g id="node9" class="node">
<title>A8</title>
<polygon fill="none" stroke="#000000" points="163,-52 163,-84 267,-84 267,-52 163,-52"/>
<text text-anchor="start" x="191.659" y="-65" font-family="Helvetica,sans-Serif" font-size="10.00" fill="#000000">ProductA2</text>
<polygon fill="none" stroke="#000000" points="163,-32 163,-52 267,-52 267,-32 163,-32"/>
<polygon fill="none" stroke="#000000" points="163,0 163,-32 267,-32 267,0 163,0"/>
<text text-anchor="start" x="172.9085" y="-13" font-family="Helvetica,sans-Serif" font-size="10.00" fill="#000000">+produceA():String</text>
</g>
<!-- A6&#45;&gt;A8 -->
<g id="edge9" class="edge">
<title>A6&#45;&gt;A8</title>
<path fill="none" stroke="#000000" stroke-dasharray="5,2" d="M111.8315,-134.4086C130.3101,-117.8572 150.3912,-99.8704 167.8844,-84.2017"/>
<polygon fill="none" stroke="#000000" points="109.136,-132.1242 104.0224,-141.4033 113.8064,-137.3384 109.136,-132.1242"/>
</g>
<!-- A9&#45;&gt;A8 -->
<g id="edge14" class="edge">
<title>A9&#45;&gt;A8</title>
<path fill="none" stroke="#000000" d="M291.5717,-133.635C280.132,-119.9449 267.9093,-105.3177 256.6644,-91.8606"/>
<polygon fill="#000000" stroke="#000000" points="250.1698,-84.0884 260.0351,-88.8766 253.3759,-87.9252 256.582,-91.7621 256.582,-91.7621 256.582,-91.7621 253.3759,-87.9252 253.1289,-94.6475 250.1698,-84.0884 250.1698,-84.0884"/>
</g>
<!-- A12 -->
<g id="node13" class="node">
<title>A12</title>
<polygon fill="none" stroke="#000000" points="417,-52 417,-84 521,-84 521,-52 417,-52"/>
<text text-anchor="start" x="445.659" y="-65" font-family="Helvetica,sans-Serif" font-size="10.00" fill="#000000">ProductB2</text>
<polygon fill="none" stroke="#000000" points="417,-32 417,-52 521,-52 521,-32 417,-32"/>
<polygon fill="none" stroke="#000000" points="417,0 417,-32 521,-32 521,0 417,0"/>
<text text-anchor="start" x="426.9085" y="-13" font-family="Helvetica,sans-Serif" font-size="10.00" fill="#000000">+produceB():String</text>
</g>
<!-- A9&#45;&gt;A12 -->
<g id="edge15" class="edge">
<title>A9&#45;&gt;A12</title>
<path fill="none" stroke="#000000" d="M386.1519,-133.635C398.5293,-119.9449 411.7539,-105.3177 423.9205,-91.8606"/>
<polygon fill="#000000" stroke="#000000" points="430.9474,-84.0884 427.5789,-94.5242 427.5942,-87.7973 424.2409,-91.5062 424.2409,-91.5062 424.2409,-91.5062 427.5942,-87.7973 420.9029,-88.4883 430.9474,-84.0884 430.9474,-84.0884"/>
</g>
<!-- A10&#45;&gt;A11 -->
<g id="edge10" class="edge">
<title>A10&#45;&gt;A11</title>
<path fill="none" stroke="#000000" stroke-dasharray="5,2" d="M423.6093,-132.1004C409.5791,-116.2213 394.5383,-99.1984 381.35,-84.2721"/>
<polygon fill="none" stroke="#000000" points="421.1589,-134.6131 430.4031,-139.7895 426.4046,-129.9781 421.1589,-134.6131"/>
</g>
<!-- A10&#45;&gt;A12 -->
<g id="edge11" class="edge">
<title>A10&#45;&gt;A12</title>
<path fill="none" stroke="#000000" stroke-dasharray="5,2" d="M471.3971,-129.4923C470.9828,-114.3705 470.5448,-98.3843 470.1581,-84.2721"/>
<polygon fill="none" stroke="#000000" points="467.9065,-129.8892 471.6792,-139.7895 474.9039,-129.6974 467.9065,-129.8892"/>
</g>
</g>
</svg>
