<?xml version="1.0" encoding="UTF-8" standalone="no"?>
<!DOCTYPE svg PUBLIC "-//W3C//DTD SVG 1.1//EN"
 "http://www.w3.org/Graphics/SVG/1.1/DTD/svg11.dtd">
<!-- Generated by graphviz version 2.40.1 (20161225.0304)
 -->
<!-- Title: G Pages: 1 -->
<svg width="937pt" height="1042pt"
 viewBox="0.00 0.00 937.00 1042.00" xmlns="http://www.w3.org/2000/svg" xmlns:xlink="http://www.w3.org/1999/xlink">
<g id="graph0" class="graph" transform="scale(1 1) rotate(0) translate(4 1038)">
<title>G</title>
<polygon fill="#ffffff" stroke="transparent" points="-4,4 -4,-1038 933,-1038 933,4 -4,4"/>
<!-- A0 -->
<g id="node1" class="node">
<title>A0</title>
<polygon fill="#fff8dc" stroke="#000000" points="390.1865,-994 296.8135,-994 296.8135,-958 396.1865,-958 396.1865,-988 390.1865,-994"/>
<polyline fill="none" stroke="#000000" points="390.1865,-994 390.1865,-988 "/>
<polyline fill="none" stroke="#000000" points="396.1865,-988 390.1865,-988 "/>
<text text-anchor="middle" x="346.5" y="-973" font-family="Helvetica,sans-Serif" font-size="10.00" fill="#000000">Abstract Pattern</text>
</g>
<!-- A1 -->
<g id="node2" class="node">
<title>A1</title>
<polygon fill="none" stroke="#000000" points="378.5,-438 378.5,-470 550.5,-470 550.5,-438 378.5,-438"/>
<text text-anchor="start" x="436.719" y="-451" font-family="Helvetica,sans-Serif" font-size="10.00" fill="#000000">FactoryType</text>
<polygon fill="none" stroke="#000000" points="378.5,-406 378.5,-438 550.5,-438 550.5,-406 378.5,-406"/>
<text text-anchor="start" x="439.7695" y="-419" font-family="Helvetica,sans-Serif" font-size="10.00" fill="#000000">type: enum</text>
<polygon fill="none" stroke="#000000" points="378.5,-374 378.5,-406 550.5,-406 550.5,-374 378.5,-374"/>
<text text-anchor="start" x="388.2465" y="-387" font-family="Helvetica,sans-Serif" font-size="10.00" fill="#000000">+CC_ENUM_FACTORY_TYPE_A</text>
<polygon fill="none" stroke="#000000" points="378.5,-342 378.5,-374 550.5,-374 550.5,-342 378.5,-342"/>
<text text-anchor="start" x="388.2465" y="-355" font-family="Helvetica,sans-Serif" font-size="10.00" fill="#000000">+CC_ENUM_FACTORY_TYPE_A</text>
</g>
<!-- A2 -->
<g id="node3" class="node">
<title>A2</title>
<polygon fill="none" stroke="#000000" points="259.5,-246 259.5,-278 455.5,-278 455.5,-246 259.5,-246"/>
<text text-anchor="start" x="326.3845" y="-259" font-family="Helvetica,sans-Serif" font-size="10.00" fill="#000000">FactoryAType</text>
<polygon fill="none" stroke="#000000" points="259.5,-214 259.5,-246 455.5,-246 455.5,-214 259.5,-214"/>
<text text-anchor="start" x="332.7695" y="-227" font-family="Helvetica,sans-Serif" font-size="10.00" fill="#000000">type: enum</text>
<polygon fill="none" stroke="#000000" points="259.5,-170 259.5,-214 455.5,-214 455.5,-170 259.5,-170"/>
<text text-anchor="start" x="269.308" y="-195" font-family="Helvetica,sans-Serif" font-size="10.00" fill="#000000">+CC_ENUM_FACTORYA_METHOD_A</text>
<text text-anchor="start" x="269.308" y="-183" font-family="Helvetica,sans-Serif" font-size="10.00" fill="#000000">+CC_ENUM_FACTORYA_METHOD_B</text>
</g>
<!-- A1&#45;&gt;A2 -->
<g id="edge2" class="edge">
<title>A1&#45;&gt;A2</title>
<path fill="none" stroke="#000000" stroke-dasharray="5,2" d="M421.5595,-332.961C410.8207,-314.695 399.4908,-295.4236 389.3947,-278.2507"/>
<polygon fill="none" stroke="#000000" points="418.6904,-334.9869 426.7758,-341.8336 424.7248,-331.4392 418.6904,-334.9869"/>
</g>
<!-- A3 -->
<g id="node4" class="node">
<title>A3</title>
<polygon fill="none" stroke="#000000" points="473.5,-246 473.5,-278 669.5,-278 669.5,-246 473.5,-246"/>
<text text-anchor="start" x="540.3845" y="-259" font-family="Helvetica,sans-Serif" font-size="10.00" fill="#000000">FactoryBType</text>
<polygon fill="none" stroke="#000000" points="473.5,-214 473.5,-246 669.5,-246 669.5,-214 473.5,-214"/>
<text text-anchor="start" x="546.7695" y="-227" font-family="Helvetica,sans-Serif" font-size="10.00" fill="#000000">type: enum</text>
<polygon fill="none" stroke="#000000" points="473.5,-170 473.5,-214 669.5,-214 669.5,-170 473.5,-170"/>
<text text-anchor="start" x="483.308" y="-195" font-family="Helvetica,sans-Serif" font-size="10.00" fill="#000000">+CC_ENUM_FACTORYB_METHOD_A</text>
<text text-anchor="start" x="483.308" y="-183" font-family="Helvetica,sans-Serif" font-size="10.00" fill="#000000">+CC_ENUM_FACTORYB_METHOD_B</text>
</g>
<!-- A1&#45;&gt;A3 -->
<g id="edge3" class="edge">
<title>A1&#45;&gt;A3</title>
<path fill="none" stroke="#000000" stroke-dasharray="5,2" d="M507.4405,-332.961C518.1793,-314.695 529.5092,-295.4236 539.6053,-278.2507"/>
<polygon fill="none" stroke="#000000" points="504.2752,-331.4392 502.2242,-341.8336 510.3096,-334.9869 504.2752,-331.4392"/>
</g>
<!-- A4 -->
<g id="node5" class="node">
<title>A4</title>
<polygon fill="#ff0000" stroke="transparent" points="414,-918 414,-1034 515,-1034 515,-918 414,-918"/>
<polygon fill="none" stroke="#000000" points="414.5,-1002 414.5,-1034 515.5,-1034 515.5,-1002 414.5,-1002"/>
<text text-anchor="start" x="443.8935" y="-1015" font-family="Helvetica,sans-Serif" font-size="10.00" fill="#000000">CallClass</text>
<polygon fill="none" stroke="#000000" points="414.5,-970 414.5,-1002 515.5,-1002 515.5,-970 414.5,-970"/>
<text text-anchor="start" x="441.3835" y="-983" font-family="Helvetica,sans-Serif" font-size="10.00" fill="#000000">type: class</text>
<polygon fill="none" stroke="#000000" points="414.5,-950 414.5,-970 515.5,-970 515.5,-950 414.5,-950"/>
<polygon fill="none" stroke="#000000" points="414.5,-918 414.5,-950 515.5,-950 515.5,-918 414.5,-918"/>
<text text-anchor="start" x="424.303" y="-931" font-family="Helvetica,sans-Serif" font-size="10.00" fill="#000000">+static main():void</text>
</g>
<!-- A5 -->
<g id="node6" class="node">
<title>A5</title>
<polygon fill="none" stroke="#000000" points="337.5,-836 337.5,-868 592.5,-868 592.5,-836 337.5,-836"/>
<text text-anchor="start" x="448.3325" y="-849" font-family="Helvetica,sans-Serif" font-size="10.00" fill="#000000">Factory</text>
<polygon fill="none" stroke="#000000" points="337.5,-804 337.5,-836 592.5,-836 592.5,-804 337.5,-804"/>
<text text-anchor="start" x="441.3835" y="-817" font-family="Helvetica,sans-Serif" font-size="10.00" fill="#000000">type: class</text>
<polygon fill="none" stroke="#000000" points="337.5,-784 337.5,-804 592.5,-804 592.5,-784 337.5,-784"/>
<polygon fill="none" stroke="#000000" points="337.5,-752 337.5,-784 592.5,-784 592.5,-752 337.5,-752"/>
<text text-anchor="start" x="347.34" y="-765" font-family="Helvetica,sans-Serif" font-size="10.00" fill="#000000">+generateFactory(FactoryType:type):AbstractFactory</text>
</g>
<!-- A4&#45;&gt;A5 -->
<g id="edge1" class="edge">
<title>A4&#45;&gt;A5</title>
<path fill="none" stroke="#000000" d="M464.5,-917.9413C464.5,-905.0521 464.5,-891.2782 464.5,-878.0306"/>
<polygon fill="#000000" stroke="#000000" points="464.5,-868.026 469.0001,-878.0259 464.5,-873.026 464.5001,-878.026 464.5001,-878.026 464.5001,-878.026 464.5,-873.026 460.0001,-878.026 464.5,-868.026 464.5,-868.026"/>
<text text-anchor="middle" x="456.0476" y="-896.8151" font-family="Helvetica,sans-Serif" font-size="10.00" fill="#000000">generateFactory</text>
</g>
<!-- A6 -->
<g id="node7" class="node">
<title>A6</title>
<polygon fill="none" stroke="#000000" points="322.5,-670 322.5,-702 607.5,-702 607.5,-670 322.5,-670"/>
<text text-anchor="start" x="429.9955" y="-683" font-family="Helvetica,sans-Serif" font-size="10.00" fill="#000000">AbstractFactory</text>
<polygon fill="none" stroke="#000000" points="322.5,-638 322.5,-670 607.5,-670 607.5,-638 322.5,-638"/>
<text text-anchor="start" x="402.766" y="-651" font-family="Helvetica,sans-Serif" font-size="10.00" fill="#000000">type:abstract&#45;class/interface</text>
<polygon fill="none" stroke="#000000" points="322.5,-618 322.5,-638 607.5,-638 607.5,-618 322.5,-618"/>
<polygon fill="none" stroke="#000000" points="322.5,-574 322.5,-618 607.5,-618 607.5,-574 322.5,-574"/>
<text text-anchor="start" x="444.2985" y="-599" font-family="Helvetica,sans-Serif" font-size="10.00" fill="#000000">+abstract</text>
<text text-anchor="start" x="332.4735" y="-587" font-family="Helvetica,sans-Serif" font-size="10.00" fill="#000000">getFactoryAInterface(FactoryAType:type):FactoryAInterface</text>
<polygon fill="none" stroke="#000000" points="322.5,-530 322.5,-574 607.5,-574 607.5,-530 322.5,-530"/>
<text text-anchor="start" x="444.2985" y="-555" font-family="Helvetica,sans-Serif" font-size="10.00" fill="#000000">+abstract</text>
<text text-anchor="start" x="332.4735" y="-543" font-family="Helvetica,sans-Serif" font-size="10.00" fill="#000000">getFactoryAInterface(FactoryBType:type):FactoryBInterface</text>
</g>
<!-- A5&#45;&gt;A6 -->
<g id="edge5" class="edge">
<title>A5&#45;&gt;A6</title>
<path fill="none" stroke="#000000" d="M464.5,-751.7936C464.5,-739.3422 464.5,-725.8697 464.5,-712.4124"/>
<polygon fill="#000000" stroke="#000000" points="464.5,-702.1415 469.0001,-712.1415 464.5,-707.1415 464.5001,-712.1415 464.5001,-712.1415 464.5001,-712.1415 464.5,-707.1415 460.0001,-712.1416 464.5,-702.1415 464.5,-702.1415"/>
</g>
<!-- A6&#45;&gt;A1 -->
<g id="edge4" class="edge">
<title>A6&#45;&gt;A1</title>
<path fill="none" stroke="#000000" stroke-dasharray="5,2" d="M464.5,-529.979C464.5,-513.5327 464.5,-496.4438 464.5,-480.3994"/>
<polygon fill="#000000" stroke="#000000" points="464.5,-470.0241 469.0001,-480.024 464.5,-475.0241 464.5001,-480.0241 464.5001,-480.0241 464.5001,-480.0241 464.5,-475.0241 460.0001,-480.0241 464.5,-470.0241 464.5,-470.0241"/>
</g>
<!-- A7 -->
<g id="node8" class="node">
<title>A7</title>
<polygon fill="none" stroke="#000000" points="70.5,-448 70.5,-480 360.5,-480 360.5,-448 70.5,-448"/>
<text text-anchor="start" x="195.498" y="-461" font-family="Helvetica,sans-Serif" font-size="10.00" fill="#000000">FactoryA</text>
<polygon fill="none" stroke="#000000" points="70.5,-416 70.5,-448 360.5,-448 360.5,-416 70.5,-416"/>
<text text-anchor="start" x="191.8835" y="-429" font-family="Helvetica,sans-Serif" font-size="10.00" fill="#000000">type: class</text>
<polygon fill="none" stroke="#000000" points="70.5,-396 70.5,-416 360.5,-416 360.5,-396 70.5,-396"/>
<polygon fill="none" stroke="#000000" points="70.5,-364 70.5,-396 360.5,-396 360.5,-364 70.5,-364"/>
<text text-anchor="start" x="80.054" y="-377" font-family="Helvetica,sans-Serif" font-size="10.00" fill="#000000">+getFactoryAInterface(FactoryAType:type):FactoryAInterface</text>
<polygon fill="none" stroke="#000000" points="70.5,-332 70.5,-364 360.5,-364 360.5,-332 70.5,-332"/>
<text text-anchor="start" x="80.054" y="-345" font-family="Helvetica,sans-Serif" font-size="10.00" fill="#000000">+getFactoryBInterface(FactoryAType:type):FactoryAInterface</text>
</g>
<!-- A6&#45;&gt;A7 -->
<g id="edge6" class="edge">
<title>A6&#45;&gt;A7</title>
<path fill="none" stroke="#000000" stroke-dasharray="5,2" d="M354.6549,-523.3595C337.5041,-508.895 319.9771,-494.1133 303.4003,-480.1328"/>
<polygon fill="none" stroke="#000000" points="352.6029,-526.2075 362.5037,-529.979 357.1158,-520.8565 352.6029,-526.2075"/>
</g>
<!-- A8 -->
<g id="node9" class="node">
<title>A8</title>
<polygon fill="none" stroke="#000000" points="568.5,-448 568.5,-480 858.5,-480 858.5,-448 568.5,-448"/>
<text text-anchor="start" x="693.498" y="-461" font-family="Helvetica,sans-Serif" font-size="10.00" fill="#000000">FactoryB</text>
<polygon fill="none" stroke="#000000" points="568.5,-416 568.5,-448 858.5,-448 858.5,-416 568.5,-416"/>
<text text-anchor="start" x="689.8835" y="-429" font-family="Helvetica,sans-Serif" font-size="10.00" fill="#000000">type: class</text>
<polygon fill="none" stroke="#000000" points="568.5,-396 568.5,-416 858.5,-416 858.5,-396 568.5,-396"/>
<polygon fill="none" stroke="#000000" points="568.5,-364 568.5,-396 858.5,-396 858.5,-364 568.5,-364"/>
<text text-anchor="start" x="578.054" y="-377" font-family="Helvetica,sans-Serif" font-size="10.00" fill="#000000">+getFactoryAInterface(FactoryAType:type):FactoryBInterface</text>
<polygon fill="none" stroke="#000000" points="568.5,-332 568.5,-364 858.5,-364 858.5,-332 568.5,-332"/>
<text text-anchor="start" x="578.054" y="-345" font-family="Helvetica,sans-Serif" font-size="10.00" fill="#000000">+getFactoryBInterface(FactoryAType:type):FactoryAInterface</text>
</g>
<!-- A6&#45;&gt;A8 -->
<g id="edge7" class="edge">
<title>A6&#45;&gt;A8</title>
<path fill="none" stroke="#000000" stroke-dasharray="5,2" d="M574.3451,-523.3595C591.4959,-508.895 609.0229,-494.1133 625.5997,-480.1328"/>
<polygon fill="none" stroke="#000000" points="571.8842,-520.8565 566.4963,-529.979 576.3971,-526.2075 571.8842,-520.8565"/>
</g>
<!-- A7&#45;&gt;A2 -->
<g id="edge13" class="edge">
<title>A7&#45;&gt;A2</title>
<path fill="none" stroke="#000000" stroke-dasharray="5,2" d="M273.2568,-331.9736C285.1128,-316.778 297.4795,-300.9277 308.9707,-286.1995"/>
<polygon fill="#000000" stroke="#000000" points="315.2558,-278.144 312.6522,-288.7963 312.1801,-282.0861 309.1043,-286.0282 309.1043,-286.0282 309.1043,-286.0282 312.1801,-282.0861 305.5565,-283.2601 315.2558,-278.144 315.2558,-278.144"/>
</g>
<!-- A9 -->
<g id="node10" class="node">
<title>A9</title>
<polygon fill="none" stroke="#000000" points="80.5,-250 80.5,-282 203.5,-282 203.5,-250 80.5,-250"/>
<text text-anchor="start" x="102.547" y="-263" font-family="Helvetica,sans-Serif" font-size="10.00" fill="#000000">FactoryAInterface</text>
<polygon fill="none" stroke="#000000" points="80.5,-218 80.5,-250 203.5,-250 203.5,-218 80.5,-218"/>
<text text-anchor="start" x="110.6015" y="-231" font-family="Helvetica,sans-Serif" font-size="10.00" fill="#000000">type: interface</text>
<polygon fill="none" stroke="#000000" points="80.5,-198 80.5,-218 203.5,-218 203.5,-198 80.5,-198"/>
<polygon fill="none" stroke="#000000" points="80.5,-166 80.5,-198 203.5,-198 203.5,-166 80.5,-166"/>
<text text-anchor="start" x="90.185" y="-179" font-family="Helvetica,sans-Serif" font-size="10.00" fill="#000000">+invokeMethod():String</text>
</g>
<!-- A7&#45;&gt;A9 -->
<g id="edge8" class="edge">
<title>A7&#45;&gt;A9</title>
<path fill="none" stroke="#000000" stroke-dasharray="5,2" d="M185.4014,-331.9736C179.9597,-318.5902 174.3116,-304.6989 168.9506,-291.5137"/>
<polygon fill="#000000" stroke="#000000" points="165.1048,-282.055 173.04,-289.6236 166.9881,-286.6868 168.8714,-291.3186 168.8714,-291.3186 168.8714,-291.3186 166.9881,-286.6868 164.7028,-293.0135 165.1048,-282.055 165.1048,-282.055"/>
</g>
<!-- A11 -->
<g id="node12" class="node">
<title>A11</title>
<polygon fill="none" stroke="#000000" points=".5,-84 .5,-116 123.5,-116 123.5,-84 .5,-84"/>
<text text-anchor="start" x="29.2205" y="-97" font-family="Helvetica,sans-Serif" font-size="10.00" fill="#000000">FactoryAImplA</text>
<polygon fill="none" stroke="#000000" points=".5,-52 .5,-84 123.5,-84 123.5,-52 .5,-52"/>
<text text-anchor="start" x="38.3835" y="-65" font-family="Helvetica,sans-Serif" font-size="10.00" fill="#000000">type: class</text>
<polygon fill="none" stroke="#000000" points=".5,-32 .5,-52 123.5,-52 123.5,-32 .5,-32"/>
<polygon fill="none" stroke="#000000" points=".5,0 .5,-32 123.5,-32 123.5,0 .5,0"/>
<text text-anchor="start" x="10.185" y="-13" font-family="Helvetica,sans-Serif" font-size="10.00" fill="#000000">+invokeMethod():String</text>
</g>
<!-- A7&#45;&gt;A11 -->
<g id="edge9" class="edge">
<title>A7&#45;&gt;A11</title>
<path fill="none" stroke="#000000" stroke-dasharray="5,2" d="M106.9835,-331.769C92.3806,-317.0056 79.3924,-300.3275 70.5,-282 47.1233,-233.8198 46.2755,-172.7218 50.4922,-126.5104"/>
<polygon fill="#000000" stroke="#000000" points="51.5283,-116.2929 54.9964,-126.6959 51.0238,-121.2674 50.5193,-126.2419 50.5193,-126.2419 50.5193,-126.2419 51.0238,-121.2674 46.0423,-125.7879 51.5283,-116.2929 51.5283,-116.2929"/>
</g>
<!-- A12 -->
<g id="node13" class="node">
<title>A12</title>
<polygon fill="none" stroke="#000000" points="151.5,-84 151.5,-116 274.5,-116 274.5,-84 151.5,-84"/>
<text text-anchor="start" x="180.2205" y="-97" font-family="Helvetica,sans-Serif" font-size="10.00" fill="#000000">FactoryAImplB</text>
<polygon fill="none" stroke="#000000" points="151.5,-52 151.5,-84 274.5,-84 274.5,-52 151.5,-52"/>
<text text-anchor="start" x="189.3835" y="-65" font-family="Helvetica,sans-Serif" font-size="10.00" fill="#000000">type: class</text>
<polygon fill="none" stroke="#000000" points="151.5,-32 151.5,-52 274.5,-52 274.5,-32 151.5,-32"/>
<polygon fill="none" stroke="#000000" points="151.5,0 151.5,-32 274.5,-32 274.5,0 151.5,0"/>
<text text-anchor="start" x="161.185" y="-13" font-family="Helvetica,sans-Serif" font-size="10.00" fill="#000000">+invokeMethod():String</text>
</g>
<!-- A7&#45;&gt;A12 -->
<g id="edge10" class="edge">
<title>A7&#45;&gt;A12</title>
<path fill="none" stroke="#000000" stroke-dasharray="5,2" d="M214.8601,-331.7721C214.3358,-270.9479 213.5996,-185.5564 213.0895,-126.3814"/>
<polygon fill="#000000" stroke="#000000" points="213.0001,-116.017 217.5863,-125.9778 213.0433,-121.0169 213.0864,-126.0167 213.0864,-126.0167 213.0864,-126.0167 213.0433,-121.0169 208.5866,-126.0555 213.0001,-116.017 213.0001,-116.017"/>
</g>
<!-- A8&#45;&gt;A3 -->
<g id="edge14" class="edge">
<title>A8&#45;&gt;A3</title>
<path fill="none" stroke="#000000" stroke-dasharray="5,2" d="M655.7432,-331.9736C643.8872,-316.778 631.5205,-300.9277 620.0293,-286.1995"/>
<polygon fill="#000000" stroke="#000000" points="613.7442,-278.144 623.4435,-283.2601 616.8199,-282.0861 619.8957,-286.0282 619.8957,-286.0282 619.8957,-286.0282 616.8199,-282.0861 616.3478,-288.7963 613.7442,-278.144 613.7442,-278.144"/>
</g>
<!-- A10 -->
<g id="node11" class="node">
<title>A10</title>
<polygon fill="none" stroke="#000000" points="726.5,-250 726.5,-282 849.5,-282 849.5,-250 726.5,-250"/>
<text text-anchor="start" x="748.547" y="-263" font-family="Helvetica,sans-Serif" font-size="10.00" fill="#000000">FactoryBInterface</text>
<polygon fill="none" stroke="#000000" points="726.5,-218 726.5,-250 849.5,-250 849.5,-218 726.5,-218"/>
<text text-anchor="start" x="756.6015" y="-231" font-family="Helvetica,sans-Serif" font-size="10.00" fill="#000000">type: interface</text>
<polygon fill="none" stroke="#000000" points="726.5,-198 726.5,-218 849.5,-218 849.5,-198 726.5,-198"/>
<polygon fill="none" stroke="#000000" points="726.5,-166 726.5,-198 849.5,-198 849.5,-166 726.5,-166"/>
<text text-anchor="start" x="736.185" y="-179" font-family="Helvetica,sans-Serif" font-size="10.00" fill="#000000">+invokeMethod():String</text>
</g>
<!-- A8&#45;&gt;A10 -->
<g id="edge15" class="edge">
<title>A8&#45;&gt;A10</title>
<path fill="none" stroke="#000000" stroke-dasharray="5,2" d="M743.5986,-331.9736C749.0403,-318.5902 754.6884,-304.6989 760.0494,-291.5137"/>
<polygon fill="#000000" stroke="#000000" points="763.8952,-282.055 764.2972,-293.0135 762.0119,-286.6868 760.1286,-291.3186 760.1286,-291.3186 760.1286,-291.3186 762.0119,-286.6868 755.96,-289.6236 763.8952,-282.055 763.8952,-282.055"/>
</g>
<!-- A13 -->
<g id="node14" class="node">
<title>A13</title>
<polygon fill="none" stroke="#000000" points="806.5,-84 806.5,-116 929.5,-116 929.5,-84 806.5,-84"/>
<text text-anchor="start" x="835.2205" y="-97" font-family="Helvetica,sans-Serif" font-size="10.00" fill="#000000">FactoryBImplA</text>
<polygon fill="none" stroke="#000000" points="806.5,-52 806.5,-84 929.5,-84 929.5,-52 806.5,-52"/>
<text text-anchor="start" x="844.3835" y="-65" font-family="Helvetica,sans-Serif" font-size="10.00" fill="#000000">type: class</text>
<polygon fill="none" stroke="#000000" points="806.5,-32 806.5,-52 929.5,-52 929.5,-32 806.5,-32"/>
<polygon fill="none" stroke="#000000" points="806.5,0 806.5,-32 929.5,-32 929.5,0 806.5,0"/>
<text text-anchor="start" x="816.185" y="-13" font-family="Helvetica,sans-Serif" font-size="10.00" fill="#000000">+invokeMethod():String</text>
</g>
<!-- A8&#45;&gt;A13 -->
<g id="edge11" class="edge">
<title>A8&#45;&gt;A13</title>
<path fill="none" stroke="#000000" stroke-dasharray="5,2" d="M822.0165,-331.769C836.6194,-317.0056 849.6076,-300.3275 858.5,-282 881.8767,-233.8198 882.7245,-172.7218 878.5078,-126.5104"/>
<polygon fill="#000000" stroke="#000000" points="877.4717,-116.2929 882.9577,-125.7879 877.9762,-121.2674 878.4807,-126.2419 878.4807,-126.2419 878.4807,-126.2419 877.9762,-121.2674 874.0036,-126.6959 877.4717,-116.2929 877.4717,-116.2929"/>
</g>
<!-- A14 -->
<g id="node15" class="node">
<title>A14</title>
<polygon fill="none" stroke="#000000" points="646.5,-84 646.5,-116 769.5,-116 769.5,-84 646.5,-84"/>
<text text-anchor="start" x="675.2205" y="-97" font-family="Helvetica,sans-Serif" font-size="10.00" fill="#000000">FactoryBImplB</text>
<polygon fill="none" stroke="#000000" points="646.5,-52 646.5,-84 769.5,-84 769.5,-52 646.5,-52"/>
<text text-anchor="start" x="684.3835" y="-65" font-family="Helvetica,sans-Serif" font-size="10.00" fill="#000000">type: class</text>
<polygon fill="none" stroke="#000000" points="646.5,-32 646.5,-52 769.5,-52 769.5,-32 646.5,-32"/>
<polygon fill="none" stroke="#000000" points="646.5,0 646.5,-32 769.5,-32 769.5,0 646.5,0"/>
<text text-anchor="start" x="656.185" y="-13" font-family="Helvetica,sans-Serif" font-size="10.00" fill="#000000">+invokeMethod():String</text>
</g>
<!-- A8&#45;&gt;A14 -->
<g id="edge12" class="edge">
<title>A8&#45;&gt;A14</title>
<path fill="none" stroke="#000000" stroke-dasharray="5,2" d="M712.2202,-331.7721C711.1715,-270.9479 709.6992,-185.5564 708.679,-126.3814"/>
<polygon fill="#000000" stroke="#000000" points="708.5003,-116.017 713.1721,-125.9379 708.5865,-121.0163 708.6728,-126.0156 708.6728,-126.0156 708.6728,-126.0156 708.5865,-121.0163 704.1734,-126.0932 708.5003,-116.017 708.5003,-116.017"/>
</g>
<!-- A9&#45;&gt;A11 -->
<g id="edge16" class="edge">
<title>A9&#45;&gt;A11</title>
<path fill="none" stroke="#000000" stroke-dasharray="5,2" d="M109.0732,-156.7144C102.5736,-143.2277 95.797,-129.1664 89.4643,-116.026"/>
<polygon fill="none" stroke="#000000" points="106.0254,-158.4523 113.5199,-165.9413 112.3314,-155.4133 106.0254,-158.4523"/>
</g>
<!-- A9&#45;&gt;A12 -->
<g id="edge17" class="edge">
<title>A9&#45;&gt;A12</title>
<path fill="none" stroke="#000000" stroke-dasharray="5,2" d="M170.2788,-156.7144C176.0472,-143.2277 182.0614,-129.1664 187.6817,-116.026"/>
<polygon fill="none" stroke="#000000" points="167.0469,-155.3705 166.3324,-165.9413 173.4829,-158.1233 167.0469,-155.3705"/>
</g>
<!-- A10&#45;&gt;A13 -->
<g id="edge18" class="edge">
<title>A10&#45;&gt;A13</title>
<path fill="none" stroke="#000000" stroke-dasharray="5,2" d="M819.9268,-156.7144C826.4264,-143.2277 833.203,-129.1664 839.5357,-116.026"/>
<polygon fill="none" stroke="#000000" points="816.6686,-155.4133 815.4801,-165.9413 822.9746,-158.4523 816.6686,-155.4133"/>
</g>
<!-- A10&#45;&gt;A14 -->
<g id="edge19" class="edge">
<title>A10&#45;&gt;A14</title>
<path fill="none" stroke="#000000" stroke-dasharray="5,2" d="M755.0732,-156.7144C748.5736,-143.2277 741.797,-129.1664 735.4643,-116.026"/>
<polygon fill="none" stroke="#000000" points="752.0254,-158.4523 759.5199,-165.9413 758.3314,-155.4133 752.0254,-158.4523"/>
</g>
</g>
</svg>
