<?xml version="1.0" encoding="UTF-8" standalone="no"?>
<!DOCTYPE svg PUBLIC "-//W3C//DTD SVG 1.1//EN"
 "http://www.w3.org/Graphics/SVG/1.1/DTD/svg11.dtd">
<!-- Generated by graphviz version 2.40.1 (20161225.0304)
 -->
<!-- Title: G Pages: 1 -->
<svg width="794pt" height="700pt"
 viewBox="0.00 0.00 793.50 700.00" xmlns="http://www.w3.org/2000/svg" xmlns:xlink="http://www.w3.org/1999/xlink">
<g id="graph0" class="graph" transform="scale(1 1) rotate(0) translate(4 696)">
<title>G</title>
<polygon fill="#ffffff" stroke="transparent" points="-4,4 -4,-696 789.5,-696 789.5,4 -4,4"/>
<!-- A0 -->
<g id="node1" class="node">
<title>A0</title>
<polygon fill="#fff8dc" stroke="#000000" points="172.1865,-668 78.8135,-668 78.8135,-632 178.1865,-632 178.1865,-662 172.1865,-668"/>
<polyline fill="none" stroke="#000000" points="172.1865,-668 172.1865,-662 "/>
<polyline fill="none" stroke="#000000" points="178.1865,-662 172.1865,-662 "/>
<text text-anchor="middle" x="128.5" y="-647" font-family="Helvetica,sans-Serif" font-size="10.00" fill="#000000">Abstract Pattern</text>
</g>
<!-- A1 -->
<g id="node2" class="node">
<title>A1</title>
<polygon fill="#ff0000" stroke="transparent" points="196,-608 196,-692 297,-692 297,-608 196,-608"/>
<polygon fill="none" stroke="#000000" points="196.5,-660 196.5,-692 297.5,-692 297.5,-660 196.5,-660"/>
<text text-anchor="start" x="225.8935" y="-673" font-family="Helvetica,sans-Serif" font-size="10.00" fill="#000000">CallClass</text>
<polygon fill="none" stroke="#000000" points="196.5,-640 196.5,-660 297.5,-660 297.5,-640 196.5,-640"/>
<polygon fill="none" stroke="#000000" points="196.5,-608 196.5,-640 297.5,-640 297.5,-608 196.5,-608"/>
<text text-anchor="start" x="206.303" y="-621" font-family="Helvetica,sans-Serif" font-size="10.00" fill="#000000">+static main():void</text>
</g>
<!-- A3 -->
<g id="node4" class="node">
<title>A3</title>
<polygon fill="none" stroke="#000000" points="119.5,-526 119.5,-558 374.5,-558 374.5,-526 119.5,-526"/>
<text text-anchor="start" x="230.3325" y="-539" font-family="Helvetica,sans-Serif" font-size="10.00" fill="#000000">Factory</text>
<polygon fill="none" stroke="#000000" points="119.5,-506 119.5,-526 374.5,-526 374.5,-506 119.5,-506"/>
<polygon fill="none" stroke="#000000" points="119.5,-474 119.5,-506 374.5,-506 374.5,-474 119.5,-474"/>
<text text-anchor="start" x="129.34" y="-487" font-family="Helvetica,sans-Serif" font-size="10.00" fill="#000000">+generateFactory(FactoryType:type):AbstractFactory</text>
</g>
<!-- A1&#45;&gt;A3 -->
<g id="edge1" class="edge">
<title>A1&#45;&gt;A3</title>
<path fill="none" stroke="#000000" d="M246.5,-607.9692C246.5,-595.4932 246.5,-581.6692 246.5,-568.6106"/>
<polygon fill="#000000" stroke="#000000" points="246.5,-558.3424 251.0001,-568.3423 246.5,-563.3424 246.5001,-568.3424 246.5001,-568.3424 246.5001,-568.3424 246.5,-563.3424 242.0001,-568.3424 246.5,-558.3424 246.5,-558.3424"/>
<text text-anchor="middle" x="238.0476" y="-586.8431" font-family="Helvetica,sans-Serif" font-size="10.00" fill="#000000">generateFactory</text>
</g>
<!-- A2 -->
<g id="node3" class="node">
<title>A2</title>
<polygon fill="none" stroke="#000000" points="78.5,-364 78.5,-408 218.5,-408 218.5,-364 78.5,-364"/>
<text text-anchor="start" x="124.319" y="-389" font-family="Helvetica,sans-Serif" font-size="10.00" fill="#000000">&lt;&lt;enum&gt;&gt;</text>
<text text-anchor="start" x="120.719" y="-377" font-family="Helvetica,sans-Serif" font-size="10.00" fill="#000000">FactoryType</text>
<polygon fill="none" stroke="#000000" points="78.5,-320 78.5,-364 218.5,-364 218.5,-320 78.5,-320"/>
<text text-anchor="start" x="88.084" y="-345" font-family="Helvetica,sans-Serif" font-size="10.00" fill="#000000">+CC_ENUM_FACTORY_A</text>
<text text-anchor="start" x="88.084" y="-333" font-family="Helvetica,sans-Serif" font-size="10.00" fill="#000000">+CC_ENUM_FACTORY_B</text>
</g>
<!-- A3&#45;&gt;A2 -->
<g id="edge2" class="edge">
<title>A3&#45;&gt;A2</title>
<path fill="none" stroke="#000000" stroke-dasharray="5,2" d="M219.2015,-473.6595C207.8585,-456.0662 194.5711,-435.4572 182.5962,-416.8839"/>
<polygon fill="#000000" stroke="#000000" points="177.0185,-408.2327 186.2193,-414.1989 179.7279,-412.435 182.4373,-416.6373 182.4373,-416.6373 182.4373,-416.6373 179.7279,-412.435 178.6552,-419.0758 177.0185,-408.2327 177.0185,-408.2327"/>
</g>
<!-- A4 -->
<g id="node5" class="node">
<title>A4</title>
<polygon fill="none" stroke="#000000" points="236.5,-380 236.5,-424 452.5,-424 452.5,-380 236.5,-380"/>
<text text-anchor="start" x="315.04" y="-405" font-family="Helvetica,sans-Serif" font-size="10.00" fill="#000000">&lt;&lt;abstruct&gt;&gt;</text>
<text text-anchor="start" x="309.4955" y="-393" font-family="Helvetica,sans-Serif" font-size="10.00" fill="#000000">AbstractFactory</text>
<polygon fill="none" stroke="#000000" points="236.5,-360 236.5,-380 452.5,-380 452.5,-360 236.5,-360"/>
<polygon fill="none" stroke="#000000" points="236.5,-304 236.5,-360 452.5,-360 452.5,-304 236.5,-304"/>
<text text-anchor="start" x="323.7985" y="-341" font-family="Helvetica,sans-Serif" font-size="10.00" fill="#000000">+abstract</text>
<text text-anchor="start" x="249.197" y="-329" font-family="Helvetica,sans-Serif" font-size="10.00" fill="#000000">getProductA(ProductAType:type):ProductA</text>
<text text-anchor="start" x="246.2775" y="-317" font-family="Helvetica,sans-Serif" font-size="10.00" fill="#000000">+getProductB(ProductBType:type):ProductB</text>
</g>
<!-- A3&#45;&gt;A4 -->
<g id="edge5" class="edge">
<title>A3&#45;&gt;A4</title>
<path fill="none" stroke="#000000" d="M273.7985,-473.6595C282.0062,-460.9292 291.232,-446.6198 300.2419,-432.6453"/>
<polygon fill="#000000" stroke="#000000" points="305.8129,-424.0045 304.1762,-434.8476 303.1035,-428.2068 300.3941,-432.4091 300.3941,-432.4091 300.3941,-432.4091 303.1035,-428.2068 296.612,-429.9707 305.8129,-424.0045 305.8129,-424.0045"/>
</g>
<!-- A6 -->
<g id="node7" class="node">
<title>A6</title>
<polygon fill="none" stroke="#000000" points="118.5,-222 118.5,-254 334.5,-254 334.5,-222 118.5,-222"/>
<text text-anchor="start" x="206.498" y="-235" font-family="Helvetica,sans-Serif" font-size="10.00" fill="#000000">FactoryA</text>
<polygon fill="none" stroke="#000000" points="118.5,-202 118.5,-222 334.5,-222 334.5,-202 118.5,-202"/>
<polygon fill="none" stroke="#000000" points="118.5,-146 118.5,-202 334.5,-202 334.5,-146 118.5,-146"/>
<text text-anchor="start" x="204.414" y="-183" font-family="Helvetica,sans-Serif" font-size="10.00" fill="#000000">+Override</text>
<text text-anchor="start" x="131.197" y="-171" font-family="Helvetica,sans-Serif" font-size="10.00" fill="#000000">getProductB(ProductBType:type):ProductB</text>
<text text-anchor="start" x="128.2775" y="-159" font-family="Helvetica,sans-Serif" font-size="10.00" fill="#000000">+getProductA(ProductAType:type):ProductA</text>
</g>
<!-- A4&#45;&gt;A6 -->
<g id="edge6" class="edge">
<title>A4&#45;&gt;A6</title>
<path fill="none" stroke="#000000" stroke-dasharray="5,2" d="M295.1255,-295.3779C285.2258,-281.6189 274.9544,-267.3434 265.4672,-254.1578"/>
<polygon fill="none" stroke="#000000" points="292.5497,-297.7906 301.2312,-303.8637 298.2317,-293.7023 292.5497,-297.7906"/>
</g>
<!-- A11 -->
<g id="node12" class="node">
<title>A11</title>
<polygon fill="none" stroke="#000000" points="355.5,-222 355.5,-254 571.5,-254 571.5,-222 355.5,-222"/>
<text text-anchor="start" x="443.498" y="-235" font-family="Helvetica,sans-Serif" font-size="10.00" fill="#000000">FactoryB</text>
<polygon fill="none" stroke="#000000" points="355.5,-202 355.5,-222 571.5,-222 571.5,-202 355.5,-202"/>
<polygon fill="none" stroke="#000000" points="355.5,-146 355.5,-202 571.5,-202 571.5,-146 355.5,-146"/>
<text text-anchor="start" x="441.414" y="-183" font-family="Helvetica,sans-Serif" font-size="10.00" fill="#000000">+Override</text>
<text text-anchor="start" x="368.197" y="-171" font-family="Helvetica,sans-Serif" font-size="10.00" fill="#000000">getProductA(ProductAType:type):ProductA</text>
<text text-anchor="start" x="365.2775" y="-159" font-family="Helvetica,sans-Serif" font-size="10.00" fill="#000000">+getProductB(ProductBType:type):ProductB</text>
</g>
<!-- A4&#45;&gt;A11 -->
<g id="edge7" class="edge">
<title>A4&#45;&gt;A11</title>
<path fill="none" stroke="#000000" stroke-dasharray="5,2" d="M394.0104,-295.7671C404.0811,-281.8883 414.5447,-267.4678 424.2026,-254.1578"/>
<polygon fill="none" stroke="#000000" points="391.1756,-293.7144 388.1355,-303.8637 396.8413,-297.8254 391.1756,-293.7144"/>
</g>
<!-- A5 -->
<g id="node6" class="node">
<title>A5</title>
<polygon fill="none" stroke="#000000" points=".5,-48 .5,-92 153.5,-92 153.5,-48 .5,-48"/>
<text text-anchor="start" x="52.819" y="-73" font-family="Helvetica,sans-Serif" font-size="10.00" fill="#000000">&lt;&lt;enum&gt;&gt;</text>
<text text-anchor="start" x="45.325" y="-61" font-family="Helvetica,sans-Serif" font-size="10.00" fill="#000000">ProductAType</text>
<polygon fill="none" stroke="#000000" points=".5,-4 .5,-48 153.5,-48 153.5,-4 .5,-4"/>
<text text-anchor="start" x="10.195" y="-29" font-family="Helvetica,sans-Serif" font-size="10.00" fill="#000000">+CC_ENUM_PRODUCT_A_1</text>
<text text-anchor="start" x="10.195" y="-17" font-family="Helvetica,sans-Serif" font-size="10.00" fill="#000000">+CC_ENUM_PRODUCT_A_2</text>
</g>
<!-- A6&#45;&gt;A5 -->
<g id="edge3" class="edge">
<title>A6&#45;&gt;A5</title>
<path fill="none" stroke="#000000" stroke-dasharray="5,2" d="M173.1933,-145.9825C158.2859,-130.8764 142.1274,-114.5024 127.3653,-99.5435"/>
<polygon fill="#000000" stroke="#000000" points="120.2421,-92.3254 130.4692,-96.2823 123.7542,-95.8843 127.2663,-99.4431 127.2663,-99.4431 127.2663,-99.4431 123.7542,-95.8843 124.0633,-102.604 120.2421,-92.3254 120.2421,-92.3254"/>
</g>
<!-- A7 -->
<g id="node8" class="node">
<title>A7</title>
<polygon fill="none" stroke="#000000" points="171.5,-52 171.5,-96 275.5,-96 275.5,-52 171.5,-52"/>
<text text-anchor="start" x="192.651" y="-77" font-family="Helvetica,sans-Serif" font-size="10.00" fill="#000000">&lt;&lt;interface&gt;&gt;</text>
<text text-anchor="start" x="202.9385" y="-65" font-family="Helvetica,sans-Serif" font-size="10.00" fill="#000000">ProductA</text>
<polygon fill="none" stroke="#000000" points="171.5,-32 171.5,-52 275.5,-52 275.5,-32 171.5,-32"/>
<polygon fill="none" stroke="#000000" points="171.5,0 171.5,-32 275.5,-32 275.5,0 171.5,0"/>
<text text-anchor="start" x="181.4085" y="-13" font-family="Helvetica,sans-Serif" font-size="10.00" fill="#000000">+produceA():String</text>
</g>
<!-- A6&#45;&gt;A7 -->
<g id="edge8" class="edge">
<title>A6&#45;&gt;A7</title>
<path fill="none" stroke="#000000" d="M225.4339,-145.9825C225.18,-133.1223 224.9081,-119.3432 224.6507,-106.3006"/>
<polygon fill="#000000" stroke="#000000" points="224.448,-96.0302 229.1445,-105.9394 224.5467,-101.0292 224.6454,-106.0282 224.6454,-106.0282 224.6454,-106.0282 224.5467,-101.0292 220.1463,-106.1171 224.448,-96.0302 224.448,-96.0302"/>
</g>
<!-- A15 -->
<g id="node16" class="node">
<title>A15</title>
<polygon fill="none" stroke="#000000" points="369.2923,-66 293.7077,-66 293.7077,-30 369.2923,-30 369.2923,-66"/>
<text text-anchor="middle" x="331.5" y="-45" font-family="Helvetica,sans-Serif" font-size="10.00" fill="#000000">ProductAA</text>
</g>
<!-- A6&#45;&gt;A15 -->
<g id="edge10" class="edge">
<title>A6&#45;&gt;A15</title>
<path fill="none" stroke="#000000" stroke-dasharray="5,2" d="M263.8147,-145.9825C280.581,-121.7113 299.608,-94.1674 313.2094,-74.4778"/>
<polygon fill="#000000" stroke="#000000" points="319.0493,-66.0239 317.0681,-76.8093 316.2074,-70.1378 313.3656,-74.2517 313.3656,-74.2517 313.3656,-74.2517 316.2074,-70.1378 309.6631,-71.694 319.0493,-66.0239 319.0493,-66.0239"/>
</g>
<!-- A8 -->
<g id="node9" class="node">
<title>A8</title>
<polygon fill="none" stroke="#000000" points="315.5,-660 315.5,-692 419.5,-692 419.5,-660 315.5,-660"/>
<text text-anchor="start" x="344.159" y="-673" font-family="Helvetica,sans-Serif" font-size="10.00" fill="#000000">ProductA1</text>
<polygon fill="none" stroke="#000000" points="315.5,-640 315.5,-660 419.5,-660 419.5,-640 315.5,-640"/>
<polygon fill="none" stroke="#000000" points="315.5,-608 315.5,-640 419.5,-640 419.5,-608 315.5,-608"/>
<text text-anchor="start" x="325.4085" y="-621" font-family="Helvetica,sans-Serif" font-size="10.00" fill="#000000">+produceA():String</text>
</g>
<!-- A9 -->
<g id="node10" class="node">
<title>A9</title>
<polygon fill="none" stroke="#000000" points="437.5,-660 437.5,-692 541.5,-692 541.5,-660 437.5,-660"/>
<text text-anchor="start" x="466.159" y="-673" font-family="Helvetica,sans-Serif" font-size="10.00" fill="#000000">ProductA2</text>
<polygon fill="none" stroke="#000000" points="437.5,-640 437.5,-660 541.5,-660 541.5,-640 437.5,-640"/>
<polygon fill="none" stroke="#000000" points="437.5,-608 437.5,-640 541.5,-640 541.5,-608 437.5,-608"/>
<text text-anchor="start" x="447.4085" y="-621" font-family="Helvetica,sans-Serif" font-size="10.00" fill="#000000">+produceA():String</text>
</g>
<!-- A10 -->
<g id="node11" class="node">
<title>A10</title>
<polygon fill="none" stroke="#000000" points="387.5,-48 387.5,-92 540.5,-92 540.5,-48 387.5,-48"/>
<text text-anchor="start" x="439.819" y="-73" font-family="Helvetica,sans-Serif" font-size="10.00" fill="#000000">&lt;&lt;enum&gt;&gt;</text>
<text text-anchor="start" x="432.325" y="-61" font-family="Helvetica,sans-Serif" font-size="10.00" fill="#000000">ProductBType</text>
<polygon fill="none" stroke="#000000" points="387.5,-4 387.5,-48 540.5,-48 540.5,-4 387.5,-4"/>
<text text-anchor="start" x="397.195" y="-29" font-family="Helvetica,sans-Serif" font-size="10.00" fill="#000000">+CC_ENUM_PRODUCT_B_1</text>
<text text-anchor="start" x="397.195" y="-17" font-family="Helvetica,sans-Serif" font-size="10.00" fill="#000000">+CC_ENUM_PRODUCT_B_2</text>
</g>
<!-- A11&#45;&gt;A10 -->
<g id="edge4" class="edge">
<title>A11&#45;&gt;A10</title>
<path fill="none" stroke="#000000" stroke-dasharray="5,2" d="M463.5,-145.9825C463.5,-131.8377 463.5,-116.5813 463.5,-102.4158"/>
<polygon fill="#000000" stroke="#000000" points="463.5,-92.3254 468.0001,-102.3253 463.5,-97.3254 463.5001,-102.3254 463.5001,-102.3254 463.5001,-102.3254 463.5,-97.3254 459.0001,-102.3254 463.5,-92.3254 463.5,-92.3254"/>
</g>
<!-- A12 -->
<g id="node13" class="node">
<title>A12</title>
<polygon fill="none" stroke="#000000" points="558.5,-52 558.5,-96 662.5,-96 662.5,-52 558.5,-52"/>
<text text-anchor="start" x="579.651" y="-77" font-family="Helvetica,sans-Serif" font-size="10.00" fill="#000000">&lt;&lt;interface&gt;&gt;</text>
<text text-anchor="start" x="589.9385" y="-65" font-family="Helvetica,sans-Serif" font-size="10.00" fill="#000000">ProductB</text>
<polygon fill="none" stroke="#000000" points="558.5,-32 558.5,-52 662.5,-52 662.5,-32 558.5,-32"/>
<polygon fill="none" stroke="#000000" points="558.5,0 558.5,-32 662.5,-32 662.5,0 558.5,0"/>
<text text-anchor="start" x="568.4085" y="-13" font-family="Helvetica,sans-Serif" font-size="10.00" fill="#000000">+produceB():String</text>
</g>
<!-- A11&#45;&gt;A12 -->
<g id="edge9" class="edge">
<title>A11&#45;&gt;A12</title>
<path fill="none" stroke="#000000" d="M515.7406,-145.9825C529.0398,-132.231 543.355,-117.4289 556.729,-103.5999"/>
<polygon fill="#000000" stroke="#000000" points="564.0498,-96.0302 560.3327,-106.3468 560.5738,-99.6243 557.0979,-103.2185 557.0979,-103.2185 557.0979,-103.2185 560.5738,-99.6243 553.8631,-100.0901 564.0498,-96.0302 564.0498,-96.0302"/>
</g>
<!-- A13 -->
<g id="node14" class="node">
<title>A13</title>
<polygon fill="none" stroke="#000000" points="559.5,-660 559.5,-692 663.5,-692 663.5,-660 559.5,-660"/>
<text text-anchor="start" x="588.159" y="-673" font-family="Helvetica,sans-Serif" font-size="10.00" fill="#000000">ProductB1</text>
<polygon fill="none" stroke="#000000" points="559.5,-640 559.5,-660 663.5,-660 663.5,-640 559.5,-640"/>
<polygon fill="none" stroke="#000000" points="559.5,-608 559.5,-640 663.5,-640 663.5,-608 559.5,-608"/>
<text text-anchor="start" x="569.4085" y="-621" font-family="Helvetica,sans-Serif" font-size="10.00" fill="#000000">+produceB():String</text>
</g>
<!-- A14 -->
<g id="node15" class="node">
<title>A14</title>
<polygon fill="none" stroke="#000000" points="681.5,-660 681.5,-692 785.5,-692 785.5,-660 681.5,-660"/>
<text text-anchor="start" x="710.159" y="-673" font-family="Helvetica,sans-Serif" font-size="10.00" fill="#000000">ProductB2</text>
<polygon fill="none" stroke="#000000" points="681.5,-640 681.5,-660 785.5,-660 785.5,-640 681.5,-640"/>
<polygon fill="none" stroke="#000000" points="681.5,-608 681.5,-640 785.5,-640 785.5,-608 681.5,-608"/>
<text text-anchor="start" x="691.4085" y="-621" font-family="Helvetica,sans-Serif" font-size="10.00" fill="#000000">+produceB():String</text>
</g>
</g>
</svg>
