<?xml version="1.0" encoding="UTF-8" standalone="no"?>
<!DOCTYPE svg PUBLIC "-//W3C//DTD SVG 1.1//EN"
 "http://www.w3.org/Graphics/SVG/1.1/DTD/svg11.dtd">
<!-- Generated by graphviz version 2.40.1 (20161225.0304)
 -->
<!-- Title: G Pages: 1 -->
<svg width="249pt" height="716pt"
 viewBox="0.00 0.00 249.00 716.00" xmlns="http://www.w3.org/2000/svg" xmlns:xlink="http://www.w3.org/1999/xlink">
<g id="graph0" class="graph" transform="scale(1 1) rotate(0) translate(4 712)">
<title>G</title>
<polygon fill="#ffffff" stroke="transparent" points="-4,4 -4,-712 245,-712 245,4 -4,4"/>
<!-- A0 -->
<g id="node1" class="node">
<title>A0</title>
<polygon fill="#fff8dc" stroke="#000000" points="110.7862,-694 21.2138,-694 21.2138,-658 116.7862,-658 116.7862,-688 110.7862,-694"/>
<polyline fill="none" stroke="#000000" points="110.7862,-694 110.7862,-688 "/>
<polyline fill="none" stroke="#000000" points="116.7862,-688 110.7862,-688 "/>
<text text-anchor="middle" x="69" y="-679" font-family="Helvetica,sans-Serif" font-size="10.00" fill="#000000">Sample Builder</text>
<text text-anchor="middle" x="69" y="-667" font-family="Helvetica,sans-Serif" font-size="10.00" fill="#000000">Pattern</text>
</g>
<!-- A1 -->
<g id="node2" class="node">
<title>A1</title>
<polygon fill="#ff0000" stroke="transparent" points="134.5,-644 134.5,-708 209.5,-708 209.5,-644 134.5,-644"/>
<polygon fill="none" stroke="#000000" points="135,-676 135,-708 210,-708 210,-676 135,-676"/>
<text text-anchor="start" x="151.3935" y="-689" font-family="Helvetica,sans-Serif" font-size="10.00" fill="#000000">CallClass</text>
<polygon fill="none" stroke="#000000" points="135,-644 135,-676 210,-676 210,-644 135,-644"/>
<text text-anchor="start" x="144.8605" y="-657" font-family="Helvetica,sans-Serif" font-size="10.00" fill="#000000">+main():void</text>
</g>
<!-- A2 -->
<g id="node3" class="node">
<title>A2</title>
<polygon fill="none" stroke="#000000" points="0,-562 0,-594 210,-594 210,-562 0,-562"/>
<text text-anchor="start" x="87.5035" y="-575" font-family="Helvetica,sans-Serif" font-size="10.00" fill="#000000">Director</text>
<polygon fill="none" stroke="#000000" points="0,-542 0,-562 210,-562 210,-542 0,-542"/>
<polygon fill="none" stroke="#000000" points="0,-510 0,-542 210,-542 210,-510 0,-510"/>
<text text-anchor="start" x="9.84" y="-523" font-family="Helvetica,sans-Serif" font-size="10.00" fill="#000000">+generateProduct(Builder: builder):Product</text>
</g>
<!-- A1&#45;&gt;A2 -->
<g id="edge3" class="edge">
<title>A1&#45;&gt;A2</title>
<path fill="none" stroke="#000000" d="M154.5714,-643.7442C147.8922,-631.3825 140.0958,-616.9535 132.6903,-603.2476"/>
<polygon fill="#000000" stroke="#000000" points="127.8958,-594.3743 136.6086,-601.033 130.2727,-598.7733 132.6495,-603.1722 132.6495,-603.1722 132.6495,-603.1722 130.2727,-598.7733 128.6905,-605.3114 127.8958,-594.3743 127.8958,-594.3743"/>
<text text-anchor="middle" x="138.5186" y="-628.815" font-family="Helvetica,sans-Serif" font-size="10.00" fill="#000000">builder</text>
</g>
<!-- A5 -->
<g id="node6" class="node">
<title>A5</title>
<polygon fill="none" stroke="#000000" points="125,-258 125,-290 241,-290 241,-258 125,-258"/>
<text text-anchor="start" x="150.2165" y="-271" font-family="Helvetica,sans-Serif" font-size="10.00" fill="#000000">ProductBuilder</text>
<polygon fill="none" stroke="#000000" points="125,-238 125,-258 241,-258 241,-238 125,-238"/>
<polygon fill="none" stroke="#000000" points="125,-194 125,-238 241,-238 241,-194 125,-194"/>
<text text-anchor="start" x="134.5155" y="-219" font-family="Helvetica,sans-Serif" font-size="10.00" fill="#000000">+buildPartA():boolean</text>
<text text-anchor="start" x="134.5155" y="-207" font-family="Helvetica,sans-Serif" font-size="10.00" fill="#000000">+buildPartB():boolean</text>
</g>
<!-- A1&#45;&gt;A5 -->
<g id="edge2" class="edge">
<title>A1&#45;&gt;A5</title>
<path fill="none" stroke="#000000" d="M195.6437,-643.8196C204.855,-629.3544 214.3136,-611.6005 219,-594 245.8913,-493.0064 221.1396,-370.7825 201.5098,-300.1525"/>
<polygon fill="#000000" stroke="#000000" points="198.6576,-290.1147 205.7196,-298.5038 200.0243,-294.9243 201.391,-299.7339 201.391,-299.7339 201.391,-299.7339 200.0243,-294.9243 197.0623,-300.9639 198.6576,-290.1147 198.6576,-290.1147"/>
</g>
<!-- A3 -->
<g id="node4" class="node">
<title>A3</title>
<polygon fill="none" stroke="#000000" points="69,-428 69,-460 187,-460 187,-428 69,-428"/>
<text text-anchor="start" x="112.4435" y="-441" font-family="Helvetica,sans-Serif" font-size="10.00" fill="#000000">Builder</text>
<polygon fill="none" stroke="#000000" points="69,-396 69,-428 187,-428 187,-396 69,-396"/>
<text text-anchor="start" x="91.047" y="-409" font-family="Helvetica,sans-Serif" font-size="10.00" fill="#000000">&#45;product:Product</text>
<polygon fill="none" stroke="#000000" points="69,-340 69,-396 187,-396 187,-340 69,-340"/>
<text text-anchor="start" x="79.5155" y="-377" font-family="Helvetica,sans-Serif" font-size="10.00" fill="#000000">+buildPartA():boolean</text>
<text text-anchor="start" x="79.5155" y="-365" font-family="Helvetica,sans-Serif" font-size="10.00" fill="#000000">+buildPartB():boolean</text>
<text text-anchor="start" x="78.9595" y="-353" font-family="Helvetica,sans-Serif" font-size="10.00" fill="#000000">+getProduct():Product</text>
</g>
<!-- A2&#45;&gt;A3 -->
<g id="edge5" class="edge">
<title>A2&#45;&gt;A3</title>
<path fill="none" stroke="#000000" d="M113.2087,-497.7511C114.5683,-488.7661 115.9949,-479.3383 117.4033,-470.0306"/>
<polygon fill="none" stroke="#000000" points="113.2022,-497.7946 116.2595,-504.3255 111.4068,-509.6595 108.3495,-503.1286 113.2022,-497.7946"/>
<polygon fill="#000000" stroke="#000000" points="118.9204,-460.0045 121.8735,-470.5653 118.1723,-464.9482 117.4242,-469.892 117.4242,-469.892 117.4242,-469.892 118.1723,-464.9482 112.9748,-469.2187 118.9204,-460.0045 118.9204,-460.0045"/>
</g>
<!-- A3&#45;&gt;A5 -->
<g id="edge4" class="edge">
<title>A3&#45;&gt;A5</title>
<path fill="none" stroke="#000000" stroke-dasharray="5,2" d="M152.3319,-330.1011C157.0174,-316.6409 161.8272,-302.8236 166.2075,-290.2402"/>
<polygon fill="none" stroke="#000000" points="148.9322,-329.2214 148.95,-339.8162 155.5431,-331.5227 148.9322,-329.2214"/>
</g>
<!-- A4 -->
<g id="node5" class="node">
<title>A4</title>
<polygon fill="none" stroke="#000000" points="133,-112 133,-144 233,-144 233,-112 133,-112"/>
<text text-anchor="start" x="165.773" y="-125" font-family="Helvetica,sans-Serif" font-size="10.00" fill="#000000">Product</text>
<polygon fill="none" stroke="#000000" points="133,-68 133,-112 233,-112 233,-68 133,-68"/>
<text text-anchor="start" x="154.9415" y="-93" font-family="Helvetica,sans-Serif" font-size="10.00" fill="#000000">&#45;partA:String</text>
<text text-anchor="start" x="154.9415" y="-81" font-family="Helvetica,sans-Serif" font-size="10.00" fill="#000000">&#45;partB:String</text>
<polygon fill="none" stroke="#000000" points="133,0 133,-68 233,-68 233,0 133,0"/>
<text text-anchor="start" x="142.854" y="-49" font-family="Helvetica,sans-Serif" font-size="10.00" fill="#000000">+getPartA():String</text>
<text text-anchor="start" x="147.022" y="-37" font-family="Helvetica,sans-Serif" font-size="10.00" fill="#000000">+setPartA():void</text>
<text text-anchor="start" x="142.854" y="-25" font-family="Helvetica,sans-Serif" font-size="10.00" fill="#000000">+getPartB():String</text>
<text text-anchor="start" x="147.022" y="-13" font-family="Helvetica,sans-Serif" font-size="10.00" fill="#000000">+setPartB():void</text>
</g>
<!-- A5&#45;&gt;A4 -->
<g id="edge1" class="edge">
<title>A5&#45;&gt;A4</title>
<path fill="none" stroke="#000000" stroke-dasharray="5,2" d="M183,-193.7395C183,-181.4584 183,-167.9103 183,-154.4475"/>
<polygon fill="#000000" stroke="#000000" points="183,-144.1916 187.5001,-154.1915 183,-149.1916 183.0001,-154.1916 183.0001,-154.1916 183.0001,-154.1916 183,-149.1916 178.5001,-154.1916 183,-144.1916 183,-144.1916"/>
</g>
</g>
</svg>
